<?xml version="1.0" encoding="UTF-8"?>
<svg width="28px" height="28px" viewBox="0 0 28 28" version="1.1" xmlns="http://www.w3.org/2000/svg" xmlns:xlink="http://www.w3.org/1999/xlink">
    <!-- Generator: Sketch 51.2 (57519) - http://www.bohemiancoding.com/sketch -->
    <title>clear</title>
    <desc>Created with Sketch.</desc>
    <defs></defs>
    <g id="Page-1" stroke="none" stroke-width="1" fill="none" fill-rule="evenodd">
        <g id="clear" fill="#FFFFFF" fill-rule="nonzero">
            <path d="M26.6,1.42 C25.82,0.64 24.56,0.64 23.78,1.42 L14,11.18 L4.22,1.4 C3.44,0.62 2.18,0.62 1.4,1.4 C0.62,2.18 0.62,3.44 1.4,4.22 L11.18,14 L1.4,23.78 C0.62,24.56 0.62,25.82 1.4,26.6 C2.18,27.38 3.44,27.38 4.22,26.6 L14,16.82 L23.78,26.6 C24.56,27.38 25.82,27.38 26.6,26.6 C27.38,25.82 27.38,24.56 26.6,23.78 L16.82,14 L26.6,4.22 C27.36,3.46 27.36,2.18 26.6,1.42 Z" id="Shape"></path>
        </g>
    </g>
</svg>