<?xml version="1.0" encoding="UTF-8"?>
<svg width="27px" height="26px" viewBox="0 0 27 26" version="1.1" xmlns="http://www.w3.org/2000/svg" xmlns:xlink="http://www.w3.org/1999/xlink">
    <!-- Generator: Sketch 51.2 (57519) - http://www.bohemiancoding.com/sketch -->
    <title>Group 4</title>
    <desc>Created with Sketch.</desc>
    <defs></defs>
    <g id="Page-1" stroke="none" stroke-width="1" fill="none" fill-rule="evenodd">
        <g id="首頁01" transform="translate(-1570.000000, -71.000000)" fill="#FFFFFF" fill-rule="nonzero">
            <g id="Group-4" transform="translate(1570.000000, 71.000000)">
                <path d="M13.5,1.11479129 C16.8917169,1.11479129 19.6412467,3.83216284 19.6412467,7.18421053 C19.6412467,10.5362582 16.8917169,13.2536298 13.5,13.2536298 C10.1082831,13.2536298 7.35875332,10.5362582 7.35875332,7.18421053 C7.35875332,3.83216284 10.1082831,1.11479129 13.5,1.11479129 Z M13.5,0 C9.4853147,0 6.23076923,3.21648061 6.23076923,7.18421053 C6.23076923,11.1519404 9.4853147,14.3684211 13.5,14.3684211 C17.5146853,14.3684211 20.7692308,11.1519404 20.7692308,7.18421053 C20.7643966,3.21846125 17.5126812,0.00477760522 13.5,3.5204749e-15 Z" id="Shape"></path>
                <path d="M19.13625,16.877193 C22.8425,16.877193 25.875,20.4692982 25.875,24.8596491 L1.125,24.8596491 C1.125,20.4743665 4.1575,16.8873294 7.86375,16.8873294 L19.13625,16.8873294 L19.13625,16.877193 Z M19.13625,15.7469786 L7.86375,15.7469786 C3.5275,15.7368421 0,19.8294347 0,24.8596491 C0,25.4894475 0.503679656,26 1.125,26 L25.875,26 C26.4963203,26 27,25.4894475 27,24.8596491 C27,19.8294347 23.4725,15.7368421 19.13625,15.7368421 L19.13625,15.7469786 Z" id="Shape"></path>
            </g>
        </g>
    </g>
</svg>