<?xml version="1.0" encoding="UTF-8"?>
<svg width="278px" height="101px" viewBox="0 0 278 101" version="1.1" xmlns="http://www.w3.org/2000/svg" xmlns:xlink="http://www.w3.org/1999/xlink">
    <!-- Generator: Sketch 50.2 (55047) - http://www.bohemiancoding.com/sketch -->
    <title>Artboard 4</title>
    <desc>Created with Sketch.</desc>
    <defs></defs>
    <g id="Artboard-4" stroke="none" stroke-width="1" fill="none" fill-rule="evenodd">
        <rect id="Rectangle-14" fill="#FAE39C" x="59" y="12" width="218" height="77" rx="8"></rect>
        <g id="teaching" transform="translate(-1.000000, -1.000000)">
            <g id="Group" transform="translate(0.000000, 9.000000)" fill-rule="nonzero">
                <g transform="translate(0.014433, 0.226917)" fill="#D1D4D1">
                    <path d="M7.50123622,19.0959821 C7.03208606,19.0962266 6.57572867,18.9443782 6.2012942,18.6639109 L3.31701708,16.5138249 C1.10042405,14.860853 -0.0971758324,12.1852881 0.151053066,9.44223509 C0.399527979,6.69918205 2.05865156,4.27914318 4.53651228,3.04601638 L10.0061586,0.328882719 C10.7004122,-0.0183391851 11.5284979,0.029831741 12.1774849,0.455056312 C12.8264718,0.880280883 13.1974621,1.61751612 13.1502273,2.38849546 C13.1029924,3.1594748 12.6449129,3.84682746 11.9489372,4.19062605 L6.47904487,6.90775971 C5.23913045,7.51833231 4.45680349,8.77664493 4.46221582,10.1518393 C4.46295386,11.2952263 5.00295627,12.3721033 5.92132939,13.0609231 L8.80560651,15.2110091 C9.55349139,15.7685204 9.85830369,16.7392746 9.56234792,17.6207781 C9.26639216,18.5022816 8.43609233,19.0964712 7.50123622,19.0959821 Z" id="Shape"></path>
                    <path d="M14.4533675,19.0959821 C13.5185114,19.0964712 12.6882115,18.5022816 12.3922558,17.6207781 C12.0963,16.7392746 12.4011123,15.7685204 13.1489972,15.2110091 L16.0332743,13.0609231 C17.044887,12.3051041 17.5912858,11.0829808 17.477627,9.83004772 C17.3639682,8.5771146 16.6067347,7.47187304 15.4755588,6.90775971 L10.0059125,4.19062605 C9.30993677,3.84682746 8.85185728,3.1594748 8.80462245,2.38849546 C8.75738761,1.61751612 9.12837788,0.880036361 9.77736483,0.455056312 C10.4263518,0.029831741 11.2541915,-0.0180946626 11.9486912,0.328882719 L17.4183374,3.04601638 C19.8961982,4.27914318 21.5553217,6.69893752 21.8037966,9.44223509 C22.0522716,12.1852881 20.8544257,14.860853 18.6378326,16.5138249 L15.7535555,18.6639109 C15.378875,18.9443782 14.9225176,19.0959821 14.4533675,19.0959821 Z" id="Shape"></path>
                    <path d="M110.876395,75.6501165 C109.998122,75.649872 109.206446,75.1239042 108.87039,74.3174691 C108.534334,73.511034 108.720075,72.5828267 109.341017,71.9654074 L112.293194,69.0311378 C112.821633,68.5054145 113.094464,67.7779602 113.041571,67.0368126 C112.988677,66.295665 112.614981,65.6136918 112.017411,65.1674383 L108.704822,62.698984 C108.084373,62.236592 107.759142,61.480284 107.851643,60.7149287 C107.944145,59.9495734 108.440603,59.2915634 109.153799,58.9886001 C109.866996,58.6856368 110.688685,58.7839348 111.309135,59.2463268 L114.62197,61.7147811 C116.36154,63.0168632 117.386683,65.0539799 117.39185,67.2184928 C117.397508,69.044342 116.667336,70.79659 115.364442,72.0837563 L112.412265,75.0180259 C112.004864,75.4231997 111.452315,75.6508501 110.876395,75.6501165 Z" id="Shape"></path>
                    <path d="M102.189367,75.6501165 C101.613201,75.6508501 101.060652,75.4231997 100.653989,75.0177814 L97.701812,72.0835118 C96.3986718,70.7963455 95.6684999,69.044342 95.6741583,67.2184928 C95.6790786,65.0539799 96.7042221,63.0168632 98.4440385,61.7145366 L101.756873,59.2460822 C102.716085,58.5313431 104.076793,58.7247603 104.795894,59.6781534 C105.514995,60.6315465 105.320397,61.9840003 104.361186,62.6987395 L101.048351,65.1671938 C100.450535,65.6134473 100.077085,66.2954205 100.024191,67.0365681 C99.9712982,67.7777157 100.244375,68.50517 100.772568,69.0308933 L103.724745,71.9654074 C104.345687,72.5828267 104.531428,73.511034 104.195372,74.3174691 C103.859316,75.1241487 103.06764,75.6501165 102.189367,75.6501165 Z" id="Shape"></path>
                    <rect id="Rectangle-path" x="6.63403417" y="19.5280533" width="8.68678137" height="19.426821"></rect>
                    <rect id="Rectangle-path" x="102.189367" y="38.9548743" width="8.68678137" height="19.426821"></rect>
                    <polygon id="Shape" points="89.1591953 26.1548567 106.532758 34.6378302 102.84106 41.2431156 102.189367 40.8760873 86.9873769 34.0981691"></polygon>
                    <polygon id="Shape" points="28.3509876 26.1548567 10.9774249 34.6378302 15.3208155 40.8760873 30.522806 34.0981691"></polygon>
                </g>
                <path d="M34.8806295,17.5963258 C30.0830956,17.5963258 26.1938481,22.4283343 26.1938481,28.3890585 C26.1938481,34.3497827 30.0830956,39.1817912 34.8806295,39.1817912 L82.6584191,39.1817912 C87.455953,39.1817912 91.3452005,34.3497827 91.3452005,28.3890585 C91.3452005,22.4283343 87.455953,17.5963258 82.6584191,17.5963258 L34.8806295,17.5963258 Z" id="Shape" fill="#A5A5A4"></path>
                <path d="M67.4564287,71.5599892 L67.4564287,86.669766 C67.4586428,88.3877809 66.7729997,90.0363514 65.5507983,91.251139 C64.3285969,92.4659266 62.6699654,93.1476552 60.9414657,93.14521 L56.6632689,93.14521 C53.066287,93.1422758 50.151012,90.2446845 50.1480598,86.6695215 L50.1480598,71.5597447 L67.456434,71.5597447 L67.4564287,71.5599892 Z" id="Shape" fill="#2C3E50"></path>
                <g transform="translate(49.955430, 82.141944)" fill="#2C2F38" id="Shape">
                    <path d="M6.64239867,2.36942271 C6.63895446,3.56024713 5.66867223,4.52464374 4.47058032,4.52806706 L0.192383547,4.52806706 L0.192383547,0.21102289 L4.47058032,0.21102289 C5.66867223,0.214201682 6.63895446,1.17859829 6.64239867,2.36942271 Z"></path>
                    <path d="M17.5009984,0.210778367 L17.5009984,4.52782253 L13.1576077,4.52782253 C11.9582857,4.52782253 10.9857894,3.56146974 10.9857894,2.36917819 C10.9857894,1.17688664 11.9580397,0.210533845 13.1576077,0.210533845 L17.5009984,0.210533845 L17.5009984,0.210778367 Z"></path>
                </g>
            </g>
            <g id="Group" transform="translate(52.000000, 12.000000)" stroke="#000000" stroke-linecap="round" stroke-linejoin="round" stroke-width="2">
                <path d="M2.44586667,0.0580185185 L0.0906666667,2.18327778" id="Shape"></path>
                <path d="M11.8608,2.18327778 L0.092,12.8090926" id="Shape"></path>
            </g>
            <g id="Group" transform="translate(5.000000, 0.000000)" fill-rule="nonzero">
                <ellipse id="Oval" fill="#A5A5A4" cx="102.463962" cy="47.8146326" rx="6.52544262" ry="6.51668745"></ellipse>
                <path d="M54.6113733,2.19831263 C67.8256226,2.19831263 78.5376677,12.8962315 78.5376677,26.0925052 L78.5376677,71.7088252 C78.5376677,78.9068821 72.6947564,84.7422 65.4867825,84.7422 L43.7357178,84.7422 C36.5279903,84.7422 30.6848325,78.9071281 30.6848325,71.7088252 L30.6848325,26.0925052 C30.6848325,12.8962315 41.3971241,2.19831263 54.6113733,2.19831263 Z" id="Shape" fill="#F4F4F4"></path>
                <path d="M54.6113733,2.19831263 C63.0203066,2.19831263 69.8372418,9.00610159 69.8372418,17.4037526 L69.8372418,30.4371275 C69.8372418,32.8365618 67.8894405,34.7815038 65.4870289,34.7815038 L43.7357178,34.7815038 C41.3330598,34.7815038 39.3855048,32.8365618 39.3855048,30.4371275 L39.3855048,17.4037526 C39.3855048,9.00610159 46.2021936,2.19831263 54.6113733,2.19831263 Z" id="Shape" fill="#35495E"></path>
                <g transform="translate(0.199092, 21.654868)" fill="#A5A5A4" id="Oval">
                    <ellipse cx="6.55944598" cy="26.1597645" rx="6.52544262" ry="6.51668745"></ellipse>
                    <ellipse cx="6.55944598" cy="6.6099482" rx="6.52544262" ry="6.51668745"></ellipse>
                </g>
                <path d="M6.75853814,17.4037526 C6.18146656,17.4039987 5.6280495,17.1753991 5.22000913,16.7679062 C4.81196877,16.3604133 4.58306207,15.8077388 4.58330847,15.2314415 L4.58330847,2.19806656 C4.58330847,0.998472432 5.55708596,0.0257553885 6.75853814,0.0257553885 C7.95974392,0.0257553885 8.93376781,0.998226362 8.93376781,2.19806656 L8.93376781,15.2314415 C8.93401421,15.8077388 8.70510751,16.3604133 8.29706715,16.7679062 C7.88878038,17.1753991 7.33536332,17.4039987 6.75853814,17.4037526 Z" id="Shape" fill="#F0C419"></path>
                <path d="M48.0874091,17.4035066 C47.1286621,17.4042448 46.282274,16.7779951 46.0040871,15.8618743 C45.7259002,14.9455074 46.0812107,13.9553194 46.8788113,13.424053 L53.4042539,9.07967669 C54.0508106,8.64290139 54.8821682,8.58556695 55.5826868,8.92957363 C56.2832054,9.27358032 56.745454,9.96602296 56.793995,10.7438521 C56.8425361,11.5216812 56.4697311,12.2662908 55.8175071,12.6942076 L49.2920645,17.0385839 C48.9350292,17.2762881 48.5159008,17.4032605 48.0874091,17.4035066 Z" id="Shape" fill="#3F5C6C"></path>
                <ellipse id="Oval" fill="#A5A5A4" cx="102.463962" cy="67.3646949" rx="6.52544262" ry="6.51668745"></ellipse>
            </g>
        </g>
    </g>
</svg>