<?xml version="1.0" encoding="UTF-8"?>
<svg width="38px" height="38px" viewBox="0 0 38 38" version="1.1" xmlns="http://www.w3.org/2000/svg" xmlns:xlink="http://www.w3.org/1999/xlink">
    <!-- Generator: Sketch 50.2 (55047) - http://www.bohemiancoding.com/sketch -->
    <title>image</title>
    <desc>Created with Sketch.</desc>
    <defs></defs>
    <g id="Page-3" stroke="none" stroke-width="1" fill="none" fill-rule="evenodd">
        <g id="Artboard-4" transform="translate(-783.000000, -76.000000)" fill-rule="nonzero">
            <g id="Group" transform="translate(157.000000, 29.000000)">
                <g id="image" transform="translate(626.000000, 47.000000)">
                    <rect id="Rectangle-path" fill="#000000" opacity="0" x="0" y="0" width="38" height="38"></rect>
                    <path d="M15.363875,26.198625 C13.59925,26.198625 10.837125,19.220875 9.5,22.042375 C8.94425,23.215625 8.018,25.7165 7.125,27.718625 L7.125,28.5 C7.125,29.8116763 8.18832372,30.875 9.5,30.875 L28.5,30.875 C29.813375,30.875 30.875,29.813375 30.875,28.5 L30.875,27.39325 C29.533125,24.37225 27.794625,19.36575 26.125,17.442 C22.70975,13.509 18.6295,26.198625 15.363875,26.198625 Z M30.875,0 L7.125,0 C3.18997116,-2.40951024e-16 4.81902048e-16,3.18997116 0,7.125 L0,30.875 C0,34.808 3.189625,38 7.125,38 L30.875,38 C34.808,38 38,34.808 38,30.875 L38,7.125 C38,3.189625 34.808,0 30.875,0 Z M33.25,30.875 C33.25,32.188375 32.188375,33.25 30.875,33.25 L7.125,33.25 C5.81332372,33.25 4.75,32.1866763 4.75,30.875 L4.75,7.125 C4.75,5.814 5.814,4.75 7.125,4.75 L30.875,4.75 C32.1866763,4.75 33.25,5.81332372 33.25,7.125 L33.25,30.875 Z M10.6875,14.25 C12.656375,14.25 14.25,12.656375 14.25,10.6875 C14.25,8.718625 12.656375,7.125 10.6875,7.125 C8.718625,7.125 7.125,8.718625 7.125,10.6875 C7.125,12.656375 8.718625,14.25 10.6875,14.25 Z" id="Shape" fill="#84AACE"></path>
                </g>
            </g>
        </g>
    </g>
</svg>