<?xml version="1.0" encoding="UTF-8"?>
<svg width="1466px" height="537px" viewBox="0 0 1466 537" version="1.1" xmlns="http://www.w3.org/2000/svg" xmlns:xlink="http://www.w3.org/1999/xlink">
    <!-- Generator: Sketch 50.2 (55047) - http://www.bohemiancoding.com/sketch -->
    <title>Artboard 4</title>
    <desc>Created with Sketch.</desc>
    <defs>
        <rect id="path-1" x="0" y="0" width="1154" height="454" rx="10"></rect>
        <filter x="-1.2%" y="-2.8%" width="102.5%" height="106.4%" filterUnits="objectBoundingBox" id="filter-2">
            <feMorphology radius="1.5" operator="dilate" in="SourceAlpha" result="shadowSpreadOuter1"></feMorphology>
            <feOffset dx="1" dy="2" in="shadowSpreadOuter1" result="shadowOffsetOuter1"></feOffset>
            <feGaussianBlur stdDeviation="3" in="shadowOffsetOuter1" result="shadowBlurOuter1"></feGaussianBlur>
            <feColorMatrix values="0 0 0 0 0.776360544   0 0 0 0 0.776360544   0 0 0 0 0.776360544  0 0 0 0.5 0" type="matrix" in="shadowBlurOuter1"></feColorMatrix>
        </filter>
    </defs>
    <g id="Artboard-4" stroke="none" stroke-width="1" fill="none" fill-rule="evenodd">
        <g id="Group" transform="translate(157.000000, 29.000000)">
            <g id="Rectangle-5">
                <use fill="black" fill-opacity="1" filter="url(#filter-2)" xlink:href="#path-1"></use>
                <use fill="#FFFFFF" fill-rule="evenodd" xlink:href="#path-1"></use>
            </g>
            <path d="M371,0 L371,454 L10,454 C4.4771525,454 6.76353751e-16,449.522847 0,444 L0,10 C-6.76353751e-16,4.4771525 4.4771525,1.01453063e-15 10,0 L371,0 Z" id="Combined-Shape" fill="#F2F7FA"></path>
            <text id="你的配單" font-family="PingFangTC-Regular, PingFang TC" font-size="36" font-weight="normal" letter-spacing="-0.1800002" fill="#000000">
                <tspan x="115" y="82">你的配單</tspan>
            </text>
            <text id="選擇其他配單" font-family="PingFangTC-Medium, PingFang TC" font-size="20" font-weight="400" letter-spacing="-0.1000001" fill="#618BDA">
                <tspan x="126" y="411">選擇其他配單</tspan>
            </text>
            <text id="機殼-全漢-CMT230-CPU-Int" font-family="PingFangTC-Regular, PingFang TC" font-size="20" font-weight="normal" letter-spacing="-0.1000001" fill="#000000">
                <tspan x="46" y="147">機殼     全漢 CMT230</tspan>
                <tspan x="46" y="175">CPU     Intel i3-7100  </tspan>
                <tspan x="46" y="203">主機板  微星 B250M PRO-VDH</tspan>
                <tspan x="46" y="231">記憶體  金士頓 8G DDR4</tspan>
                <tspan x="46" y="259">硬碟     Toshiba 1TB</tspan>
                <tspan x="46" y="287">顯卡     微星 GTX1050Ti 4GT</tspan>
                <tspan x="46" y="315">電源     台達500W</tspan>
            </text>
            <circle id="Oval-2" fill="#D4D4D4" cx="436" cy="161" r="35"></circle>
            <g id="Group-4" transform="translate(415.000000, 138.000000)" fill="#FFFFFF" fill-rule="nonzero">
                <path d="M21.0113636,1.74392633 C26.2551472,1.74392633 30.5060737,5.99485281 30.5060737,11.2386364 C30.5060737,16.4824199 26.2551472,20.7333464 21.0113636,20.7333464 C15.7675801,20.7333464 11.5166536,16.4824199 11.5166536,11.2386364 C11.5166536,5.99485281 15.7675801,1.74392633 21.0113636,1.74392633 Z M21.0113636,0 C14.8044362,0 9.77272727,5.03170889 9.77272727,11.2386364 C9.77272727,17.4455638 14.8044362,22.4772727 21.0113636,22.4772727 C27.2182911,22.4772727 32.25,17.4455638 32.25,11.2386364 C32.2425261,5.0348073 27.2151927,0.00747385779 21.0113636,5.50726305e-15 Z" id="Shape"></path>
                <path d="M30.47625,27.2550505 C36.3787963,27.2550505 41.2083333,33.0698232 41.2083333,40.1767677 L1.79166667,40.1767677 C1.79166667,33.0780275 6.6212037,27.271459 12.52375,27.271459 L30.47625,27.271459 L30.47625,27.2550505 Z M30.47625,25.4254994 L12.52375,25.4254994 C5.61787037,25.4090909 0,32.0340348 0,40.1767677 C0,41.196263 0.80215649,42.0227273 1.79166667,42.0227273 L41.2083333,42.0227273 C42.1978435,42.0227273 43,41.196263 43,40.1767677 C43,32.0340348 37.3821296,25.4090909 30.47625,25.4090909 L30.47625,25.4254994 Z" id="Shape"></path>
            </g>
            <rect id="Rectangle-3" fill="#84AACE" x="921" y="357" width="162" height="66" rx="8"></rect>
            <text id="投稿" font-family="PingFangTC-Regular, PingFang TC" font-size="30" font-weight="normal" letter-spacing="9.89999962" fill="#FFFFFF">
                <tspan x="970" y="401">投</tspan>
                <tspan x="1009.9" y="401">稿</tspan>
            </text>
            <text id="撰寫評論" font-family="PingFangTC-Regular, PingFang TC" font-size="30" font-weight="normal" letter-spacing="-0.1500002" fill="#84AACE">
                <tspan x="458" y="76">撰寫評論</tspan>
            </text>
            <text id="在此寫下您的評論" font-family="PingFangTC-Regular, PingFang TC" font-size="30" font-weight="normal" letter-spacing="-0.1500002" fill="#9B9B9B">
                <tspan x="515" y="170">在此寫下您的評論</tspan>
            </text>
            <text id="上傳照片" font-family="PingFangTC-Regular, PingFang TC" font-size="30" font-weight="normal" letter-spacing="-0.1500002" fill="#84AACE">
                <tspan x="683" y="76">上傳照片</tspan>
            </text>
            <path d="M402,106 L1128,106" id="Line-3" stroke="#F0F0F0" stroke-width="3" stroke-linecap="square"></path>
            <g id="edit" transform="translate(406.000000, 47.000000)" fill-rule="nonzero">
                <rect id="Rectangle-path" fill="#000000" opacity="0" x="0" y="0" width="37.9259259" height="38"></rect>
                <path d="M15.5419498,24.9808062 C14.607419,24.9836481 13.7463364,24.4736292 13.2983003,23.6518935 C12.8502642,22.8301579 12.8871892,21.8286026 13.3945126,21.0422265 L16.4154836,16.2284069 L16.7430588,15.790787 L31.7751196,0.765834945 C32.2543959,0.275920334 32.9103014,-9.79970106e-05 33.5949817,1.51282611e-08 C34.2796621,-9.79870376e-05 34.9355676,0.275920343 35.4148438,0.765834945 L37.2347059,2.58925144 C37.723802,3.06940174 37.9994194,3.72659605 37.9994194,4.41266795 C37.9994194,5.09873984 37.723802,5.75593416 37.2347059,6.23608446 L22.2026451,21.2610365 L21.8386726,21.6257198 L16.8886477,24.5067179 C16.4940021,24.7900859 16.0267635,24.9545715 15.5419498,24.9808062 Z" id="Shape" fill="#84AACE"></path>
                <path d="M28.0989982,38 L8.044118,38 C3.6158305,38.0000454 0.0203651019,34.4138584 0.000327592593,29.9769674 L0.000327592593,9.91938581 C-0.0190933898,7.769264 0.819793595,5.70051103 2.33040702,4.17324977 C3.84102044,2.64598851 5.89809958,1.78686014 8.044118,1.78694818 L19.327263,1.78694818 C20.7343779,1.78694818 21.8750699,2.92986811 21.8750699,4.33973129 C21.8750699,5.74959447 20.7343779,6.8925144 19.327263,6.8925144 L8.044118,6.8925144 C6.4441896,6.91218599 5.15197191,8.20692754 5.13233867,9.80998081 L5.13233867,29.9769674 C5.15197191,31.5800206 6.4441896,32.8747622 8.044118,32.8944338 L28.0989982,32.8944338 C29.6989266,32.8747622 30.9911443,31.5800206 31.0107776,29.9769674 L31.0107776,18.6353167 C31.0107776,17.2254535 32.1514696,16.0825336 33.5585845,16.0825336 C34.9656994,16.0825336 36.1063914,17.2254535 36.1063914,18.6353167 L36.1063914,29.9769674 C36.086463,34.3996688 32.5130784,37.9800326 28.0989982,38 Z" id="Shape" fill="#84AACE"></path>
            </g>
            <g id="image" transform="translate(626.000000, 47.000000)" fill-rule="nonzero">
                <rect id="Rectangle-path" fill="#000000" opacity="0" x="0" y="0" width="38" height="38"></rect>
                <path d="M15.363875,26.198625 C13.59925,26.198625 10.837125,19.220875 9.5,22.042375 C8.94425,23.215625 8.018,25.7165 7.125,27.718625 L7.125,28.5 C7.125,29.8116763 8.18832372,30.875 9.5,30.875 L28.5,30.875 C29.813375,30.875 30.875,29.813375 30.875,28.5 L30.875,27.39325 C29.533125,24.37225 27.794625,19.36575 26.125,17.442 C22.70975,13.509 18.6295,26.198625 15.363875,26.198625 Z M30.875,0 L7.125,0 C3.18997116,-2.40951024e-16 4.81902048e-16,3.18997116 0,7.125 L0,30.875 C0,34.808 3.189625,38 7.125,38 L30.875,38 C34.808,38 38,34.808 38,30.875 L38,7.125 C38,3.189625 34.808,0 30.875,0 Z M33.25,30.875 C33.25,32.188375 32.188375,33.25 30.875,33.25 L7.125,33.25 C5.81332372,33.25 4.75,32.1866763 4.75,30.875 L4.75,7.125 C4.75,5.814 5.814,4.75 7.125,4.75 L30.875,4.75 C32.1866763,4.75 33.25,5.81332372 33.25,7.125 L33.25,30.875 Z M10.6875,14.25 C12.656375,14.25 14.25,12.656375 14.25,10.6875 C14.25,8.718625 12.656375,7.125 10.6875,7.125 C8.718625,7.125 7.125,8.718625 7.125,10.6875 C7.125,12.656375 8.718625,14.25 10.6875,14.25 Z" id="Shape" fill="#84AACE"></path>
            </g>
            <path d="M499.5,141.5 L499.5,180.5" id="Line-4" stroke="#979797" stroke-width="3" stroke-linecap="square"></path>
        </g>
        <rect id="Rectangle-11" fill="#FAE39C" opacity="0.753571429" x="0" y="-1" width="1467" height="594"></rect>
    </g>
</svg>