<?xml version="1.0" encoding="UTF-8"?>
<svg width="673px" height="304px" viewBox="0 0 673 304" version="1.1" xmlns="http://www.w3.org/2000/svg" xmlns:xlink="http://www.w3.org/1999/xlink">
    <!-- Generator: Sketch 51.2 (57519) - http://www.bohemiancoding.com/sketch -->
    <title>Group 52</title>
    <desc>Created with Sketch.</desc>
    <defs>
        <polygon id="path-1" points="0 304 672.3 304 672.3 0.626059406 0 0.626059406"></polygon>
    </defs>
    <g id="Page-1" stroke="none" stroke-width="1" fill="none" fill-rule="evenodd">
        <g id="首頁下方" transform="translate(-206.000000, -2361.000000)">
            <g id="Group-52" transform="translate(206.000000, 2361.000000)">
                <polygon id="Fill-1" fill="#E4E9E8" points="89 304 336 304 336 1 89 1"></polygon>
                <g id="Group-51">
                    <path d="M436.251897,304 L336.119866,304 L336.119866,0.626059406 L439.672098,0.626059406 C442.775893,0.626059406 445.292076,3.13932673 445.292076,6.23952475 L445.292076,294.970297 C445.292076,299.957703 441.245089,304 436.251897,304" id="Fill-2" fill="#CED2D1"></path>
                    <mask id="mask-2" fill="white">
                        <use xlink:href="#path-1"></use>
                    </mask>
                    <g id="Clip-5"></g>
                    <polygon id="Fill-4" fill="#E4E9E8" mask="url(#mask-2)" points="347.483371 43.1409109 433.928571 43.1409109 433.928571 24.0792079 347.483371 24.0792079"></polygon>
                    <polygon id="Fill-6" fill="#E4E9E8" mask="url(#mask-2)" points="347.483371 70.7326733 433.928571 70.7326733 433.928571 51.6709703 347.483371 51.6709703"></polygon>
                    <polygon id="Fill-7" fill="#6E6E6E" mask="url(#mask-2)" points="390.705067 215.710574 390.705067 293.465347 346.007411 272.645861 346.007411 78.7600792 358.81433 78.7600792"></polygon>
                    <polygon id="Fill-8" fill="#2F3131" mask="url(#mask-2)" points="390.705067 215.710574 390.705067 293.465347 435.402723 272.645861 435.402723 78.7600792 422.595804 78.7600792"></polygon>
                    <path d="M410.794152,247.314535 C410.794152,258.39699 401.802187,267.378535 390.703862,267.378535 C379.608549,267.378535 370.616585,258.39699 370.616585,247.314535 C370.616585,236.229069 379.608549,227.247525 390.703862,227.247525 C401.802187,227.247525 410.794152,236.229069 410.794152,247.314535" id="Fill-9" fill="#5FCDDD" mask="url(#mask-2)"></path>
                    <path d="M406.729989,247.314535 C406.729989,256.154614 399.5551,263.318178 390.704766,263.318178 C381.854431,263.318178 374.679542,256.154614 374.679542,247.314535 C374.679542,238.471446 381.854431,231.307881 390.704766,231.307881 C399.5551,231.307881 406.729989,238.471446 406.729989,247.314535" id="Fill-10" fill="#31261E" mask="url(#mask-2)"></path>
                    <path d="M60.8018304,106.350337 C59.1384375,106.350337 57.7884375,105.001901 57.7884375,103.340436 C57.7884375,101.67897 59.1384375,100.330535 60.8018304,100.330535 C62.4652232,100.330535 63.8152232,101.67897 63.8152232,103.340436 C63.8152232,105.001901 62.4652232,106.350337 60.8018304,106.350337 Z M60.8018304,124.409743 C59.1384375,124.409743 57.7884375,123.061307 57.7884375,121.399842 C57.7884375,119.738376 59.1384375,118.389941 60.8018304,118.389941 C62.4652232,118.389941 63.8152232,119.738376 63.8152232,121.399842 C63.8152232,123.061307 62.4652232,124.409743 60.8018304,124.409743 Z M60.8018304,142.219327 C59.1384375,142.219327 57.7884375,140.870891 57.7884375,139.209426 C57.7884375,137.54495 59.1384375,136.199525 60.8018304,136.199525 C62.4652232,136.199525 63.8152232,137.54495 63.8152232,139.209426 C63.8152232,140.870891 62.4652232,142.219327 60.8018304,142.219327 Z M60.8018304,160.465347 C59.1384375,160.465347 57.7884375,159.116911 57.7884375,157.455446 C57.7884375,155.79398 59.1384375,154.445545 60.8018304,154.445545 C62.4652232,154.445545 63.8152232,155.79398 63.8152232,157.455446 C63.8152232,159.116911 62.4652232,160.465347 60.8018304,160.465347 Z M60.8018304,177.835485 C59.1384375,177.835485 57.7884375,176.48705 57.7884375,174.825584 C57.7884375,173.164119 59.1384375,171.815683 60.8018304,171.815683 C62.4652232,171.815683 63.8152232,173.164119 63.8152232,174.825584 C63.8152232,176.48705 62.4652232,177.835485 60.8018304,177.835485 Z M60.8018304,193.541149 C59.1384375,193.541149 57.7884375,192.195723 57.7884375,190.531248 C57.7884375,188.872792 59.1384375,187.521347 60.8018304,187.521347 C62.4652232,187.521347 63.8152232,188.872792 63.8152232,190.531248 C63.8152232,192.195723 62.4652232,193.541149 60.8018304,193.541149 Z M54.6816295,115.38004 C53.0182366,115.38004 51.6682366,114.031604 51.6682366,112.370139 C51.6682366,110.708673 53.0182366,109.360238 54.6816295,109.360238 C56.3450223,109.360238 57.6950223,110.708673 57.6950223,112.370139 C57.6950223,114.031604 56.3450223,115.38004 54.6816295,115.38004 Z M54.6816295,133.189624 C53.0182366,133.189624 51.6682366,131.841188 51.6682366,130.179723 C51.6682366,128.515248 53.0182366,127.169822 54.6816295,127.169822 C56.3450223,127.169822 57.6950223,128.515248 57.6950223,130.179723 C57.6950223,131.841188 56.3450223,133.189624 54.6816295,133.189624 Z M54.6816295,151.435644 C53.0182366,151.435644 51.6682366,150.087208 51.6682366,148.425743 C51.6682366,146.764277 53.0182366,145.415842 54.6816295,145.415842 C56.3450223,145.415842 57.6950223,146.764277 57.6950223,148.425743 C57.6950223,150.087208 56.3450223,151.435644 54.6816295,151.435644 Z M54.6816295,168.805782 C53.0182366,168.805782 51.6682366,167.457347 51.6682366,165.795881 C51.6682366,164.134416 53.0182366,162.78598 54.6816295,162.78598 C56.3450223,162.78598 57.6950223,164.134416 57.6950223,165.795881 C57.6950223,167.457347 56.3450223,168.805782 54.6816295,168.805782 Z M54.6816295,184.511446 C53.0182366,184.511446 51.6682366,183.16602 51.6682366,181.501545 C51.6682366,179.843089 53.0182366,178.491644 54.6816295,178.491644 C56.3450223,178.491644 57.6950223,179.843089 57.6950223,181.501545 C57.6950223,183.16602 56.3450223,184.511446 54.6816295,184.511446 Z M49.3750446,193.541149 C47.7116518,193.541149 46.3616518,192.195723 46.3616518,190.531248 C46.3616518,188.872792 47.7116518,187.521347 49.3750446,187.521347 C51.0384375,187.521347 52.3884375,188.872792 52.3884375,190.531248 C52.3884375,192.195723 51.0384375,193.541149 49.3750446,193.541149 Z M43.6164509,184.511446 C41.953058,184.511446 40.603058,183.16602 40.603058,181.501545 C40.603058,179.843089 41.953058,178.491644 43.6164509,178.491644 C45.2798438,178.491644 46.6298438,179.843089 46.6298438,181.501545 C46.6298438,183.16602 45.2798438,184.511446 43.6164509,184.511446 Z M37.9512723,193.541149 C36.2848661,193.541149 34.9378795,192.195723 34.9378795,190.531248 C34.9378795,188.872792 36.2848661,187.521347 37.9512723,187.521347 C39.6146652,187.521347 40.9646652,188.872792 40.9646652,190.531248 C40.9646652,192.195723 39.6146652,193.541149 37.9512723,193.541149 Z M32.5512723,184.511446 C30.8878795,184.511446 29.5378795,183.16602 29.5378795,181.501545 C29.5378795,179.843089 30.8878795,178.491644 32.5512723,178.491644 C34.2146652,178.491644 35.5646652,179.843089 35.5646652,181.501545 C35.5646652,183.16602 34.2146652,184.511446 32.5512723,184.511446 Z M26.5244866,193.541149 C24.8610938,193.541149 23.5110938,192.195723 23.5110938,190.531248 C23.5110938,188.872792 24.8610938,187.521347 26.5244866,187.521347 C28.1878795,187.521347 29.5378795,188.872792 29.5378795,190.531248 C29.5378795,192.195723 28.1878795,193.541149 26.5244866,193.541149 Z M26.5244866,171.815683 C28.1878795,171.815683 29.5378795,173.164119 29.5378795,174.825584 C29.5378795,176.48705 28.1878795,177.835485 26.5244866,177.835485 C24.8610938,177.835485 23.5110938,176.48705 23.5110938,174.825584 C23.5110938,173.164119 24.8610938,171.815683 26.5244866,171.815683 Z M26.5244866,154.445545 C28.1878795,154.445545 29.5378795,155.79398 29.5378795,157.455446 C29.5378795,159.116911 28.1878795,160.465347 26.5244866,160.465347 C24.8610938,160.465347 23.5110938,159.116911 23.5110938,157.455446 C23.5110938,155.79398 24.8610938,154.445545 26.5244866,154.445545 Z M26.5244866,136.199525 C28.1878795,136.199525 29.5378795,137.54495 29.5378795,139.209426 C29.5378795,140.870891 28.1878795,142.219327 26.5244866,142.219327 C24.8610938,142.219327 23.5110938,140.870891 23.5110938,139.209426 C23.5110938,137.54495 24.8610938,136.199525 26.5244866,136.199525 Z M26.5244866,118.389941 C28.1878795,118.389941 29.5378795,119.738376 29.5378795,121.399842 C29.5378795,123.061307 28.1878795,124.409743 26.5244866,124.409743 C24.8610938,124.409743 23.5110938,123.061307 23.5110938,121.399842 C23.5110938,119.738376 24.8610938,118.389941 26.5244866,118.389941 Z M26.5244866,100.330535 C28.1878795,100.330535 29.5378795,101.67897 29.5378795,103.340436 C29.5378795,105.001901 28.1878795,106.350337 26.5244866,106.350337 C24.8610938,106.350337 23.5110938,105.001901 23.5110938,103.340436 C23.5110938,101.67897 24.8610938,100.330535 26.5244866,100.330535 Z M32.5512723,109.360238 C34.2146652,109.360238 35.5646652,110.708673 35.5646652,112.370139 C35.5646652,114.031604 34.2146652,115.38004 32.5512723,115.38004 C30.8878795,115.38004 29.5378795,114.031604 29.5378795,112.370139 C29.5378795,110.708673 30.8878795,109.360238 32.5512723,109.360238 Z M37.9512723,100.330535 C39.6146652,100.330535 40.9646652,101.67897 40.9646652,103.340436 C40.9646652,105.001901 39.6146652,106.350337 37.9512723,106.350337 C36.2848661,106.350337 34.9378795,105.001901 34.9378795,103.340436 C34.9378795,101.67897 36.2848661,100.330535 37.9512723,100.330535 Z M43.6164509,109.360238 C45.2798438,109.360238 46.6298438,110.708673 46.6298438,112.370139 C46.6298438,114.031604 45.2798438,115.38004 43.6164509,115.38004 C41.953058,115.38004 40.603058,114.031604 40.603058,112.370139 C40.603058,110.708673 41.953058,109.360238 43.6164509,109.360238 Z M49.3750446,124.409743 C47.7116518,124.409743 46.3616518,123.061307 46.3616518,121.399842 C46.3616518,119.738376 47.7116518,118.389941 49.3750446,118.389941 C51.0384375,118.389941 52.3884375,119.738376 52.3884375,121.399842 C52.3884375,123.061307 51.0384375,124.409743 49.3750446,124.409743 Z M49.3750446,142.219327 C47.7116518,142.219327 46.3616518,140.870891 46.3616518,139.209426 C46.3616518,137.54495 47.7116518,136.199525 49.3750446,136.199525 C51.0384375,136.199525 52.3884375,137.54495 52.3884375,139.209426 C52.3884375,140.870891 51.0384375,142.219327 49.3750446,142.219327 Z M49.3750446,160.465347 C47.7116518,160.465347 46.3616518,159.116911 46.3616518,157.455446 C46.3616518,155.79398 47.7116518,154.445545 49.3750446,154.445545 C51.0384375,154.445545 52.3884375,155.79398 52.3884375,157.455446 C52.3884375,159.116911 51.0384375,160.465347 49.3750446,160.465347 Z M49.3750446,171.815683 C51.0384375,171.815683 52.3884375,173.164119 52.3884375,174.825584 C52.3884375,176.48705 51.0384375,177.835485 49.3750446,177.835485 C47.7116518,177.835485 46.3616518,176.48705 46.3616518,174.825584 C46.3616518,173.164119 47.7116518,171.815683 49.3750446,171.815683 Z M40.603058,165.795881 C40.603058,164.134416 41.953058,162.78598 43.6164509,162.78598 C45.2798438,162.78598 46.6298438,164.134416 46.6298438,165.795881 C46.6298438,167.457347 45.2798438,168.805782 43.6164509,168.805782 C41.953058,168.805782 40.603058,167.457347 40.603058,165.795881 Z M37.9512723,171.815683 C39.6146652,171.815683 40.9646652,173.164119 40.9646652,174.825584 C40.9646652,176.48705 39.6146652,177.835485 37.9512723,177.835485 C36.2848661,177.835485 34.9378795,176.48705 34.9378795,174.825584 C34.9378795,173.164119 36.2848661,171.815683 37.9512723,171.815683 Z M32.5512723,162.78598 C34.2146652,162.78598 35.5646652,164.134416 35.5646652,165.795881 C35.5646652,167.457347 34.2146652,168.805782 32.5512723,168.805782 C30.8878795,168.805782 29.5378795,167.457347 29.5378795,165.795881 C29.5378795,164.134416 30.8878795,162.78598 32.5512723,162.78598 Z M32.5512723,145.415842 C34.2146652,145.415842 35.5646652,146.764277 35.5646652,148.425743 C35.5646652,150.087208 34.2146652,151.435644 32.5512723,151.435644 C30.8878795,151.435644 29.5378795,150.087208 29.5378795,148.425743 C29.5378795,146.764277 30.8878795,145.415842 32.5512723,145.415842 Z M35.5646652,130.179723 C35.5646652,131.841188 34.2146652,133.189624 32.5512723,133.189624 C30.8878795,133.189624 29.5378795,131.841188 29.5378795,130.179723 C29.5378795,128.515248 30.8878795,127.169822 32.5512723,127.169822 C34.2146652,127.169822 35.5646652,128.515248 35.5646652,130.179723 Z M37.9512723,124.409743 C36.2848661,124.409743 34.9378795,123.061307 34.9378795,121.399842 C34.9378795,119.738376 36.2848661,118.389941 37.9512723,118.389941 C39.6146652,118.389941 40.9646652,119.738376 40.9646652,121.399842 C40.9646652,123.061307 39.6146652,124.409743 37.9512723,124.409743 Z M43.6164509,133.189624 C41.953058,133.189624 40.603058,131.841188 40.603058,130.179723 C40.603058,128.515248 41.953058,127.169822 43.6164509,127.169822 C45.2798438,127.169822 46.6298438,128.515248 46.6298438,130.179723 C46.6298438,131.841188 45.2798438,133.189624 43.6164509,133.189624 Z M40.603058,148.425743 C40.603058,146.764277 41.953058,145.415842 43.6164509,145.415842 C45.2798438,145.415842 46.6298438,146.764277 46.6298438,148.425743 C46.6298438,150.087208 45.2798438,151.435644 43.6164509,151.435644 C41.953058,151.435644 40.603058,150.087208 40.603058,148.425743 Z M34.9378795,139.209426 C34.9378795,137.54495 36.2848661,136.199525 37.9512723,136.199525 C39.6146652,136.199525 40.9646652,137.54495 40.9646652,139.209426 C40.9646652,140.870891 39.6146652,142.219327 37.9512723,142.219327 C36.2848661,142.219327 34.9378795,140.870891 34.9378795,139.209426 Z M37.9512723,154.445545 C39.6146652,154.445545 40.9646652,155.79398 40.9646652,157.455446 C40.9646652,159.116911 39.6146652,160.465347 37.9512723,160.465347 C36.2848661,160.465347 34.9378795,159.116911 34.9378795,157.455446 C34.9378795,155.79398 36.2848661,154.445545 37.9512723,154.445545 Z M49.3750446,100.330535 C51.0384375,100.330535 52.3884375,101.67897 52.3884375,103.340436 C52.3884375,105.001901 51.0384375,106.350337 49.3750446,106.350337 C47.7116518,106.350337 46.3616518,105.001901 46.3616518,103.340436 C46.3616518,101.67897 47.7116518,100.330535 49.3750446,100.330535 Z M0.000602678571,304.001505 L202.901384,304.001505 L202.901384,51.6724752 L0.000602678571,51.6724752 L0.000602678571,304.001505 Z" id="Fill-11" fill="#6E6E6E" mask="url(#mask-2)"></path>
                    <polygon id="Fill-12" fill="#676864" mask="url(#mask-2)" points="202.902288 51.6694653 0.00150669643 51.6694653 30.1354353 24.077703 172.768359 24.077703"></polygon>
                    <polygon id="Fill-13" fill="#2F3131" mask="url(#mask-2)" points="202.900781 304 291.922433 304 291.922433 51.6709703 202.900781 51.6709703"></polygon>
                    <polygon id="Fill-14" fill="#2F3131" mask="url(#mask-2)" points="291.922433 51.6694653 202.900781 51.6694653 172.766853 24.077703 261.788504 24.077703"></polygon>
                    <polygon id="Fill-15" fill="#4F504E" mask="url(#mask-2)" points="131.649107 79.5125545 194.427121 79.5125545 194.427121 61.7029703 131.649107 61.7029703"></polygon>
                    <polygon id="Fill-16" fill="#4F504E" mask="url(#mask-2)" points="216.024107 79.5125545 278.802121 79.5125545 278.802121 61.7029703 216.024107 61.7029703"></polygon>
                    <polygon id="Fill-17" fill="#4F504E" mask="url(#mask-2)" points="216.024107 103.338931 278.802121 103.338931 278.802121 85.5293465 216.024107 85.5293465"></polygon>
                    <polygon id="Fill-18" fill="#4F504E" mask="url(#mask-2)" points="216.024107 127.168317 278.802121 127.168317 278.802121 109.358733 216.024107 109.358733"></polygon>
                    <polygon id="Fill-19" fill="#4F504E" mask="url(#mask-2)" points="131.649107 103.338931 194.427121 103.338931 194.427121 85.5293465 131.649107 85.5293465"></polygon>
                    <polygon id="Fill-20" fill="#4F504E" mask="url(#mask-2)" points="131.649107 127.168317 194.427121 127.168317 194.427121 109.358733 131.649107 109.358733"></polygon>
                    <polygon id="Fill-21" fill="#4F504E" mask="url(#mask-2)" points="131.649107 150.997703 194.427121 150.997703 194.427121 133.188119 131.649107 133.188119"></polygon>
                    <polygon id="Fill-22" fill="#140D04" mask="url(#mask-2)" points="89.0186384 82.3328317 124.929241 82.3328317 124.929241 79.5125545 89.0186384 79.5125545"></polygon>
                    <polygon id="Fill-23" fill="#523200" mask="url(#mask-2)" points="89.0186384 79.6991683 124.929241 79.6991683 124.929241 76.8788911 89.0186384 76.8788911"></polygon>
                    <polygon id="Fill-24" fill="#523200" mask="url(#mask-2)" points="89.0186384 76.8758812 124.929241 76.8758812 124.929241 74.055604 89.0186384 74.055604"></polygon>
                    <polygon id="Fill-25" fill="#FFD67F" mask="url(#mask-2)" points="89.0186384 74.055604 124.929241 74.055604 124.929241 71.2353267 89.0186384 71.2353267"></polygon>
                    <polygon id="Fill-26" fill="#69441C" mask="url(#mask-2)" points="89.0186384 71.2323168 124.929241 71.2323168 124.929241 68.4120396 89.0186384 68.4120396"></polygon>
                    <polygon id="Fill-27" fill="#11457F" mask="url(#mask-2)" points="97.5585937 85.5308515 97.5585937 94.4341386 68.68125 94.4341386 68.68125 265.372436 124.929241 265.372436 124.929241 85.5308515"></polygon>
                    <polygon id="Fill-28" fill="#D5DCEA" mask="url(#mask-2)" points="20.7622768 94.4326337 97.5736607 94.4326337 97.5736607 64.965703 20.7622768 64.965703"></polygon>
                    <polygon id="Fill-29" fill="#E4EEF3" mask="url(#mask-2)" points="68.68125 112.371644 79.4179687 112.371644 79.4179687 101.647366 68.68125 101.647366"></polygon>
                    <polygon id="Fill-30" fill="#E4EEF3" mask="url(#mask-2)" points="68.68125 127.168317 79.4179687 127.168317 79.4179687 115.191921 68.68125 115.191921"></polygon>
                    <polygon id="Fill-31" fill="#E4EEF3" mask="url(#mask-2)" points="68.68125 147.73497 79.4179687 147.73497 79.4179687 130.241426 68.68125 130.241426"></polygon>
                    <polygon id="Fill-32" fill="#E4EEF3" mask="url(#mask-2)" points="68.68125 172.566653 76.4045759 172.566653 76.4045759 152.249822 68.68125 152.249822"></polygon>
                    <polygon id="Fill-33" fill="#B1918B" mask="url(#mask-2)" points="71.9537946 199.42099 80.8523438 199.42099 80.8523438 190.532752 71.9537946 190.532752"></polygon>
                    <polygon id="Fill-34" fill="#C0D45A" mask="url(#mask-2)" points="71.9537946 222.934337 80.8523438 222.934337 80.8523438 214.046099 71.9537946 214.046099"></polygon>
                    <polygon id="Fill-35" fill="#516480" mask="url(#mask-2)" points="71.9537946 249.647208 80.8523438 249.647208 80.8523438 240.75897 71.9537946 240.75897"></polygon>
                    <polygon id="Fill-36" fill="#4396C1" mask="url(#mask-2)" points="91.278683 198.403644 124.929241 198.403644 124.929241 190.532752 91.278683 190.532752"></polygon>
                    <polygon id="Fill-37" fill="#C5D25F" mask="url(#mask-2)" points="91.278683 214.046099 124.929241 214.046099 124.929241 206.178218 91.278683 206.178218"></polygon>
                    <polygon id="Fill-38" fill="#4396C1" mask="url(#mask-2)" points="91.278683 229.694574 124.929241 229.694574 124.929241 221.826693 91.278683 221.826693"></polygon>
                    <polygon id="Fill-39" fill="#B1918B" mask="url(#mask-2)" points="91.278683 245.34004 124.929241 245.34004 124.929241 237.469149 91.278683 237.469149"></polygon>
                    <polygon id="Fill-40" fill="#4C4D3D" mask="url(#mask-2)" points="91.9717634 175.453149 110.932031 175.453149 110.932031 121.178614 91.9717634 121.178614"></polygon>
                    <polygon id="Fill-41" fill="#4C4D3D" mask="url(#mask-2)" points="101.448884 107.008 124.929241 107.008 124.929241 91.2541782 101.448884 91.2541782"></polygon>
                    <polygon id="Fill-42" fill="#C5D25F" mask="url(#mask-2)" points="190.093862 33.1089109 198.883929 33.1089109 198.883929 27.8415842 190.093862 27.8415842"></polygon>
                    <polygon id="Fill-43" fill="#B1918B" mask="url(#mask-2)" points="198.507254 42.6412673 207.297321 42.6412673 207.297321 37.3739406 198.507254 37.3739406"></polygon>
                    <path d="M252.873382,246.903081 L252.873382,192.131913 C252.873382,188.821022 250.161328,186.112111 246.846596,186.112111 C243.531864,186.112111 240.81981,188.821022 240.81981,192.131913 L240.81981,246.903081 C235.287221,249.247794 231.402958,254.725814 231.402958,261.109814 C231.402958,269.627834 238.318694,276.535556 246.846596,276.535556 C255.377511,276.535556 262.290234,269.627834 262.290234,261.109814 C262.290234,254.725814 258.408984,249.247794 252.873382,246.903081" id="Fill-44" fill="#5FCDDD" mask="url(#mask-2)"></path>
                    <path d="M224.686105,262.111208 C224.686105,264.501069 222.74548,266.436436 220.355859,266.436436 C217.963225,266.436436 216.0226,264.501069 216.0226,262.111208 C216.0226,259.721347 217.963225,257.78598 220.355859,257.78598 C222.74548,257.78598 224.686105,259.721347 224.686105,262.111208" id="Fill-45" fill="#B1918B" mask="url(#mask-2)"></path>
                    <polygon id="Fill-46" fill="#495155" mask="url(#mask-2)" points="445.292076 270.891089 672.3 270.891089 672.3 72.2376238 445.292076 72.2376238"></polygon>
                    <polygon id="Fill-47" fill="#495155" mask="url(#mask-2)" points="445.292076 304 598.471875 304 598.471875 290.958099 445.292076 290.958099"></polygon>
                    <polygon id="Fill-48" fill="#303137" mask="url(#mask-2)" points="465.882589 290.958099 552.767746 290.958099 552.767746 270.891089 465.882589 270.891089"></polygon>
                    <polygon id="Fill-49" fill="#E5E4F9" mask="url(#mask-2)" points="445.292076 251.576554 657.736272 251.576554 657.736272 85.5293465 445.292076 85.5293465"></polygon>
                    <polygon id="Fill-50" fill="#FEFFFD" mask="url(#mask-2)" points="657.734766 222.732673 657.734766 84.5270495 521.881975 84.5270495"></polygon>
                </g>
            </g>
        </g>
    </g>
</svg>