<?xml version="1.0" encoding="UTF-8"?>
<svg width="673px" height="332px" viewBox="0 0 673 332" version="1.1" xmlns="http://www.w3.org/2000/svg" xmlns:xlink="http://www.w3.org/1999/xlink">
    <!-- Generator: Sketch 51.2 (57519) - http://www.bohemiancoding.com/sketch -->
    <title>Group 53</title>
    <desc>Created with Sketch.</desc>
    <defs>
        <polygon id="path-1" points="0 332 673 332 673 0 0 0"></polygon>
    </defs>
    <g id="Page-1" stroke="none" stroke-width="1" fill="none" fill-rule="evenodd">
        <g id="首頁下方" transform="translate(-1080.000000, -1981.000000)">
            <g id="Group-53" transform="translate(1080.000000, 1981.000000)">
                <path d="M71.7010309,233 L35.2989691,233 C15.8845361,233 0,217.115464 0,197.701031 L0,161.298969 C0,141.884536 15.8845361,126 35.2989691,126 L71.7010309,126 C91.1154639,126 107,141.884536 107,161.298969 L107,197.701031 C107,217.115464 91.1154639,233 71.7010309,233" id="Fill-1" fill="#F5F4FC"></path>
                <path d="M91,179.5 C91,199.659918 74.6599184,216 54.5,216 C34.3400816,216 18,199.659918 18,179.5 C18,159.340082 34.3400816,143 54.5,143 C74.6599184,143 91,159.340082 91,179.5" id="Fill-3" fill="#B7ADAC"></path>
                <path d="M77,179 C77,191.704173 66.701888,202 54.001472,202 C41.298112,202 31,191.704173 31,179 C31,166.295827 41.298112,156 54.001472,156 C66.701888,156 77,166.295827 77,179" id="Fill-5" fill="#F4EFEB"></path>
                <path d="M72,180 C72,189.941878 63.9418776,198 54,198 C44.0581224,198 36,189.941878 36,180 C36,170.058122 44.0581224,162 54,162 C63.9418776,162 72,170.058122 72,180" id="Fill-7" fill="#676B97"></path>
                <mask id="mask-2" fill="white">
                    <use xlink:href="#path-1"></use>
                </mask>
                <g id="Clip-10"></g>
                <polygon id="Fill-9" fill="#AEB5B5" mask="url(#mask-2)" points="39 245 67 245 67 233 39 233"></polygon>
                <path d="M93.2716426,274 L13.7254158,274 C6.17731959,274 0,267.699775 0,259.9985 C0,252.300225 6.17731959,246 13.7254158,246 L93.2716426,246 C100.82268,246 107,252.300225 107,259.9985 C107,267.699775 100.82268,274 93.2716426,274" id="Fill-11" fill="#F5F4FC" mask="url(#mask-2)"></path>
                <polygon id="Fill-12" fill="#E8D4D5" mask="url(#mask-2)" points="256 216 323 216 323 20 256 20"></polygon>
                <polygon id="Fill-13" fill="#7F6D6C" mask="url(#mask-2)" points="126 89 256 89 256 20 126 20"></polygon>
                <polygon id="Fill-14" fill="#B29EA0" mask="url(#mask-2)" points="126 216 256 216 256 90 126 90"></polygon>
                <polygon id="Fill-15" fill="#B29EA0" mask="url(#mask-2)" points="150 78 232 78 232 28 150 28"></polygon>
                <path d="M182,46 C182,52.6269091 176.626909,58 170,58 C163.373091,58 158,52.6269091 158,46 C158,39.3730909 163.373091,34 170,34 C176.626909,34 182,39.3730909 182,46" id="Fill-16" fill="#645C5F" mask="url(#mask-2)"></path>
                <polygon id="Fill-17" fill="#645C5F" mask="url(#mask-2)" points="268 41 273 41 273 20 268 20"></polygon>
                <polygon id="Fill-18" fill="#645C5F" mask="url(#mask-2)" points="281 41 286 41 286 20 281 20"></polygon>
                <polygon id="Fill-19" fill="#645C5F" mask="url(#mask-2)" points="293 41 298 41 298 20 293 20"></polygon>
                <polygon id="Fill-20" fill="#645C5F" mask="url(#mask-2)" points="305 41 310 41 310 20 305 20"></polygon>
                <polygon id="Fill-21" fill="#645C5F" mask="url(#mask-2)" points="151 197 156 197 156 115 151 115"></polygon>
                <polygon id="Fill-22" fill="#645C5F" mask="url(#mask-2)" points="163 197 168 197 168 115 163 115"></polygon>
                <polygon id="Fill-23" fill="#645C5F" mask="url(#mask-2)" points="176 197 181 197 181 115 176 115"></polygon>
                <polygon id="Fill-24" fill="#645C5F" mask="url(#mask-2)" points="201 197 206 197 206 115 201 115"></polygon>
                <polygon id="Fill-25" fill="#645C5F" mask="url(#mask-2)" points="188 197 193 197 193 115 188 115"></polygon>
                <polygon id="Fill-26" fill="#645C5F" mask="url(#mask-2)" points="213 197 218 197 218 115 213 115"></polygon>
                <polygon id="Fill-27" fill="#645C5F" mask="url(#mask-2)" points="226 197 231 197 231 115 226 115"></polygon>
                <polygon id="Fill-28" fill="#F8F1EE" mask="url(#mask-2)" points="179 108 203 108 203 99 179 99"></polygon>
                <path d="M523.449018,172.277875 L524.732078,172 L194.855487,172 L160,202.764342 L160,294.492748 C173.776639,294.492748 184.942812,310.624296 184.942812,330.52194 C184.942812,331.021524 184.904379,331.506328 184.889597,332 L533.107447,332 C533.092665,331.506328 533.054232,331.021524 533.054232,330.52194 C533.054232,310.624296 544.220405,294.492748 558,294.492748 L558,202.77321 L523.449018,172.277875 Z" id="Fill-29" fill="#645C5F" mask="url(#mask-2)"></path>
                <polygon id="Fill-30" fill="#A3989D" mask="url(#mask-2)" points="186 207 455 207 455 196 186 196"></polygon>
                <polygon id="Fill-31" fill="#A3989D" mask="url(#mask-2)" points="401 249 455 249 455 213 401 213"></polygon>
                <polygon id="Fill-32" fill="#A3989D" mask="url(#mask-2)" points="186 296 392 296 392 213 186 213"></polygon>
                <polygon id="Fill-33" fill="#A3989D" mask="url(#mask-2)" points="463 296 529 296 529 213 463 213"></polygon>
                <polygon id="Fill-34" fill="#A3989D" mask="url(#mask-2)" points="455 279.937853 437.532364 279.937853 437.532364 262 418.467636 262 418.467636 279.937853 401 279.937853 401 298 455 298"></polygon>
                <polygon id="Fill-35" fill="#ECF3E7" mask="url(#mask-2)" points="432 160 615 160 615 120 432 120"></polygon>
                <polygon id="Fill-36" fill="#221100" mask="url(#mask-2)" points="437 164 456 164 456 160 437 160"></polygon>
                <polygon id="Fill-37" fill="#221100" mask="url(#mask-2)" points="590 164 609 164 609 160 590 160"></polygon>
                <polygon id="Fill-38" fill="#221100" mask="url(#mask-2)" points="455 153 594 153 594 128 455 128"></polygon>
                <polygon id="Fill-39" fill="#B08E70" mask="url(#mask-2)" points="464 145 473 145 473 136 464 136"></polygon>
                <polygon id="Fill-40" fill="#899366" mask="url(#mask-2)" points="479 145 488 145 488 136 479 136"></polygon>
                <polygon id="Fill-41" fill="#899366" mask="url(#mask-2)" points="493 145 502 145 502 136 493 136"></polygon>
                <polygon id="Fill-42" fill="#899366" mask="url(#mask-2)" points="507 145 516 145 516 136 507 136"></polygon>
                <polygon id="Fill-43" fill="#899366" mask="url(#mask-2)" points="522 145 531 145 531 136 522 136"></polygon>
                <polygon id="Fill-44" fill="#899366" mask="url(#mask-2)" points="562 145 571 145 571 136 562 136"></polygon>
                <polygon id="Fill-45" fill="#A8604C" mask="url(#mask-2)" points="575 145 584 145 584 136 575 136"></polygon>
                <polygon id="Fill-46" fill="#221100" mask="url(#mask-2)" points="464.217714 0 467 120 455 120 457.782286 0"></polygon>
                <polygon id="Fill-47" fill="#221100" mask="url(#mask-2)" points="590.217714 0 593 120 581 120 583.782286 0"></polygon>
                <path d="M655.962963,263.396412 C655.962963,276.895771 661.385185,288.390859 668.97037,292.841521 C663.044444,304.189235 651.103704,312 637.444444,312 L628.555556,312 C613.948148,312 601.355556,303.12815 595.874074,290.542503 C604.081481,286.592909 610.037037,274.626228 610.037037,260.448953 C610.037037,244.650577 602.62963,231.622811 593,229.353268 L593,208.838958 C593,191.419479 605.8,176.888509 622.481481,174 L622.481481,212.375908 C622.481481,212.552755 622.481481,212.729603 622.511111,212.90645 C622.748148,217.85818 626.481481,221.925673 631.311111,222.692012 C631.874074,222.780436 632.437037,222.839385 633,222.839385 C633.562963,222.839385 634.125926,222.780436 634.688889,222.692012 C639.637037,221.896198 643.488889,217.563434 643.488889,212.375908 L643.488889,174 C660.17037,176.888509 673,191.419479 673,208.838958 L673,232.300726 C663.340741,234.570269 655.962963,247.598035 655.962963,263.396412" id="Fill-48" fill="#40474A" mask="url(#mask-2)"></path>
                <path d="M610,260.999518 C610,275.132948 604.057391,287.06262 595.867826,291 C594.034783,286.739403 593,282.038054 593,277.131021 L593,230 C602.608696,232.262524 610,245.25 610,260.999518" id="Fill-49" fill="#5B5C5A" mask="url(#mask-2)"></path>
                <path d="M673,233 L673,276.933788 C673,282.717624 671.521739,288.180136 668.97913,293 C661.410435,288.589094 656,277.196689 656,263.817916 C656,248.160662 663.361739,235.24927 673,233" id="Fill-50" fill="#333420" mask="url(#mask-2)"></path>
                <path d="M644,181 L644,212.633286 C644,217.846262 640.144068,222.200282 635.190678,223 L631.809322,223 C626.974576,222.229901 623.237288,218.142454 623,213.166432 L623,181 L644,181 Z" id="Fill-51" fill="#4B615E" mask="url(#mask-2)"></path>
                <path d="M644,286.5 C644,292.298419 639.30072,297 633.501482,297 C627.702245,297 623,292.298419 623,286.5 C623,280.701581 627.702245,276 633.501482,276 C639.30072,276 644,280.701581 644,286.5" id="Fill-52" fill="#96F7FE" mask="url(#mask-2)"></path>
            </g>
        </g>
    </g>
</svg>