<?xml version="1.0" encoding="UTF-8"?>
<svg width="666px" height="322px" viewBox="0 0 666 322" version="1.1" xmlns="http://www.w3.org/2000/svg" xmlns:xlink="http://www.w3.org/1999/xlink">
    <!-- Generator: Sketch 51.2 (57519) - http://www.bohemiancoding.com/sketch -->
    <title>Group 172</title>
    <desc>Created with Sketch.</desc>
    <defs>
        <polygon id="path-1" points="0 322 665.752385 322 665.752385 0.532867257 0 0.532867257"></polygon>
    </defs>
    <g id="Page-1" stroke="none" stroke-width="1" fill="none" fill-rule="evenodd">
        <g id="首頁下方" transform="translate(-222.000000, -1619.000000)">
            <g id="Group-172" transform="translate(222.000000, 1619.000000)">
                <polygon id="Fill-1" fill="#8F8B94" points="566 73 566 208 666 208 666 100.91392 638.513223 73"></polygon>
                <polygon id="Fill-2" fill="#359065" points="492 108 600 108 600 0 492 0"></polygon>
                <polygon id="Fill-3" fill="#DEDFE0" points="513 87 578 87 578 22 513 22"></polygon>
                <polygon id="Fill-4" fill="#D4DDB1" points="518 22 524 22 524 9 518 9"></polygon>
                <polygon id="Fill-5" fill="#D4DDB1" points="529 22 535 22 535 9 529 9"></polygon>
                <polygon id="Fill-6" fill="#D4DDB1" points="538 22 544 22 544 9 538 9"></polygon>
                <polygon id="Fill-7" fill="#D4DDB1" points="547 22 553 22 553 9 547 9"></polygon>
                <polygon id="Fill-8" fill="#D4DDB1" points="557 22 563 22 563 9 557 9"></polygon>
                <polygon id="Fill-9" fill="#D4DDB1" points="567 22 573 22 573 9 567 9"></polygon>
                <polygon id="Fill-10" fill="#D4DDB1" points="518 100 524 100 524 87 518 87"></polygon>
                <polygon id="Fill-11" fill="#D4DDB1" points="529 100 535 100 535 87 529 87"></polygon>
                <polygon id="Fill-12" fill="#D4DDB1" points="538 100 544 100 544 87 538 87"></polygon>
                <polygon id="Fill-13" fill="#D4DDB1" points="547 100 553 100 553 87 547 87"></polygon>
                <polygon id="Fill-14" fill="#D4DDB1" points="557 100 563 100 563 87 557 87"></polygon>
                <polygon id="Fill-15" fill="#D4DDB1" points="567 100 573 100 573 87 567 87"></polygon>
                <polygon id="Fill-16" fill="#D4DDB1" points="578 33 591 33 591 27 578 27"></polygon>
                <polygon id="Fill-17" fill="#D4DDB1" points="578 42 591 42 591 36 578 36"></polygon>
                <polygon id="Fill-18" fill="#D4DDB1" points="578 53 591 53 591 47 578 47"></polygon>
                <polygon id="Fill-19" fill="#D4DDB1" points="578 62 591 62 591 56 578 56"></polygon>
                <polygon id="Fill-20" fill="#D4DDB1" points="578 72 591 72 591 66 578 66"></polygon>
                <polygon id="Fill-21" fill="#D4DDB1" points="578 81 591 81 591 75 578 75"></polygon>
                <polygon id="Fill-22" fill="#D4DDB1" points="500 33 513 33 513 27 500 27"></polygon>
                <polygon id="Fill-23" fill="#D4DDB1" points="500 42 513 42 513 36 500 36"></polygon>
                <polygon id="Fill-24" fill="#D4DDB1" points="500 53 513 53 513 47 500 47"></polygon>
                <polygon id="Fill-25" fill="#D4DDB1" points="500 62 513 62 513 56 500 56"></polygon>
                <polygon id="Fill-26" fill="#D4DDB1" points="500 72 513 72 513 66 500 66"></polygon>
                <polygon id="Fill-27" fill="#D4DDB1" points="500 81 513 81 513 75 500 75"></polygon>
                <polygon id="Fill-28" fill="#D1DDDB" points="0 312 166 312 166 219 0 219"></polygon>
                <polygon id="Fill-29" fill="#A9B6BF" points="166 312 193 312 193 219 166 219"></polygon>
                <g id="Group-171">
                    <path d="M226.268946,283.887168 C226.268946,290.697611 223.508177,296.852655 219.011254,301.32646 C214.542792,305.800265 208.366638,308.592832 201.592792,308.592832 L193.054331,308.592832 L193.054331,289.215841 L203.186638,289.215841 C206.118177,289.215841 208.540254,286.822212 208.540254,283.887168 C208.540254,280.952124 206.118177,278.558496 203.186638,278.558496 L193.054331,278.558496 L193.054331,259.181504 L201.592792,259.181504 C215.168946,259.181504 226.268946,270.294779 226.268946,283.887168" id="Fill-30" fill="#A87655"></path>
                    <path d="M221.744131,283.887168 C221.744131,289.272832 219.549746,294.174071 215.992054,297.707522 C212.465669,301.269469 207.570285,303.463628 202.191054,303.463628 L193.0549,303.463628 L193.0549,289.215841 L203.184362,289.215841 C206.118746,289.215841 208.537977,286.822212 208.537977,283.887168 C208.537977,280.952124 206.118746,278.558496 203.184362,278.558496 L193.0549,278.558496 L193.0549,264.310708 L202.191054,264.310708 C212.949515,264.310708 221.744131,273.115841 221.744131,283.887168" id="Fill-32" fill="#694218"></path>
                    <path d="M215.796238,283.887168 C215.796238,287.734071 214.230854,291.267522 211.669315,293.803628 C209.136238,296.339735 205.635469,297.906991 201.793162,297.906991 L193.055469,297.906991 L193.055469,289.215841 L203.184931,289.215841 C206.119315,289.215841 208.538546,286.822212 208.538546,283.887168 C208.538546,280.952124 206.119315,278.558496 203.184931,278.558496 L193.055469,278.558496 L193.055469,269.867345 L201.793162,269.867345 C209.474931,269.867345 215.796238,276.164867 215.796238,283.887168" id="Fill-34" fill="#D1AD3C"></path>
                    <mask id="mask-2" fill="white">
                        <use xlink:href="#path-1"></use>
                    </mask>
                    <g id="Clip-37"></g>
                    <polygon id="Fill-36" fill="#A87655" mask="url(#mask-2)" points="193.054615 233.028265 215.795385 233.028265 215.795385 224.522336 193.054615 224.522336"></polygon>
                    <polygon id="Fill-38" fill="#F8FCFD" mask="url(#mask-2)" points="215.795385 250.048673 230.054615 250.048673 230.054615 224.522336 215.795385 224.522336"></polygon>
                    <polygon id="Fill-39" fill="#694218" mask="url(#mask-2)" points="193.054615 241.539894 215.795385 241.539894 215.795385 233.031115 193.054615 233.031115"></polygon>
                    <polygon id="Fill-40" fill="#D1AD3C" mask="url(#mask-2)" points="193.054615 250.048673 215.795385 250.048673 215.795385 241.539894 193.054615 241.539894"></polygon>
                    <path d="M90.8293077,266.197115 C90.8293077,289.016372 72.3520769,307.515699 49.5600769,307.515699 C26.7680769,307.515699 8.29084615,289.016372 8.29084615,266.197115 C8.29084615,243.377858 26.7680769,224.878531 49.5600769,224.878531 C72.3520769,224.878531 90.8293077,243.377858 90.8293077,266.197115" id="Fill-41" fill="#4D5150" mask="url(#mask-2)"></path>
                    <path d="M85.1341538,266.197115 C85.1341538,285.864761 69.2070769,301.810885 49.5600769,301.810885 C29.9159231,301.810885 13.9888462,285.864761 13.9888462,266.197115 C13.9888462,246.529469 29.9159231,230.583345 49.5600769,230.583345 C69.2070769,230.583345 85.1341538,246.529469 85.1341538,266.197115" id="Fill-42" fill="#D1DDDB" mask="url(#mask-2)"></path>
                    <path d="M81.1096923,266.197115 C81.1096923,283.642106 66.9870769,297.78446 49.5629231,297.78446 C32.1359231,297.78446 18.0133077,283.642106 18.0133077,266.197115 C18.0133077,248.752124 32.1359231,234.60977 49.5629231,234.60977 C66.9870769,234.60977 81.1096923,248.752124 81.1096923,266.197115" id="Fill-43" fill="#4D5150" mask="url(#mask-2)"></path>
                    <path d="M76.3623077,266.197115 C76.3623077,281.017664 64.3629231,293.031398 49.5600769,293.031398 C34.7600769,293.031398 22.7606923,281.017664 22.7606923,266.197115 C22.7606923,251.379416 34.7600769,239.362832 49.5600769,239.362832 C64.3629231,239.362832 76.3623077,251.379416 76.3623077,266.197115" id="Fill-44" fill="#D1DDDB" mask="url(#mask-2)"></path>
                    <path d="M73.6328462,266.197115 C73.6328462,279.507398 62.8544615,290.298673 49.5600769,290.298673 C36.2685385,290.298673 25.4901538,279.507398 25.4901538,266.197115 C25.4901538,252.886832 36.2685385,242.098407 49.5600769,242.098407 C62.8544615,242.098407 73.6328462,252.886832 73.6328462,266.197115" id="Fill-45" fill="#4D5150" mask="url(#mask-2)"></path>
                    <path d="M68.2977308,266.197115 C68.2977308,276.558106 59.9101154,284.955752 49.5615,284.955752 C39.2128846,284.955752 30.8224231,276.558106 30.8224231,266.197115 C30.8224231,255.836124 39.2128846,247.438478 49.5615,247.438478 C59.9101154,247.438478 68.2977308,255.836124 68.2977308,266.197115" id="Fill-46" fill="#D1DDDB" mask="url(#mask-2)"></path>
                    <path d="M63.7922692,266.197115 C63.7922692,274.067593 57.4197308,280.444903 49.5615,280.444903 C41.7004231,280.444903 35.3307308,274.067593 35.3307308,266.197115 C35.3307308,258.326637 41.7004231,251.949327 49.5615,251.949327 C57.4197308,251.949327 63.7922692,258.326637 63.7922692,266.197115" id="Fill-47" fill="#4D5150" mask="url(#mask-2)"></path>
                    <path d="M58.7517308,266.197115 C58.7517308,271.277876 54.6361923,275.398336 49.5615,275.398336 C44.4839615,275.398336 40.3712692,271.277876 40.3712692,266.197115 C40.3712692,261.116354 44.4839615,256.995894 49.5615,256.995894 C54.6361923,256.995894 58.7517308,261.116354 58.7517308,266.197115" id="Fill-48" fill="#D1DDDB" mask="url(#mask-2)"></path>
                    <polygon id="Fill-49" fill="#D1DDDB" mask="url(#mask-2)" points="91.9299154 226.422991 9.83545385 308.615628 7.19422308 305.971239 89.2858385 223.778602"></polygon>
                    <polygon id="Fill-50" fill="#D1DDDB" mask="url(#mask-2)" points="91.9299154 226.422991 9.83545385 308.615628 7.19422308 305.971239 89.2858385 223.778602"></polygon>
                    <polygon id="Fill-51" fill="#D1DDDB" mask="url(#mask-2)" points="7.19308462 226.422991 89.2875462 308.615628 91.9287769 305.971239 9.83431538 223.778602"></polygon>
                    <polygon id="Fill-52" fill="#4D5150" mask="url(#mask-2)" points="110.160385 260.914035 150.006538 260.914035 150.006538 236.336602 110.160385 236.336602"></polygon>
                    <polygon id="Fill-53" fill="#262828" mask="url(#mask-2)" points="113.894538 255.21492 141.468077 255.21492 141.468077 240.254743 113.894538 240.254743"></polygon>
                    <polygon id="Fill-54" fill="#D1DDDB" mask="url(#mask-2)" points="119.057462 250.404867 121.843846 250.404867 121.843846 241.796354 119.057462 241.796354"></polygon>
                    <polygon id="Fill-55" fill="#D1DDDB" mask="url(#mask-2)" points="136.191308 250.404867 138.977692 250.404867 138.977692 241.796354 136.191308 241.796354"></polygon>
                    <polygon id="Fill-56" fill="#D1DDDB" mask="url(#mask-2)" points="127.684154 256.340496 130.470538 256.340496 130.470538 247.731982 127.684154 247.731982"></polygon>
                    <polygon id="Fill-57" fill="#4D5150" mask="url(#mask-2)" points="110.160385 297.243044 150.006538 297.243044 150.006538 272.665611 110.160385 272.665611"></polygon>
                    <polygon id="Fill-58" fill="#262828" mask="url(#mask-2)" points="113.894538 291.543929 141.468077 291.543929 141.468077 276.583752 113.894538 276.583752"></polygon>
                    <polygon id="Fill-59" fill="#D1DDDB" mask="url(#mask-2)" points="119.057462 286.736726 121.843846 286.736726 121.843846 278.128212 119.057462 278.128212"></polygon>
                    <polygon id="Fill-60" fill="#D1DDDB" mask="url(#mask-2)" points="136.191308 286.736726 138.977692 286.736726 138.977692 278.128212 136.191308 278.128212"></polygon>
                    <polygon id="Fill-61" fill="#D1DDDB" mask="url(#mask-2)" points="127.684154 292.675204 130.470538 292.675204 130.470538 284.06669 127.684154 284.06669"></polygon>
                    <path d="M133.001908,82.2254071 L142.052677,82.2254071 L142.052677,87.4372478 L133.198292,87.4372478 C133.058831,86.6108761 133.001908,85.7560088 133.001908,84.9011416 L133.001908,82.2254071 Z" id="Fill-62" fill="#E7EDF3" mask="url(#mask-2)"></path>
                    <polygon id="Fill-63" fill="#E7EDF3" mask="url(#mask-2)" points="148.142308 87.435823 153.350769 87.435823 153.350769 82.2239823 148.142308 82.2239823"></polygon>
                    <polygon id="Fill-64" fill="#E7EDF3" mask="url(#mask-2)" points="190.350769 87.435823 195.530769 87.435823 195.530769 82.2239823 190.350769 82.2239823"></polygon>
                    <path d="M210.673446,82.2254071 L210.673446,84.9011416 C210.673446,85.7560088 210.613677,86.6108761 210.474215,87.4372478 L201.648292,87.4372478 L201.648292,82.2254071 L210.673446,82.2254071 Z" id="Fill-65" fill="#E7EDF3" mask="url(#mask-2)"></path>
                    <polygon id="Fill-66" fill="#191A32" mask="url(#mask-2)" points="123.608462 182.670885 218.726923 182.670885 218.726923 87.435823 123.608462 87.435823"></polygon>
                    <path d="M213.986654,135.056204 C213.986654,158.730327 194.820654,177.919248 171.174808,177.919248 C147.528962,177.919248 128.362962,158.730327 128.362962,135.056204 C128.362962,111.384929 147.528962,92.1960088 171.174808,92.1960088 C194.820654,92.1960088 213.986654,111.384929 213.986654,135.056204" id="Fill-67" fill="#698197" mask="url(#mask-2)"></path>
                    <path d="M203.713746,127.467547 L180.554592,132.98714 L205.891054,114.111671 L197.904746,106.115812 C195.303362,103.514166 190.960131,104.021388 189.033285,107.15875 L176.555746,127.456149 L181.135208,96.1737062 L169.844515,96.1737062 C166.167285,96.1737062 163.452054,99.6131221 164.3059,103.189317 L169.821746,126.376166 L150.965977,101.012255 L142.968285,109.016662 C140.375438,111.618308 140.8849,115.958184 144.007131,117.884485 L164.294515,130.379795 L133.049438,125.794857 L133.049438,137.101901 C133.049438,140.783529 136.4819,143.499158 140.059515,142.64714 L163.215823,137.124697 L137.882208,156.005865 L145.868515,163.998874 C148.4699,166.60052 152.813131,166.09045 154.739977,162.955936 L167.217515,142.655688 L162.635208,173.94383 L173.928746,173.94383 C177.605977,173.94383 180.318362,170.504414 179.464515,166.92252 L173.951515,143.735671 L192.807285,169.099582 L200.793592,161.106573 C203.394977,158.504927 202.882669,154.150804 199.749054,152.224503 L179.4759,139.734892 L210.723823,144.316981 L210.723823,133.009936 C210.723823,129.328308 207.291362,126.615529 203.713746,127.467547" id="Fill-68" fill="#47AEE2" mask="url(#mask-2)"></path>
                    <path d="M182.203654,135.056204 C182.203654,141.157106 177.265577,146.098239 171.174808,146.098239 C165.084038,146.098239 160.145962,141.157106 160.145962,135.056204 C160.145962,128.95815 165.084038,124.014168 171.174808,124.014168 C177.265577,124.014168 182.203654,128.95815 182.203654,135.056204" id="Fill-69" fill="#E7EDF3" mask="url(#mask-2)"></path>
                    <path d="M130.736654,92.1960088 C130.736654,93.5068053 129.675038,94.5696903 128.362962,94.5696903 C127.053731,94.5696903 125.992115,93.5068053 125.992115,92.1960088 C125.992115,90.8823628 127.053731,89.8194779 128.362962,89.8194779 C129.675038,89.8194779 130.736654,90.8823628 130.736654,92.1960088" id="Fill-70" fill="#E7EDF3" mask="url(#mask-2)"></path>
                    <path d="M130.736654,177.919248 C130.736654,179.230044 129.675038,180.292929 128.362962,180.292929 C127.053731,180.292929 125.992115,179.230044 125.992115,177.919248 C125.992115,176.608451 127.053731,175.545566 128.362962,175.545566 C129.675038,175.545566 130.736654,176.608451 130.736654,177.919248" id="Fill-71" fill="#E7EDF3" mask="url(#mask-2)"></path>
                    <path d="M216.3575,177.919248 C216.3575,179.230044 215.295885,180.292929 213.986654,180.292929 C212.674577,180.292929 211.612962,179.230044 211.612962,177.919248 C211.612962,176.608451 212.674577,175.545566 213.986654,175.545566 C215.295885,175.545566 216.3575,176.608451 216.3575,177.919248" id="Fill-72" fill="#E7EDF3" mask="url(#mask-2)"></path>
                    <path d="M216.3575,92.1960088 C216.3575,93.5068053 215.295885,94.5696903 213.986654,94.5696903 C212.674577,94.5696903 211.612962,93.5068053 211.612962,92.1960088 C211.612962,90.8823628 212.674577,89.8194779 213.986654,89.8194779 C215.295885,89.8194779 216.3575,90.8823628 216.3575,92.1960088" id="Fill-73" fill="#E7EDF3" mask="url(#mask-2)"></path>
                    <path d="M201.637477,182.66946 L201.637477,190.149549 C201.637477,193.526274 198.902323,196.264699 195.529631,196.264699 L195.529631,182.66946 L190.341092,182.66946 L190.341092,196.264699 L153.341092,196.264699 L153.341092,182.66946 L148.152554,182.66946 L148.152554,196.264699 C144.779862,196.264699 142.047554,193.526274 142.047554,190.149549 L142.047554,182.66946 L133.005323,182.66946 L133.005323,185.339496 C133.005323,196.355885 141.925169,205.286398 152.9284,205.286398 L190.756631,205.286398 C201.759862,205.286398 210.679708,196.355885 210.679708,185.339496 L210.679708,182.66946 L201.637477,182.66946 Z" id="Fill-74" fill="#E7EDF3" mask="url(#mask-2)"></path>
                    <polygon id="Fill-75" fill="#28B2DD" mask="url(#mask-2)" points="262.253154 263.435894 439.426231 263.435894 439.426231 236.008903 262.253154 236.008903"></polygon>
                    <polygon id="Fill-76" fill="#2D939D" mask="url(#mask-2)" points="262.253154 270.02692 439.426231 270.02692 439.426231 263.435894 262.253154 263.435894"></polygon>
                    <polygon id="Fill-77" fill="#28B2DD" mask="url(#mask-2)" points="232.900769 292.612513 410.073846 292.612513 410.073846 265.185522 232.900769 265.185522"></polygon>
                    <polygon id="Fill-78" fill="#2D939D" mask="url(#mask-2)" points="232.900769 299.20354 410.073846 299.20354 410.073846 292.612513 232.900769 292.612513"></polygon>
                    <polygon id="Fill-79" fill="#33342D" mask="url(#mask-2)" points="327.623615 279.256637 532.102692 279.256637 532.102692 48.4424779 327.623615 48.4424779"></polygon>
                    <polygon id="Fill-80" fill="#F9FCFF" mask="url(#mask-2)" points="327.623615 84.8313274 343.900769 84.8313274 343.900769 69.1017699 327.623615 69.1017699"></polygon>
                    <polygon id="Fill-81" fill="#F9FCFF" mask="url(#mask-2)" points="392.851769 161.980248 400.988923 161.980248 400.988923 154.112619 392.851769 154.112619"></polygon>
                    <polygon id="Fill-82" fill="#F9FCFF" mask="url(#mask-2)" points="413.973077 161.980248 422.110231 161.980248 422.110231 154.112619 413.973077 154.112619"></polygon>
                    <polygon id="Fill-83" fill="#F9FCFF" mask="url(#mask-2)" points="460.706923 167.083805 468.844077 167.083805 468.844077 159.219027 460.706923 159.219027"></polygon>
                    <polygon id="Fill-84" fill="#F9FCFF" mask="url(#mask-2)" points="473.042154 167.083805 481.179308 167.083805 481.179308 159.219027 473.042154 159.219027"></polygon>
                    <polygon id="Fill-85" fill="#F9FCFF" mask="url(#mask-2)" points="485.374538 167.083805 493.511692 167.083805 493.511692 159.219027 485.374538 159.219027"></polygon>
                    <polygon id="Fill-86" fill="#F9FCFF" mask="url(#mask-2)" points="497.706923 167.083805 505.844077 167.083805 505.844077 159.219027 497.706923 159.219027"></polygon>
                    <polygon id="Fill-87" fill="#F9FCFF" mask="url(#mask-2)" points="460.706923 73.6582124 468.844077 73.6582124 468.844077 65.7934336 460.706923 65.7934336"></polygon>
                    <polygon id="Fill-88" fill="#F9FCFF" mask="url(#mask-2)" points="473.042154 73.6582124 481.179308 73.6582124 481.179308 65.7934336 473.042154 65.7934336"></polygon>
                    <polygon id="Fill-89" fill="#F9FCFF" mask="url(#mask-2)" points="485.374538 73.6582124 493.511692 73.6582124 493.511692 65.7934336 485.374538 65.7934336"></polygon>
                    <polygon id="Fill-90" fill="#F9FCFF" mask="url(#mask-2)" points="497.706923 73.6582124 505.844077 73.6582124 505.844077 65.7934336 497.706923 65.7934336"></polygon>
                    <polygon id="Fill-91" fill="#528CA8" mask="url(#mask-2)" points="460.706923 159.219027 468.844077 159.219027 468.844077 73.6582124 460.706923 73.6582124"></polygon>
                    <polygon id="Fill-92" fill="#F9FCFF" mask="url(#mask-2)" points="443.117692 192.923593 450.975923 192.923593 450.975923 184.776708 443.117692 184.776708"></polygon>
                    <polygon id="Fill-93" fill="#528CA8" mask="url(#mask-2)" points="357.661923 192.923593 443.117692 192.923593 443.117692 184.776708 357.661923 184.776708"></polygon>
                    <polygon id="Fill-94" fill="#F9FCFF" mask="url(#mask-2)" points="443.117692 216.076248 450.975923 216.076248 450.975923 207.929363 443.117692 207.929363"></polygon>
                    <polygon id="Fill-95" fill="#A9CE57" mask="url(#mask-2)" points="357.661923 216.076248 443.117692 216.076248 443.117692 207.929363 357.661923 207.929363"></polygon>
                    <polygon id="Fill-96" fill="#F9FCFF" mask="url(#mask-2)" points="443.117692 241.958779 450.975923 241.958779 450.975923 233.811894 443.117692 233.811894"></polygon>
                    <polygon id="Fill-97" fill="#528CA8" mask="url(#mask-2)" points="357.661923 241.958779 443.117692 241.958779 443.117692 233.811894 357.661923 233.811894"></polygon>
                    <polygon id="Fill-98" fill="#A9CE57" mask="url(#mask-2)" points="473.042154 159.219027 481.179308 159.219027 481.179308 73.6582124 473.042154 73.6582124"></polygon>
                    <polygon id="Fill-99" fill="#528CA8" mask="url(#mask-2)" points="485.374538 159.219027 493.511692 159.219027 493.511692 73.6582124 485.374538 73.6582124"></polygon>
                    <polygon id="Fill-100" fill="#A9CE57" mask="url(#mask-2)" points="497.706923 159.219027 505.844077 159.219027 505.844077 73.6582124 497.706923 73.6582124"></polygon>
                    <polygon id="Fill-101" fill="#F9FCFF" mask="url(#mask-2)" points="327.623615 103.530124 346.567615 103.530124 346.567615 87.8005664 327.623615 87.8005664"></polygon>
                    <polygon id="Fill-102" fill="#F9FCFF" mask="url(#mask-2)" points="327.623615 130.900124 347.279154 130.900124 347.279154 107.924142 327.623615 107.924142"></polygon>
                    <polygon id="Fill-103" fill="#F9FCFF" mask="url(#mask-2)" points="327.623615 159.575221 338.384923 159.575221 338.384923 133.749681 327.623615 133.749681"></polygon>
                    <polygon id="Fill-104" fill="#999899" mask="url(#mask-2)" points="370.051231 81.9247788 437.291615 81.9247788 437.291615 57.5240177 370.051231 57.5240177"></polygon>
                    <polygon id="Fill-105" fill="#999899" mask="url(#mask-2)" points="357.596462 164.561947 384.102692 164.561947 384.102692 96.7082832 357.596462 96.7082832"></polygon>
                    <path d="M444.527962,131.157439 C444.527962,137.993527 438.995038,143.535917 432.164269,143.535917 L410.462346,143.535917 C403.634423,143.535917 398.1015,137.993527 398.1015,131.157439 L398.1015,109.429563 C398.1015,102.593474 403.634423,97.051085 410.462346,97.051085 L432.164269,97.051085 C438.995038,97.051085 444.527962,102.593474 444.527962,109.429563 L444.527962,131.157439 Z M437.412577,91.7965009 L405.214038,91.7965009 C398.386115,91.7965009 392.853192,97.3388903 392.853192,104.174979 L392.853192,136.412023 C392.853192,143.248112 398.386115,148.787651 405.214038,148.787651 L437.412577,148.787651 C444.2405,148.787651 449.776269,143.248112 449.776269,136.412023 L449.776269,104.174979 C449.776269,97.3388903 444.2405,91.7965009 437.412577,91.7965009 Z" id="Fill-106" fill="#3C8EB2" mask="url(#mask-2)"></path>
                    <polygon id="Fill-107" fill="#F9FCFF" mask="url(#mask-2)" points="405.682231 135.943841 436.944385 135.943841 436.944385 104.644301 405.682231 104.644301"></polygon>
                    <polygon id="Fill-108" fill="#272D32" mask="url(#mask-2)" points="413.810846 127.808354 428.818615 127.808354 428.818615 112.782637 413.810846 112.782637"></polygon>
                    <polygon id="Fill-109" fill="#C79167" mask="url(#mask-2)" points="334.653615 194.185947 347.282 194.185947 347.282 181.54246 334.653615 181.54246"></polygon>
                    <polygon id="Fill-110" fill="#A9CE57" mask="url(#mask-2)" points="334.653615 230.845504 347.282 230.845504 347.282 218.202018 334.653615 218.202018"></polygon>
                    <polygon id="Fill-111" fill="#C79167" mask="url(#mask-2)" points="356.472231 262.515487 406.991462 262.515487 406.991462 253.017912 356.472231 253.017912"></polygon>
                    <polygon id="Fill-112" fill="#999899" mask="url(#mask-2)" points="412.362154 262.515487 462.881385 262.515487 462.881385 253.017912 412.362154 253.017912"></polygon>
                    <polygon id="Fill-113" fill="#999899" mask="url(#mask-2)" points="468.252077 262.515487 518.771308 262.515487 518.771308 253.017912 468.252077 253.017912"></polygon>
                    <polygon id="Fill-114" fill="#999899" mask="url(#mask-2)" points="460.114923 233.811894 501.776923 233.811894 501.776923 188.173381 460.114923 188.173381"></polygon>
                    <polygon id="Fill-115" fill="#C79167" mask="url(#mask-2)" points="489.051769 181.539611 500.473385 181.539611 500.473385 170.104336 489.051769 170.104336"></polygon>
                    <polygon id="Fill-116" fill="#C79167" mask="url(#mask-2)" points="457.607462 179.371097 463.809231 179.371097 463.809231 173.161912 457.607462 173.161912"></polygon>
                    <polygon id="Fill-117" fill="#6E6E74" mask="url(#mask-2)" points="468.844077 179.371097 475.048692 179.371097 475.048692 173.161912 468.844077 173.161912"></polygon>
                    <polygon id="Fill-118" fill="#5F6972" mask="url(#mask-2)" points="512.959462 143.535062 519.164077 143.535062 519.164077 137.323027 512.959462 137.323027"></polygon>
                    <polygon id="Fill-119" fill="#5F6972" mask="url(#mask-2)" points="512.959462 156.477752 519.164077 156.477752 519.164077 150.265717 512.959462 150.265717"></polygon>
                    <polygon id="Fill-120" fill="#5F6972" mask="url(#mask-2)" points="512.959462 169.417593 519.164077 169.417593 519.164077 163.208407 512.959462 163.208407"></polygon>
                    <polygon id="Fill-121" fill="#5F6972" mask="url(#mask-2)" points="508.809769 188.848726 515.014385 188.848726 515.014385 182.63669 508.809769 182.63669"></polygon>
                    <polygon id="Fill-122" fill="#5F6972" mask="url(#mask-2)" points="505.844077 202.198903 517.516154 202.198903 517.516154 193.561894 505.844077 193.561894"></polygon>
                    <polygon id="Fill-123" fill="#999899" mask="url(#mask-2)" points="334.653615 262.515487 347.282 262.515487 347.282 253.017912 334.653615 253.017912"></polygon>
                    <path d="M292.433769,145.327434 L279.626077,145.327434 C273.338923,145.327434 268.241462,150.430991 268.241462,156.725664 L268.241462,164.561947 L292.433769,164.561947 L292.433769,145.327434 Z" id="Fill-124" fill="#E7EDF3" mask="url(#mask-2)"></path>
                    <polygon id="Fill-125" fill="#3B3E7C" mask="url(#mask-2)" points="228.810846 178.45354 351.431692 178.45354 351.431692 15.7922478 228.810846 15.7922478"></polygon>
                    <path d="M341.352038,75.6329558 C341.352038,103.957558 318.412038,126.924991 290.121269,126.924991 C261.827654,126.924991 238.8905,103.957558 238.8905,75.6329558 C238.8905,47.3055044 261.827654,24.3409204 290.121269,24.3409204 C318.412038,24.3409204 341.352038,47.3055044 341.352038,75.6329558" id="Fill-126" fill="#C6CACE" mask="url(#mask-2)"></path>
                    <path d="M307.434423,75.6329558 C307.434423,85.2046195 299.6815,92.9668142 290.121269,92.9668142 C280.558192,92.9668142 272.805269,85.2046195 272.805269,75.6329558 C272.805269,66.0584425 280.558192,58.2962478 290.121269,58.2962478 C299.6815,58.2962478 307.434423,66.0584425 307.434423,75.6329558" id="Fill-127" fill="#E7EDF3" mask="url(#mask-2)"></path>
                    <path d="M297.575631,75.6329558 C297.575631,79.7534159 294.237092,83.0959469 290.121554,83.0959469 C286.003169,83.0959469 282.664631,79.7534159 282.664631,75.6329558 C282.664631,71.509646 286.003169,68.167115 290.121554,68.167115 C294.237092,68.167115 297.575631,71.509646 297.575631,75.6329558" id="Fill-128" fill="#B5B8C9" mask="url(#mask-2)"></path>
                    <path d="M241.203,23.7453628 C241.203,26.0421062 239.344462,27.9028673 237.050462,27.9028673 C234.759308,27.9028673 232.900769,26.0421062 232.900769,23.7453628 C232.900769,21.451469 234.759308,19.590708 237.050462,19.590708 C239.344462,19.590708 241.203,21.451469 241.203,23.7453628" id="Fill-129" fill="#B5B8C9" mask="url(#mask-2)"></path>
                    <path d="M241.203,100.683416 C241.203,102.980159 239.344462,104.84092 237.050462,104.84092 C234.759308,104.84092 232.900769,102.980159 232.900769,100.683416 C232.900769,98.3895221 234.759308,96.5287611 237.050462,96.5287611 C239.344462,96.5287611 241.203,98.3895221 241.203,100.683416" id="Fill-130" fill="#B5B8C9" mask="url(#mask-2)"></path>
                    <path d="M241.203,169.312159 C241.203,171.606053 239.344462,173.466814 237.050462,173.466814 C234.759308,173.466814 232.900769,171.606053 232.900769,169.312159 C232.900769,167.015416 234.759308,165.154655 237.050462,165.154655 C239.344462,165.154655 241.203,167.015416 241.203,169.312159" id="Fill-131" fill="#B5B8C9" mask="url(#mask-2)"></path>
                    <path d="M346.332808,23.7453628 C346.332808,26.0421062 344.474269,27.9028673 342.180269,27.9028673 C339.889115,27.9028673 338.030577,26.0421062 338.030577,23.7453628 C338.030577,21.451469 339.889115,19.590708 342.180269,19.590708 C344.474269,19.590708 346.332808,21.451469 346.332808,23.7453628" id="Fill-132" fill="#B5B8C9" mask="url(#mask-2)"></path>
                    <path d="M346.332808,100.683416 C346.332808,102.980159 344.474269,104.84092 342.180269,104.84092 C339.889115,104.84092 338.030577,102.980159 338.030577,100.683416 C338.030577,98.3895221 339.889115,96.5287611 342.180269,96.5287611 C344.474269,96.5287611 346.332808,98.3895221 346.332808,100.683416" id="Fill-133" fill="#B5B8C9" mask="url(#mask-2)"></path>
                    <path d="M346.332808,169.312159 C346.332808,171.606053 344.474269,173.466814 342.180269,173.466814 C339.889115,173.466814 338.030577,171.606053 338.030577,169.312159 C338.030577,167.015416 339.889115,165.154655 342.180269,165.154655 C344.474269,165.154655 346.332808,167.015416 346.332808,169.312159" id="Fill-134" fill="#B5B8C9" mask="url(#mask-2)"></path>
                    <path d="M265.934654,145.371887 L269.620423,143.87017 C271.219962,143.214772 272.438115,141.866931 272.9305,140.208488 L284.608269,97.5449133 L283.728808,97.0661876 L258.1305,133.255568 C257.285192,134.512223 256.974962,136.056683 257.268115,137.544152 L257.965423,141.071904 C258.679808,144.693692 262.519269,146.762471 265.934654,145.371887" id="Fill-135" fill="#B5B8C9" mask="url(#mask-2)"></path>
                    <path d="M279.642869,152.270381 L260.374408,152.270381 C260.038562,152.270381 259.716946,152.133602 259.480715,151.894239 L254.195408,146.519973 C253.944946,146.272062 253.814023,145.921566 253.833946,145.568221 L254.576792,132.31208 C254.593869,132.029973 254.511331,131.736469 254.351946,131.502805 C247.418715,121.304239 241.464562,127.111637 239.127869,130.257549 C238.965638,130.476965 238.891638,130.730575 238.891638,131.001283 L238.891638,144.48254 C238.891638,155.766788 248.027792,164.913867 259.298562,164.913867 L288.357792,164.913867 C289.430792,164.913867 290.011408,163.651513 289.308408,162.83654 L280.593485,152.706363 C280.354408,152.429956 280.007177,152.270381 279.642869,152.270381" id="Fill-136" fill="#C6CACE" mask="url(#mask-2)"></path>
                    <polygon id="Fill-137" fill="#E1A880" mask="url(#mask-2)" points="300.852692 164.561947 337.141154 164.561947 337.141154 147.464602 300.852692 147.464602"></polygon>
                    <polygon id="Fill-138" fill="#E1A880" mask="url(#mask-2)" points="318.108923 144.851558 337.141154 144.851558 337.141154 128.050566 318.108923 128.050566"></polygon>
                    <polygon id="Fill-139" fill="#D4E7F7" mask="url(#mask-2)" points="409.362308 224.995363 409.362308 230.457965 420.391154 230.457965 420.391154 315.94469 426.675462 315.94469 426.675462 230.457965 426.675462 224.995363"></polygon>
                    <polygon id="Fill-140" fill="#999899" mask="url(#mask-2)" points="452.054615 289.586283 605.983154 289.586283 605.983154 218.199168 452.054615 218.199168"></polygon>
                    <path d="M508.713569,248.935635 L493.546415,252.554573 L510.139492,240.187494 L504.908262,234.952857 C503.206262,233.245972 500.360108,233.57937 499.099262,235.633901 L490.927954,248.929936 L493.9278,228.441618 L486.530646,228.441618 C484.119954,228.441618 482.343954,230.692768 482.904646,233.037954 L486.516415,248.223246 L474.164108,231.610326 L468.927185,236.853512 C467.230877,238.551848 467.563877,241.398556 469.610262,242.66091 L482.898954,250.844839 L462.429415,247.841405 L462.429415,255.247405 C462.429415,257.658131 464.680723,259.439104 467.023108,258.877742 L482.190262,255.261653 L465.600031,267.628733 L470.825569,272.86052 C472.530415,274.567405 475.376569,274.234007 476.637415,272.179476 L484.811569,258.883441 L481.811723,279.377458 L489.206031,279.377458 C491.613877,279.377458 493.389877,277.123458 492.834877,274.778273 L489.220262,259.592981 L501.572569,276.203051 L506.800954,270.968414 C508.5058,269.264379 508.1728,266.414821 506.120723,265.149618 L492.840569,256.968538 L513.304415,259.971972 L513.304415,252.565972 C513.304415,250.158096 511.055954,248.379972 508.713569,248.935635" id="Fill-141" fill="#F86027" mask="url(#mask-2)"></path>
                    <path d="M591.252031,248.935635 L576.084877,252.554573 L592.677954,240.187494 L587.446723,234.952857 C585.744723,233.245972 582.898569,233.57937 581.637723,235.633901 L573.466415,248.929936 L576.466262,228.441618 L569.069108,228.441618 C566.658415,228.441618 564.882415,230.692768 565.443108,233.037954 L569.054877,248.223246 L556.702569,231.610326 L551.465646,236.853512 C549.769338,238.551848 550.102338,241.398556 552.148723,242.66091 L565.437415,250.844839 L544.967877,247.841405 L544.967877,255.247405 C544.967877,257.658131 547.219185,259.439104 549.561569,258.877742 L564.728723,255.261653 L548.138492,267.628733 L553.364031,272.86052 C555.068877,274.567405 557.915031,274.234007 559.175877,272.179476 L567.350031,258.883441 L564.350185,279.377458 L571.744492,279.377458 C574.152338,279.377458 575.928338,277.123458 575.373338,274.778273 L571.758723,259.592981 L584.111031,276.203051 L589.339415,270.968414 C591.044262,269.264379 590.711262,266.414821 588.659185,265.149618 L575.379031,256.968538 L595.842877,259.971972 L595.842877,252.565972 C595.842877,250.158096 593.594415,248.379972 591.252031,248.935635" id="Fill-142" fill="#F86027" mask="url(#mask-2)"></path>
                    <path d="M570.406231,286.945313 C552.185154,286.945313 537.407923,272.15326 537.407923,253.907543 C537.407923,235.661827 552.185154,220.872623 570.406231,220.872623 C588.630154,220.872623 603.404538,235.661827 603.404538,253.907543 C603.404538,272.15326 588.630154,286.945313 570.406231,286.945313 M487.867769,286.945313 C469.646692,286.945313 454.869462,272.15326 454.869462,253.907543 C454.869462,235.661827 469.646692,220.872623 487.867769,220.872623 C506.091692,220.872623 520.866077,235.661827 520.866077,253.907543 C520.866077,272.15326 506.091692,286.945313 487.867769,286.945313 M618.745308,216.031225 L578.976,216.031225 C575.979,216.031225 573.548385,213.600552 573.548385,210.599968 L573.548385,207.30588 L455.137,207.30588 C439.420538,207.30588 426.675462,220.063349 426.675462,235.801455 L426.675462,301.341278 L449.208462,301.341278 L449.208462,321.288181 L477.314231,321.288181 L477.314231,301.341278 L485.496923,301.341278 L485.496923,321.288181 L554.871923,321.288181 L554.871923,301.341278 L600.410385,301.341278 C614.948538,301.341278 626.737308,289.538411 626.737308,274.982871 L626.737308,235.801455 C626.737308,228.116198 623.686231,221.157579 618.745308,216.031225" id="Fill-143" fill="#6C635C" mask="url(#mask-2)"></path>
                    <polygon id="Fill-144" fill="#33342D" mask="url(#mask-2)" points="449.208462 322 477.314231 322 477.314231 301.340708 449.208462 301.340708"></polygon>
                    <polygon id="Fill-145" fill="#33342D" mask="url(#mask-2)" points="485.200923 322 554.871923 322 554.871923 301.340708 485.200923 301.340708"></polygon>
                    <polygon id="Fill-146" fill="#D4DDB1" mask="url(#mask-2)" points="434.621923 247.378637 449.208462 247.378637 449.208462 241.859044 434.621923 241.859044"></polygon>
                    <polygon id="Fill-147" fill="#D4DDB1" mask="url(#mask-2)" points="434.621923 255.747788 446.481846 255.747788 446.481846 250.228195 434.621923 250.228195"></polygon>
                    <polygon id="Fill-148" fill="#D4DDB1" mask="url(#mask-2)" points="434.621923 264.119788 449.208462 264.119788 449.208462 258.600195 434.621923 258.600195"></polygon>
                    <polygon id="Fill-149" fill="#D4DDB1" mask="url(#mask-2)" points="524.631538 247.378637 533.349308 247.378637 533.349308 241.859044 524.631538 241.859044"></polygon>
                    <polygon id="Fill-150" fill="#D4DDB1" mask="url(#mask-2)" points="526.709231 255.747788 531.214692 255.747788 531.214692 250.228195 526.709231 250.228195"></polygon>
                    <polygon id="Fill-151" fill="#D4DDB1" mask="url(#mask-2)" points="524.631538 264.119788 533.349308 264.119788 533.349308 258.600195 524.631538 258.600195"></polygon>
                    <polygon id="Fill-152" fill="#D4DDB1" mask="url(#mask-2)" points="605.986 247.378637 622.883615 247.378637 622.883615 241.859044 605.986 241.859044"></polygon>
                    <polygon id="Fill-153" fill="#D4DDB1" mask="url(#mask-2)" points="609.899462 255.747788 622.883615 255.747788 622.883615 250.228195 609.899462 250.228195"></polygon>
                    <polygon id="Fill-154" fill="#D4DDB1" mask="url(#mask-2)" points="605.986 264.119788 622.883615 264.119788 622.883615 258.600195 605.986 258.600195"></polygon>
                    <polygon id="Fill-155" fill="#D4DDB1" mask="url(#mask-2)" points="454.869462 321.287611 457.866462 321.287611 457.866462 313.095133 454.869462 313.095133"></polygon>
                    <polygon id="Fill-156" fill="#D4DDB1" mask="url(#mask-2)" points="491.781231 321.287611 494.778231 321.287611 494.778231 313.095133 491.781231 313.095133"></polygon>
                    <polygon id="Fill-157" fill="#D4DDB1" mask="url(#mask-2)" points="545.769923 321.287611 548.766923 321.287611 548.766923 313.095133 545.769923 313.095133"></polygon>
                    <polygon id="Fill-158" fill="#D4DDB1" mask="url(#mask-2)" points="540.254077 321.287611 543.251077 321.287611 543.251077 315.856354 540.254077 315.856354"></polygon>
                    <polygon id="Fill-159" fill="#D4DDB1" mask="url(#mask-2)" points="534.413769 321.287611 537.407923 321.287611 537.407923 315.856354 534.413769 315.856354"></polygon>
                    <polygon id="Fill-160" fill="#D4DDB1" mask="url(#mask-2)" points="528.989 321.287611 531.983154 321.287611 531.983154 315.856354 528.989 315.856354"></polygon>
                    <polygon id="Fill-161" fill="#D4DDB1" mask="url(#mask-2)" points="514.758231 321.287611 517.752385 321.287611 517.752385 315.856354 514.758231 315.856354"></polygon>
                    <polygon id="Fill-162" fill="#D4DDB1" mask="url(#mask-2)" points="508.977692 321.287611 511.971846 321.287611 511.971846 315.856354 508.977692 315.856354"></polygon>
                    <polygon id="Fill-163" fill="#D4DDB1" mask="url(#mask-2)" points="503.197154 321.287611 506.191308 321.287611 506.191308 315.856354 503.197154 315.856354"></polygon>
                    <polygon id="Fill-164" fill="#D4DDB1" mask="url(#mask-2)" points="497.490615 321.287611 500.484769 321.287611 500.484769 315.856354 497.490615 315.856354"></polygon>
                    <polygon id="Fill-165" fill="#D4DDB1" mask="url(#mask-2)" points="460.934615 321.287611 463.928769 321.287611 463.928769 315.856354 460.934615 315.856354"></polygon>
                    <polygon id="Fill-166" fill="#D4DDB1" mask="url(#mask-2)" points="466.359385 321.287611 469.353538 321.287611 469.353538 315.856354 466.359385 315.856354"></polygon>
                    <path d="M515.698315,296.473664 C512.968854,302.258265 506.513777,306.327434 498.9857,306.327434 C497.181238,306.327434 495.445085,306.079522 493.800008,305.646389 C496.657546,303.118832 498.834854,299.992867 500.010315,296.473664 L493.196623,296.473664 C492.015469,298.981274 490.100008,301.13269 487.734854,302.805381 C485.3697,301.13269 483.457085,298.981274 482.273085,296.473664 L475.456546,296.473664 C476.634854,299.992867 478.815008,303.118832 481.6697,305.646389 C480.027469,306.079522 478.288469,306.327434 476.484008,306.327434 C468.955931,306.327434 462.5037,302.258265 459.771392,296.473664 L452.954854,296.473664 C455.963238,305.461168 465.3527,312.026549 476.484008,312.026549 C480.545469,312.026549 484.362162,311.137487 487.734854,309.590177 C491.1047,311.137487 494.924238,312.026549 498.9857,312.026549 C510.119854,312.026549 519.506469,305.461168 522.514854,296.473664 L515.698315,296.473664 Z" id="Fill-167" fill="#D4E7F7" mask="url(#mask-2)"></path>
                    <path d="M597.158369,296.473664 C594.426062,302.258265 587.973831,306.327434 580.445754,306.327434 C578.641292,306.327434 576.905138,306.079522 575.260062,305.646389 C578.114754,303.118832 580.292062,299.992867 581.470369,296.473664 L574.656677,296.473664 C573.472677,298.981274 571.560062,301.13269 569.194908,302.805381 C566.829754,301.13269 564.917138,298.981274 563.733138,296.473664 L556.9166,296.473664 C558.094908,299.992867 560.275062,303.118832 563.129754,305.646389 C561.484677,306.079522 559.745677,306.327434 557.944062,306.327434 C550.413138,306.327434 543.963754,302.258265 541.231446,296.473664 L534.414908,296.473664 C537.423292,305.461168 546.812754,312.026549 557.944062,312.026549 C562.002677,312.026549 565.822215,311.137487 569.194908,309.590177 C572.564754,311.137487 576.384292,312.026549 580.445754,312.026549 C591.577062,312.026549 600.966523,305.461168 603.974908,296.473664 L597.158369,296.473664 Z" id="Fill-168" fill="#D4E7F7" mask="url(#mask-2)"></path>
                    <path d="M498.993954,253.891586 C498.993954,260.043781 494.013185,265.030506 487.868338,265.030506 C481.726338,265.030506 476.745569,260.043781 476.745569,253.891586 C476.745569,247.742241 481.726338,242.755515 487.868338,242.755515 C494.013185,242.755515 498.993954,247.742241 498.993954,253.891586" id="Fill-169" fill="#D4E7F7" mask="url(#mask-2)"></path>
                    <path d="M581.532415,253.891586 C581.532415,260.043781 576.551646,265.030506 570.4068,265.030506 C564.2648,265.030506 559.284031,260.043781 559.284031,253.891586 C559.284031,247.742241 564.2648,242.755515 570.4068,242.755515 C576.551646,242.755515 581.532415,247.742241 581.532415,253.891586" id="Fill-170" fill="#D4E7F7" mask="url(#mask-2)"></path>
                </g>
            </g>
        </g>
    </g>
</svg>