<?xml version="1.0" encoding="UTF-8"?>
<svg width="23px" height="21px" viewBox="0 0 23 21" version="1.1" xmlns="http://www.w3.org/2000/svg" xmlns:xlink="http://www.w3.org/1999/xlink">
    <!-- Generator: Sketch 51.2 (57519) - http://www.bohemiancoding.com/sketch -->
    <title>星形</title>
    <desc>Created with Sketch.</desc>
    <defs></defs>
    <g id="Page-1" stroke="none" stroke-width="1" fill="none" fill-rule="evenodd">
        <g id="首頁下方" transform="translate(-803.000000, -1522.000000)" fill-rule="nonzero">
            <g id="星形" transform="translate(802.000000, 1520.000000)">
                <rect id="Rectangle-path" fill="#000000" opacity="0" x="0" y="0" width="25" height="25"></rect>
                <path d="M18.8696289,22.9418945 C18.7670898,22.9418945 18.6645508,22.9174805 18.5717773,22.8686523 L12.5,19.6777344 L6.42822266,22.8686523 C6.21337891,22.980957 5.95214844,22.9638672 5.75439453,22.8198242 C5.55664063,22.6757812 5.45898438,22.434082 5.50048828,22.1923828 L6.66015625,15.4321289 L1.74804688,10.6445312 C1.57226563,10.4736328 1.51123047,10.2197266 1.58691406,9.98779297 C1.66259766,9.75585938 1.86279297,9.58740234 2.10449219,9.55078125 L8.89160156,8.56445313 L11.9238281,2.41455078 C12.03125,2.19482422 12.253418,2.05810547 12.4975586,2.05810547 C12.7416992,2.05810547 12.9638672,2.19726562 13.0712891,2.41455078 L16.105957,8.56445312 L22.8930664,9.55078125 C23.1347656,9.58496094 23.3349609,9.75585938 23.4106445,9.98779297 C23.4863281,10.2197266 23.4228516,10.4736328 23.2495117,10.6445312 L18.3422852,15.4321289 L19.4995117,22.1923828 C19.5410156,22.4316406 19.440918,22.6757812 19.2456055,22.8198242 C19.1333008,22.9003906 19.0014648,22.9418945 18.8696289,22.9418945 Z M12.5,18.3105469 C12.6025391,18.3105469 12.7050781,18.3349609 12.7978516,18.3837891 L18.0175781,21.1303711 L17.0214844,15.3173828 C16.9873047,15.1098633 17.0556641,14.8974609 17.2045898,14.7509766 L21.4282227,10.6347656 L15.5932617,9.78759766 C15.3833008,9.75830078 15.2050781,9.62646484 15.1098633,9.43603516 L12.5,4.14794922 L9.89013672,9.43603516 C9.79736328,9.62402344 9.61669922,9.75585938 9.40673828,9.78759766 L3.57177734,10.6347656 L7.79541016,14.7509766 C7.94677734,14.8974609 8.01513672,15.1098633 7.97851563,15.3173828 L6.98242188,21.1303711 L12.2021484,18.3862305 C12.2949219,18.3349609 12.3974609,18.3105469 12.5,18.3105469 Z" id="Shape" fill="#666666"></path>
            </g>
        </g>
    </g>
</svg>