<?xml version="1.0" encoding="UTF-8"?>
<svg width="21px" height="19px" viewBox="0 0 21 19" version="1.1" xmlns="http://www.w3.org/2000/svg" xmlns:xlink="http://www.w3.org/1999/xlink">
    <!-- Generator: Sketch 51.2 (57519) - http://www.bohemiancoding.com/sketch -->
    <title>星形</title>
    <desc>Created with Sketch.</desc>
    <defs></defs>
    <g id="Page-1" stroke="none" stroke-width="1" fill="none" fill-rule="evenodd">
        <g id="首頁下方" transform="translate(-704.000000, -1523.000000)" fill="#FAC375" fill-rule="nonzero">
            <g id="星形" transform="translate(702.000000, 1520.000000)">
                <rect id="Rectangle-path" opacity="0" x="0" y="0" width="25" height="25"></rect>
                <path d="M22.265625,10.4052734 C22.265625,10.5786133 22.1655273,10.7666016 21.9604492,10.9692383 L17.6977539,15.1220703 L18.7084961,20.9912109 C18.7158203,21.0449219 18.7207031,21.1254883 18.7207031,21.2255859 C18.7207031,21.3916016 18.6791992,21.5283203 18.5961914,21.6430664 C18.515625,21.7578125 18.3935547,21.8139648 18.2373047,21.8139648 C18.0883789,21.8139648 17.9321289,21.7675781 17.7685547,21.6723633 L12.5,18.9013672 L7.22900391,21.6723633 C7.05566406,21.7651367 6.90185547,21.8139648 6.76025391,21.8139648 C6.59423828,21.8139648 6.47460938,21.7578125 6.38916016,21.6430664 C6.30859375,21.5283203 6.26464844,21.3916016 6.26464844,21.2255859 C6.26464844,21.1791992 6.27197266,21.0986328 6.2890625,20.9912109 L7.29980469,15.1245117 L3.02734375,10.9667969 C2.83203125,10.7543945 2.734375,10.5664062 2.734375,10.402832 C2.734375,10.1147461 2.95410156,9.93408203 3.39111328,9.86328125 L9.28466797,9.00634766 L11.9262695,3.66699219 C12.0751953,3.34716797 12.2680664,3.18603516 12.5024414,3.18603516 C12.7368164,3.18603516 12.9296875,3.34716797 13.0786133,3.66699219 L15.7202148,9.00634766 L21.6088867,9.86328125 C22.0458984,9.93408203 22.265625,10.1147461 22.265625,10.4052734 Z" id="Shape"></path>
            </g>
        </g>
    </g>
</svg>