<?xml version="1.0" encoding="UTF-8"?>
<svg width="67px" height="54px" viewBox="0 0 67 54" version="1.1" xmlns="http://www.w3.org/2000/svg" xmlns:xlink="http://www.w3.org/1999/xlink">
    <!-- Generator: Sketch 51.2 (57519) - http://www.bohemiancoding.com/sketch -->
    <title>LC_icon_send_line_1</title>
    <desc>Created with Sketch.</desc>
    <defs></defs>
    <g id="Page-1" stroke="none" stroke-width="1" fill="none" fill-rule="evenodd">
        <g id="首頁下方" transform="translate(-404.000000, -3112.000000)" fill="#84A9CC" fill-rule="nonzero">
            <g id="LC_icon_send_line_1" transform="translate(404.000000, 3106.000000)">
                <rect id="Rectangle-path" opacity="0" x="0" y="0" width="67" height="67"></rect>
                <path d="M66.9990107,7.08981972 C66.9994033,7.0819014 66.999665,7.07411281 66.9999267,7.06619449 C67.0001884,7.05710783 66.999665,7.04815104 66.999665,7.03906438 C66.999665,7.02218921 66.9999267,7.00531403 66.9991416,6.98856866 C66.9984873,6.97428963 66.996917,6.96014048 66.9956083,6.94599126 C66.9954774,6.94417396 66.9953466,6.94222678 66.9950849,6.94040947 C66.9942997,6.93223153 66.994038,6.92392372 66.9929911,6.91574578 C66.9919442,6.90652931 66.9906356,6.89744272 66.989327,6.88835606 C66.9873641,6.87498575 66.9844851,6.86174519 66.9819988,6.84837488 C66.9785964,6.8298122 66.9753249,6.81124946 66.9707447,6.79281659 C66.9702213,6.79086948 66.9698287,6.7889223 66.9693053,6.78697519 C66.9660337,6.7739943 66.9617154,6.76127297 66.9579204,6.74829208 C66.9526859,6.73024864 66.9475823,6.712335 66.941301,6.6945511 C66.9382912,6.68598368 66.9348888,6.67767593 66.9317481,6.66923831 C66.9287383,6.66144979 66.925336,6.65405063 66.9221953,6.64626211 C66.9221953,6.6461323 66.9220644,6.64587269 66.9219335,6.64574288 C66.9159139,6.63107443 66.9102869,6.61640605 66.903613,6.60199721 C66.896154,6.58590088 66.8875171,6.57045359 66.8792729,6.55474668 C66.8752162,6.54695816 66.8712904,6.53916958 66.866972,6.53151087 C66.8633078,6.52502042 66.8600364,6.51852998 66.8562414,6.51216935 C66.8432861,6.49049122 66.8288914,6.46933233 66.8143658,6.44843306 C66.8096548,6.441683 66.805729,6.43454345 66.8008872,6.4277934 C66.8006254,6.42740397 66.8003637,6.42714436 66.800102,6.42675493 C66.7994477,6.42584628 66.7986625,6.42493763 66.7980082,6.42402898 C66.785053,6.40650476 66.7705274,6.38975939 66.7562636,6.37288421 C66.747365,6.36236967 66.73899,6.35120609 66.7298297,6.34121078 C66.725773,6.33679726 66.7213237,6.33251354 66.7171362,6.32797028 C66.7105931,6.32096061 66.7033958,6.31447016 66.696591,6.30772004 C66.6821962,6.29331121 66.6680633,6.27864282 66.6530142,6.26514264 C66.6520982,6.26423399 66.6511822,6.26332534 66.6502662,6.26241669 C66.6441157,6.2569647 66.6375727,6.25255118 66.6312914,6.24735881 C66.6284124,6.24489247 66.6254026,6.24255587 66.6223928,6.24008953 C66.6179435,6.23632504 66.6141486,6.23204139 66.6095684,6.22840672 C66.6065586,6.22607018 66.6032871,6.22438262 66.6002773,6.22191627 C66.5904627,6.21425756 66.5809099,6.20646898 66.5709644,6.19919969 C66.5612807,6.19219002 66.5510735,6.186089 66.541259,6.17933888 C66.5229385,6.16700703 66.5046179,6.15454537 66.485643,6.1435116 C66.4717718,6.13533366 66.4573771,6.12832392 66.4432441,6.12092483 C66.4278024,6.11274688 66.4124917,6.10443907 66.3966576,6.09703998 C66.3901145,6.09405434 66.3835715,6.09093896 66.3768975,6.08808312 C66.3727099,6.08626582 66.3685224,6.08496768 66.3643349,6.08315037 C66.3575301,6.08029454 66.3507253,6.0778282 66.3439205,6.07510224 C66.3305727,6.06978006 66.3173557,6.06419827 66.3038771,6.05939533 C66.2893515,6.05420296 66.2746951,6.05004906 66.2600386,6.0456356 C66.2515326,6.04303945 66.2431575,6.04044323 66.2345207,6.0381067 C66.2254913,6.03564035 66.2164619,6.03291433 66.2073016,6.03057779 C66.1879342,6.02577485 66.1684359,6.02226998 66.1488067,6.01850556 C66.1378144,6.01642864 66.1269529,6.01357281 66.1158298,6.01188531 C66.1129508,6.01149589 66.109941,6.01136608 66.107062,6.01084685 C66.0890032,6.0082507 66.0708136,6.00669294 66.0527547,6.00500544 C66.0371822,6.00357756 66.0217406,6.00189 66.0061682,6.00098135 C65.9991017,6.00059192 65.992166,6.0002025 65.9850996,6.00007269 C65.9768553,5.99981308 65.9686111,6.00033231 65.9603669,6.00033231 C65.9591891,6.00033231 65.9580114,6.00033231 65.9568336,6.00033231 C65.9392982,6.00033231 65.9217629,6.00007269 65.9042275,6.00085154 C65.8902253,6.00150058 65.8762232,6.00305827 65.8622211,6.0042266 C65.8529299,6.00500544 65.8436388,6.00552467 65.8343477,6.00656313 C65.8238788,6.0077314 65.8135407,6.00889967 65.8032027,6.01045743 C65.7893315,6.01240454 65.775591,6.01539018 65.7617198,6.01785652 C65.7444462,6.02110178 65.7270416,6.02382773 65.7098989,6.02785183 C65.707936,6.02837106 65.705973,6.0290201 65.7038793,6.02953933 C65.6893537,6.0330442 65.674959,6.03758747 65.6605642,6.04174137 C65.642898,6.04680393 65.6252318,6.05173668 65.6078273,6.0578377 C65.5993213,6.06069354 65.5910771,6.06406853 65.5827019,6.06718398 C65.5804773,6.06796282 65.5782526,6.06848205 65.576028,6.0692609 L0.668962316,30.9926039 C0.26538695,31.1475959 -0.000522666557,31.5328693 7.71386989e-07,31.9621479 C0.000393349845,32.3914265 0.267218983,32.7761806 0.671056068,32.930264 L20.0223911,40.3132851 L26.2232405,59.2816367 C26.2241565,59.2843626 26.225596,59.2866992 26.2265121,59.2892954 C26.2283441,59.2948772 26.2296528,59.3005888 26.2316156,59.3061706 C26.2462721,59.3475796 26.2644618,59.3878205 26.2844835,59.4274122 C26.288671,59.4355902 26.2929895,59.4435086 26.2973078,59.4515567 C26.3168061,59.4877735 26.3382673,59.5230815 26.3623458,59.5570915 C26.3654865,59.5616348 26.3682345,59.5664378 26.3715061,59.5708512 C26.3730764,59.5730579 26.3746468,59.5752647 26.3763479,59.5774715 C26.37818,59.579808 26.3801429,59.581885 26.381975,59.5843513 C26.3898266,59.5947361 26.3985943,59.6047314 26.4069694,59.6148565 C26.4169148,59.6270585 26.4263368,59.6395202 26.4368057,59.6513329 C26.444919,59.6602897 26.4538176,59.6685975 26.4623236,59.6772947 C26.4662495,59.6813188 26.4701752,59.6853428 26.4741011,59.6893669 C26.4801207,59.6953382 26.4857477,59.7016988 26.4918982,59.7075402 C26.4983104,59.7136412 26.5044608,59.719872 26.5110039,59.7258433 C26.5172852,59.7315549 26.5240899,59.7367472 26.530633,59.7421992 C26.5507857,59.7597234 26.5711999,59.7767284 26.5926612,59.7928247 C26.5939698,59.7938632 26.5951475,59.7949017 26.5964561,59.7959402 C26.598419,59.7973681 26.6007746,59.7984065 26.6027375,59.7998345 C26.6092805,59.8045076 26.6159544,59.8087913 26.6224975,59.8133346 C26.6561288,59.8365704 26.6914612,59.8579889 26.7282332,59.8773305 C26.7342528,59.8804459 26.7398798,59.88447 26.7458994,59.8874556 C26.7478623,59.8884941 26.7498253,59.8891431 26.7517882,59.8901816 C26.7863355,59.9071866 26.8217989,59.9228935 26.8589634,59.9363936 C26.866815,59.9392494 26.8747975,59.9411965 26.8826492,59.9437927 C26.8929872,59.9472975 26.9033252,59.9504129 26.9137941,59.9535284 C26.9588103,59.9671583 27.0040882,59.9781921 27.049497,59.985721 C27.0515907,59.9861105 27.0535537,59.9867595 27.0556475,59.9871489 C27.0599659,59.987798 27.0642843,59.9876682 27.0686027,59.9883172 C27.1187224,59.9955865 27.1689731,60 27.2187003,60 C27.2187003,60 27.2188311,60 27.2188311,60 C27.2188311,60 27.2188311,60 27.218962,60 C27.2230187,60 27.2269445,59.9990913 27.2310012,59.9990913 C27.2740545,59.9985721 27.3169769,59.9950672 27.3596376,59.9893557 C27.3660497,59.988447 27.3725928,59.9885768 27.3788741,59.9876682 C27.3880344,59.9862403 27.3971946,59.982995 27.4063549,59.9813075 C27.4394628,59.9753363 27.472178,59.9678074 27.5046316,59.9585909 C27.5152313,59.9556053 27.5259619,59.9536582 27.5364308,59.950413 C27.5382629,59.9498938 27.540095,59.9496341 27.541927,59.9491149 C27.5468997,59.9475572 27.5516107,59.9452206 27.5565835,59.9435331 C27.5721559,59.9383408 27.5873358,59.9321099 27.6026465,59.9261387 C27.6230609,59.9180906 27.6433443,59.9099126 27.6629735,59.9008259 C27.6659833,59.8995278 27.6689931,59.8984894 27.6720029,59.8970614 C27.6737041,59.8961528 27.675667,59.8956336 27.6773682,59.8948547 C27.6871828,59.8901816 27.6964739,59.88447 27.7061576,59.8794074 C27.7264411,59.8688929 27.7462011,59.8577293 27.7655685,59.8460465 C27.7783929,59.838258 27.7910865,59.8304694 27.8035182,59.8221616 C27.8036491,59.8220318 27.80378,59.8220318 27.8039108,59.821902 C27.807575,59.8194357 27.8113699,59.8173587 27.815034,59.8148923 C27.8324385,59.8029499 27.848927,59.7898392 27.8655464,59.7769881 C27.8752301,59.7694592 27.8850446,59.7624494 27.8944666,59.7545311 C27.9048047,59.7458339 27.9147501,59.7366175 27.9246955,59.7275308 C27.9324163,59.720651 27.9397445,59.7133816 27.9473345,59.7061123 C27.9795263,59.6750879 28.0101477,59.6426357 28.0380211,59.6079766 C28.0403766,59.6051208 28.042863,59.6023948 28.0452185,59.5994092 C28.0482283,59.5955149 28.0508455,59.5912313 28.0537245,59.587337 C28.0559491,59.5844811 28.0585663,59.5820148 28.0607909,59.5790292 L35.7105336,49.3247611 C36.0544363,48.8636792 35.9565523,48.2134655 35.4917339,47.8723273 C35.0270465,47.531189 34.3713019,47.6284161 34.02753,48.0893681 L30.7039219,52.5446752 L33.3454824,45.3914161 L58.3493591,54.8053003 C58.4694896,54.8504739 58.5953778,54.8729308 58.7207427,54.8729308 C58.9038173,54.8729308 59.0861066,54.8252909 59.2482435,54.7315687 C59.5212195,54.573591 59.7076965,54.3017708 59.7555916,53.9919166 L66.9889345,7.19548431 C66.9893271,7.19327758 66.9891962,7.19107079 66.989458,7.18886406 C66.9919443,7.17159946 66.9933838,7.15433486 66.995085,7.13707026 C66.9965243,7.12136328 66.9982255,7.10565644 66.9990107,7.08981972 Z M58.8294881,10.8873843 L28.9270908,32.4301095 C28.4592627,32.7670938 28.3554899,33.4165286 28.6952051,33.8805961 C28.9000026,34.1603347 29.2193034,34.3088362 29.5430536,34.3088362 C29.7563571,34.3088362 29.9716235,34.2443211 30.1574461,34.1104879 L58.7223129,13.5313355 L31.9883226,43.3087592 C31.8845498,43.4102699 31.7998827,43.5343674 31.7447902,43.6784555 C31.7353682,43.7028596 31.7281709,43.7276531 31.7207118,43.7523168 L27.2792889,55.7795174 L21.8599414,39.2019895 C21.7587859,38.8925246 21.5249372,38.6627626 21.2412305,38.5538527 C21.2396602,38.5532037 21.2382207,38.5524248 21.2365195,38.5517758 L3.95501328,31.9583833 L58.8294881,10.8873843 Z M57.8819235,52.408116 L34.5195674,43.6122529 L64.382968,10.3493256 L57.8819235,52.408116 Z M24.275505,38.1038046 C24.4888085,38.1038046 24.7040749,38.0392895 24.8898975,37.9054563 L26.9247863,36.4393926 C27.3926145,36.1024082 27.4963872,35.4529734 27.1566721,34.9889059 C26.816826,34.5248385 26.1621283,34.4218999 25.694431,34.7588842 L23.6595422,36.224948 C23.1917141,36.5619323 23.0879413,37.2113671 23.4276565,37.6754346 C23.6324539,37.9553031 23.9517549,38.1038046 24.275505,38.1038046 Z" id="Shape"></path>
            </g>
        </g>
    </g>
</svg>