<?xml version="1.0" encoding="UTF-8"?>
<svg width="24px" height="24px" viewBox="0 0 24 24" version="1.1" xmlns="http://www.w3.org/2000/svg" xmlns:xlink="http://www.w3.org/1999/xlink">
    <!-- Generator: Sketch 51.2 (57519) - http://www.bohemiancoding.com/sketch -->
    <title>member</title>
    <desc>Created with Sketch.</desc>
    <defs></defs>
    <g id="Page-1" stroke="none" stroke-width="1" fill="none" fill-rule="evenodd">
        <g id="首頁" transform="translate(-1456.000000, -38.000000)" fill="#FBFBFB" fill-rule="nonzero">
            <g id="member" transform="translate(1453.000000, 35.000000)">
                <rect id="Rectangle-path" opacity="0" x="0" y="0" width="30" height="30"></rect>
                <path d="M20.9497898,16.5771409 C22.2518524,15.1481103 23.0433217,13.2475562 23.0433217,11.1629179 C23.0433217,6.72145201 19.4423603,3.12 14.9984488,3.12 C10.5545959,3.12 6.95664907,6.72142274 6.95664907,11.1629179 C6.95664907,13.2475562 7.74808909,15.1480811 9.0501809,16.5771409 C5.50350993,18.6316302 3.12,22.4688294 3.12,26.8618228 L3.12,26.88 L4.60632799,26.88 L4.60632799,26.8618228 C4.60632799,25.4599263 4.88114575,24.0973405 5.42194261,22.816274 C5.94766694,21.5774745 6.69383081,20.4686959 7.6483762,19.5109256 C8.40967114,18.7495331 9.27070825,18.1210301 10.2131956,17.6285779 C11.5485055,18.6195414 13.2040264,19.2057187 14.9984488,19.2057187 C16.7898275,19.2057187 18.4454362,18.6195999 19.7836728,17.6285779 C20.7292332,18.1180445 21.5871973,18.7464304 22.3515945,19.5109256 C23.3061985,20.4656518 24.0553476,21.5774452 24.5780281,22.816274 C25.1186786,24.0973405 25.393672,25.4569992 25.393672,26.8618228 L25.393672,26.88 L26.88,26.88 L26.88,26.8618228 C26.8768977,22.4688001 24.4933585,18.6347329 20.9497898,16.5771409 Z M14.9984781,17.7222738 C14.1133542,17.7222738 13.2523171,17.5500735 12.445746,17.2085709 C11.6664225,16.879245 10.9624911,16.4049407 10.3582725,15.8037474 C9.75408313,15.1994513 9.28288335,14.4985324 8.95348251,13.7160064 C8.61214071,12.9092734 8.43999182,12.0511116 8.43999182,11.1629472 C8.43999182,10.2776221 8.61216998,9.41659172 8.95348251,8.60991729 C9.28288335,7.83034763 9.75715617,7.12632595 10.3582725,6.52211775 C10.9624911,5.91785101 11.6633202,5.44650305 12.445746,5.11717709 C13.2523464,4.77579156 14.1102812,4.6035328 14.9984781,4.6035328 C15.8836898,4.6035328 16.7446099,4.77582083 17.551181,5.11717709 C18.3306215,5.44650305 19.0344652,5.92080736 19.6386545,6.52211775 C20.2428731,7.12632595 20.7142192,7.827362 21.0434444,8.60991729 C21.3847862,9.41662099 21.5571107,10.2746657 21.5571107,11.1629472 C21.5571107,12.0481845 21.3848155,12.9093026 21.0434444,13.7160064 C20.7142192,14.4954297 20.2399464,15.1994513 19.6386545,15.8037474 C19.0344652,16.4078677 18.3336067,16.8792742 17.551181,17.2085709 C16.7445806,17.5500735 15.8836898,17.7222738 14.9984781,17.7222738 Z" id="Shape"></path>
            </g>
        </g>
    </g>
</svg>