<?xml version="1.0" encoding="UTF-8"?>
<svg width="48px" height="48px" viewBox="0 0 48 48" version="1.1" xmlns="http://www.w3.org/2000/svg" xmlns:xlink="http://www.w3.org/1999/xlink">
    <!-- Generator: Sketch 50.2 (55047) - http://www.bohemiancoding.com/sketch -->
    <title>Group</title>
    <desc>Created with Sketch.</desc>
    <defs></defs>
    <g id="Page-1" stroke="none" stroke-width="1" fill="none" fill-rule="evenodd">
        <g id="Artboard" fill-rule="nonzero">
            <g id="Group">
                <circle id="Oval-2" fill="#D8D8D8" cx="24" cy="24" r="24"></circle>
                <g id="Group-4" transform="translate(9.000000, 8.000000)" fill="#FFFFFF">
                    <path d="M15,1.24137931 C18.7326831,1.24137931 21.7586207,4.26731686 21.7586207,8 C21.7586207,11.7326831 18.7326831,14.7586207 15,14.7586207 C11.2673169,14.7586207 8.24137931,11.7326831 8.24137931,8 C8.24137931,4.26731686 11.2673169,1.24137931 15,1.24137931 Z M15,0 C10.581722,0 7,3.581722 7,8 C7,12.418278 10.581722,16 15,16 C19.418278,16 23,12.418278 23,8 C22.9946799,3.58392754 19.4160725,0.00532011717 15,3.92023578e-15 Z" id="Shape"></path>
                    <path d="M21.97125,19.3333333 C26.2265741,19.3333333 29.7083333,23.5333333 29.7083333,28.6666667 L1.29166667,28.6666667 C1.29166667,23.5392593 4.77342593,19.3451852 9.02875,19.3451852 L21.97125,19.3451852 L21.97125,19.3333333 Z M21.97125,18.0118519 L9.02875,18.0118519 C4.05009259,18 0,22.7851852 0,28.6666667 C0,29.4030463 0.578298865,30 1.29166667,30 L29.7083333,30 C30.4217011,30 31,29.4030463 31,28.6666667 C31,22.7851852 26.9499074,18 21.97125,18 L21.97125,18.0118519 Z" id="Shape"></path>
                </g>
            </g>
        </g>
    </g>
</svg>