<?xml version="1.0" encoding="UTF-8"?>
<svg width="184px" height="184px" viewBox="0 0 184 184" version="1.1" xmlns="http://www.w3.org/2000/svg" xmlns:xlink="http://www.w3.org/1999/xlink">
    <!-- Generator: Sketch 51.2 (57519) - http://www.bohemiancoding.com/sketch -->
    <title>CPU</title>
    <desc>Created with Sketch.</desc>
    <defs></defs>
    <g id="Page-1" stroke="none" stroke-width="1" fill="none" fill-rule="evenodd">
        <g id="Artboard" transform="translate(-66.000000, -661.000000)" fill="#84A9CD" fill-rule="nonzero">
            <g id="電腦零件ICON">
                <g id="CPU" transform="translate(66.000000, 661.000000)">
                    <path d="M177.67,63.31 C180.703011,63.2990306 183.159031,60.8430108 183.17,57.81 L183.17,55.81 C183.159031,52.7769892 180.703011,50.3209694 177.67,50.31 L147.57,50.31 C145.815619,43.0531418 140.328517,37.2802536 133.17,35.16 L133.17,5.81 C133.159031,2.77698917 130.703011,0.320969405 127.67,0.31 L125.67,0.31 C122.634717,0.315503701 120.175504,2.77471651 120.17,5.81 L120.17,34.31 L109.83,34.31 L109.83,5.81 C109.824496,2.77471651 107.365283,0.315503701 104.33,0.31 L102.33,0.31 C99.2969892,0.320969405 96.8409694,2.77698917 96.83,5.81 L96.83,34.31 L86.5,34.31 L86.5,5.81 C86.4944963,2.77471651 84.0352835,0.315503701 81,0.31 L79,0.31 C75.9669892,0.320969405 73.5109694,2.77698917 73.5,5.81 L73.5,34.31 L63.17,34.31 L63.17,5.81 C63.1590306,2.77698917 60.7030108,0.320969405 57.67,0.31 L55.67,0.31 C52.6347165,0.315503701 50.1755037,2.77471651 50.17,5.81 L50.17,35.16 C43.0076216,37.2772169 37.5161859,43.0506554 35.76,50.31 L5.67,50.31 C2.63471651,50.3155037 0.175503701,52.7747165 0.17,55.81 L0.17,57.81 C0.180969405,60.8430108 2.63698917,63.2990306 5.67,63.31 L35.17,63.31 L35.17,73.64 L5.67,73.64 C2.63471651,73.6455037 0.175503701,76.1047165 0.17,79.14 L0.17,81.14 C0.180969405,84.1730108 2.63698917,86.6290306 5.67,86.64 L35.17,86.64 L35.17,97 L5.67,97 C2.63698917,97.0109694 0.180969405,99.4669892 0.17,102.5 L0.17,104.5 C0.175503701,107.535283 2.63471651,109.994496 5.67,110 L35.17,110 L35.17,120.34 L5.67,120.34 C2.63471651,120.345504 0.175503701,122.804717 0.17,125.84 L0.17,127.84 C0.180969405,130.873011 2.63698917,133.329031 5.67,133.34 L35.76,133.34 C37.5193256,140.595511 43.010211,146.36456 50.17,148.48 L50.17,177.84 C50.1809694,180.873011 52.6369892,183.329031 55.67,183.34 L57.67,183.34 C60.7030108,183.329031 63.1590306,180.873011 63.17,177.84 L63.17,149.34 L73.5,149.34 L73.5,177.84 C73.5109694,180.873011 75.9669892,183.329031 79,183.34 L81,183.34 C84.0330108,183.329031 86.4890306,180.873011 86.5,177.84 L86.5,149.34 L96.83,149.34 L96.83,177.84 C96.8409694,180.873011 99.2969892,183.329031 102.33,183.34 L104.33,183.34 C107.363011,183.329031 109.819031,180.873011 109.83,177.84 L109.83,149.34 L120.17,149.34 L120.17,177.84 C120.180969,180.873011 122.636989,183.329031 125.67,183.34 L127.67,183.34 C130.703011,183.329031 133.159031,180.873011 133.17,177.84 L133.17,148.45 C140.324819,146.329712 145.810614,140.562008 147.57,133.31 L177.67,133.31 C180.703011,133.299031 183.159031,130.843011 183.17,127.81 L183.17,125.81 C183.159031,122.776989 180.703011,120.320969 177.67,120.31 L148.17,120.31 L148.17,110 L177.67,110 C180.703011,109.989031 183.159031,107.533011 183.17,104.5 L183.17,102.5 C183.159031,99.4669892 180.703011,97.0109694 177.67,97 L148.17,97 L148.17,86.64 L177.67,86.64 C180.703011,86.6290306 183.159031,84.1730108 183.17,81.14 L183.17,79.14 C183.159031,76.1069892 180.703011,73.6509694 177.67,73.64 L148.17,73.64 L148.17,63.31 L177.67,63.31 Z" id="Shape"></path>
                </g>
            </g>
        </g>
    </g>
</svg>