<?xml version="1.0" encoding="UTF-8"?>
<svg width="202px" height="144px" viewBox="0 0 202 144" version="1.1" xmlns="http://www.w3.org/2000/svg" xmlns:xlink="http://www.w3.org/1999/xlink">
    <!-- Generator: Sketch 51.2 (57519) - http://www.bohemiancoding.com/sketch -->
    <title>顯示卡</title>
    <desc>Created with Sketch.</desc>
    <defs></defs>
    <g id="Page-1" stroke="none" stroke-width="1" fill="none" fill-rule="evenodd">
        <g id="Artboard" transform="translate(-891.000000, -681.000000)" fill="#84A9CD" fill-rule="nonzero">
            <g id="電腦零件ICON">
                <g id="顯示卡" transform="translate(891.000000, 681.000000)">
                    <polygon id="Shape" points="11.58 18.31 11.58 143.31 30.58 143.31 30.58 0.31 0.58 0.31 0.58 18.31"></polygon>
                    <path d="M111.18,62.45 C111.41,63.52 111.59,64.6 111.73,65.71 C112.79,65.48 113.88,65.3 114.99,65.16 C114.76,64.1 114.57,63.01 114.44,61.9 C113.37,62.13 112.29,62.32 111.18,62.45 Z" id="Shape"></path>
                    <path d="M34.58,0.31 L34.58,143.31 L125.58,143.31 L125.58,121.31 L201.58,121.31 L201.58,0.31 L34.58,0.31 Z M145.58,63.31 C144.086131,63.313373 142.601126,63.0804971 141.18,62.62 C139.15927,61.983028 137.309472,60.8957156 135.77,59.44 C129.189471,57.1452613 121.880525,59.3739439 117.7,64.95 C118.36,64.95 119.02,64.89 119.7,64.89 C136.19,64.89 149.55,75.3 149.55,88.14 C149.55,97.39 142.63,105.37 132.55,109.14 C130.827489,109.932178 128.955903,110.348086 127.06,110.36 C119.47341,110.212279 113.440598,103.946748 113.58,96.36 C113.576627,94.8661311 113.809503,93.3811256 114.27,91.96 C114.906972,89.9392705 115.994284,88.0894717 117.45,86.55 C119.744739,79.969471 117.516056,72.6605246 111.94,68.48 C111.94,69.14 112,69.8 112,70.48 C112,86.97 101.59,100.34 88.75,100.34 C79.5,100.34 71.52,93.41 67.75,83.34 C66.9554711,81.6182814 66.5394488,79.7461809 66.53,77.85 C66.6777207,70.2634097 72.9432523,64.2305978 80.53,64.37 C82.0234864,64.3715539 83.5077303,64.6043104 84.93,65.06 C86.9507295,65.696972 88.8005283,66.7842844 90.34,68.24 C96.920529,70.5347387 104.229475,68.3060561 108.41,62.73 C107.75,62.73 107.09,62.79 106.41,62.79 C89.92,62.79 76.55,52.38 76.55,39.54 C76.55,30.29 83.48,22.31 93.55,18.54 C94.557211,18.0754205 95.6188864,17.7394473 96.71,17.54 C97.4819811,17.3989141 98.2652337,17.3286222 99.05,17.33 C106.635046,17.4776936 112.664996,23.7449018 112.52,31.33 C112.521679,32.8229642 112.292298,34.3071958 111.84,35.73 C111.203028,37.7507295 110.115716,39.6005283 108.66,41.14 C106.365261,47.720529 108.593944,55.0294754 114.17,59.21 C114.17,58.55 114.11,57.89 114.11,57.21 C114.11,40.72 124.52,27.36 137.36,27.36 C146.6,27.36 154.59,34.28 158.36,44.36 C159.15648,46.080669 159.569348,47.95393 159.57,49.85 C159.395131,57.4129401 153.143774,63.4140643 145.58,63.28 L145.58,63.31 Z" id="Shape"></path>
                </g>
            </g>
        </g>
    </g>
</svg>