<?xml version="1.0" encoding="UTF-8"?>
<svg width="157px" height="169px" viewBox="0 0 157 169" version="1.1" xmlns="http://www.w3.org/2000/svg" xmlns:xlink="http://www.w3.org/1999/xlink">
    <!-- Generator: Sketch 51.2 (57519) - http://www.bohemiancoding.com/sketch -->
    <title>電源供應器</title>
    <desc>Created with Sketch.</desc>
    <defs></defs>
    <g id="Page-1" stroke="none" stroke-width="1" fill="none" fill-rule="evenodd">
        <g id="Artboard" transform="translate(-1439.000000, -668.000000)" fill="#84A9CD" fill-rule="nonzero">
            <g id="電腦零件ICON">
                <g id="電源供應器" transform="translate(1439.000000, 668.000000)">
                    <rect id="Rectangle-path" x="65.19" y="0.81" width="30" height="94" rx="12"></rect>
                    <path d="M108.19,30.65 L108.19,37.21 C108.182854,38.9077091 109.037662,40.4930576 110.46,41.42 C132.352374,55.7225045 142.218079,82.7293434 134.699969,107.775614 C127.181859,132.821885 104.073901,149.931058 77.923879,149.812732 C51.7738569,149.694406 28.8216767,132.376816 21.5305328,107.263535 C14.239389,82.1502543 24.3490911,55.2338019 46.37,41.13 C47.5099942,40.3889971 48.1955183,39.1196476 48.19,37.76 L48.19,30.28 C48.2181278,27.7173937 46.8436357,25.3442706 44.60683,24.0934939 C42.3700244,22.8427172 39.6285242,22.9142603 37.46,24.28 C14.2460352,38.4934692 0.120671041,63.7804103 0.19,91 C0.29,133 34.28,167.8 76.31,168.79 C111.514279,169.662927 142.937362,146.839026 152.994745,113.090658 C163.052128,79.342291 149.249141,43.0405256 119.31,24.5 C117.07349,23.0881939 114.245635,23.0063096 111.93118,24.2863367 C109.616725,25.5663637 108.182957,28.0051705 108.19,30.65 Z" id="Shape"></path>
                </g>
            </g>
        </g>
    </g>
</svg>