<?xml version="1.0" encoding="UTF-8"?>
<svg width="192px" height="96px" viewBox="0 0 192 96" version="1.1" xmlns="http://www.w3.org/2000/svg" xmlns:xlink="http://www.w3.org/1999/xlink">
    <!-- Generator: Sketch 51.2 (57519) - http://www.bohemiancoding.com/sketch -->
    <title>RAM</title>
    <desc>Created with Sketch.</desc>
    <defs></defs>
    <g id="Page-1" stroke="none" stroke-width="1" fill="none" fill-rule="evenodd">
        <g id="Artboard" transform="translate(-603.000000, -705.000000)" fill="#84A9CD" fill-rule="nonzero">
            <g id="電腦零件ICON">
                <g id="RAM" transform="translate(603.000000, 705.000000)">
                    <path d="M0.78,0.31 L0.78,95.31 L18.78,95.31 L18.78,77.31 L22.78,77.31 L22.78,95.31 L28.78,95.31 L28.78,77.31 L32.78,77.31 L32.78,95.31 L43.78,95.31 L43.78,77.31 L47.78,77.31 L47.78,95.31 L53.78,95.31 L53.78,77.31 L57.78,77.31 L57.78,95.31 L62.78,95.31 L62.78,77.31 L66.78,77.31 L66.78,95.31 L76.78,95.31 L76.78,77.31 L80.78,77.31 L80.78,95.31 L87.78,95.31 L87.78,77.31 L91.78,77.31 L91.78,95.31 L140.78,95.31 L140.78,77.31 L144.78,77.31 L144.78,95.31 L149.78,95.31 L149.78,77.31 L153.78,77.31 L153.78,95.31 L160.78,95.31 L160.78,77.31 L164.78,77.31 L164.78,95.31 L170.78,95.31 L170.78,77.31 L174.78,77.31 L174.78,95.31 L191.78,95.31 L191.78,0.31 L0.78,0.31 Z M45.78,54.31 L18.78,54.31 L18.78,27.31 L45.78,27.31 L45.78,54.31 Z M84.78,54.31 L57.78,54.31 L57.78,27.31 L84.78,27.31 L84.78,54.31 Z M133.78,54.31 L106.78,54.31 L106.78,27.31 L133.78,27.31 L133.78,54.31 Z M172.78,54.31 L145.78,54.31 L145.78,27.31 L172.78,27.31 L172.78,54.31 Z" id="Shape"></path>
                </g>
            </g>
        </g>
    </g>
</svg>