<?xml version="1.0" encoding="UTF-8"?>
<svg width="154px" height="182px" viewBox="0 0 154 182" version="1.1" xmlns="http://www.w3.org/2000/svg" xmlns:xlink="http://www.w3.org/1999/xlink">
    <!-- Generator: Sketch 51.2 (57519) - http://www.bohemiancoding.com/sketch -->
    <title>硬碟</title>
    <desc>Created with Sketch.</desc>
    <defs></defs>
    <g id="Page-1" stroke="none" stroke-width="1" fill="none" fill-rule="evenodd">
        <g id="Artboard" transform="translate(-1189.000000, -662.000000)" fill="#84A9CD" fill-rule="nonzero">
            <g id="電腦零件ICON">
                <g id="硬碟" transform="translate(1189.000000, 662.000000)">
                    <circle id="Oval" cx="75.39" cy="71.31" r="9"></circle>
                    <path d="M129.14,0.31 L24.64,0.31 C11.2630527,0.348447633 0.428447633,11.1830527 0.39,24.56 L0.39,157.06 C0.428447633,170.436947 11.2630527,181.271552 24.64,181.31 L129.14,181.31 C142.516947,181.271552 153.351552,170.436947 153.39,157.06 L153.39,24.56 C153.351552,11.1830527 142.516947,0.348447633 129.14,0.31 Z M64.72,120.15 C42.1913809,115.228694 25.9503518,95.5384274 25.4047104,72.4850067 C24.859069,49.431586 40.1503529,28.9949945 62.420915,23.0133564 C84.6914771,17.0317182 108.164405,27.0566511 119.242743,47.2811005 C130.321082,67.50555 126.131144,92.6833589 109.1,108.23 C109.04,108.06 108.99,107.89 108.92,107.73 C103.78,94.02 89.92,86.53 78.08,90.99 C67.26,95.05 61.76,107.6 64.72,120.15 Z M119.89,162.31 C116.400825,162.311451 113.047844,160.955914 110.54,158.53 C109.468688,157.501728 108.57644,156.301924 107.9,154.98 L79.21,116.31 C79.06,116.16 78.92,116 78.78,115.83 C78.5893222,115.580606 78.4187844,115.316439 78.27,115.04 C77.7242084,114.072746 77.4382561,112.980615 77.44,111.87 C77.4466459,109.24336 79.0311445,106.878034 81.457679,105.872443 C83.8842135,104.866852 86.6773505,105.418023 88.54,107.27 C88.71,107.45 88.87,107.63 89.03,107.83 L125.84,136.74 C127.586786,137.585299 129.131628,138.795937 130.37,140.29 C133.684405,144.324126 134.375501,149.907758 132.144668,154.628228 C129.913834,159.348697 125.161059,162.359626 119.94,162.36 L119.89,162.31 Z" id="Shape"></path>
                </g>
            </g>
        </g>
    </g>
</svg>