<?xml version="1.0" encoding="UTF-8"?>
<svg width="349px" height="291px" viewBox="0 0 349 291" version="1.1" xmlns="http://www.w3.org/2000/svg" xmlns:xlink="http://www.w3.org/1999/xlink">
    <!-- Generator: Sketch 50.2 (55047) - http://www.bohemiancoding.com/sketch -->
    <title>undraw_To_the_stars_qhyy</title>
    <desc>Created with Sketch.</desc>
    <defs>
        <linearGradient x1="50.0017673%" y1="100%" x2="50.0017673%" y2="0.00481706169%" id="linearGradient-1">
            <stop stop-color="#808080" stop-opacity="0.25" offset="0%"></stop>
            <stop stop-color="#808080" stop-opacity="0.12" offset="54%"></stop>
            <stop stop-color="#808080" stop-opacity="0.1" offset="100%"></stop>
        </linearGradient>
        <linearGradient x1="49.9783268%" y1="0%" x2="49.9783268%" y2="100.015969%" id="linearGradient-2">
            <stop stop-color="#E0E0E0" offset="0%"></stop>
            <stop stop-color="#FCCC63" offset="31%"></stop>
            <stop stop-color="#F55F44" offset="77%"></stop>
        </linearGradient>
        <linearGradient x1="50.0216732%" y1="0%" x2="50.0216732%" y2="100.015969%" id="linearGradient-3">
            <stop stop-color="#E0E0E0" offset="0%"></stop>
            <stop stop-color="#FCCC63" offset="31%"></stop>
            <stop stop-color="#F55F44" offset="77%"></stop>
        </linearGradient>
        <linearGradient x1="50.0017854%" y1="100.026706%" x2="50.0017854%" y2="0.0090971242%" id="linearGradient-4">
            <stop stop-color="#808080" stop-opacity="0.25" offset="0%"></stop>
            <stop stop-color="#808080" stop-opacity="0.12" offset="54%"></stop>
            <stop stop-color="#808080" stop-opacity="0.1" offset="100%"></stop>
        </linearGradient>
        <linearGradient x1="50%" y1="0%" x2="50%" y2="100%" id="linearGradient-5">
            <stop stop-color="#F2F2F2" offset="0%"></stop>
            <stop stop-color="#E6E6E6" offset="31%"></stop>
            <stop stop-color="#CCCCCC" offset="77%"></stop>
        </linearGradient>
        <linearGradient x1="50.0261588%" y1="0.0667535267%" x2="50.0261588%" y2="100%" id="linearGradient-6">
            <stop stop-color="#F2F2F2" offset="0%"></stop>
            <stop stop-color="#E6E6E6" offset="31%"></stop>
            <stop stop-color="#CCCCCC" offset="77%"></stop>
        </linearGradient>
        <linearGradient x1="50.0018333%" y1="-0.0532481363%" x2="50.0018333%" y2="100.01065%" id="linearGradient-7">
            <stop stop-color="#F2F2F2" offset="0%"></stop>
            <stop stop-color="#E6E6E6" offset="31%"></stop>
            <stop stop-color="#CCCCCC" offset="77%"></stop>
        </linearGradient>
        <linearGradient x1="49.996574%" y1="-0.0251984377%" x2="49.996574%" y2="100%" id="linearGradient-8">
            <stop stop-color="#F2F2F2" offset="0%"></stop>
            <stop stop-color="#E6E6E6" offset="31%"></stop>
            <stop stop-color="#CCCCCC" offset="77%"></stop>
        </linearGradient>
        <linearGradient x1="49.9893736%" y1="-0.0106450926%" x2="49.9893736%" y2="100.010645%" id="linearGradient-9">
            <stop stop-color="#F2F2F2" offset="0%"></stop>
            <stop stop-color="#E6E6E6" offset="31%"></stop>
            <stop stop-color="#CCCCCC" offset="77%"></stop>
        </linearGradient>
        <linearGradient x1="49.9919034%" y1="0.0388432241%" x2="49.9919034%" y2="100%" id="linearGradient-10">
            <stop stop-color="#F2F2F2" offset="0%"></stop>
            <stop stop-color="#E6E6E6" offset="31%"></stop>
            <stop stop-color="#CCCCCC" offset="77%"></stop>
        </linearGradient>
        <linearGradient x1="50%" y1="100%" x2="50%" y2="0%" id="linearGradient-11">
            <stop stop-color="#808080" stop-opacity="0.25" offset="0%"></stop>
            <stop stop-color="#808080" stop-opacity="0.12" offset="54%"></stop>
            <stop stop-color="#808080" stop-opacity="0.1" offset="100%"></stop>
        </linearGradient>
        <linearGradient x1="50%" y1="100%" x2="50%" y2="0.0343170899%" id="linearGradient-12">
            <stop stop-color="#808080" stop-opacity="0.25" offset="0%"></stop>
            <stop stop-color="#808080" stop-opacity="0.12" offset="54%"></stop>
            <stop stop-color="#808080" stop-opacity="0.1" offset="100%"></stop>
        </linearGradient>
        <linearGradient x1="50%" y1="4.10718344e-13%" x2="50%" y2="100%" id="linearGradient-13">
            <stop stop-color="#F2F2F2" offset="0%"></stop>
            <stop stop-color="#E0E0E0" offset="31%"></stop>
            <stop stop-color="#B3B3B3" offset="77%"></stop>
        </linearGradient>
        <linearGradient x1="50%" y1="0%" x2="50%" y2="100.032701%" id="linearGradient-14">
            <stop stop-color="#F2F2F2" offset="0%"></stop>
            <stop stop-color="#E6E6E6" offset="31%"></stop>
            <stop stop-color="#CCCCCC" offset="77%"></stop>
        </linearGradient>
        <linearGradient x1="49.9540293%" y1="99.9430785%" x2="49.9540293%" y2="-0.0566800544%" id="linearGradient-15">
            <stop stop-color="#808080" stop-opacity="0.25" offset="0%"></stop>
            <stop stop-color="#808080" stop-opacity="0.12" offset="54%"></stop>
            <stop stop-color="#808080" stop-opacity="0.1" offset="100%"></stop>
        </linearGradient>
        <linearGradient x1="50.0721261%" y1="100.095365%" x2="50.0721261%" y2="0.0957582806%" id="linearGradient-16">
            <stop stop-color="#808080" stop-opacity="0.25" offset="0%"></stop>
            <stop stop-color="#808080" stop-opacity="0.12" offset="54%"></stop>
            <stop stop-color="#808080" stop-opacity="0.1" offset="100%"></stop>
        </linearGradient>
    </defs>
    <g id="Page-1" stroke="none" stroke-width="1" fill="none" fill-rule="evenodd">
        <g id="1920x1080網頁" transform="translate(-1180.000000, -85.000000)" fill-rule="nonzero">
            <g id="undraw_To_the_stars_qhyy" transform="translate(1180.000000, 85.000000)">
                <g id="Group" opacity="0.7" transform="translate(114.000000, 18.000000)" fill="url(#linearGradient-1)">
                    <path d="M106.845528,112.620896 C106.875859,103.432197 104.677988,94.3733828 100.440599,86.2221329 C98.4286972,82.3943122 96.5938732,80.0146522 95.1659507,78.5551777 C94.0621566,77.3833206 92.3367046,77.0424413 90.8708803,77.7066461 C90.2994047,77.9084926 89.7832217,78.2417529 89.363838,78.6796291 C87.453662,80.6595363 85.7280986,83.2767852 84.2210563,86.0637403 C79.7630994,94.4053932 77.4493226,103.726483 77.4883451,113.186584 L77.4883451,118.86609 L73.848838,118.86609 L73.848838,52.8691808 C73.848838,39.0362287 70.7556338,25.388068 64.6973239,13.2710355 C61.8264085,7.53496136 59.2079225,3.97112828 57.1922535,1.78003091 C56.2043529,0.653181858 54.779238,0.00712023017 53.2814789,0.00712023017 C51.7837198,0.00712023017 50.3586049,0.653181858 49.3707042,1.78003091 C46.6429577,4.74800618 44.1827113,8.67010819 42.0314085,12.8411128 C35.6603873,25.2070479 32.4240141,39.2398764 32.4240141,53.4838949 L32.4240141,118.86609 L29.2780634,118.86609 L29.2780634,112.915054 C29.3170859,103.454953 27.0033091,94.1338631 22.5453521,85.7922102 C21.0383099,83.0090263 19.3127465,80.3917774 17.4025704,78.4080989 C16.2744234,77.2187077 14.5076537,76.8955028 13.0321479,77.6085935 L13.1640141,77.6802473 C12.7027166,77.8843308 12.2855388,78.1763817 11.9357746,78.5400927 C10.5229225,79.9995672 8.68809859,82.3792272 6.66112676,86.2070479 C2.42373749,94.3582978 0.225866786,103.417112 0.256197183,112.605811 L0.256197183,211.276847 L11.483662,211.276847 L10.2591901,219.38881 L10.2591901,243.641731 L19.4370775,243.641731 L19.4370775,219.38881 L18.2126056,211.276847 L29.2780634,211.276847 L29.2780634,121.419227 L32.4240141,121.419227 L32.4240141,210.873323 L41.3909155,210.873323 L40.1023944,219.385039 L40.1023944,243.641731 L49.2840493,243.641731 L49.2840493,219.38881 L47.9955282,210.877094 L60.0782394,210.877094 L58.7897183,219.38881 L58.7897183,243.641731 L67.9713732,243.641731 L67.9713732,219.38881 L66.6828521,210.877094 L73.8413028,210.877094 L73.8413028,121.419227 L77.4808099,121.419227 L77.4808099,211.412612 L80.4308451,211.412612 L80.4308451,211.276847 L90.1851761,211.276847 L88.9607042,219.38881 L88.9607042,243.641731 L98.1423592,243.641731 L98.1423592,219.38881 L96.9178873,211.276847 L106.845528,211.276847 L106.845528,112.620896 Z" id="Shape"></path>
                </g>
                <polygon id="Shape" fill="#535461" points="135 233 126 233 127.607282 223 133.392718 223"></polygon>
                <g id="Group" opacity="0.1" transform="translate(127.000000, 223.000000)" fill="#000000">
                    <polygon id="Shape" points="0.132222222 2.77 6.79388889 2.77 6.34666667 0.16 0.579444444 0.16"></polygon>
                </g>
                <polygon id="Shape" fill="#535461" points="209 233 200 233 201.607282 223 207.392718 223"></polygon>
                <g id="Group" opacity="0.1" transform="translate(202.000000, 223.000000)" fill="#000000">
                    <polygon id="Shape" points="0.0388888889 2.77 6.70055556 2.77 6.25333333 0.16 0.486111111 0.16"></polygon>
                </g>
                <polygon id="Shape" fill="#535461" points="163 233 154 233 155.606586 223 161.393414 223"></polygon>
                <g id="Group" opacity="0.1" transform="translate(156.000000, 223.000000)" fill="#000000">
                    <polygon id="Shape" points="0.124444444 2.77 6.79 2.77 6.34277778 0.16 0.571666667 0.16"></polygon>
                </g>
                <polygon id="Shape" fill="#535461" points="181 233 172 233 173.607282 223 179.392718 223"></polygon>
                <g id="Group" opacity="0.1" transform="translate(173.000000, 223.000000)" fill="#000000">
                    <polygon id="Shape" points="0.112777778 2.77 6.77833333 2.77 6.32722222 0.16 0.56 0.16"></polygon>
                </g>
                <rect id="Rectangle-path" fill="#535461" x="134" y="135" width="62" height="3"></rect>
                <path d="M206.141477,95.1477133 C205.48952,94.4168841 204.563697,94 203.592617,94 C202.621537,94 201.695714,94.4168841 201.043757,95.1477133 C199.266774,97.0687496 197.663787,99.6100813 196.26071,102.313066 C192.108751,110.441651 189.960603,119.471724 190.000547,128.628631 L190.000547,224 L216.999584,224 L216.999584,128.233898 C217.033516,119.328028 214.989732,110.540631 211.035585,102.591259 C209.162348,98.8770049 207.455704,96.5649945 206.141477,95.1477133 Z" id="Shape" fill="#E0E0E0"></path>
                <path d="M126.862948,95.1477133 C127.514727,94.4168841 128.440296,94 129.41111,94 C130.381923,94 131.307493,94.4168841 131.959271,95.1477133 C133.735767,97.0687496 135.338314,99.6100813 136.741006,102.313066 C140.891827,110.441651 143.039386,119.471724 142.999453,128.628631 L142.999453,224 L116.000416,224 L116.000416,128.233898 C115.966493,119.328028 118.009717,110.540631 121.96278,102.591259 C123.831802,98.8770049 125.537978,96.5649945 126.862948,95.1477133 Z" id="Shape" fill="#E0E0E0"></path>
                <polygon id="Shape" fill="#535461" points="116 131 123 131.029879 123 139 116 139"></polygon>
                <polygon id="Shape" fill="#535461" points="138 131 145 131.029879 145 139 138 139"></polygon>
                <polygon id="Shape" fill="#535461" points="190 131 197 131.029879 197 139 190 139"></polygon>
                <polygon id="Shape" fill="#535461" points="210 131 217 131.029879 217 139 210 139"></polygon>
                <g id="Group" opacity="0.1" transform="translate(128.000000, 94.000000)" fill="#000000">
                    <path d="M9.23809524,8.42034682 C7.79809524,5.69812139 6.1447619,3.13869942 4.31619048,1.20398844 C3.25426131,0.0383425584 1.54132555,-0.282021096 0.125714286,0.420260116 C0.522650667,0.617098757 0.881239536,0.882465723 1.1847619,1.20398844 C3.01333333,3.13869942 4.66285714,5.69812139 6.10666667,8.42034682 C10.3791631,16.6067942 12.589675,25.7011469 12.5485714,34.923237 L12.5485714,130.965925 L15.687619,130.965925 L15.687619,34.9345954 C15.7282201,25.7080374 13.5150325,16.6095351 9.23809524,8.42034682 Z" id="Shape"></path>
                </g>
                <g id="Group" opacity="0.1" transform="translate(190.000000, 94.000000)" fill="#000000">
                    <path d="M8.99634146,8.66034582 C10.3792683,5.94596542 11.9670732,3.39391931 13.7231707,1.46478386 C14.0520306,1.09966962 14.4489993,0.806893999 14.8902439,0.604034582 C13.5527759,-0.0003824892 11.9905433,0.346361611 11.0121951,1.46478386 C9.25609756,3.39391931 7.67195122,5.94596542 6.28536585,8.66034582 C2.18220619,16.8232012 0.0593060616,25.8913453 0.0987804878,35.0868588 L0.0987804878,130.852767 L2.81341463,130.852767 L2.81341463,35.1019597 C2.77044041,25.901658 4.89214855,16.8280608 8.99634146,8.66034582 Z" id="Shape"></path>
                </g>
                <rect id="Rectangle-path" fill="url(#linearGradient-2)" x="126" y="233" width="9" height="24"></rect>
                <rect id="Rectangle-path" fill="url(#linearGradient-3)" x="154" y="233" width="9" height="24"></rect>
                <rect id="Rectangle-path" fill="url(#linearGradient-3)" x="172" y="233" width="9" height="24"></rect>
                <rect id="Rectangle-path" fill="url(#linearGradient-3)" x="200" y="233" width="9" height="24"></rect>
                <path d="M170.316073,20.7197294 C169.40199,19.6294137 168.05469,19 166.634883,19 C165.215077,19 163.867777,19.6294137 162.953694,20.7197294 C160.387165,23.600044 158.082909,27.4091284 156.044673,31.462626 C150.049861,43.4727106 147,57.1034422 147,70.9259441 L147,224 L186,224 L186,70.309271 C186,56.8778301 183.088769,43.6118381 177.382457,31.8762482 C174.681045,26.3073893 172.215679,22.8480036 170.316073,20.7197294 Z" id="Shape" fill="#EEEEEE"></path>
                <rect id="Rectangle-path" fill="#B8E0E3" x="157" y="38" width="21" height="9" rx="4.5"></rect>
                <g id="Group" opacity="0.7" transform="translate(51.000000, 220.000000)" fill="url(#linearGradient-4)">
                    <path d="M206.947772,34.177672 C204.275641,18.1336884 189.669132,6.82955898 173.396957,8.21234629 C157.124783,9.5951336 144.652817,23.2003551 144.749138,39.4632275 C144.749138,39.6172487 144.749138,39.7675132 144.749138,39.9215344 C143.591006,40.0962111 142.44461,40.3408422 141.316293,40.6540741 C138.354516,28.9080773 128.259551,20.3103773 116.147695,19.2184314 C104.035838,18.1264855 92.5544428,24.7789663 87.5224715,35.8042857 C84.9919131,34.8321247 82.3341238,34.2273822 79.6306992,34.0086243 C79.1996488,31.5709307 78.4764761,29.1935378 77.4766829,26.9274074 C76.5035391,12.098582 64.2429083,0.508346944 49.3214778,0.311693214 C34.4000472,0.115039485 21.8356966,11.3780991 20.468813,26.1760847 C18.9876022,29.2996133 18.0415169,32.647881 17.6697236,36.0822751 C4.1047205,41.7025663 -2.98474276,56.6372301 1.26373984,70.6431217 L230.46465,70.6431217 C232.882521,62.6621138 231.669922,54.027006 227.146304,47.0126484 C222.622685,39.9982908 215.241686,35.308101 206.947772,34.177672 Z" id="Shape"></path>
                </g>
                <circle id="Oval" fill="url(#linearGradient-5)" cx="102.5" cy="249.5" r="27.5"></circle>
                <circle id="Oval" fill="url(#linearGradient-5)" cx="103" cy="259" r="30"></circle>
                <circle id="Oval" fill="url(#linearGradient-5)" cx="225" cy="259" r="30"></circle>
                <circle id="Oval" fill="url(#linearGradient-5)" cx="223.5" cy="262.5" r="27.5"></circle>
                <path d="M192.999986,267.637634 C193.008998,276.493141 188.779705,284.813379 181.632881,290 L149.39212,290 C138.861044,282.355616 135.09556,268.351056 140.363783,256.42187 C145.632005,244.492684 158.495712,237.89553 171.206539,240.604157 C183.917367,243.312784 193.005269,254.58774 192.996212,267.637634 L192.999986,267.637634 Z" id="Shape" fill="url(#linearGradient-6)"></path>
                <path d="M157.999983,282.127796 C158.002973,284.794874 157.605989,287.447698 156.821941,290 L104.1763,290 C101.666827,281.803755 103.221622,272.919137 108.371178,266.029064 C113.520734,259.138992 121.661387,255.051165 130.334874,255 L130.504784,255 C131.275042,255 132.039008,255.031061 132.79668,255.093184 C135.395156,255.301819 137.949776,255.877995 140.382213,256.804047 C150.992335,260.839332 157.993824,270.903259 157.999983,282.127796 Z" id="Shape" fill="url(#linearGradient-7)"></path>
                <path d="M226,287.520474 C226,288.344463 225.963502,289.159632 225.890506,289.965982 C225.892424,289.97342 207.633348,289.984759 171.113277,290 C171.037764,289.183571 171.000007,288.355802 171.000007,287.524253 C170.990285,273.910393 180.931578,262.338171 194.378874,260.309941 C195.738659,260.105257 197.111719,260.00166 198.486789,260 C199.189061,260 199.887557,260.026458 200.578503,260.075595 C210.617977,260.844212 219.436744,267.040012 223.572253,276.230314 C223.685522,276.479778 223.795016,276.733023 223.896959,276.986267 C225.285546,280.32432 226.000299,283.904541 226,287.520474 Z" id="Shape" fill="url(#linearGradient-8)"></path>
                <path d="M277.999983,281.131148 C278.002974,283.797091 277.605891,287.448785 276.821648,290 L224.174217,290 C222.901354,285.827416 222.659195,281.414911 223.467971,277.131148 C223.513291,276.896423 223.558612,276.657973 223.611486,276.426975 C226.342418,263.926219 237.546673,255.000824 250.509262,255 C251.37413,255 252.223892,255.037258 253.0661,255.119225 C253.443771,255.149031 253.821443,255.193741 254.199115,255.242176 C267.832666,257.072115 277.999035,267.557546 277.999983,281.131148 Z" id="Shape" fill="url(#linearGradient-9)"></path>
                <path d="M109.816507,290 C109.907112,289.717011 109.986392,289.434022 110.065672,289.147309 C112.613411,279.748991 109.865526,269.724595 102.863336,262.872899 C95.8611461,256.021203 85.6760833,253.39061 76.1678098,255.977993 C75.0740239,256.273988 74.0008609,256.639663 72.9550822,257.072714 C59.9107545,262.42523 53.0943738,276.650144 57.1821375,289.988829 L109.816507,289.988829 L109.816507,290 Z" id="Shape" fill="url(#linearGradient-10)"></path>
                <g id="Group" opacity="0.7" transform="translate(263.000000, 223.000000)" fill="url(#linearGradient-11)">
                    <ellipse id="Oval" cx="4.97407407" cy="5.09642857" rx="4.94814815" ry="4.77142857"></ellipse>
                </g>
                <circle id="Oval" fill="url(#linearGradient-5)" cx="267.5" cy="227.5" r="4.5"></circle>
                <g id="Group" opacity="0.7" transform="translate(286.000000, 270.000000)" fill="url(#linearGradient-12)">
                    <circle id="Oval" cx="5.357" cy="5.566" r="5.34233333"></circle>
                </g>
                <circle id="Oval" fill="url(#linearGradient-13)" cx="291" cy="276" r="5"></circle>
                <g id="Group" opacity="0.7" transform="translate(50.000000, 239.000000)" fill="url(#linearGradient-11)">
                    <circle id="Oval" cx="6.37" cy="6.36212121" r="6.3069697"></circle>
                </g>
                <circle id="Oval" fill="url(#linearGradient-14)" cx="55.5" cy="245.5" r="5.5"></circle>
                <g id="Group" opacity="0.4" transform="translate(253.000000, 0.000000)" fill="url(#linearGradient-15)">
                    <path d="M29.4107865,6.55125 C28.0949617,4.79273115 26.4463258,3.31657293 24.5608989,2.20875 C18.6331171,-1.23640528 11.2087606,-0.570086219 5.97345572,3.87693062 C0.738150836,8.32394746 -1.19327205,15.6046934 1.1379911,22.1048339 C3.46925425,28.6049744 9.56677331,32.940339 16.4035955,32.95875 C16.748427,32.95875 17.0932584,32.95875 17.434382,32.925 C23.4142862,32.5434944 28.7037446,28.8709682 31.2046264,23.3641756 C33.7055081,17.857383 33.0136056,11.406365 29.4033708,6.57 L29.4107865,6.55125 Z" id="Shape"></path>
                </g>
                <path d="M285.999983,16.9962101 C286.000675,25.4396363 279.438437,32.4303492 271.009663,32.9653097 C270.674232,32.9884366 270.334944,33 269.995657,33 C263.269687,32.9960196 257.263888,28.7882641 254.964818,22.4691623 C252.665748,16.1500604 254.564042,9.06814677 259.715719,4.74510892 C264.867396,0.422071065 272.173056,-0.219528571 277.999748,3.13936409 C279.853937,4.21588269 281.47521,5.65064993 282.769045,7.36001677 C284.870263,10.1328756 286.005101,13.5175011 285.999983,16.9962101 Z" id="Shape" fill="#B8E0E3" opacity="0.2"></path>
                <path d="M267.172936,7.13639501 C266.292511,7.50001184 265.442853,7.92842664 264.631599,8.417789 C264.089839,8.70545001 263.624779,9.10899912 263.272662,9.59698591 C262.921395,10.0968743 262.908544,10.7474065 263.239817,11.2596536 C263.650373,11.8020841 264.471483,11.8885586 265.15711,11.9239345 C266.439989,12.1847832 267.770206,11.7642713 268.638618,10.8233507 L270.1043,9.54981803 C270.613388,9.10958452 271.171744,8.50033278 270.950044,7.87928907 C270.781716,7.40367965 270.223361,7.17177092 269.718378,7.09315779 C268.458652,6.85579239 267.151742,7.07577444 266.05212,7.71027085" id="Shape" fill="#F55F44" opacity="0.05"></path>
                <circle id="Oval" fill="#F55F44" opacity="0.05" cx="261" cy="23" r="1"></circle>
                <circle id="Oval" fill="#F55F44" opacity="0.05" cx="278" cy="18" r="3"></circle>
                <path d="M284,7.54865661 C283.963681,9.95826861 282.051374,11.9154456 279.653303,11.9973447 C277.255231,12.0792437 275.214966,10.2570551 275.015755,7.85548699 C274.816543,5.45391883 276.528462,3.31777277 278.906968,3 C280.888931,4.16097208 282.620392,5.70736413 284,7.54865661 Z" id="Shape" fill="#F55F44" opacity="0.05"></path>
                <path d="M283,25.4483049 C280.234708,29.2973551 275.830634,31.7080114 271.030583,32 C271.011469,31.7868455 271,31.5699515 271,31.3530575 C271.001035,28.5742962 272.602776,26.0332811 275.140473,24.7845746 C277.678171,23.535868 280.718626,23.7926319 283,25.4483049 Z" id="Shape" fill="#F55F44" opacity="0.05"></path>
                <circle id="Oval" fill="#535461" opacity="0.25" cx="271.5" cy="129.5" r="1.5"></circle>
                <circle id="Oval" fill="#535461" opacity="0.25" cx="16.5" cy="180.5" r="1.5"></circle>
                <circle id="Oval" fill="#535461" opacity="0.25" cx="346.5" cy="191.5" r="1.5"></circle>
                <circle id="Oval" fill="#535461" opacity="0.25" cx="108.5" cy="99.5" r="1.5"></circle>
                <circle id="Oval" fill="#535461" opacity="0.25" cx="102.5" cy="55.5" r="1.5"></circle>
                <circle id="Oval" fill="#535461" opacity="0.25" cx="47.5" cy="143.5" r="1.5"></circle>
                <polygon id="Shape" fill="#535461" opacity="0.25" points="320 146.659341 318.338518 146.659341 318.338518 145 317.661482 145 317.661482 146.659341 316 146.659341 316 147.340659 317.661482 147.340659 317.661482 149 318.338518 149 318.338518 147.340659 320 147.340659"></polygon>
                <polygon id="Shape" fill="#535461" opacity="0.25" points="349 86.6593407 347.338518 86.6593407 347.338518 85 346.661482 85 346.661482 86.6593407 345 86.6593407 345 87.3406593 346.661482 87.3406593 346.661482 89 347.338518 89 347.338518 87.3406593 349 87.3406593"></polygon>
                <polygon id="Shape" fill="#535461" opacity="0.25" points="226 53.6614822 224.338518 53.6614822 224.338518 52 223.661482 52 223.661482 53.6614822 222 53.6614822 222 54.3385178 223.661482 54.3385178 223.661482 56 224.338518 56 224.338518 54.3385178 226 54.3385178"></polygon>
                <polygon id="Shape" fill="#535461" opacity="0.25" points="302 135.659341 300.336996 135.659341 300.336996 134 299.659341 134 299.659341 135.659341 298 135.659341 298 136.340659 299.659341 136.340659 299.659341 138 300.336996 138 300.336996 136.340659 302 136.340659"></polygon>
                <polygon id="Shape" fill="#535461" opacity="0.25" points="238 193.659341 236.340659 193.659341 236.340659 192 235.663004 192 235.663004 193.659341 234 193.659341 234 194.340659 235.663004 194.340659 235.663004 196 236.340659 196 236.340659 194.340659 238 194.340659"></polygon>
                <polygon id="Shape" fill="#535461" opacity="0.25" points="64 75.6593407 62.3385178 75.6593407 62.3385178 74 61.6614822 74 61.6614822 75.6593407 60 75.6593407 60 76.3369963 61.6614822 76.3369963 61.6614822 78 62.3385178 78 62.3385178 76.3369963 64 76.3369963"></polygon>
                <polygon id="Shape" fill="#535461" opacity="0.25" points="4 98.6593407 2.33851784 98.6593407 2.33851784 97 1.66148216 97 1.66148216 98.6593407 0 98.6593407 0 99.3369963 1.66148216 99.3369963 1.66148216 101 2.33851784 101 2.33851784 99.3369963 4 99.3369963"></polygon>
                <polygon id="Shape" fill="#535461" opacity="0.25" points="87 168.661482 85.3369963 168.661482 85.3369963 167 84.6593407 167 84.6593407 168.661482 83 168.661482 83 169.338518 84.6593407 169.338518 84.6593407 171 85.3369963 171 85.3369963 169.338518 87 169.338518"></polygon>
                <circle id="Oval" fill="url(#linearGradient-5)" cx="291" cy="276" r="5"></circle>
                <g id="Group" opacity="0.4" transform="translate(87.000000, 128.000000)" fill="url(#linearGradient-16)">
                    <path d="M14.1246512,3.46790698 C13.4959125,2.63619116 12.7078833,1.93796946 11.8065116,1.41395349 C8.9728619,-0.235461343 5.40946734,0.0675347673 2.89498542,2.17170224 C0.380503502,4.27586971 -0.545923754,7.73004399 0.578126978,10.8100846 C1.70217771,13.8901252 4.63569337,15.9356259 7.9144186,15.9255814 C8.07813953,15.9255814 8.2455814,15.9255814 8.4055814,15.9255814 C11.2622102,15.7428566 13.7880795,14.0070516 14.9826395,11.4057553 C16.1771996,8.80445897 15.8476956,5.75741749 14.1246512,3.47162791 L14.1246512,3.46790698 Z" id="Shape"></path>
                </g>
                <path d="M101.999933,135.515204 C101.999844,139.473138 98.9226968,142.749751 94.9707777,143 C94.8151646,143 94.6557561,143 94.4963477,143 C91.3435906,142.996802 88.5290868,141.024082 87.4519157,138.062472 C86.3747445,135.100862 87.2646746,131.782095 89.6793251,129.755918 C92.0939755,127.729741 95.5182833,127.428353 98.2500379,129.001572 C99.1187244,129.506039 99.8785805,130.177846 100.485552,130.978044 C101.474743,132.28338 102.006885,133.877702 101.999933,135.515204 Z" id="Shape" fill="#B8E0E3" opacity="0.2"></path>
                <path d="M93.577815,132.109595 C93.2412918,132.325808 92.9164176,132.582055 92.606192,132.87597 C92.4029001,133.045469 92.2278255,133.283985 92.0944705,133.573125 C91.9685098,133.874703 91.9685098,134.260417 92.0944705,134.561996 C92.2849805,134.847375 92.5475113,134.991802 92.8134716,134.957544 C93.2912272,135.106879 93.7849093,134.856284 94.1089689,134.299945 L94.6595553,133.538514 C94.8506412,133.271519 95.0611595,132.910581 94.9834296,132.549643 C94.8950967,132.271934 94.7183571,132.084562 94.5170506,132.055207 C94.0439821,131.913909 93.5533984,132.046075 93.1405846,132.426034" id="Shape" fill="#F55F44" opacity="0.1"></path>
                <circle id="Oval" fill="#F55F44" opacity="0.1" cx="90.5" cy="139.5" r="1"></circle>
                <circle id="Oval" fill="#F55F44" opacity="0.1" cx="99.5" cy="136.5" r="1.5"></circle>
                <path d="M102,132.016608 C101.986452,133.088041 101.13807,133.960199 100.07196,133.998682 C99.0058506,134.037165 98.0973277,133.228425 98.0072436,132.160733 C97.9171595,131.093041 98.6772275,130.142269 99.7345807,130 C100.615244,130.514859 101.38529,131.200332 102,132.016608 Z" id="Shape" fill="#F55F44" opacity="0.1"></path>
                <path d="M101.964,140.735124 C100.586703,142.652628 98.3922102,143.853964 96,144 C96.0000194,143.894429 96.0000194,143.784948 96.0000194,143.675467 C95.9954584,142.284943 96.7965995,141.011747 98.0682639,140.388557 C99.3399283,139.765367 100.862899,139.89961 102,140.735124 L101.964,140.735124 Z" id="Shape" fill="#F55F44" opacity="0.1"></path>
                <g id="Group" opacity="0.1" transform="translate(147.000000, 76.000000)" fill="#000000">
                    <rect id="Rectangle-path" x="0.22125" y="0.02" width="38.625" height="1.6"></rect>
                </g>
            </g>
        </g>
    </g>
</svg>