<?xml version="1.0" encoding="UTF-8"?>
<svg width="13px" height="15px" viewBox="0 0 13 15" version="1.1" xmlns="http://www.w3.org/2000/svg" xmlns:xlink="http://www.w3.org/1999/xlink">
    <!-- Generator: Sketch 51.2 (57519) - http://www.bohemiancoding.com/sketch -->
    <title>Group 12</title>
    <desc>Created with Sketch.</desc>
    <defs></defs>
    <g id="Page-1" stroke="none" stroke-width="1" fill="none" fill-rule="evenodd">
        <g id="我要組電腦" transform="translate(-1195.000000, -349.000000)" fill="#FBFBFB" fill-rule="nonzero">
            <g id="Group-12" transform="translate(1195.000000, 349.000000)">
                <g id="Group-3">
                    <ellipse id="Oval" cx="6.07992878" cy="5.79826712" rx="1" ry="1"></ellipse>
                    <path d="M10.5917638,0 L2.01649308,0 C0.918780693,0.00315303811 0.0296929242,0.891684265 0.0265379112,1.98870952 L0.0265379112,12.8548543 C0.0296929242,13.9518796 0.918780693,14.8404108 2.01649308,14.8435638 L10.5917638,14.8435638 C11.6894762,14.8404108 12.578564,13.9518796 12.581719,12.8548543 L12.581719,1.98870952 C12.578564,0.891684265 11.6894762,0.00315303811 10.5917638,9.32330294e-15 Z M5.30545816,9.82791541 C3.45675952,9.42432582 2.12402056,7.80955381 2.07924522,5.91897413 C2.03446988,4.02839446 3.28927275,2.35241739 5.11679523,1.86187138 C6.94431771,1.37132537 8.87050636,2.19345648 9.77959487,3.85203607 C10.6886834,5.51061566 10.3448571,7.57541353 8.94728127,8.85037242 C8.94235767,8.83643095 8.93825467,8.82248948 8.93251047,8.8093681 C8.51072203,7.68502965 7.37337034,7.07078493 6.40177986,7.43654347 C5.51389058,7.76949855 5.06256054,8.79870698 5.30545816,9.82791541 Z M9.83270875,13.2853997 C9.54638704,13.2855187 9.2712414,13.1743529 9.06544768,12.975407 C8.97753583,12.8910798 8.9043179,12.7926855 8.84880926,12.6842763 L6.49450766,9.51300223 C6.48219866,9.50070094 6.47071026,9.48757955 6.45922186,9.47363809 C6.44357484,9.4531856 6.4295805,9.43152167 6.41737126,9.40885126 C6.3725836,9.32952809 6.34911834,9.23996388 6.34926145,9.14888387 C6.34980681,8.93347668 6.47983078,8.73949951 6.67895222,8.65703237 C6.87807366,8.57456523 7.1072785,8.61976599 7.26012753,8.77164413 C7.27407773,8.78640568 7.28720733,8.80116724 7.30033693,8.81756897 L10.3209658,11.1884387 C10.464307,11.2577606 10.5910768,11.3570433 10.6926976,11.4795694 C10.9646778,11.8104026 11.0213891,12.2683087 10.8383269,12.655428 C10.6552646,13.0425473 10.2652519,13.2894694 9.83681175,13.2895001 L9.83270875,13.2853997 Z" id="Shape"></path>
                </g>
            </g>
        </g>
    </g>
</svg>