<?xml version="1.0" encoding="UTF-8"?>
<svg width="112px" height="72px" viewBox="0 0 112 72" version="1.1" xmlns="http://www.w3.org/2000/svg" xmlns:xlink="http://www.w3.org/1999/xlink">
    <!-- Generator: Sketch 51.2 (57519) - http://www.bohemiancoding.com/sketch -->
    <title>game</title>
    <desc>Created with Sketch.</desc>
    <defs></defs>
    <g id="Page-1" stroke="none" stroke-width="1" fill="none" fill-rule="evenodd">
        <g id="我要組電腦" transform="translate(-904.000000, -1038.000000)" fill="#FC9F66" fill-rule="nonzero">
            <g id="game" transform="translate(896.000000, 1007.000000)">
                <rect id="Rectangle-path" opacity="0" x="0" y="0" width="129" height="129"></rect>
                <path d="M119.634584,79.7073021 L113.219155,46.6881556 C111.176309,36.1740167 101.1014,29.2829509 90.8306905,31.3740365 L90.8305655,31.3740365 C82.8072494,33.0077131 81.6549388,35.2620128 75.7575622,40.4216782 C71.288641,44.3316551 56.7111987,44.3316551 52.2422774,40.4216782 C46.3450258,35.2620128 45.1924652,33.0077131 37.1692741,31.3740365 C26.8984399,29.2829509 16.8237809,36.1740167 14.7808098,46.6881556 L8.36538067,79.7073021 C6.32265946,90.2211851 13.0544679,100.534504 23.3253021,102.625973 L23.3254271,102.625973 C33.5961364,104.717059 43.6709203,97.8257373 45.7138914,87.3118543 L45.8734556,86.4907949 L82.1268838,86.4907949 L82.286448,87.3118543 C84.3292942,97.8257373 94.4040781,104.717059 104.674912,102.625973 C114.945497,100.534632 121.67743,90.2211851 119.634584,79.7073021 Z M47.2640504,63.1055052 L38.9388494,63.1055052 L38.9388494,71.6278172 C38.9388494,73.5104082 37.4477929,75.0367676 35.608744,75.0367676 C33.7696952,75.0367676 32.2786387,73.5104082 32.2786387,71.6278172 L32.2786387,63.1055052 L23.9534377,63.1055052 C22.1143888,63.1055052 20.6233323,61.5791457 20.6233323,59.6965548 C20.6233323,57.8139638 22.1143888,56.2876044 23.9534377,56.2876044 L32.2786387,56.2876044 L32.2786387,47.7652923 C32.2786387,45.8827013 33.7696952,44.3563419 35.608744,44.3563419 C37.4477929,44.3563419 38.9388494,45.8827013 38.9388494,47.7652923 L38.9388494,56.2876044 L47.2640504,56.2876044 C49.1030993,56.2876044 50.5941558,57.8139638 50.5941558,59.6965548 C50.5940308,61.5791457 49.1029743,63.1055052 47.2640504,63.1055052 Z M92.395344,45.9712156 C95.4444315,45.9712156 97.9162391,48.5015468 97.9162391,51.6228258 C97.9162391,54.7441049 95.4444315,57.2744361 92.395344,57.2744361 C89.3462564,57.2744361 86.8744488,54.7441049 86.8744488,51.6228258 C86.8744488,48.5015468 89.3462564,45.9712156 92.395344,45.9712156 Z M80.1705047,66.2058068 C77.5298865,64.6451673 76.6251064,61.1886341 78.1496502,58.4854954 C79.6741939,55.7823567 83.0507816,54.8561547 85.6913999,56.4167943 C88.3320181,57.9774338 89.2367982,61.433967 87.7122544,64.1371057 C86.1877106,66.8403723 82.811123,67.7664464 80.1705047,66.2058068 Z M97.1766461,73.8257083 C95.6521023,76.528847 92.2755146,77.455049 89.6348964,75.8944095 C86.9942781,74.3337699 86.0894981,70.8772367 87.6140418,68.174098 C89.1385856,65.4709594 92.5151733,64.5447573 95.1557915,66.1053969 C97.7965347,67.6661643 98.7011898,71.1225696 97.1766461,73.8257083 Z M106.641163,64.1372336 C105.116619,66.8403723 101.740031,67.7665743 99.099413,66.2059347 C96.4587948,64.6452952 95.5540147,61.188762 97.0785585,58.4856233 C98.6031022,55.7824847 101.97969,54.8562826 104.620308,56.4169222 C107.260926,57.9775617 108.165706,61.4340949 106.641163,64.1372336 Z" id="Shape"></path>
            </g>
        </g>
    </g>
</svg>