<?xml version="1.0" encoding="UTF-8"?>
<svg width="74px" height="70px" viewBox="0 0 74 70" version="1.1" xmlns="http://www.w3.org/2000/svg" xmlns:xlink="http://www.w3.org/1999/xlink">
    <!-- Generator: Sketch 51.2 (57519) - http://www.bohemiancoding.com/sketch -->
    <title>paintbrush</title>
    <desc>Created with Sketch.</desc>
    <defs></defs>
    <g id="Page-1" stroke="none" stroke-width="1" fill="none" fill-rule="evenodd">
        <g id="我要組電腦" transform="translate(-1317.000000, -598.000000)" fill="#FC9F66" fill-rule="nonzero">
            <g id="paintbrush" transform="translate(1317.000000, 598.000000)">
                <rect id="Rectangle-path" opacity="0" x="0" y="0" width="70" height="70"></rect>
                <path d="M19.4106829,39.6028842 C10.8362639,39.6028842 5.54682866,47.2868312 5.54682866,55.6023573 C5.54682866,59.4204676 3.88181482,62.1885975 0,63.6967512 C2.95841588,69.5320964 14.4992943,70.6218487 19.4106829,69.7198201 C25.2985579,68.6380222 32.6390971,65.5358076 34.3861551,56.7684718 C36.4195633,46.5661628 27.9867107,39.6028842 19.4106829,39.6028842 Z M71.9575541,2.08040516 C69.8179711,-0.0990994591 67.0107738,-0.830903932 64.5397968,1.17837663 L35.6152088,27.1065274 C34.1850665,26.7088076 32.8852296,26.7931241 31.8299165,27.5026563 L22.1181402,35.7386384 C21.8544741,36.0211167 21.8594136,36.4579519 22.1294011,36.7345289 C22.2114453,36.8188455 22.3063591,36.8665718 22.4093165,36.8999803 L22.7230148,36.9158891 L22.732667,36.9142982 C30.6507328,37.4917874 37.7692701,43.098046 37.48292,51.9751525 L37.4732677,52.2296932 C37.4941809,52.3728723 37.5569205,52.509688 37.6630954,52.6194586 C37.9269236,52.8883173 38.3516229,52.8899081 38.6186685,52.627413 L38.6283208,52.6194586 C38.637973,52.6083225 38.6444079,52.5971863 38.6556688,52.5860502 L46.9887815,42.9373672 C47.6853525,41.8651146 47.7690054,40.541503 47.3780891,39.0874393 L72.842344,9.63708179 C74.8162299,7.12190163 74.097137,4.25990979 71.9575541,2.08040516 Z M22.1149228,35.7615274 L22.1364591,35.7402293 L22.125691,35.7615274 L22.1149228,35.7615274 Z" id="Shape"></path>
            </g>
        </g>
    </g>
</svg>