<?xml version="1.0" encoding="UTF-8"?>
<svg width="25px" height="30px" viewBox="0 0 25 30" version="1.1" xmlns="http://www.w3.org/2000/svg" xmlns:xlink="http://www.w3.org/1999/xlink">
    <!-- Generator: Sketch 51.2 (57519) - http://www.bohemiancoding.com/sketch -->
    <title>man</title>
    <desc>Created with Sketch.</desc>
    <defs></defs>
    <g id="Page-1" stroke="none" stroke-width="1" fill="none" fill-rule="evenodd">
        <g id="我要買零件" transform="translate(-1386.000000, -25.000000)" fill="#FBFBFB" fill-rule="nonzero">
            <g id="man" transform="translate(1383.000000, 25.000000)">
                <rect id="Rectangle-path" opacity="0" x="0" y="0" width="31" height="30"></rect>
                <path d="M27.719917,25.9543569 C26.7551867,21.9709544 23.7323651,18.6721992 19.8091286,17.3029046 C22.6390041,15.8091286 24.5041494,12.9460581 24.5041494,9.64730291 C24.5041494,4.8547718 20.5165975,0.933609961 15.5643153,0.933609961 C10.6120332,0.933609961 6.6244813,4.79253111 6.6244813,9.64730291 C6.6244813,12.9460581 8.55394189,15.8091286 11.3195021,17.3029046 C7.3319502,18.6721992 4.37344397,21.7842324 3.34439834,25.7053942 C3.280083,25.9543569 3.21576762,26.4522821 3.21576762,26.4522821 C3.21576762,27.8838174 4.43775932,29.06639 5.91701244,29.06639 L25.0829876,29.06639 C26.5622407,29.06639 27.7842324,27.8838174 27.7842324,26.4522821 C27.7842324,26.2655602 27.719917,26.0788382 27.719917,25.9543569 Z" id="Shape"></path>
            </g>
        </g>
    </g>
</svg>