<?xml version="1.0" encoding="UTF-8"?>
<svg width="163px" height="163px" viewBox="0 0 163 163" version="1.1" xmlns="http://www.w3.org/2000/svg" xmlns:xlink="http://www.w3.org/1999/xlink">
    <!-- Generator: Sketch 51.2 (57519) - http://www.bohemiancoding.com/sketch -->
    <title>Group 7</title>
    <desc>Created with Sketch.</desc>
    <defs>
        <polygon id="path-1" points="0.000897196262 0.4377625 95.7003364 0.4377625 95.7003364 13.811 0.000897196262 13.811"></polygon>
        <polygon id="path-3" points="0 75 95 75 95 0 0 0"></polygon>
    </defs>
    <g id="Page-1" stroke="none" stroke-width="1" fill="none" fill-rule="evenodd">
        <g id="首頁" transform="translate(-879.000000, -836.000000)">
            <g id="Group-7" transform="translate(889.000000, 846.000000)">
                <g id="Group-6-Copy" transform="translate(24.000000, 34.000000)">
                    <path d="M86.8765586,68 L8.12255077,68 C3.65514784,68 0,64.3063832 0,59.7910627 L0,10.2089373 C0,5.69361679 3.65514784,2 8.12255077,2 L86.8765586,2 C91.3448522,2 95,5.69361679 95,10.2089373 L95,59.7910627 C95,64.3063832 91.3448522,68 86.8765586,68" id="Fill-1" fill="#EBF1F7"></path>
                    <g id="Group-5" transform="translate(0.000000, 2.000000)">
                        <mask id="mask-2" fill="white">
                            <use xlink:href="#path-1"></use>
                        </mask>
                        <g id="Clip-4"></g>
                        <path d="M87.5173682,64.6041375 L8.18278879,64.6041375 C3.68245234,64.6041375 0.000358878505,61.0131375 0.000358878505,56.6232625 L0.000358878505,8.4186375 C0.000358878505,4.0287625 3.68245234,0.4377625 8.18278879,0.4377625 L87.5173682,0.4377625 C92.0186019,0.4377625 95.7006953,4.0287625 95.7006953,8.4186375 L95.7006953,56.6232625 C95.7006953,61.0131375 92.0186019,64.6041375 87.5173682,64.6041375" id="Fill-3" fill="#CCE1F4" mask="url(#mask-2)"></path>
                    </g>
                    <path d="M11,30 L40,30" id="Stroke-8" stroke="#7198C1" stroke-width="2" stroke-linecap="round" stroke-linejoin="round"></path>
                    <path d="M11,36 L40,36" id="Stroke-10" stroke="#7198C1" stroke-width="2" stroke-linecap="round" stroke-linejoin="round"></path>
                    <path d="M11,42 L35,42" id="Stroke-12" stroke="#7198C1" stroke-width="2" stroke-linecap="round" stroke-linejoin="round"></path>
                    <path d="M48,45 L73,45" id="Stroke-14" stroke="#A6C9E1" stroke-linecap="round" stroke-linejoin="round"></path>
                    <path d="M63,50 L88,50" id="Stroke-16" stroke="#A6C9E1" stroke-linecap="round" stroke-linejoin="round"></path>
                    <path d="M48,50 L57,50" id="Stroke-18" stroke="#A6C9E1" stroke-linecap="round" stroke-linejoin="round"></path>
                    <path d="M63,54 L88,54" id="Stroke-20" stroke="#A6C9E1" stroke-linecap="round" stroke-linejoin="round"></path>
                    <path d="M48,54 L57,54" id="Stroke-22" stroke="#A6C9E1" stroke-linecap="round" stroke-linejoin="round"></path>
                    <path d="M80,58 L89,58" id="Stroke-24" stroke="#A6C9E1" stroke-linecap="round" stroke-linejoin="round"></path>
                    <path d="M63,58 L72,58" id="Stroke-26" stroke="#A6C9E1" stroke-linecap="round" stroke-linejoin="round"></path>
                    <path d="M56,29.4995491 C56,31.9846709 53.9853707,34 51.5,34 C49.0146293,34 47,31.9846709 47,29.4995491 C47,27.0144274 49.0146293,25 51.5,25 C53.9853707,25 56,27.0144274 56,29.4995491" id="Fill-28" fill="#7FBE37"></path>
                    <path d="M89,9 C89,10.6566107 87.6572216,12 85.9996065,12 C84.3435655,12 83,10.6566107 83,9 C83,7.3433893 84.3435655,6 85.9996065,6 C87.6572216,6 89,7.3433893 89,9" id="Fill-30" fill="#A6C9E1"></path>
                    <path d="M78,9 C78,10.6566107 76.6572216,12 74.9996065,12 C73.3435655,12 72,10.6566107 72,9 C72,7.3433893 73.3435655,6 74.9996065,6 C76.6572216,6 78,7.3433893 78,9" id="Fill-32" fill="#A6C9E1"></path>
                    <path d="M72,29.4995491 C72,31.9846709 69.9853707,34 67.5,34 C65.0146293,34 63,31.9846709 63,29.4995491 C63,27.0144274 65.0146293,25 67.5,25 C69.9853707,25 72,27.0144274 72,29.4995491" id="Fill-34" fill="#F2D726"></path>
                    <path d="M88,29.4995491 C88,31.9846709 85.9853707,34 83.5,34 C81.0146293,34 79,31.9846709 79,29.4995491 C79,27.0144274 81.0146293,25 83.5,25 C85.9853707,25 88,27.0144274 88,29.4995491" id="Fill-36" fill="#CF7C8A"></path>
                    <mask id="mask-4" fill="white">
                        <use xlink:href="#path-3"></use>
                    </mask>
                    <g id="Clip-39"></g>
                    <polygon id="Fill-38" fill="#CCE1F4" mask="url(#mask-4)" points="44 70 57 70 57 66 44 66"></polygon>
                    <path d="M74.5629998,75 L24.4370002,75 C23.6438333,75 23,74.3223529 23,73.4875294 L23,72.5134118 C23,71.6776471 23.6438333,71 24.4370002,71 L74.5629998,71 C75.3570609,71 76,71.6776471 76,72.5134118 L76,73.4875294 C76,74.3223529 75.3570609,75 74.5629998,75" id="Fill-40" fill="#A6C9E1" mask="url(#mask-4)"></path>
                    <path d="M28,68 L87.8401431,68 C92.327975,68 96,64.3063832 96,59.7910627 L96,10.2089373 C96,5.69361679 92.327975,2 87.8401431,2 L65.1540951,2 L28,68 Z" id="Fill-41" fill-opacity="0.35" fill="#FEFEFE" mask="url(#mask-4)"></path>
                </g>
                <circle id="Oval-7-Copy" stroke-opacity="0.3" stroke="#FFFFFF" stroke-width="10" cx="71.5" cy="71.5" r="76.5"></circle>
            </g>
        </g>
    </g>
</svg>