<?xml version="1.0" encoding="UTF-8"?>
<svg width="24px" height="24px" viewBox="0 0 24 24" version="1.1" xmlns="http://www.w3.org/2000/svg" xmlns:xlink="http://www.w3.org/1999/xlink">
    <!-- Generator: Sketch 51.2 (57519) - http://www.bohemiancoding.com/sketch -->
    <title>cancel</title>
    <desc>Created with Sketch.</desc>
    <defs></defs>
    <g id="Page-1" stroke="none" stroke-width="1" fill="none" fill-rule="evenodd">
        <g id="iPhone-8-Copy" transform="translate(-18.000000, -22.000000)" fill="#FBFBFB" fill-rule="nonzero">
            <g id="cancel" transform="translate(18.000000, 22.000000)">
                <rect id="Rectangle-path" opacity="0" x="0" y="0" width="24" height="24"></rect>
                <path d="M22.536,23.9999881 C22.152,23.9999881 21.792,23.8559882 21.504,23.5679884 L0.432000006,2.49599877 C-0.144000002,1.91999905 -0.144000002,1.00799952 0.432000006,0.431999792 C1.00800001,-0.143999931 1.92,-0.143999931 2.496,0.431999792 L23.568,21.5039894 C23.8442974,21.7763086 23.9998584,22.1480483 23.9998584,22.5359889 C23.9998584,22.9239295 23.8442974,23.2956692 23.568,23.5679884 C23.2966283,23.8457011 22.9242841,24.0015661 22.536,23.9999881 Z M1.46400002,23.9999881 C1.08000001,23.9999881 0.720000021,23.8559882 0.432000006,23.5679884 C0.155702642,23.2956692 0.000141585247,22.9239295 0.000141585247,22.5359889 C0.000141585247,22.1480483 0.155702642,21.7763086 0.432000006,21.5039894 L21.504,0.431999792 C22.08,-0.143999931 22.992,-0.143999931 23.568,0.431999792 C24.144,1.00799952 24.144,1.91999905 23.568,2.49599877 L2.496,23.5679884 C2.22462834,23.8457011 1.8522841,24.0015661 1.46400002,23.9999881 Z" id="Shape"></path>
            </g>
        </g>
    </g>
</svg>