<svg id="HDD_clip" xmlns="http://www.w3.org/2000/svg" viewBox="0 0 2844.02 2383.96"><defs><style>.cls-1{fill:#b3b3b3;}.cls-2{fill:none;}.cls-3{fill:#c9c9c9;}</style></defs><title>CASE_isometric</title><polygon class="cls-1" points="2290.63 1256.33 2290.63 1708.33 1757.16 1399.56 1757.16 948.33 2290.63 1256.33"/><polygon class="cls-2" points="2291.5 806.83 1932.96 1013.83 2023.89 1066.33 2382.43 859.33 2291.5 806.83"/><polygon class="cls-2" points="2413.61 877.33 2055.07 1084.33 2146 1136.83 2504.54 929.83 2413.61 877.33"/><polygon class="cls-2" points="2260.32 788.83 2224.72 768.28 2224.72 809.38 2260.32 788.83"/><polygon class="cls-2" points="2535.72 947.83 2177.18 1154.83 2268.11 1207.33 2626.65 1000.33 2535.72 947.83"/><path class="cls-3" d="M2224.72,691.28v77l35.6,20.55-35.6,20.55v.4L1901.79,995.83l-90.94-52.5.17-26.09-53.86,31.09,533.47,308L2747,992.83ZM1933,1013.83l358.54-207,90.93,52.5-358.54,207Zm122.11,70.5,358.54-207,90.93,52.5-358.54,207Zm213,123-90.93-52.5,358.53-207,90.94,52.5Z"/><polygon class="cls-3" points="2224.72 809.77 2224.72 809.38 1901.79 995.83 2224.72 809.77"/></svg>