<svg id="back" xmlns="http://www.w3.org/2000/svg" viewBox="0 0 2844.02 2383.96"><defs><style>.cls-1{fill:#4d4d4d;}.cls-2,.cls-3{fill:#777;}.cls-2,.cls-4{opacity:0.5;}.cls-4{fill:#4f4f4f;}.cls-5{fill:#7f7f7f;}.cls-6{fill:#b2b2b2;}</style></defs><title>CASE_isometric</title><path class="cls-1" d="M174.35,1090.34V1250c0,62.78,44.07,139.12,98.44,170.5l138.27,79.84c54.37,31.38,98.44,5.94,98.44-56.84V1283.84c0-62.78-44.07-139.12-98.44-170.5L272.79,1033.5C218.42,1002.12,174.35,1027.56,174.35,1090.34Zm236.77,394.53c0,5-3.53,7.07-7.89,4.56a17.45,17.45,0,0,1-7.89-13.67c0-5,3.53-7.07,7.89-4.56A17.45,17.45,0,0,1,411.12,1484.87Zm-21.92-12.65c0,5-3.53,7.07-7.89,4.55a17.42,17.42,0,0,1-7.89-13.67c0-5,3.53-7.07,7.89-4.55A17.42,17.42,0,0,1,389.2,1472.22Zm-22.79-13.17c0,5-3.54,7.08-7.9,4.56s-7.89-8.64-7.89-13.67,3.54-7.07,7.89-4.55A17.43,17.43,0,0,1,366.41,1459.05Zm-21.92-12.65c0,5-3.54,7.07-7.9,4.55a17.44,17.44,0,0,1-7.89-13.66c0-5,3.54-7.08,7.89-4.56A17.46,17.46,0,0,1,344.49,1446.4Zm-21.92-12.66c0,5-3.54,7.08-7.9,4.56s-7.89-8.64-7.89-13.67,3.54-7.07,7.89-4.56A17.46,17.46,0,0,1,322.57,1433.74Zm-21.92-12.65c0,5-3.54,7.07-7.9,4.55a17.44,17.44,0,0,1-7.89-13.66c0-5,3.54-7.08,7.89-4.56A17.44,17.44,0,0,1,300.65,1421.09Zm-21.92-12.66c0,5-3.54,7.07-7.9,4.56s-7.89-8.64-7.89-13.67,3.54-7.07,7.89-4.56A17.46,17.46,0,0,1,278.73,1408.43Zm165,74.25c0,5-3.53,7.07-7.89,4.56a17.45,17.45,0,0,1-7.89-13.67c0-5,3.53-7.07,7.89-4.56A17.45,17.45,0,0,1,443.7,1482.68ZM421.78,1470c0,5-3.53,7.07-7.89,4.55a17.42,17.42,0,0,1-7.89-13.67c0-5,3.53-7.07,7.89-4.55A17.42,17.42,0,0,1,421.78,1470Zm-21.92-12.66c0,5-3.53,7.07-7.89,4.56a17.45,17.45,0,0,1-7.89-13.67c0-5,3.53-7.07,7.89-4.56A17.45,17.45,0,0,1,399.86,1457.37Zm-21.92-12.65c0,5-3.53,7.07-7.89,4.55a17.42,17.42,0,0,1-7.89-13.67c0-5,3.53-7.07,7.89-4.55A17.42,17.42,0,0,1,377.94,1444.72Zm-22.79-13.17c0,5-3.54,7.08-7.89,4.56a17.46,17.46,0,0,1-7.9-13.67c0-5,3.54-7.07,7.9-4.55A17.44,17.44,0,0,1,355.15,1431.55Zm-21.92-12.65c0,5-3.54,7.07-7.89,4.55a17.43,17.43,0,0,1-7.9-13.66c0-5,3.54-7.08,7.9-4.56S333.23,1413.87,333.23,1418.9Zm-21.92-12.66c0,5-3.54,7.08-7.89,4.56a17.46,17.46,0,0,1-7.9-13.67c0-5,3.54-7.07,7.9-4.56S311.31,1401.21,311.31,1406.24Zm-21.92-12.65c0,5-3.54,7.07-7.89,4.55a17.43,17.43,0,0,1-7.9-13.66c0-5,3.54-7.08,7.9-4.56A17.46,17.46,0,0,1,289.39,1393.59Zm-21.92-12.66c0,5-3.54,7.07-7.89,4.56a17.46,17.46,0,0,1-7.9-13.67c0-5,3.54-7.07,7.9-4.56S267.47,1375.9,267.47,1380.93Zm-21.92-12.65c0,5-3.54,7.07-7.89,4.55a17.43,17.43,0,0,1-7.9-13.67c0-5,3.54-7.07,7.9-4.55A17.45,17.45,0,0,1,245.55,1368.28Zm231.33,111.56c0,5-3.53,7.07-7.89,4.55a17.42,17.42,0,0,1-7.89-13.66c0-5,3.53-7.08,7.89-4.56A17.45,17.45,0,0,1,476.88,1479.84ZM455,1467.18c0,5-3.53,7.07-7.89,4.56a17.45,17.45,0,0,1-7.89-13.67c0-5,3.53-7.07,7.89-4.56A17.45,17.45,0,0,1,455,1467.18ZM433,1454.53c0,5-3.53,7.07-7.89,4.55a17.42,17.42,0,0,1-7.89-13.67c0-5,3.53-7.07,7.89-4.55A17.42,17.42,0,0,1,433,1454.53Zm-21.92-12.66c0,5-3.53,7.07-7.89,4.56a17.45,17.45,0,0,1-7.89-13.67c0-5,3.53-7.07,7.89-4.56A17.45,17.45,0,0,1,411.12,1441.87Zm-21.92-12.65c0,5-3.53,7.07-7.89,4.55a17.42,17.42,0,0,1-7.89-13.67c0-5,3.53-7.07,7.89-4.55A17.42,17.42,0,0,1,389.2,1429.22Zm-22.79-13.17c0,5-3.54,7.08-7.9,4.56s-7.89-8.64-7.89-13.67,3.54-7.07,7.89-4.55A17.43,17.43,0,0,1,366.41,1416.05Zm-21.92-12.65c0,5-3.54,7.07-7.9,4.55a17.44,17.44,0,0,1-7.89-13.66c0-5,3.54-7.08,7.89-4.56A17.46,17.46,0,0,1,344.49,1403.4Zm-21.92-12.66c0,5-3.54,7.08-7.9,4.56s-7.89-8.64-7.89-13.67,3.54-7.07,7.89-4.56A17.46,17.46,0,0,1,322.57,1390.74Zm-21.92-12.65c0,5-3.54,7.07-7.9,4.55a17.44,17.44,0,0,1-7.89-13.66c0-5,3.54-7.08,7.89-4.56A17.44,17.44,0,0,1,300.65,1378.09Zm-21.92-12.66c0,5-3.54,7.07-7.9,4.56s-7.89-8.64-7.89-13.67,3.54-7.07,7.89-4.56A17.46,17.46,0,0,1,278.73,1365.43Zm-21.92-12.65c0,5-3.54,7.07-7.9,4.55a17.45,17.45,0,0,1-7.89-13.67c0-5,3.54-7.07,7.89-4.55A17.43,17.43,0,0,1,256.81,1352.78ZM234,1339.61c0,5-3.53,7.08-7.89,4.56a17.45,17.45,0,0,1-7.89-13.67c0-5,3.53-7.07,7.89-4.55A17.42,17.42,0,0,1,234,1339.61ZM212.09,1327c0,5-3.53,7.07-7.89,4.55a17.42,17.42,0,0,1-7.89-13.66c0-5,3.53-7.08,7.89-4.56A17.45,17.45,0,0,1,212.09,1327Zm275.45,137c0,5-3.53,7.08-7.89,4.56a17.45,17.45,0,0,1-7.89-13.67c0-5,3.53-7.07,7.89-4.55A17.42,17.42,0,0,1,487.54,1464Zm-21.92-12.65c0,5-3.53,7.07-7.89,4.55a17.42,17.42,0,0,1-7.89-13.66c0-5,3.53-7.08,7.89-4.56A17.45,17.45,0,0,1,465.62,1451.34Zm-21.92-12.66c0,5-3.53,7.07-7.89,4.56a17.45,17.45,0,0,1-7.89-13.67c0-5,3.53-7.07,7.89-4.56A17.45,17.45,0,0,1,443.7,1438.68ZM421.78,1426c0,5-3.53,7.07-7.89,4.55a17.42,17.42,0,0,1-7.89-13.67c0-5,3.53-7.07,7.89-4.55A17.42,17.42,0,0,1,421.78,1426Zm-21.92-12.66c0,5-3.53,7.07-7.89,4.56a17.45,17.45,0,0,1-7.89-13.67c0-5,3.53-7.07,7.89-4.56A17.45,17.45,0,0,1,399.86,1413.37Zm-21.92-12.65c0,5-3.53,7.07-7.89,4.55a17.42,17.42,0,0,1-7.89-13.67c0-5,3.53-7.07,7.89-4.55A17.42,17.42,0,0,1,377.94,1400.72Zm-22.79-13.17c0,5-3.54,7.08-7.89,4.56a17.46,17.46,0,0,1-7.9-13.67c0-5,3.54-7.07,7.9-4.55A17.44,17.44,0,0,1,355.15,1387.55Zm-21.92-12.65c0,5-3.54,7.07-7.89,4.55a17.43,17.43,0,0,1-7.9-13.66c0-5,3.54-7.08,7.9-4.56S333.23,1369.87,333.23,1374.9Zm-21.92-12.66c0,5-3.54,7.08-7.89,4.56a17.46,17.46,0,0,1-7.9-13.67c0-5,3.54-7.07,7.9-4.56S311.31,1357.21,311.31,1362.24Zm-21.92-12.65c0,5-3.54,7.07-7.89,4.55a17.43,17.43,0,0,1-7.9-13.66c0-5,3.54-7.08,7.9-4.56A17.46,17.46,0,0,1,289.39,1349.59Zm-21.92-12.66c0,5-3.54,7.07-7.89,4.56a17.46,17.46,0,0,1-7.9-13.67c0-5,3.54-7.07,7.9-4.56S267.47,1331.9,267.47,1336.93Zm-21.92-12.65c0,5-3.54,7.07-7.89,4.55a17.43,17.43,0,0,1-7.9-13.67c0-5,3.54-7.07,7.9-4.55A17.45,17.45,0,0,1,245.55,1324.28Zm-22.8-13.17c0,5-3.53,7.08-7.89,4.56A17.45,17.45,0,0,1,207,1302c0-5,3.53-7.07,7.89-4.55A17.42,17.42,0,0,1,222.75,1311.11Zm-21.92-12.65c0,5-3.53,7.07-7.89,4.56a17.45,17.45,0,0,1-7.89-13.67c0-5,3.53-7.08,7.89-4.56A17.45,17.45,0,0,1,200.83,1298.46Zm298,149c0,5-3.53,7.08-7.89,4.56a17.45,17.45,0,0,1-7.89-13.67c0-5,3.53-7.07,7.89-4.55A17.42,17.42,0,0,1,498.8,1447.49Zm-21.92-12.65c0,5-3.53,7.07-7.89,4.55a17.42,17.42,0,0,1-7.89-13.66c0-5,3.53-7.08,7.89-4.56A17.45,17.45,0,0,1,476.88,1434.84ZM455,1422.18c0,5-3.53,7.07-7.89,4.56a17.45,17.45,0,0,1-7.89-13.67c0-5,3.53-7.07,7.89-4.56A17.45,17.45,0,0,1,455,1422.18ZM433,1409.53c0,5-3.53,7.07-7.89,4.55a17.42,17.42,0,0,1-7.89-13.67c0-5,3.53-7.07,7.89-4.55A17.42,17.42,0,0,1,433,1409.53Zm-21.92-12.66c0,5-3.53,7.07-7.89,4.56a17.45,17.45,0,0,1-7.89-13.67c0-5,3.53-7.07,7.89-4.56A17.45,17.45,0,0,1,411.12,1396.87Zm-21.92-12.65c0,5-3.53,7.07-7.89,4.55a17.42,17.42,0,0,1-7.89-13.67c0-5,3.53-7.07,7.89-4.55A17.42,17.42,0,0,1,389.2,1384.22Zm-22.79-13.17c0,5-3.54,7.08-7.9,4.56s-7.89-8.64-7.89-13.67,3.54-7.07,7.89-4.55A17.43,17.43,0,0,1,366.41,1371.05Zm-21.92-12.65c0,5-3.54,7.07-7.9,4.55a17.44,17.44,0,0,1-7.89-13.66c0-5,3.54-7.08,7.89-4.56A17.46,17.46,0,0,1,344.49,1358.4Zm-21.92-12.66c0,5-3.54,7.08-7.9,4.56s-7.89-8.64-7.89-13.67,3.54-7.07,7.89-4.56A17.46,17.46,0,0,1,322.57,1345.74Zm-21.92-12.65c0,5-3.54,7.07-7.9,4.55a17.44,17.44,0,0,1-7.89-13.66c0-5,3.54-7.08,7.89-4.56A17.44,17.44,0,0,1,300.65,1333.09Zm-21.92-12.66c0,5-3.54,7.07-7.9,4.56s-7.89-8.64-7.89-13.67,3.54-7.07,7.89-4.56A17.46,17.46,0,0,1,278.73,1320.43Zm-21.92-12.65c0,5-3.54,7.07-7.9,4.55a17.45,17.45,0,0,1-7.89-13.67c0-5,3.54-7.07,7.89-4.55A17.43,17.43,0,0,1,256.81,1307.78ZM234,1294.61c0,5-3.53,7.08-7.89,4.56a17.45,17.45,0,0,1-7.89-13.67c0-5,3.53-7.07,7.89-4.55A17.42,17.42,0,0,1,234,1294.61ZM212.09,1282c0,5-3.53,7.07-7.89,4.55a17.42,17.42,0,0,1-7.89-13.66c0-5,3.53-7.08,7.89-4.56A17.45,17.45,0,0,1,212.09,1282Zm275.45,136.88c0,5-3.53,7.07-7.89,4.55a17.42,17.42,0,0,1-7.89-13.66c0-5,3.53-7.08,7.89-4.56A17.45,17.45,0,0,1,487.54,1418.84Zm-21.92-12.66c0,5-3.53,7.07-7.89,4.56a17.45,17.45,0,0,1-7.89-13.67c0-5,3.53-7.07,7.89-4.56A17.45,17.45,0,0,1,465.62,1406.18Zm-21.92-12.65c0,5-3.53,7.07-7.89,4.55a17.42,17.42,0,0,1-7.89-13.67c0-5,3.53-7.07,7.89-4.55A17.43,17.43,0,0,1,443.7,1393.53Zm-21.92-12.66c0,5-3.53,7.07-7.89,4.56a17.45,17.45,0,0,1-7.89-13.67c0-5,3.53-7.07,7.89-4.56A17.45,17.45,0,0,1,421.78,1380.87Zm-21.92-12.65c0,5-3.53,7.07-7.89,4.55a17.42,17.42,0,0,1-7.89-13.67c0-5,3.53-7.07,7.89-4.55A17.42,17.42,0,0,1,399.86,1368.22Zm-21.92-12.66c0,5-3.53,7.07-7.89,4.56a17.45,17.45,0,0,1-7.89-13.67c0-5,3.53-7.07,7.89-4.56A17.45,17.45,0,0,1,377.94,1355.56Zm-22.79-13.16c0,5-3.54,7.07-7.89,4.55a17.43,17.43,0,0,1-7.9-13.66c0-5,3.54-7.08,7.9-4.56S355.15,1337.37,355.15,1342.4Zm-21.92-12.66c0,5-3.54,7.08-7.89,4.56a17.46,17.46,0,0,1-7.9-13.67c0-5,3.54-7.07,7.9-4.55A17.44,17.44,0,0,1,333.23,1329.74Zm-21.92-12.65c0,5-3.54,7.07-7.89,4.55a17.43,17.43,0,0,1-7.9-13.66c0-5,3.54-7.08,7.9-4.56S311.31,1312.06,311.31,1317.09Zm-21.92-12.66c0,5-3.54,7.07-7.89,4.56a17.46,17.46,0,0,1-7.9-13.67c0-5,3.54-7.07,7.9-4.56S289.39,1299.4,289.39,1304.43Zm-21.92-12.65c0,5-3.54,7.07-7.89,4.55a17.43,17.43,0,0,1-7.9-13.67c0-5,3.54-7.07,7.9-4.55A17.45,17.45,0,0,1,267.47,1291.78Zm-21.92-12.66c0,5-3.54,7.07-7.89,4.56a17.46,17.46,0,0,1-7.9-13.67c0-5,3.54-7.07,7.9-4.56S245.55,1274.09,245.55,1279.12ZM222.75,1266c0,5-3.53,7.07-7.89,4.56a17.45,17.45,0,0,1-7.89-13.67c0-5,3.53-7.07,7.89-4.56A17.45,17.45,0,0,1,222.75,1266Zm-21.92-12.66c0,5-3.53,7.08-7.89,4.56a17.45,17.45,0,0,1-7.89-13.67c0-5,3.53-7.07,7.89-4.55A17.42,17.42,0,0,1,200.83,1253.3Zm298,149.19c0,5-3.53,7.08-7.89,4.56a17.45,17.45,0,0,1-7.89-13.67c0-5,3.53-7.07,7.89-4.55A17.42,17.42,0,0,1,498.8,1402.49Zm-21.92-12.65c0,5-3.53,7.07-7.89,4.55a17.42,17.42,0,0,1-7.89-13.66c0-5,3.53-7.08,7.89-4.56A17.45,17.45,0,0,1,476.88,1389.84ZM455,1377.18c0,5-3.53,7.07-7.89,4.56a17.45,17.45,0,0,1-7.89-13.67c0-5,3.53-7.07,7.89-4.56A17.45,17.45,0,0,1,455,1377.18ZM433,1364.53c0,5-3.53,7.07-7.89,4.55a17.42,17.42,0,0,1-7.89-13.67c0-5,3.53-7.07,7.89-4.55A17.42,17.42,0,0,1,433,1364.53Zm-21.92-12.66c0,5-3.53,7.07-7.89,4.56a17.45,17.45,0,0,1-7.89-13.67c0-5,3.53-7.07,7.89-4.56A17.45,17.45,0,0,1,411.12,1351.87Zm-21.92-12.65c0,5-3.53,7.07-7.89,4.55a17.42,17.42,0,0,1-7.89-13.67c0-5,3.53-7.07,7.89-4.55A17.42,17.42,0,0,1,389.2,1339.22Zm-22.79-13.17c0,5-3.54,7.08-7.9,4.56s-7.89-8.64-7.89-13.67,3.54-7.07,7.89-4.55A17.43,17.43,0,0,1,366.41,1326.05Zm-21.92-12.65c0,5-3.54,7.07-7.9,4.55a17.44,17.44,0,0,1-7.89-13.66c0-5,3.54-7.08,7.89-4.56A17.46,17.46,0,0,1,344.49,1313.4Zm-21.92-12.66c0,5-3.54,7.08-7.9,4.56s-7.89-8.64-7.89-13.67,3.54-7.07,7.89-4.56A17.46,17.46,0,0,1,322.57,1300.74Zm-21.92-12.65c0,5-3.54,7.07-7.9,4.55a17.44,17.44,0,0,1-7.89-13.66c0-5,3.54-7.08,7.89-4.56A17.44,17.44,0,0,1,300.65,1288.09Zm-21.92-12.66c0,5-3.54,7.07-7.9,4.56s-7.89-8.64-7.89-13.67,3.54-7.07,7.89-4.56A17.46,17.46,0,0,1,278.73,1275.43Zm-21.92-12.65c0,5-3.54,7.07-7.9,4.55a17.45,17.45,0,0,1-7.89-13.67c0-5,3.54-7.07,7.89-4.55A17.43,17.43,0,0,1,256.81,1262.78ZM234,1249.61c0,5-3.53,7.08-7.89,4.56a17.45,17.45,0,0,1-7.89-13.67c0-5,3.53-7.07,7.89-4.55A17.42,17.42,0,0,1,234,1249.61ZM212.09,1237c0,5-3.53,7.07-7.89,4.55a17.42,17.42,0,0,1-7.89-13.66c0-5,3.53-7.08,7.89-4.56A17.45,17.45,0,0,1,212.09,1237Zm275.45,136.72c0,5-3.53,7.08-7.89,4.56a17.45,17.45,0,0,1-7.89-13.67c0-5,3.53-7.07,7.89-4.56A17.45,17.45,0,0,1,487.54,1373.68ZM465.62,1361c0,5-3.53,7.07-7.89,4.55a17.42,17.42,0,0,1-7.89-13.66c0-5,3.53-7.08,7.89-4.56A17.43,17.43,0,0,1,465.62,1361Zm-21.92-12.66c0,5-3.53,7.07-7.89,4.56a17.45,17.45,0,0,1-7.89-13.67c0-5,3.53-7.07,7.89-4.56A17.45,17.45,0,0,1,443.7,1348.37Zm-21.92-12.65c0,5-3.53,7.07-7.89,4.55A17.42,17.42,0,0,1,406,1326.6c0-5,3.53-7.07,7.89-4.55A17.42,17.42,0,0,1,421.78,1335.72Zm-21.92-12.66c0,5-3.53,7.07-7.89,4.56a17.45,17.45,0,0,1-7.89-13.67c0-5,3.53-7.07,7.89-4.56A17.45,17.45,0,0,1,399.86,1323.06Zm-21.92-12.65c0,5-3.53,7.07-7.89,4.55a17.42,17.42,0,0,1-7.89-13.67c0-5,3.53-7.07,7.89-4.55A17.42,17.42,0,0,1,377.94,1310.41Zm-22.79-13.17c0,5-3.54,7.08-7.89,4.56a17.46,17.46,0,0,1-7.9-13.67c0-5,3.54-7.07,7.9-4.55A17.44,17.44,0,0,1,355.15,1297.24Zm-21.92-12.65c0,5-3.54,7.07-7.89,4.55a17.43,17.43,0,0,1-7.9-13.66c0-5,3.54-7.08,7.9-4.56S333.23,1279.56,333.23,1284.59Zm-21.92-12.66c0,5-3.54,7.07-7.89,4.56a17.46,17.46,0,0,1-7.9-13.67c0-5,3.54-7.07,7.9-4.56S311.31,1266.9,311.31,1271.93Zm-21.92-12.65c0,5-3.54,7.07-7.89,4.55a17.43,17.43,0,0,1-7.9-13.67c0-5,3.54-7.07,7.9-4.55A17.46,17.46,0,0,1,289.39,1259.28Zm-21.92-12.66c0,5-3.54,7.07-7.89,4.56a17.46,17.46,0,0,1-7.9-13.67c0-5,3.54-7.07,7.9-4.56S267.47,1241.59,267.47,1246.62ZM245.55,1234c0,5-3.54,7.07-7.89,4.55a17.43,17.43,0,0,1-7.9-13.67c0-5,3.54-7.07,7.9-4.55A17.45,17.45,0,0,1,245.55,1234Zm-22.8-13.17c0,5-3.53,7.08-7.89,4.56a17.45,17.45,0,0,1-7.89-13.67c0-5,3.53-7.07,7.89-4.55A17.42,17.42,0,0,1,222.75,1220.8Zm-21.92-12.65c0,5-3.53,7.07-7.89,4.55a17.42,17.42,0,0,1-7.89-13.66c0-5,3.53-7.08,7.89-4.56A17.45,17.45,0,0,1,200.83,1208.15Zm298,149.34c0,5-3.53,7.08-7.89,4.56a17.45,17.45,0,0,1-7.89-13.67c0-5,3.53-7.07,7.89-4.55A17.42,17.42,0,0,1,498.8,1357.49Zm-21.92-12.65c0,5-3.53,7.07-7.89,4.55a17.42,17.42,0,0,1-7.89-13.66c0-5,3.53-7.08,7.89-4.56A17.45,17.45,0,0,1,476.88,1344.84ZM455,1332.18c0,5-3.53,7.07-7.89,4.56a17.45,17.45,0,0,1-7.89-13.67c0-5,3.53-7.07,7.89-4.56A17.45,17.45,0,0,1,455,1332.18ZM433,1319.53c0,5-3.53,7.07-7.89,4.55a17.42,17.42,0,0,1-7.89-13.67c0-5,3.53-7.07,7.89-4.55A17.42,17.42,0,0,1,433,1319.53Zm-21.92-12.66c0,5-3.53,7.07-7.89,4.56a17.45,17.45,0,0,1-7.89-13.67c0-5,3.53-7.07,7.89-4.56A17.45,17.45,0,0,1,411.12,1306.87Zm-21.92-12.65c0,5-3.53,7.07-7.89,4.55a17.42,17.42,0,0,1-7.89-13.67c0-5,3.53-7.07,7.89-4.55A17.42,17.42,0,0,1,389.2,1294.22Zm-22.79-13.17c0,5-3.54,7.08-7.9,4.56s-7.89-8.64-7.89-13.67,3.54-7.07,7.89-4.55A17.43,17.43,0,0,1,366.41,1281.05Zm-21.92-12.65c0,5-3.54,7.07-7.9,4.55a17.44,17.44,0,0,1-7.89-13.66c0-5,3.54-7.08,7.89-4.56A17.46,17.46,0,0,1,344.49,1268.4Zm-21.92-12.66c0,5-3.54,7.08-7.9,4.56s-7.89-8.64-7.89-13.67,3.54-7.07,7.89-4.56A17.46,17.46,0,0,1,322.57,1255.74Zm-21.92-12.65c0,5-3.54,7.07-7.9,4.55a17.44,17.44,0,0,1-7.89-13.66c0-5,3.54-7.08,7.89-4.56A17.44,17.44,0,0,1,300.65,1243.09Zm-21.92-12.66c0,5-3.54,7.07-7.9,4.56s-7.89-8.64-7.89-13.67,3.54-7.07,7.89-4.56A17.46,17.46,0,0,1,278.73,1230.43Zm-21.92-12.65c0,5-3.54,7.07-7.9,4.55a17.45,17.45,0,0,1-7.89-13.67c0-5,3.54-7.07,7.89-4.55A17.43,17.43,0,0,1,256.81,1217.78ZM234,1204.61c0,5-3.53,7.08-7.89,4.56a17.45,17.45,0,0,1-7.89-13.67c0-5,3.53-7.07,7.89-4.55A17.42,17.42,0,0,1,234,1204.61ZM212.09,1192c0,5-3.53,7.07-7.89,4.55a17.42,17.42,0,0,1-7.89-13.66c0-5,3.53-7.08,7.89-4.56A17.45,17.45,0,0,1,212.09,1192Zm275.45,136.57c0,5-3.53,7.07-7.89,4.55a17.42,17.42,0,0,1-7.89-13.66c0-5,3.53-7.08,7.89-4.56A17.45,17.45,0,0,1,487.54,1328.53Zm-21.92-12.66c0,5-3.53,7.07-7.89,4.56a17.45,17.45,0,0,1-7.89-13.67c0-5,3.53-7.07,7.89-4.56A17.45,17.45,0,0,1,465.62,1315.87Zm-21.92-12.65c0,5-3.53,7.07-7.89,4.55a17.42,17.42,0,0,1-7.89-13.67c0-5,3.53-7.07,7.89-4.55A17.42,17.42,0,0,1,443.7,1303.22Zm-21.92-12.66c0,5-3.53,7.07-7.89,4.56a17.45,17.45,0,0,1-7.89-13.67c0-5,3.53-7.07,7.89-4.56A17.45,17.45,0,0,1,421.78,1290.56Zm-21.92-12.65c0,5-3.53,7.07-7.89,4.55a17.42,17.42,0,0,1-7.89-13.67c0-5,3.53-7.07,7.89-4.55A17.42,17.42,0,0,1,399.86,1277.91Zm-21.92-12.66c0,5-3.53,7.07-7.89,4.56a17.45,17.45,0,0,1-7.89-13.67c0-5,3.53-7.07,7.89-4.56A17.45,17.45,0,0,1,377.94,1265.25Zm-22.79-13.16c0,5-3.54,7.07-7.89,4.55a17.43,17.43,0,0,1-7.9-13.66c0-5,3.54-7.08,7.9-4.56S355.15,1247.06,355.15,1252.09Zm-21.92-12.66c0,5-3.54,7.08-7.89,4.56a17.46,17.46,0,0,1-7.9-13.67c0-5,3.54-7.07,7.9-4.56S333.23,1234.4,333.23,1239.43Zm-21.92-12.65c0,5-3.54,7.07-7.89,4.55a17.43,17.43,0,0,1-7.9-13.66c0-5,3.54-7.08,7.9-4.56A17.46,17.46,0,0,1,311.31,1226.78Zm-21.92-12.66c0,5-3.54,7.07-7.89,4.56a17.46,17.46,0,0,1-7.9-13.67c0-5,3.54-7.07,7.9-4.56S289.39,1209.09,289.39,1214.12Zm-21.92-12.65c0,5-3.54,7.07-7.89,4.55a17.43,17.43,0,0,1-7.9-13.67c0-5,3.54-7.07,7.9-4.55A17.45,17.45,0,0,1,267.47,1201.47Zm-21.92-12.66c0,5-3.54,7.07-7.89,4.56a17.46,17.46,0,0,1-7.9-13.67c0-5,3.54-7.07,7.9-4.56S245.55,1183.78,245.55,1188.81Zm-22.8-13.16c0,5-3.53,7.07-7.89,4.55a17.42,17.42,0,0,1-7.89-13.66c0-5,3.53-7.08,7.89-4.56A17.45,17.45,0,0,1,222.75,1175.65ZM200.83,1163c0,5-3.53,7.08-7.89,4.56a17.45,17.45,0,0,1-7.89-13.67c0-5,3.53-7.07,7.89-4.55A17.42,17.42,0,0,1,200.83,1163Zm298,149.5c0,5-3.53,7.08-7.89,4.56a17.45,17.45,0,0,1-7.89-13.67c0-5,3.53-7.07,7.89-4.55A17.42,17.42,0,0,1,498.8,1312.49Zm-21.92-12.65c0,5-3.53,7.07-7.89,4.55a17.42,17.42,0,0,1-7.89-13.66c0-5,3.53-7.08,7.89-4.56A17.45,17.45,0,0,1,476.88,1299.84ZM455,1287.18c0,5-3.53,7.07-7.89,4.56a17.45,17.45,0,0,1-7.89-13.67c0-5,3.53-7.07,7.89-4.56A17.45,17.45,0,0,1,455,1287.18ZM433,1274.53c0,5-3.53,7.07-7.89,4.55a17.42,17.42,0,0,1-7.89-13.67c0-5,3.53-7.07,7.89-4.55A17.42,17.42,0,0,1,433,1274.53Zm-21.92-12.66c0,5-3.53,7.07-7.89,4.56a17.45,17.45,0,0,1-7.89-13.67c0-5,3.53-7.07,7.89-4.56A17.45,17.45,0,0,1,411.12,1261.87Zm-21.92-12.65c0,5-3.53,7.07-7.89,4.55a17.42,17.42,0,0,1-7.89-13.67c0-5,3.53-7.07,7.89-4.55A17.42,17.42,0,0,1,389.2,1249.22Zm-22.79-13.17c0,5-3.54,7.08-7.9,4.56s-7.89-8.64-7.89-13.67,3.54-7.07,7.89-4.55A17.43,17.43,0,0,1,366.41,1236.05Zm-21.92-12.65c0,5-3.54,7.07-7.9,4.55a17.44,17.44,0,0,1-7.89-13.66c0-5,3.54-7.08,7.89-4.56A17.46,17.46,0,0,1,344.49,1223.4Zm-21.92-12.66c0,5-3.54,7.08-7.9,4.56s-7.89-8.64-7.89-13.67,3.54-7.07,7.89-4.56A17.46,17.46,0,0,1,322.57,1210.74Zm-21.92-12.65c0,5-3.54,7.07-7.9,4.55a17.44,17.44,0,0,1-7.89-13.66c0-5,3.54-7.08,7.89-4.56A17.44,17.44,0,0,1,300.65,1198.09Zm-21.92-12.66c0,5-3.54,7.07-7.9,4.56s-7.89-8.64-7.89-13.67,3.54-7.07,7.89-4.56A17.46,17.46,0,0,1,278.73,1185.43Zm-21.92-12.65c0,5-3.54,7.07-7.9,4.55a17.45,17.45,0,0,1-7.89-13.67c0-5,3.54-7.07,7.89-4.55A17.43,17.43,0,0,1,256.81,1172.78ZM234,1159.61c0,5-3.53,7.08-7.89,4.56a17.45,17.45,0,0,1-7.89-13.67c0-5,3.53-7.07,7.89-4.55A17.42,17.42,0,0,1,234,1159.61ZM212.09,1147c0,5-3.53,7.07-7.89,4.55a17.42,17.42,0,0,1-7.89-13.66c0-5,3.53-7.08,7.89-4.56A17.45,17.45,0,0,1,212.09,1147Zm275.45,136.41c0,5-3.53,7.07-7.89,4.56a17.45,17.45,0,0,1-7.89-13.67c0-5,3.53-7.07,7.89-4.56A17.45,17.45,0,0,1,487.54,1283.37Zm-21.92-12.65c0,5-3.53,7.07-7.89,4.55a17.42,17.42,0,0,1-7.89-13.67c0-5,3.53-7.07,7.89-4.55A17.43,17.43,0,0,1,465.62,1270.72Zm-21.92-12.66c0,5-3.53,7.07-7.89,4.56a17.45,17.45,0,0,1-7.89-13.67c0-5,3.53-7.07,7.89-4.56A17.45,17.45,0,0,1,443.7,1258.06Zm-21.92-12.65c0,5-3.53,7.07-7.89,4.55a17.42,17.42,0,0,1-7.89-13.67c0-5,3.53-7.07,7.89-4.55A17.42,17.42,0,0,1,421.78,1245.41Zm-21.92-12.66c0,5-3.53,7.07-7.89,4.56a17.45,17.45,0,0,1-7.89-13.67c0-5,3.53-7.07,7.89-4.56A17.45,17.45,0,0,1,399.86,1232.75Zm-21.92-12.66c0,5-3.53,7.08-7.89,4.56a17.43,17.43,0,0,1-7.89-13.67c0-5,3.53-7.07,7.89-4.55A17.42,17.42,0,0,1,377.94,1220.09Zm-22.79-13.16c0,5-3.54,7.08-7.89,4.56a17.46,17.46,0,0,1-7.9-13.67c0-5,3.54-7.07,7.9-4.55A17.44,17.44,0,0,1,355.15,1206.93Zm-21.92-12.65c0,5-3.54,7.07-7.89,4.55a17.43,17.43,0,0,1-7.9-13.66c0-5,3.54-7.08,7.9-4.56S333.23,1189.25,333.23,1194.28Zm-21.92-12.66c0,5-3.54,7.07-7.89,4.56a17.46,17.46,0,0,1-7.9-13.67c0-5,3.54-7.07,7.9-4.56S311.31,1176.59,311.31,1181.62ZM289.39,1169c0,5-3.54,7.07-7.89,4.55a17.43,17.43,0,0,1-7.9-13.67c0-5,3.54-7.07,7.9-4.55A17.45,17.45,0,0,1,289.39,1169Zm-21.92-12.66c0,5-3.54,7.07-7.89,4.56a17.46,17.46,0,0,1-7.9-13.67c0-5,3.54-7.07,7.9-4.56S267.47,1151.28,267.47,1156.31Zm-21.92-12.65c0,5-3.54,7.07-7.89,4.55a17.43,17.43,0,0,1-7.9-13.67c0-5,3.54-7.07,7.9-4.55A17.45,17.45,0,0,1,245.55,1143.66Zm-22.8-13.17c0,5-3.53,7.08-7.89,4.56a17.45,17.45,0,0,1-7.89-13.67c0-5,3.53-7.07,7.89-4.55A17.42,17.42,0,0,1,222.75,1130.49Zm-21.92-12.65c0,5-3.53,7.07-7.89,4.55a17.42,17.42,0,0,1-7.89-13.66c0-5,3.53-7.08,7.89-4.56A17.45,17.45,0,0,1,200.83,1117.84Zm298,149.65c0,5-3.53,7.08-7.89,4.56a17.45,17.45,0,0,1-7.89-13.67c0-5,3.53-7.07,7.89-4.55A17.42,17.42,0,0,1,498.8,1267.49Zm-21.92-12.65c0,5-3.53,7.07-7.89,4.55a17.42,17.42,0,0,1-7.89-13.66c0-5,3.53-7.08,7.89-4.56A17.45,17.45,0,0,1,476.88,1254.84ZM455,1242.18c0,5-3.53,7.07-7.89,4.56a17.45,17.45,0,0,1-7.89-13.67c0-5,3.53-7.07,7.89-4.56A17.45,17.45,0,0,1,455,1242.18ZM433,1229.53c0,5-3.53,7.07-7.89,4.55a17.42,17.42,0,0,1-7.89-13.67c0-5,3.53-7.07,7.89-4.55A17.42,17.42,0,0,1,433,1229.53Zm-21.92-12.66c0,5-3.53,7.07-7.89,4.56a17.45,17.45,0,0,1-7.89-13.67c0-5,3.53-7.07,7.89-4.56A17.45,17.45,0,0,1,411.12,1216.87Zm-21.92-12.65c0,5-3.53,7.07-7.89,4.55a17.42,17.42,0,0,1-7.89-13.67c0-5,3.53-7.07,7.89-4.55A17.42,17.42,0,0,1,389.2,1204.22Zm-22.79-13.17c0,5-3.54,7.08-7.9,4.56s-7.89-8.64-7.89-13.67,3.54-7.07,7.89-4.55A17.43,17.43,0,0,1,366.41,1191.05Zm-21.92-12.65c0,5-3.54,7.07-7.9,4.55a17.44,17.44,0,0,1-7.89-13.66c0-5,3.54-7.08,7.89-4.56A17.46,17.46,0,0,1,344.49,1178.4Zm-21.92-12.66c0,5-3.54,7.08-7.9,4.56s-7.89-8.64-7.89-13.67,3.54-7.07,7.89-4.56A17.46,17.46,0,0,1,322.57,1165.74Zm-21.92-12.65c0,5-3.54,7.07-7.9,4.55a17.44,17.44,0,0,1-7.89-13.66c0-5,3.54-7.08,7.89-4.56A17.44,17.44,0,0,1,300.65,1153.09Zm-21.92-12.66c0,5-3.54,7.07-7.9,4.56s-7.89-8.64-7.89-13.67,3.54-7.07,7.89-4.56A17.46,17.46,0,0,1,278.73,1140.43Zm-21.92-12.65c0,5-3.54,7.07-7.9,4.55a17.45,17.45,0,0,1-7.89-13.67c0-5,3.54-7.07,7.89-4.55A17.43,17.43,0,0,1,256.81,1127.78ZM234,1114.61c0,5-3.53,7.08-7.89,4.56a17.45,17.45,0,0,1-7.89-13.67c0-5,3.53-7.07,7.89-4.55A17.42,17.42,0,0,1,234,1114.61ZM212.09,1102c0,5-3.53,7.07-7.89,4.55a17.42,17.42,0,0,1-7.89-13.66c0-5,3.53-7.08,7.89-4.56A17.45,17.45,0,0,1,212.09,1102Zm275.45,136.26c0,5-3.53,7.07-7.89,4.55a17.42,17.42,0,0,1-7.89-13.66c0-5,3.53-7.08,7.89-4.56A17.43,17.43,0,0,1,487.54,1238.22Zm-21.92-12.66c0,5-3.53,7.07-7.89,4.56a17.45,17.45,0,0,1-7.89-13.67c0-5,3.53-7.07,7.89-4.56A17.45,17.45,0,0,1,465.62,1225.56Zm-21.92-12.65c0,5-3.53,7.07-7.89,4.55a17.42,17.42,0,0,1-7.89-13.67c0-5,3.53-7.07,7.89-4.55A17.42,17.42,0,0,1,443.7,1212.91Zm-21.92-12.66c0,5-3.53,7.07-7.89,4.56a17.45,17.45,0,0,1-7.89-13.67c0-5,3.53-7.07,7.89-4.56A17.45,17.45,0,0,1,421.78,1200.25Zm-21.92-12.65c0,5-3.53,7.07-7.89,4.55a17.42,17.42,0,0,1-7.89-13.67c0-5,3.53-7.07,7.89-4.55A17.42,17.42,0,0,1,399.86,1187.6Zm-21.92-12.66c0,5-3.53,7.07-7.89,4.56a17.45,17.45,0,0,1-7.89-13.67c0-5,3.53-7.07,7.89-4.56A17.45,17.45,0,0,1,377.94,1174.94Zm-22.79-13.16c0,5-3.54,7.07-7.89,4.55a17.43,17.43,0,0,1-7.9-13.66c0-5,3.54-7.08,7.9-4.56S355.15,1156.75,355.15,1161.78Zm-21.92-12.66c0,5-3.54,7.07-7.89,4.56a17.46,17.46,0,0,1-7.9-13.67c0-5,3.54-7.07,7.9-4.56S333.23,1144.09,333.23,1149.12Zm-21.92-12.65c0,5-3.54,7.07-7.89,4.55a17.43,17.43,0,0,1-7.9-13.67c0-5,3.54-7.07,7.9-4.55A17.46,17.46,0,0,1,311.31,1136.47Zm-21.92-12.66c0,5-3.54,7.07-7.89,4.56a17.46,17.46,0,0,1-7.9-13.67c0-5,3.54-7.07,7.9-4.56S289.39,1118.78,289.39,1123.81Zm-21.92-12.65c0,5-3.54,7.07-7.89,4.55a17.43,17.43,0,0,1-7.9-13.67c0-5,3.54-7.07,7.9-4.55A17.45,17.45,0,0,1,267.47,1111.16Zm-21.92-12.66c0,5-3.54,7.07-7.89,4.56a17.46,17.46,0,0,1-7.9-13.67c0-5,3.54-7.07,7.9-4.56S245.55,1093.47,245.55,1098.5Zm-22.8-13.16c0,5-3.53,7.07-7.89,4.55a17.42,17.42,0,0,1-7.89-13.66c0-5,3.53-7.08,7.89-4.56A17.45,17.45,0,0,1,222.75,1085.34Zm-21.92-12.66c0,5-3.53,7.08-7.89,4.56a17.45,17.45,0,0,1-7.89-13.67c0-5,3.53-7.07,7.89-4.55A17.42,17.42,0,0,1,200.83,1072.68Zm276,138.16c0,5-3.53,7.07-7.89,4.55a17.42,17.42,0,0,1-7.89-13.66c0-5,3.53-7.08,7.89-4.56A17.45,17.45,0,0,1,476.88,1210.84ZM455,1198.18c0,5-3.53,7.07-7.89,4.56a17.45,17.45,0,0,1-7.89-13.67c0-5,3.53-7.07,7.89-4.56A17.45,17.45,0,0,1,455,1198.18ZM433,1185.53c0,5-3.53,7.07-7.89,4.55a17.42,17.42,0,0,1-7.89-13.67c0-5,3.53-7.07,7.89-4.55A17.42,17.42,0,0,1,433,1185.53Zm-21.92-12.66c0,5-3.53,7.07-7.89,4.56a17.45,17.45,0,0,1-7.89-13.67c0-5,3.53-7.07,7.89-4.56A17.45,17.45,0,0,1,411.12,1172.87Zm-21.92-12.65c0,5-3.53,7.07-7.89,4.55a17.42,17.42,0,0,1-7.89-13.67c0-5,3.53-7.07,7.89-4.55A17.42,17.42,0,0,1,389.2,1160.22Zm-22.79-13.17c0,5-3.54,7.08-7.9,4.56s-7.89-8.64-7.89-13.67,3.54-7.07,7.89-4.55A17.43,17.43,0,0,1,366.41,1147.05Zm-21.92-12.65c0,5-3.54,7.07-7.9,4.55a17.44,17.44,0,0,1-7.89-13.66c0-5,3.54-7.08,7.89-4.56A17.46,17.46,0,0,1,344.49,1134.4Zm-21.92-12.66c0,5-3.54,7.08-7.9,4.56s-7.89-8.64-7.89-13.67,3.54-7.07,7.89-4.56A17.46,17.46,0,0,1,322.57,1121.74Zm-21.92-12.65c0,5-3.54,7.07-7.9,4.55a17.44,17.44,0,0,1-7.89-13.66c0-5,3.54-7.08,7.89-4.56A17.44,17.44,0,0,1,300.65,1109.09Zm-21.92-12.66c0,5-3.54,7.07-7.9,4.56s-7.89-8.64-7.89-13.67,3.54-7.07,7.89-4.56A17.46,17.46,0,0,1,278.73,1096.43Zm-21.92-12.65c0,5-3.54,7.07-7.9,4.55a17.45,17.45,0,0,1-7.89-13.67c0-5,3.54-7.07,7.89-4.55A17.43,17.43,0,0,1,256.81,1083.78ZM234,1070.61c0,5-3.53,7.08-7.89,4.56a17.45,17.45,0,0,1-7.89-13.67c0-5,3.53-7.07,7.89-4.55A17.42,17.42,0,0,1,234,1070.61ZM212.09,1058c0,5-3.53,7.07-7.89,4.55a17.42,17.42,0,0,1-7.89-13.66c0-5,3.53-7.08,7.89-4.56A17.45,17.45,0,0,1,212.09,1058ZM443.7,1169.68c0,5-3.53,7.07-7.89,4.56a17.45,17.45,0,0,1-7.89-13.67c0-5,3.53-7.07,7.89-4.56A17.45,17.45,0,0,1,443.7,1169.68ZM421.78,1157c0,5-3.53,7.07-7.89,4.55a17.42,17.42,0,0,1-7.89-13.67c0-5,3.53-7.07,7.89-4.55A17.42,17.42,0,0,1,421.78,1157Zm-21.92-12.66c0,5-3.53,7.07-7.89,4.56a17.45,17.45,0,0,1-7.89-13.67c0-5,3.53-7.07,7.89-4.56A17.45,17.45,0,0,1,399.86,1144.37Zm-21.92-12.65c0,5-3.53,7.07-7.89,4.55a17.42,17.42,0,0,1-7.89-13.67c0-5,3.53-7.07,7.89-4.55A17.42,17.42,0,0,1,377.94,1131.72Zm-22.79-13.17c0,5-3.54,7.08-7.89,4.56a17.46,17.46,0,0,1-7.9-13.67c0-5,3.54-7.07,7.9-4.55A17.44,17.44,0,0,1,355.15,1118.55Zm-21.92-12.65c0,5-3.54,7.07-7.89,4.55a17.43,17.43,0,0,1-7.9-13.66c0-5,3.54-7.08,7.9-4.56S333.23,1100.87,333.23,1105.9Zm-21.92-12.66c0,5-3.54,7.08-7.89,4.56a17.46,17.46,0,0,1-7.9-13.67c0-5,3.54-7.07,7.9-4.56S311.31,1088.21,311.31,1093.24Zm-21.92-12.65c0,5-3.54,7.07-7.89,4.55a17.43,17.43,0,0,1-7.9-13.66c0-5,3.54-7.08,7.9-4.56A17.46,17.46,0,0,1,289.39,1080.59Zm-21.92-12.66c0,5-3.54,7.07-7.89,4.56a17.46,17.46,0,0,1-7.9-13.67c0-5,3.54-7.07,7.9-4.56S267.47,1062.9,267.47,1067.93Zm-21.92-12.65c0,5-3.54,7.07-7.89,4.55a17.43,17.43,0,0,1-7.9-13.67c0-5,3.54-7.07,7.9-4.55A17.45,17.45,0,0,1,245.55,1055.28Zm165.57,73.59c0,5-3.53,7.07-7.89,4.56a17.45,17.45,0,0,1-7.89-13.67c0-5,3.53-7.07,7.89-4.56A17.45,17.45,0,0,1,411.12,1128.87Zm-21.92-12.65c0,5-3.53,7.07-7.89,4.55a17.42,17.42,0,0,1-7.89-13.67c0-5,3.53-7.07,7.89-4.55A17.42,17.42,0,0,1,389.2,1116.22Zm-22.79-13.17c0,5-3.54,7.08-7.9,4.56s-7.89-8.64-7.89-13.67,3.54-7.07,7.89-4.55A17.43,17.43,0,0,1,366.41,1103.05Zm-21.92-12.65c0,5-3.54,7.07-7.9,4.55a17.44,17.44,0,0,1-7.89-13.66c0-5,3.54-7.08,7.89-4.56A17.46,17.46,0,0,1,344.49,1090.4Zm-21.92-12.66c0,5-3.54,7.08-7.9,4.56s-7.89-8.64-7.89-13.67,3.54-7.07,7.89-4.56A17.46,17.46,0,0,1,322.57,1077.74Zm-21.92-12.65c0,5-3.54,7.07-7.9,4.55a17.44,17.44,0,0,1-7.89-13.66c0-5,3.54-7.08,7.89-4.56A17.44,17.44,0,0,1,300.65,1065.09Zm-21.92-12.66c0,5-3.54,7.07-7.9,4.56s-7.89-8.64-7.89-13.67,3.54-7.07,7.89-4.56A17.46,17.46,0,0,1,278.73,1052.43Z"/><path class="cls-2" d="M0,1554.32l1451.45,838v-738L0,816.32Zm196.31-505.48c0-5,3.53-7.07,7.89-4.55a17.44,17.44,0,0,1,7.89,13.66c0,5-3.54,7.08-7.89,4.57A17.45,17.45,0,0,1,196.31,1048.84Zm21.92,12.66c0-5,3.53-7.07,7.89-4.56s7.89,8.64,7.89,13.67-3.54,7.08-7.89,4.56A17.42,17.42,0,0,1,218.23,1061.5ZM241,1074.66c0-5,3.54-7.07,7.89-4.56a17.43,17.43,0,0,1,7.9,13.67c0,5-3.53,7.08-7.9,4.56A17.45,17.45,0,0,1,241,1074.66Zm21.92,12.65c0-5,3.53-7.07,7.89-4.55a17.43,17.43,0,0,1,7.9,13.67c0,5-3.53,7.08-7.9,4.56A17.45,17.45,0,0,1,262.94,1087.31ZM284.86,1100c0-5,3.53-7.07,7.9-4.55a17.44,17.44,0,0,1,7.89,13.66c0,5-3.54,7.08-7.89,4.57A17.44,17.44,0,0,1,284.86,1100Zm21.92,12.65c0-5,3.53-7.07,7.9-4.55s7.89,8.64,7.89,13.67-3.54,7.08-7.89,4.56A17.44,17.44,0,0,1,306.78,1112.62Zm21.93,12.66c0-5,3.53-7.07,7.89-4.55a17.44,17.44,0,0,1,7.89,13.66c0,5-3.54,7.08-7.89,4.57A17.45,17.45,0,0,1,328.71,1125.28Zm21.92,12.66c0-5,3.53-7.07,7.88-4.56a17.45,17.45,0,0,1,7.89,13.67c0,5-3.53,7.08-7.89,4.56S350.63,1143,350.63,1137.94Zm22.79,13.16c0-5,3.53-7.07,7.89-4.56a17.45,17.45,0,0,1,7.89,13.67c0,5-3.53,7.08-7.89,4.56A17.42,17.42,0,0,1,373.42,1151.1Zm21.92,12.65c0-5,3.53-7.07,7.89-4.55a17.46,17.46,0,0,1,7.9,13.67c0,5-3.54,7.08-7.9,4.56A17.45,17.45,0,0,1,395.34,1163.75Zm21.92,12.66c0-5,3.53-7.07,7.9-4.55a17.43,17.43,0,0,1,7.88,13.66c0,5-3.53,7.08-7.88,4.57A17.44,17.44,0,0,1,417.26,1176.41Zm21.92,12.65c0-5,3.53-7.07,7.89-4.55a17.45,17.45,0,0,1,7.89,13.67c0,5-3.53,7.08-7.89,4.56A17.45,17.45,0,0,1,439.18,1189.06Zm21.92,12.66c0-5,3.54-7.07,7.89-4.55a17.42,17.42,0,0,1,7.89,13.66c0,5-3.53,7.08-7.89,4.57A17.48,17.48,0,0,1,461.1,1201.72Zm-276-138.15c0-5,3.53-7.07,7.89-4.55a17.42,17.42,0,0,1,7.89,13.66c0,5-3.53,7.07-7.89,4.56A17.45,17.45,0,0,1,185.05,1063.57ZM207,1076.23c0-5,3.53-7.07,7.89-4.56a17.45,17.45,0,0,1,7.89,13.67c0,5-3.53,7.07-7.89,4.55A17.42,17.42,0,0,1,207,1076.23Zm22.79,13.16c0-5,3.54-7.07,7.89-4.56a17.43,17.43,0,0,1,7.9,13.67c0,5-3.53,7.07-7.9,4.55A17.44,17.44,0,0,1,229.76,1089.39ZM251.68,1102c0-5,3.54-7.07,7.89-4.55a17.43,17.43,0,0,1,7.9,13.67c0,5-3.53,7.07-7.9,4.55S251.68,1107.07,251.68,1102Zm21.92,12.66c0-5,3.54-7.07,7.9-4.55a17.42,17.42,0,0,1,7.89,13.66c0,5-3.53,7.07-7.89,4.56A17.46,17.46,0,0,1,273.6,1114.7Zm21.92,12.65c0-5,3.53-7.07,7.9-4.55s7.89,8.64,7.89,13.67-3.54,7.07-7.89,4.55A17.43,17.43,0,0,1,295.52,1127.35ZM317.45,1140c0-5,3.53-7.07,7.89-4.55a17.44,17.44,0,0,1,7.89,13.66c0,5-3.54,7.07-7.89,4.56A17.45,17.45,0,0,1,317.45,1140Zm21.92,12.66c0-5,3.53-7.07,7.89-4.56s7.89,8.64,7.89,13.67-3.54,7.07-7.89,4.55A17.42,17.42,0,0,1,339.37,1152.67Zm22.79,13.16c0-5,3.53-7.07,7.89-4.56a17.42,17.42,0,0,1,7.89,13.67c0,5-3.52,7.07-7.89,4.55A17.42,17.42,0,0,1,362.16,1165.83Zm21.92,12.65c0-5,3.53-7.07,7.89-4.55a17.46,17.46,0,0,1,7.9,13.67c0,5-3.54,7.07-7.9,4.55A17.45,17.45,0,0,1,384.08,1178.48ZM406,1191.14c0-5,3.53-7.07,7.9-4.55a17.44,17.44,0,0,1,7.89,13.66c0,5-3.54,7.07-7.89,4.56A17.43,17.43,0,0,1,406,1191.14Zm21.92,12.65c0-5,3.53-7.07,7.9-4.55s7.89,8.64,7.89,13.67-3.54,7.07-7.89,4.55A17.43,17.43,0,0,1,427.92,1203.79Zm21.93,12.66c0-5,3.53-7.07,7.88-4.55a17.42,17.42,0,0,1,7.89,13.66c0,5-3.53,7.07-7.89,4.56A17.47,17.47,0,0,1,449.85,1216.45Zm21.91,12.66c0-5,3.54-7.07,7.89-4.56a17.45,17.45,0,0,1,7.89,13.67c0,5-3.53,7.07-7.89,4.55A17.44,17.44,0,0,1,471.76,1229.11ZM196.31,1092.84c0-5,3.53-7.07,7.89-4.55a17.44,17.44,0,0,1,7.89,13.66c0,5-3.54,7.08-7.89,4.57A17.45,17.45,0,0,1,196.31,1092.84Zm21.92,12.66c0-5,3.53-7.07,7.89-4.56s7.89,8.64,7.89,13.67-3.54,7.08-7.89,4.56A17.42,17.42,0,0,1,218.23,1105.5ZM241,1118.66c0-5,3.54-7.07,7.89-4.56a17.43,17.43,0,0,1,7.9,13.67c0,5-3.53,7.08-7.9,4.56A17.45,17.45,0,0,1,241,1118.66Zm21.92,12.65c0-5,3.53-7.07,7.89-4.55a17.43,17.43,0,0,1,7.9,13.67c0,5-3.53,7.08-7.9,4.56A17.45,17.45,0,0,1,262.94,1131.31ZM284.86,1144c0-5,3.53-7.07,7.9-4.55a17.44,17.44,0,0,1,7.89,13.66c0,5-3.54,7.08-7.89,4.57A17.44,17.44,0,0,1,284.86,1144Zm21.92,12.65c0-5,3.53-7.07,7.9-4.55s7.89,8.64,7.89,13.67-3.54,7.08-7.89,4.56A17.44,17.44,0,0,1,306.78,1156.62Zm21.93,12.66c0-5,3.53-7.07,7.89-4.55a17.44,17.44,0,0,1,7.89,13.66c0,5-3.54,7.08-7.89,4.57A17.45,17.45,0,0,1,328.71,1169.28Zm21.92,12.66c0-5,3.53-7.07,7.88-4.56a17.45,17.45,0,0,1,7.89,13.67c0,5-3.53,7.08-7.89,4.56S350.63,1187,350.63,1181.94Zm22.79,13.16c0-5,3.53-7.07,7.89-4.56a17.45,17.45,0,0,1,7.89,13.67c0,5-3.53,7.08-7.89,4.56A17.42,17.42,0,0,1,373.42,1195.1Zm21.92,12.65c0-5,3.53-7.07,7.89-4.55a17.46,17.46,0,0,1,7.9,13.67c0,5-3.54,7.08-7.9,4.56A17.45,17.45,0,0,1,395.34,1207.75Zm21.92,12.66c0-5,3.53-7.07,7.9-4.55a17.43,17.43,0,0,1,7.88,13.66c0,5-3.53,7.08-7.88,4.57A17.44,17.44,0,0,1,417.26,1220.41Zm21.92,12.65c0-5,3.53-7.07,7.89-4.55a17.45,17.45,0,0,1,7.89,13.67c0,5-3.53,7.08-7.89,4.56A17.45,17.45,0,0,1,439.18,1233.06Zm21.92,12.66c0-5,3.54-7.07,7.89-4.55a17.42,17.42,0,0,1,7.89,13.66c0,5-3.53,7.08-7.89,4.57A17.48,17.48,0,0,1,461.1,1245.72ZM483,1258.38c0-5,3.54-7.07,7.89-4.56a17.45,17.45,0,0,1,7.89,13.67c0,5-3.53,7.08-7.89,4.56A17.45,17.45,0,0,1,483,1258.38Zm-298-149.66c0-5,3.53-7.07,7.89-4.55a17.42,17.42,0,0,1,7.89,13.66c0,5-3.53,7.08-7.89,4.57A17.45,17.45,0,0,1,185.05,1108.72ZM207,1121.38c0-5,3.53-7.07,7.89-4.56a17.45,17.45,0,0,1,7.89,13.67c0,5-3.53,7.08-7.89,4.56A17.42,17.42,0,0,1,207,1121.38Zm22.79,13.16c0-5,3.54-7.07,7.89-4.56a17.43,17.43,0,0,1,7.9,13.67c0,5-3.53,7.08-7.9,4.56A17.45,17.45,0,0,1,229.76,1134.54Zm21.92,12.65c0-5,3.54-7.07,7.89-4.55a17.43,17.43,0,0,1,7.9,13.67c0,5-3.53,7.08-7.9,4.56A17.48,17.48,0,0,1,251.68,1147.19Zm21.92,12.66c0-5,3.54-7.07,7.9-4.55a17.42,17.42,0,0,1,7.89,13.66c0,5-3.53,7.08-7.89,4.57A17.46,17.46,0,0,1,273.6,1159.85Zm21.92,12.65c0-5,3.53-7.07,7.9-4.55s7.89,8.64,7.89,13.67-3.54,7.08-7.89,4.56A17.44,17.44,0,0,1,295.52,1172.5Zm21.93,12.66c0-5,3.53-7.07,7.89-4.55a17.44,17.44,0,0,1,7.89,13.66c0,5-3.54,7.08-7.89,4.57A17.45,17.45,0,0,1,317.45,1185.16Zm21.92,12.66c0-5,3.53-7.07,7.89-4.56s7.89,8.64,7.89,13.67-3.54,7.08-7.89,4.56A17.42,17.42,0,0,1,339.37,1197.82ZM362.16,1211c0-5,3.53-7.07,7.89-4.56a17.42,17.42,0,0,1,7.89,13.67c0,5-3.52,7.08-7.89,4.56A17.42,17.42,0,0,1,362.16,1211Zm21.92,12.65c0-5,3.53-7.07,7.89-4.55a17.46,17.46,0,0,1,7.9,13.67c0,5-3.54,7.08-7.9,4.56A17.45,17.45,0,0,1,384.08,1223.63ZM406,1236.29c0-5,3.53-7.07,7.9-4.55a17.44,17.44,0,0,1,7.89,13.66c0,5-3.54,7.08-7.89,4.57A17.44,17.44,0,0,1,406,1236.29Zm21.92,12.65c0-5,3.53-7.07,7.9-4.55s7.89,8.64,7.89,13.67-3.54,7.08-7.89,4.56A17.44,17.44,0,0,1,427.92,1248.94Zm21.93,12.66c0-5,3.53-7.07,7.88-4.55a17.42,17.42,0,0,1,7.89,13.66c0,5-3.53,7.08-7.89,4.57A17.47,17.47,0,0,1,449.85,1261.6Zm21.91,12.66c0-5,3.54-7.07,7.89-4.56a17.45,17.45,0,0,1,7.89,13.67c0,5-3.53,7.08-7.89,4.56A17.45,17.45,0,0,1,471.76,1274.26ZM196.31,1137.84c0-5,3.53-7.07,7.89-4.55a17.44,17.44,0,0,1,7.89,13.66c0,5-3.54,7.08-7.89,4.57A17.45,17.45,0,0,1,196.31,1137.84Zm21.92,12.66c0-5,3.53-7.07,7.89-4.56s7.89,8.64,7.89,13.67-3.54,7.08-7.89,4.56A17.42,17.42,0,0,1,218.23,1150.5ZM241,1163.66c0-5,3.54-7.07,7.89-4.56a17.43,17.43,0,0,1,7.9,13.67c0,5-3.53,7.08-7.9,4.56A17.45,17.45,0,0,1,241,1163.66Zm21.92,12.65c0-5,3.53-7.07,7.89-4.55a17.43,17.43,0,0,1,7.9,13.67c0,5-3.53,7.08-7.9,4.56A17.45,17.45,0,0,1,262.94,1176.31ZM284.86,1189c0-5,3.53-7.07,7.9-4.55a17.44,17.44,0,0,1,7.89,13.66c0,5-3.54,7.08-7.89,4.57A17.44,17.44,0,0,1,284.86,1189Zm21.92,12.65c0-5,3.53-7.07,7.9-4.55s7.89,8.64,7.89,13.67-3.54,7.08-7.89,4.56A17.44,17.44,0,0,1,306.78,1201.62Zm21.93,12.66c0-5,3.53-7.07,7.89-4.55a17.44,17.44,0,0,1,7.89,13.66c0,5-3.54,7.08-7.89,4.57A17.45,17.45,0,0,1,328.71,1214.28Zm21.92,12.66c0-5,3.53-7.07,7.88-4.56a17.45,17.45,0,0,1,7.89,13.67c0,5-3.53,7.08-7.89,4.56S350.63,1232,350.63,1226.94Zm22.79,13.16c0-5,3.53-7.07,7.89-4.56a17.45,17.45,0,0,1,7.89,13.67c0,5-3.53,7.08-7.89,4.56A17.42,17.42,0,0,1,373.42,1240.1Zm21.92,12.65c0-5,3.53-7.07,7.89-4.55a17.46,17.46,0,0,1,7.9,13.67c0,5-3.54,7.08-7.9,4.56A17.45,17.45,0,0,1,395.34,1252.75Zm21.92,12.66c0-5,3.53-7.07,7.9-4.55a17.43,17.43,0,0,1,7.88,13.66c0,5-3.53,7.08-7.88,4.57A17.44,17.44,0,0,1,417.26,1265.41Zm21.92,12.65c0-5,3.53-7.07,7.89-4.55a17.45,17.45,0,0,1,7.89,13.67c0,5-3.53,7.08-7.89,4.56A17.45,17.45,0,0,1,439.18,1278.06Zm21.92,12.66c0-5,3.54-7.07,7.89-4.55a17.42,17.42,0,0,1,7.89,13.66c0,5-3.53,7.08-7.89,4.57A17.48,17.48,0,0,1,461.1,1290.72ZM483,1303.38c0-5,3.54-7.07,7.89-4.56a17.45,17.45,0,0,1,7.89,13.67c0,5-3.53,7.08-7.89,4.56A17.45,17.45,0,0,1,483,1303.38Zm-298-149.5c0-5,3.53-7.07,7.89-4.55a17.42,17.42,0,0,1,7.89,13.66c0,5-3.53,7.07-7.89,4.56A17.45,17.45,0,0,1,185.05,1153.88ZM207,1166.54c0-5,3.53-7.07,7.89-4.56a17.45,17.45,0,0,1,7.89,13.67c0,5-3.53,7.07-7.89,4.55A17.42,17.42,0,0,1,207,1166.54Zm22.79,13.16c0-5,3.54-7.07,7.89-4.56a17.43,17.43,0,0,1,7.9,13.67c0,5-3.53,7.07-7.9,4.55A17.44,17.44,0,0,1,229.76,1179.7Zm21.92,12.65c0-5,3.54-7.07,7.89-4.55a17.43,17.43,0,0,1,7.9,13.67c0,5-3.53,7.07-7.9,4.55S251.68,1197.38,251.68,1192.35ZM273.6,1205c0-5,3.54-7.07,7.9-4.55a17.42,17.42,0,0,1,7.89,13.66c0,5-3.53,7.07-7.89,4.56A17.46,17.46,0,0,1,273.6,1205Zm21.92,12.65c0-5,3.53-7.07,7.9-4.55s7.89,8.64,7.89,13.67-3.54,7.07-7.89,4.55A17.43,17.43,0,0,1,295.52,1217.66Zm21.93,12.66c0-5,3.53-7.07,7.89-4.55a17.44,17.44,0,0,1,7.89,13.66c0,5-3.54,7.07-7.89,4.56A17.45,17.45,0,0,1,317.45,1230.32ZM339.37,1243c0-5,3.53-7.07,7.89-4.56s7.89,8.64,7.89,13.67-3.54,7.07-7.89,4.55A17.42,17.42,0,0,1,339.37,1243Zm22.79,13.16c0-5,3.53-7.07,7.89-4.56a17.42,17.42,0,0,1,7.89,13.67c0,5-3.52,7.07-7.89,4.55A17.42,17.42,0,0,1,362.16,1256.14Zm21.92,12.65c0-5,3.53-7.07,7.89-4.55a17.46,17.46,0,0,1,7.9,13.67c0,5-3.54,7.07-7.9,4.55A17.45,17.45,0,0,1,384.08,1268.79ZM406,1281.45c0-5,3.53-7.07,7.9-4.55a17.44,17.44,0,0,1,7.89,13.66c0,5-3.54,7.07-7.89,4.56A17.43,17.43,0,0,1,406,1281.45Zm21.92,12.65c0-5,3.53-7.07,7.9-4.55s7.89,8.64,7.89,13.67-3.54,7.07-7.89,4.55A17.43,17.43,0,0,1,427.92,1294.1Zm21.93,12.66c0-5,3.53-7.07,7.88-4.55a17.42,17.42,0,0,1,7.89,13.66c0,5-3.53,7.07-7.89,4.56A17.47,17.47,0,0,1,449.85,1306.76Zm21.91,12.66c0-5,3.54-7.07,7.89-4.56a17.45,17.45,0,0,1,7.89,13.67c0,5-3.53,7.07-7.89,4.55A17.44,17.44,0,0,1,471.76,1319.42ZM1041,2079.31l-50.23-29v-425l50.23,29Zm21.65-412.5,50.23,29v425l-50.23-29Zm-93.53,371-50.23-29v-425l50.23,29Zm-71.88-41.5-50.23-29v-425l50.23,29Zm-71.88-41.5-50.23-29v-425l50.23,29Zm-71.88-41.5-50.23-29v-425l50.23,29Zm-71.88-41.5-50.23-29v-425l50.23,29Zm-485.25-689c0-5,3.53-7.07,7.89-4.55a17.44,17.44,0,0,1,7.89,13.66c0,5-3.54,7.08-7.89,4.57A17.45,17.45,0,0,1,196.31,1182.84Zm21.92,12.66c0-5,3.53-7.07,7.89-4.56s7.89,8.64,7.89,13.67-3.54,7.08-7.89,4.56A17.42,17.42,0,0,1,218.23,1195.5ZM241,1208.66c0-5,3.54-7.07,7.89-4.56a17.43,17.43,0,0,1,7.9,13.67c0,5-3.53,7.08-7.9,4.56A17.45,17.45,0,0,1,241,1208.66Zm21.92,12.65c0-5,3.53-7.07,7.89-4.55a17.43,17.43,0,0,1,7.9,13.67c0,5-3.53,7.08-7.9,4.56A17.45,17.45,0,0,1,262.94,1221.31ZM284.86,1234c0-5,3.53-7.07,7.9-4.55a17.44,17.44,0,0,1,7.89,13.66c0,5-3.54,7.08-7.89,4.57A17.44,17.44,0,0,1,284.86,1234Zm21.92,12.65c0-5,3.53-7.07,7.9-4.55s7.89,8.64,7.89,13.67-3.54,7.08-7.89,4.56A17.44,17.44,0,0,1,306.78,1246.62Zm21.93,12.66c0-5,3.53-7.07,7.89-4.55a17.44,17.44,0,0,1,7.89,13.66c0,5-3.54,7.08-7.89,4.57A17.45,17.45,0,0,1,328.71,1259.28Zm21.92,12.66c0-5,3.53-7.07,7.88-4.56a17.45,17.45,0,0,1,7.89,13.67c0,5-3.53,7.08-7.89,4.56S350.63,1277,350.63,1271.94Zm22.79,13.16c0-5,3.53-7.07,7.89-4.56a17.45,17.45,0,0,1,7.89,13.67c0,5-3.53,7.08-7.89,4.56A17.42,17.42,0,0,1,373.42,1285.1Zm21.92,12.65c0-5,3.53-7.07,7.89-4.55a17.46,17.46,0,0,1,7.9,13.67c0,5-3.54,7.08-7.9,4.56A17.45,17.45,0,0,1,395.34,1297.75Zm21.92,12.66c0-5,3.53-7.07,7.9-4.55a17.43,17.43,0,0,1,7.88,13.66c0,5-3.53,7.08-7.88,4.57A17.44,17.44,0,0,1,417.26,1310.41Zm21.92,12.65c0-5,3.53-7.07,7.89-4.55a17.45,17.45,0,0,1,7.89,13.67c0,5-3.53,7.08-7.89,4.56A17.45,17.45,0,0,1,439.18,1323.06Zm21.92,12.66c0-5,3.54-7.07,7.89-4.55a17.42,17.42,0,0,1,7.89,13.66c0,5-3.53,7.08-7.89,4.57A17.48,17.48,0,0,1,461.1,1335.72ZM483,1348.38c0-5,3.54-7.07,7.89-4.56a17.45,17.45,0,0,1,7.89,13.67c0,5-3.53,7.08-7.89,4.56A17.45,17.45,0,0,1,483,1348.38ZM185.05,1199c0-5,3.53-7.07,7.89-4.55a17.42,17.42,0,0,1,7.89,13.66c0,5-3.53,7.08-7.89,4.57A17.45,17.45,0,0,1,185.05,1199ZM207,1211.69c0-5,3.53-7.07,7.89-4.56a17.45,17.45,0,0,1,7.89,13.67c0,5-3.53,7.08-7.89,4.56A17.42,17.42,0,0,1,207,1211.69Zm22.79,13.16c0-5,3.54-7.07,7.89-4.56a17.43,17.43,0,0,1,7.9,13.67c0,5-3.53,7.08-7.9,4.56A17.45,17.45,0,0,1,229.76,1224.85Zm21.92,12.65c0-5,3.54-7.07,7.89-4.55a17.43,17.43,0,0,1,7.9,13.67c0,5-3.53,7.08-7.9,4.56A17.48,17.48,0,0,1,251.68,1237.5Zm21.92,12.66c0-5,3.54-7.07,7.9-4.55a17.42,17.42,0,0,1,7.89,13.66c0,5-3.53,7.08-7.89,4.57A17.46,17.46,0,0,1,273.6,1250.16Zm21.92,12.65c0-5,3.53-7.07,7.9-4.55s7.89,8.64,7.89,13.67-3.54,7.08-7.89,4.56A17.44,17.44,0,0,1,295.52,1262.81Zm21.93,12.66c0-5,3.53-7.07,7.89-4.55a17.44,17.44,0,0,1,7.89,13.66c0,5-3.54,7.08-7.89,4.57A17.45,17.45,0,0,1,317.45,1275.47Zm21.92,12.66c0-5,3.53-7.07,7.89-4.56s7.89,8.64,7.89,13.67-3.54,7.08-7.89,4.56A17.42,17.42,0,0,1,339.37,1288.13Zm22.79,13.16c0-5,3.53-7.07,7.89-4.56a17.42,17.42,0,0,1,7.89,13.67c0,5-3.52,7.08-7.89,4.56A17.42,17.42,0,0,1,362.16,1301.29Zm21.92,12.65c0-5,3.53-7.07,7.89-4.55a17.46,17.46,0,0,1,7.9,13.67c0,5-3.54,7.08-7.9,4.56A17.45,17.45,0,0,1,384.08,1313.94ZM406,1326.6c0-5,3.53-7.07,7.9-4.55a17.44,17.44,0,0,1,7.89,13.66c0,5-3.54,7.08-7.89,4.57A17.44,17.44,0,0,1,406,1326.6Zm21.92,12.65c0-5,3.53-7.07,7.9-4.55s7.89,8.64,7.89,13.67-3.54,7.08-7.89,4.56A17.44,17.44,0,0,1,427.92,1339.25Zm21.93,12.66c0-5,3.53-7.07,7.88-4.55a17.42,17.42,0,0,1,7.89,13.66c0,5-3.53,7.08-7.89,4.57A17.47,17.47,0,0,1,449.85,1351.91Zm21.91,12.66c0-5,3.54-7.07,7.89-4.56a17.45,17.45,0,0,1,7.89,13.67c0,5-3.53,7.08-7.89,4.56A17.45,17.45,0,0,1,471.76,1364.57ZM196.31,1227.84c0-5,3.53-7.07,7.89-4.55a17.44,17.44,0,0,1,7.89,13.66c0,5-3.54,7.08-7.89,4.57A17.45,17.45,0,0,1,196.31,1227.84Zm21.92,12.66c0-5,3.53-7.07,7.89-4.56s7.89,8.64,7.89,13.67-3.54,7.08-7.89,4.56A17.42,17.42,0,0,1,218.23,1240.5ZM241,1253.66c0-5,3.54-7.07,7.89-4.56a17.43,17.43,0,0,1,7.9,13.67c0,5-3.53,7.08-7.9,4.56A17.45,17.45,0,0,1,241,1253.66Zm21.92,12.65c0-5,3.53-7.07,7.89-4.55a17.43,17.43,0,0,1,7.9,13.67c0,5-3.53,7.08-7.9,4.56A17.45,17.45,0,0,1,262.94,1266.31ZM284.86,1279c0-5,3.53-7.07,7.9-4.55a17.44,17.44,0,0,1,7.89,13.66c0,5-3.54,7.08-7.89,4.57A17.44,17.44,0,0,1,284.86,1279Zm21.92,12.65c0-5,3.53-7.07,7.9-4.55s7.89,8.64,7.89,13.67-3.54,7.08-7.89,4.56A17.44,17.44,0,0,1,306.78,1291.62Zm21.93,12.66c0-5,3.53-7.07,7.89-4.55a17.44,17.44,0,0,1,7.89,13.66c0,5-3.54,7.08-7.89,4.57A17.45,17.45,0,0,1,328.71,1304.28Zm21.92,12.66c0-5,3.53-7.07,7.88-4.56a17.45,17.45,0,0,1,7.89,13.67c0,5-3.53,7.08-7.89,4.56S350.63,1322,350.63,1316.94Zm22.79,13.16c0-5,3.53-7.07,7.89-4.56a17.45,17.45,0,0,1,7.89,13.67c0,5-3.53,7.08-7.89,4.56A17.42,17.42,0,0,1,373.42,1330.1Zm21.92,12.65c0-5,3.53-7.07,7.89-4.55a17.46,17.46,0,0,1,7.9,13.67c0,5-3.54,7.08-7.9,4.56A17.45,17.45,0,0,1,395.34,1342.75Zm21.92,12.66c0-5,3.53-7.07,7.9-4.55a17.43,17.43,0,0,1,7.88,13.66c0,5-3.53,7.08-7.88,4.57A17.44,17.44,0,0,1,417.26,1355.41Zm21.92,12.65c0-5,3.53-7.07,7.89-4.55a17.45,17.45,0,0,1,7.89,13.67c0,5-3.53,7.08-7.89,4.56A17.45,17.45,0,0,1,439.18,1368.06Zm21.92,12.66c0-5,3.54-7.07,7.89-4.55a17.42,17.42,0,0,1,7.89,13.66c0,5-3.53,7.08-7.89,4.57A17.48,17.48,0,0,1,461.1,1380.72ZM483,1393.38c0-5,3.54-7.07,7.89-4.56a17.45,17.45,0,0,1,7.89,13.67c0,5-3.53,7.08-7.89,4.56A17.45,17.45,0,0,1,483,1393.38Zm-298-149.19c0-5,3.53-7.07,7.89-4.55a17.42,17.42,0,0,1,7.89,13.66c0,5-3.53,7.07-7.89,4.56A17.45,17.45,0,0,1,185.05,1244.19ZM207,1256.85c0-5,3.53-7.07,7.89-4.56a17.45,17.45,0,0,1,7.89,13.67c0,5-3.53,7.07-7.89,4.55A17.42,17.42,0,0,1,207,1256.85ZM229.76,1270c0-5,3.54-7.07,7.89-4.56a17.43,17.43,0,0,1,7.9,13.67c0,5-3.53,7.07-7.9,4.55A17.44,17.44,0,0,1,229.76,1270Zm21.92,12.65c0-5,3.54-7.07,7.89-4.55a17.43,17.43,0,0,1,7.9,13.67c0,5-3.53,7.07-7.9,4.55S251.68,1287.69,251.68,1282.66Zm21.92,12.66c0-5,3.54-7.07,7.9-4.55a17.42,17.42,0,0,1,7.89,13.66c0,5-3.53,7.07-7.89,4.56A17.46,17.46,0,0,1,273.6,1295.32ZM295.52,1308c0-5,3.53-7.07,7.9-4.55s7.89,8.64,7.89,13.67-3.54,7.07-7.89,4.55A17.43,17.43,0,0,1,295.52,1308Zm21.93,12.66c0-5,3.53-7.07,7.89-4.55a17.44,17.44,0,0,1,7.89,13.66c0,5-3.54,7.07-7.89,4.56A17.45,17.45,0,0,1,317.45,1320.63Zm21.92,12.66c0-5,3.53-7.07,7.89-4.56s7.89,8.64,7.89,13.67-3.54,7.07-7.89,4.55A17.42,17.42,0,0,1,339.37,1333.29Zm22.79,13.16c0-5,3.53-7.07,7.89-4.56a17.42,17.42,0,0,1,7.89,13.67c0,5-3.52,7.07-7.89,4.55A17.42,17.42,0,0,1,362.16,1346.45Zm21.92,12.65c0-5,3.53-7.07,7.89-4.55a17.46,17.46,0,0,1,7.9,13.67c0,5-3.54,7.07-7.9,4.55A17.45,17.45,0,0,1,384.08,1359.1ZM406,1371.76c0-5,3.53-7.07,7.9-4.55a17.44,17.44,0,0,1,7.89,13.66c0,5-3.54,7.07-7.89,4.56A17.43,17.43,0,0,1,406,1371.76Zm21.92,12.65c0-5,3.53-7.07,7.9-4.55s7.89,8.64,7.89,13.67-3.54,7.07-7.89,4.55A17.43,17.43,0,0,1,427.92,1384.41Zm21.93,12.66c0-5,3.53-7.07,7.88-4.55a17.42,17.42,0,0,1,7.89,13.66c0,5-3.53,7.07-7.89,4.56A17.47,17.47,0,0,1,449.85,1397.07Zm21.91,12.66c0-5,3.54-7.07,7.89-4.56a17.45,17.45,0,0,1,7.89,13.67c0,5-3.53,7.07-7.89,4.55A17.44,17.44,0,0,1,471.76,1409.73ZM196.31,1272.84c0-5,3.53-7.07,7.89-4.55a17.44,17.44,0,0,1,7.89,13.66c0,5-3.54,7.08-7.89,4.57A17.45,17.45,0,0,1,196.31,1272.84Zm21.92,12.66c0-5,3.53-7.07,7.89-4.56s7.89,8.64,7.89,13.67-3.54,7.08-7.89,4.56A17.42,17.42,0,0,1,218.23,1285.5ZM241,1298.66c0-5,3.54-7.07,7.89-4.56a17.43,17.43,0,0,1,7.9,13.67c0,5-3.53,7.08-7.9,4.56A17.45,17.45,0,0,1,241,1298.66Zm21.92,12.65c0-5,3.53-7.07,7.89-4.55a17.43,17.43,0,0,1,7.9,13.67c0,5-3.53,7.08-7.9,4.56A17.45,17.45,0,0,1,262.94,1311.31ZM284.86,1324c0-5,3.53-7.07,7.9-4.55a17.44,17.44,0,0,1,7.89,13.66c0,5-3.54,7.08-7.89,4.57A17.44,17.44,0,0,1,284.86,1324Zm21.92,12.65c0-5,3.53-7.07,7.9-4.55s7.89,8.64,7.89,13.67-3.54,7.08-7.89,4.56A17.44,17.44,0,0,1,306.78,1336.62Zm21.93,12.66c0-5,3.53-7.07,7.89-4.55a17.44,17.44,0,0,1,7.89,13.66c0,5-3.54,7.08-7.89,4.57A17.45,17.45,0,0,1,328.71,1349.28Zm21.92,12.66c0-5,3.53-7.07,7.88-4.56a17.45,17.45,0,0,1,7.89,13.67c0,5-3.53,7.08-7.89,4.56S350.63,1367,350.63,1361.94Zm22.79,13.16c0-5,3.53-7.07,7.89-4.56a17.45,17.45,0,0,1,7.89,13.67c0,5-3.53,7.08-7.89,4.56A17.42,17.42,0,0,1,373.42,1375.1Zm21.92,12.65c0-5,3.53-7.07,7.89-4.55a17.46,17.46,0,0,1,7.9,13.67c0,5-3.54,7.08-7.9,4.56A17.45,17.45,0,0,1,395.34,1387.75Zm21.92,12.66c0-5,3.53-7.07,7.9-4.55a17.43,17.43,0,0,1,7.88,13.66c0,5-3.53,7.08-7.88,4.57A17.44,17.44,0,0,1,417.26,1400.41Zm21.92,12.65c0-5,3.53-7.07,7.89-4.55a17.45,17.45,0,0,1,7.89,13.67c0,5-3.53,7.08-7.89,4.56A17.45,17.45,0,0,1,439.18,1413.06Zm21.92,12.66c0-5,3.54-7.07,7.89-4.55a17.42,17.42,0,0,1,7.89,13.66c0,5-3.53,7.08-7.89,4.57A17.48,17.48,0,0,1,461.1,1425.72ZM483,1438.38c0-5,3.54-7.07,7.89-4.56a17.45,17.45,0,0,1,7.89,13.67c0,5-3.53,7.08-7.89,4.56A17.45,17.45,0,0,1,483,1438.38Zm-298-149c0-5,3.53-7.07,7.89-4.55a17.42,17.42,0,0,1,7.89,13.66c0,5-3.53,7.08-7.89,4.57A17.45,17.45,0,0,1,185.05,1289.34ZM207,1302c0-5,3.53-7.07,7.89-4.56a17.45,17.45,0,0,1,7.89,13.67c0,5-3.53,7.08-7.89,4.56A17.42,17.42,0,0,1,207,1302Zm22.79,13.16c0-5,3.54-7.07,7.89-4.56a17.43,17.43,0,0,1,7.9,13.67c0,5-3.53,7.08-7.9,4.56A17.45,17.45,0,0,1,229.76,1315.16Zm21.92,12.65c0-5,3.54-7.07,7.89-4.55a17.43,17.43,0,0,1,7.9,13.67c0,5-3.53,7.08-7.9,4.56A17.48,17.48,0,0,1,251.68,1327.81Zm21.92,12.66c0-5,3.54-7.07,7.9-4.55a17.42,17.42,0,0,1,7.89,13.66c0,5-3.53,7.08-7.89,4.57A17.46,17.46,0,0,1,273.6,1340.47Zm21.92,12.65c0-5,3.53-7.07,7.9-4.55s7.89,8.64,7.89,13.67-3.54,7.08-7.89,4.56A17.44,17.44,0,0,1,295.52,1353.12Zm21.93,12.66c0-5,3.53-7.07,7.89-4.55a17.44,17.44,0,0,1,7.89,13.66c0,5-3.54,7.08-7.89,4.57A17.45,17.45,0,0,1,317.45,1365.78Zm21.92,12.66c0-5,3.53-7.07,7.89-4.56s7.89,8.64,7.89,13.67-3.54,7.08-7.89,4.56A17.42,17.42,0,0,1,339.37,1378.44Zm22.79,13.16c0-5,3.53-7.07,7.89-4.56a17.42,17.42,0,0,1,7.89,13.67c0,5-3.52,7.08-7.89,4.56A17.42,17.42,0,0,1,362.16,1391.6Zm21.92,12.65c0-5,3.53-7.07,7.89-4.55a17.46,17.46,0,0,1,7.9,13.67c0,5-3.54,7.08-7.9,4.56A17.45,17.45,0,0,1,384.08,1404.25ZM406,1416.91c0-5,3.53-7.07,7.9-4.55a17.44,17.44,0,0,1,7.89,13.66c0,5-3.54,7.08-7.89,4.57A17.44,17.44,0,0,1,406,1416.91Zm21.92,12.65c0-5,3.53-7.07,7.9-4.55s7.89,8.64,7.89,13.67-3.54,7.08-7.89,4.56A17.44,17.44,0,0,1,427.92,1429.56Zm21.93,12.66c0-5,3.53-7.07,7.88-4.55a17.42,17.42,0,0,1,7.89,13.66c0,5-3.53,7.08-7.89,4.57A17.47,17.47,0,0,1,449.85,1442.22Zm21.91,12.66c0-5,3.54-7.07,7.89-4.56a17.45,17.45,0,0,1,7.89,13.67c0,5-3.53,7.08-7.89,4.56A17.45,17.45,0,0,1,471.76,1454.88Zm-275.45-137c0-5,3.53-7.07,7.89-4.55a17.44,17.44,0,0,1,7.89,13.66c0,5-3.54,7.08-7.89,4.57A17.45,17.45,0,0,1,196.31,1317.84Zm21.92,12.66c0-5,3.53-7.07,7.89-4.56s7.89,8.64,7.89,13.67-3.54,7.08-7.89,4.56A17.42,17.42,0,0,1,218.23,1330.5ZM241,1343.66c0-5,3.54-7.07,7.89-4.56a17.43,17.43,0,0,1,7.9,13.67c0,5-3.53,7.08-7.9,4.56A17.45,17.45,0,0,1,241,1343.66Zm21.92,12.65c0-5,3.53-7.07,7.89-4.55a17.43,17.43,0,0,1,7.9,13.67c0,5-3.53,7.08-7.9,4.56A17.45,17.45,0,0,1,262.94,1356.31ZM284.86,1369c0-5,3.53-7.07,7.9-4.55a17.44,17.44,0,0,1,7.89,13.66c0,5-3.54,7.08-7.89,4.57A17.44,17.44,0,0,1,284.86,1369Zm21.92,12.65c0-5,3.53-7.07,7.9-4.55s7.89,8.64,7.89,13.67-3.54,7.08-7.89,4.56A17.44,17.44,0,0,1,306.78,1381.62Zm21.93,12.66c0-5,3.53-7.07,7.89-4.55a17.44,17.44,0,0,1,7.89,13.66c0,5-3.54,7.08-7.89,4.57A17.45,17.45,0,0,1,328.71,1394.28Zm21.92,12.66c0-5,3.53-7.07,7.88-4.56a17.45,17.45,0,0,1,7.89,13.67c0,5-3.53,7.08-7.89,4.56S350.63,1412,350.63,1406.94Zm22.79,13.16c0-5,3.53-7.07,7.89-4.56a17.45,17.45,0,0,1,7.89,13.67c0,5-3.53,7.08-7.89,4.56A17.42,17.42,0,0,1,373.42,1420.1Zm21.92,12.65c0-5,3.53-7.07,7.89-4.55a17.46,17.46,0,0,1,7.9,13.67c0,5-3.54,7.08-7.9,4.56A17.45,17.45,0,0,1,395.34,1432.75Zm21.92,12.66c0-5,3.53-7.07,7.9-4.55a17.43,17.43,0,0,1,7.88,13.66c0,5-3.53,7.08-7.88,4.57A17.44,17.44,0,0,1,417.26,1445.41Zm21.92,12.65c0-5,3.53-7.07,7.89-4.55a17.45,17.45,0,0,1,7.89,13.67c0,5-3.53,7.08-7.89,4.56A17.45,17.45,0,0,1,439.18,1458.06Zm21.92,12.66c0-5,3.54-7.07,7.89-4.55a17.42,17.42,0,0,1,7.89,13.66c0,5-3.53,7.08-7.89,4.57A17.48,17.48,0,0,1,461.1,1470.72ZM229.76,1359.16c0-5,3.54-7.07,7.89-4.56a17.43,17.43,0,0,1,7.9,13.67c0,5-3.53,7.08-7.9,4.56A17.45,17.45,0,0,1,229.76,1359.16Zm21.92,12.65c0-5,3.54-7.07,7.89-4.55a17.43,17.43,0,0,1,7.9,13.67c0,5-3.53,7.08-7.9,4.56A17.48,17.48,0,0,1,251.68,1371.81Zm21.92,12.66c0-5,3.54-7.07,7.9-4.55a17.42,17.42,0,0,1,7.89,13.66c0,5-3.53,7.08-7.89,4.57A17.46,17.46,0,0,1,273.6,1384.47Zm21.92,12.65c0-5,3.53-7.07,7.9-4.55s7.89,8.64,7.89,13.67-3.54,7.08-7.89,4.56A17.44,17.44,0,0,1,295.52,1397.12Zm21.93,12.66c0-5,3.53-7.07,7.89-4.55a17.44,17.44,0,0,1,7.89,13.66c0,5-3.54,7.08-7.89,4.57A17.45,17.45,0,0,1,317.45,1409.78Zm21.92,12.66c0-5,3.53-7.07,7.89-4.56s7.89,8.64,7.89,13.67-3.54,7.08-7.89,4.56A17.42,17.42,0,0,1,339.37,1422.44Zm22.79,13.16c0-5,3.53-7.07,7.89-4.56a17.42,17.42,0,0,1,7.89,13.67c0,5-3.52,7.08-7.89,4.56A17.42,17.42,0,0,1,362.16,1435.6Zm21.92,12.65c0-5,3.53-7.07,7.89-4.55a17.46,17.46,0,0,1,7.9,13.67c0,5-3.54,7.08-7.9,4.56A17.45,17.45,0,0,1,384.08,1448.25ZM406,1460.91c0-5,3.53-7.07,7.9-4.55a17.44,17.44,0,0,1,7.89,13.66c0,5-3.54,7.08-7.89,4.57A17.44,17.44,0,0,1,406,1460.91Zm21.92,12.65c0-5,3.53-7.07,7.9-4.55s7.89,8.64,7.89,13.67-3.54,7.08-7.89,4.56A17.44,17.44,0,0,1,427.92,1473.56Zm-165-74.25c0-5,3.53-7.07,7.89-4.55a17.43,17.43,0,0,1,7.9,13.67c0,5-3.53,7.08-7.9,4.56A17.45,17.45,0,0,1,262.94,1399.31ZM284.86,1412c0-5,3.53-7.07,7.9-4.55a17.44,17.44,0,0,1,7.89,13.66c0,5-3.54,7.08-7.89,4.57A17.44,17.44,0,0,1,284.86,1412Zm21.92,12.65c0-5,3.53-7.07,7.9-4.55s7.89,8.64,7.89,13.67-3.54,7.08-7.89,4.56A17.44,17.44,0,0,1,306.78,1424.62Zm21.93,12.66c0-5,3.53-7.07,7.89-4.55a17.44,17.44,0,0,1,7.89,13.66c0,5-3.54,7.08-7.89,4.57A17.45,17.45,0,0,1,328.71,1437.28Zm21.92,12.66c0-5,3.53-7.07,7.88-4.56a17.45,17.45,0,0,1,7.89,13.67c0,5-3.53,7.08-7.89,4.56S350.63,1455,350.63,1449.94Zm22.79,13.16c0-5,3.53-7.07,7.89-4.56a17.45,17.45,0,0,1,7.89,13.67c0,5-3.53,7.08-7.89,4.56A17.42,17.42,0,0,1,373.42,1463.1Zm21.92,12.65c0-5,3.53-7.07,7.89-4.55a17.46,17.46,0,0,1,7.9,13.67c0,5-3.54,7.08-7.9,4.56A17.45,17.45,0,0,1,395.34,1475.75Zm-249-104.94c0-5,3.49-7,7.79-4.5a17.23,17.23,0,0,1,7.8,13.5c0,5-3.49,7-7.8,4.5A17.21,17.21,0,0,1,146.36,1370.81Zm365.46,211c0-5,3.49-7,7.79-4.5a17.23,17.23,0,0,1,7.8,13.5c0,5-3.49,7-7.8,4.5A17.23,17.23,0,0,1,511.82,1581.81ZM74.48,1551.32v-187l546.46,315.49v187Zm1324.14,174.49v117l18.19,50.5v366l-33.78,2.5v23l-196.58-113.5-4.33-14.5v-99l-23.39-57.5v-371l51.1-12.5ZM443.71,1169.68c0,5-3.54,7.08-7.89,4.56a17.44,17.44,0,0,1-7.9-13.68c0-5,3.53-7.07,7.9-4.55S443.71,1164.65,443.71,1169.68ZM421.79,1157c0,5-3.54,7.08-7.89,4.57a17.44,17.44,0,0,1-7.9-13.68c0-5,3.53-7.07,7.9-4.55A17.44,17.44,0,0,1,421.79,1157Zm-21.92-12.65c0,5-3.54,7.08-7.9,4.56a17.45,17.45,0,0,1-7.89-13.68c0-5,3.53-7.07,7.89-4.55A17.46,17.46,0,0,1,399.87,1144.37Zm-21.93-12.66c0,5-3.52,7.08-7.89,4.56a17.42,17.42,0,0,1-7.89-13.67c0-5,3.53-7.07,7.89-4.56A17.42,17.42,0,0,1,377.94,1131.71Zm-22.79-13.16c0,5-3.54,7.08-7.89,4.56a17.42,17.42,0,0,1-7.89-13.67c0-5,3.53-7.07,7.89-4.56S355.15,1113.52,355.15,1118.55Zm-21.92-12.66c0,5-3.54,7.08-7.89,4.57a17.45,17.45,0,0,1-7.89-13.68c0-5,3.53-7.07,7.89-4.55A17.44,17.44,0,0,1,333.23,1105.89Zm-21.92-12.65c0,5-3.54,7.08-7.89,4.56a17.44,17.44,0,0,1-7.9-13.68c0-5,3.53-7.07,7.9-4.55S311.31,1088.21,311.31,1093.24Zm-21.92-12.66c0,5-3.53,7.08-7.89,4.57a17.46,17.46,0,0,1-7.9-13.68c0-5,3.54-7.07,7.9-4.55A17.42,17.42,0,0,1,289.39,1080.58Zm-21.92-12.65c0,5-3.53,7.08-7.9,4.56a17.48,17.48,0,0,1-7.89-13.68c0-5,3.54-7.07,7.89-4.55A17.43,17.43,0,0,1,267.47,1067.93Zm-21.92-12.66c0,5-3.53,7.08-7.9,4.56a17.45,17.45,0,0,1-7.89-13.67c0-5,3.54-7.07,7.89-4.56A17.43,17.43,0,0,1,245.55,1055.27Zm165.58,73.6c0,5-3.54,7.08-7.9,4.56a17.45,17.45,0,0,1-7.89-13.68c0-5,3.53-7.07,7.89-4.55A17.46,17.46,0,0,1,411.13,1128.87Zm-21.93-12.66c0,5-3.53,7.08-7.89,4.56a17.42,17.42,0,0,1-7.89-13.67c0-5,3.53-7.07,7.89-4.56A17.45,17.45,0,0,1,389.2,1116.21Zm-22.8-13.16c0,5-3.53,7.08-7.89,4.56s-7.88-8.63-7.88-13.67,3.53-7.07,7.88-4.56A17.45,17.45,0,0,1,366.4,1103.05Zm-21.91-12.66c0,5-3.54,7.08-7.89,4.57a17.45,17.45,0,0,1-7.89-13.68c0-5,3.53-7.07,7.89-4.55A17.44,17.44,0,0,1,344.49,1090.39Zm-21.92-12.65c0,5-3.54,7.08-7.89,4.56a17.44,17.44,0,0,1-7.9-13.68c0-5,3.53-7.07,7.9-4.55S322.57,1072.71,322.57,1077.74Zm-21.92-12.66c0,5-3.54,7.08-7.89,4.57a17.44,17.44,0,0,1-7.9-13.68c0-5,3.53-7.07,7.9-4.55A17.44,17.44,0,0,1,300.65,1065.08Zm-21.92-12.65c0,5-3.53,7.08-7.9,4.56a17.45,17.45,0,0,1-7.89-13.68c0-5,3.53-7.07,7.89-4.55A17.43,17.43,0,0,1,278.73,1052.43Zm248.68,119.38c0,5-3.49,7-7.8,4.5a17.23,17.23,0,0,1-7.79-13.5c0-5,3.49-7,7.79-4.5A17.23,17.23,0,0,1,527.41,1171.81ZM162,960.81c0,5-3.49,7-7.8,4.5a17.21,17.21,0,0,1-7.79-13.5c0-5,3.49-7,7.79-4.5A17.23,17.23,0,0,1,162,960.81Z"/><path class="cls-3" d="M2841.42,845.06l-12-6.91c-18.25-10.54-47.85-10.54-66.11,0L1436.87,1604c-18.25,10.54-18.25,27.63,0,38.17l12,6.91Zm-1357.93,766c5.72,3.3,5.72,8.7,0,12l-24.25,14-4.33-2.5,21.65-12.5c4.29-2.47,4.29-6.52,0-9s-11.3-2.47-15.58,0l-21.65,12.5-4.33-2.5,24.24-14c5.72-3.3,15.07-3.3,20.79,0Zm103.06-59.5-32,18.5,5.19,3-31.17,18-10.4-6,63.22-36.5Zm95.26-55c5.72,3.3,5.72,8.7,0,12l-24.25,14-4.33-2.5,21.65-12.5c4.29-2.47,4.29-6.52,0-9s-11.3-2.47-15.58,0l-21.65,12.5-4.33-2.5,24.24-14c5.72-3.3,15.07-3.3,20.79,0Zm111.72-64.5c5.72,3.3,5.72,8.7,0,12l-24.25,14-4.33-2.5,21.65-12.5c4.29-2.47,4.29-6.52,0-9a17.33,17.33,0,0,0-15.59,0l-21.65,12.5-4.33-2.5,24.25-14c5.72-3.3,15.07-3.3,20.79,0Zm124.71-72-32,18.5,5.2,3-31.18,18-10.39-6,63.22-36.5Zm97-56c5.72,3.3,5.72,8.7,0,12l-24.25,14-4.33-2.5,21.65-12.5c4.29-2.47,4.29-6.52,0-9s-11.3-2.47-15.58,0l-21.65,12.5-4.34-2.5,24.25-14c5.72-3.3,15.07-3.3,20.79,0Zm113.45-65.5c5.72,3.3,5.72,8.7,0,12l-24.25,14-4.33-2.5,21.65-12.5c4.29-2.47,4.29-6.52,0-9s-11.3-2.47-15.58,0l-21.66,12.5-4.33-2.5,24.25-14c5.72-3.3,15.07-3.3,20.79,0Zm123.84-71.5-32,18.5,5.2,3-31.18,18-10.39-6,63.22-36.5Zm237.29-137c5.72,3.3,5.72,8.7,0,12l-24.24,14-4.33-2.5,21.65-12.5c4.28-2.47,4.28-6.52,0-9s-11.31-2.47-15.59,0l-21.65,12.5-4.33-2.5,24.25-14c5.71-3.3,15.06-3.3,20.78,0Zm97-56-32,18.5,5.19,3-31.17,18-10.4-6,63.22-36.5Zm111.72-64.5c5.71,3.3,5.71,8.7,0,12l-24.25,14-4.33-2.5,21.65-12.5c4.28-2.47,4.28-6.52,0-9a17.33,17.33,0,0,0-15.59,0l-21.65,12.5-4.33-2.5,24.25-14c5.71-3.3,15.07-3.3,20.78,0Z"/><polygon class="cls-4" points="2844.02 846.56 1451.45 1654.31 1451.45 2392.31 2844.02 1588.31 2844.02 846.56"/><path class="cls-5" d="M1535.83,1786.85c-8.52-7.16-12.32-19.94-9.37-36.67,5.9-33.45,36.55-70,68.47-81.6,16-5.81,29.21-4.29,37.74,2.87l-33.32-28c-8.52-7.15-21.77-8.67-37.73-2.86-31.92,11.62-62.58,48.15-68.47,81.6-3,16.72.85,29.51,9.37,36.66l33.31,28Z"/><path class="cls-6" d="M1594.93,1668.58c-31.92,11.62-62.57,48.15-68.47,81.6-3,16.73.85,29.51,9.37,36.67s21.78,8.67,37.74,2.86c31.92-11.61,62.57-48.15,68.47-81.6,3-16.72-.85-29.51-9.37-36.66S1610.89,1662.77,1594.93,1668.58Z"/><path class="cls-5" d="M1535.83,2317.82c-8.52-7.15-12.32-19.94-9.37-36.66,5.9-33.45,36.55-70,68.47-81.6,16-5.81,29.21-4.29,37.74,2.86l-33.32-28c-8.52-7.16-21.77-8.68-37.73-2.87-31.92,11.62-62.58,48.15-68.47,81.6-3,16.73.85,29.51,9.37,36.67l33.31,28Z"/><path class="cls-6" d="M1594.93,2199.56c-31.92,11.61-62.57,48.15-68.47,81.6-3,16.72.85,29.51,9.37,36.66s21.78,8.67,37.74,2.87c31.92-11.62,62.57-48.15,68.47-81.6,3-16.73-.85-29.52-9.37-36.67S1610.89,2193.75,1594.93,2199.56Z"/><path class="cls-5" d="M2734.23,1098.74c-8.53-7.15-12.33-19.94-9.38-36.66,5.9-33.45,36.55-70,68.47-81.6,16-5.81,29.21-4.29,37.74,2.86l-33.32-28c-8.52-7.15-21.77-8.67-37.73-2.87-31.92,11.62-62.58,48.16-68.47,81.6-2.95,16.73.85,29.52,9.37,36.67l33.31,28Z"/><path class="cls-6" d="M2793.32,980.48c-31.92,11.61-62.57,48.15-68.47,81.6-2.95,16.72.85,29.51,9.38,36.66s21.77,8.68,37.73,2.87c31.92-11.62,62.57-48.15,68.47-81.6,3-16.73-.85-29.51-9.37-36.67S2809.28,974.67,2793.32,980.48Z"/><path class="cls-5" d="M2734.23,1629.72c-8.53-7.16-12.33-19.94-9.38-36.67,5.9-33.45,36.55-70,68.47-81.6,16-5.81,29.21-4.29,37.74,2.87l-33.32-28c-8.52-7.15-21.77-8.67-37.73-2.86-31.92,11.62-62.58,48.15-68.47,81.6-2.95,16.72.85,29.51,9.37,36.66l33.31,28Z"/><path class="cls-6" d="M2793.32,1511.45c-31.92,11.62-62.57,48.15-68.47,81.6-2.95,16.73.85,29.51,9.38,36.67s21.77,8.67,37.73,2.86c31.92-11.62,62.57-48.15,68.47-81.6,3-16.72-.85-29.51-9.37-36.66S2809.28,1505.64,2793.32,1511.45Z"/><path class="cls-3" d="M130,851.51c-17.28,10-41.75,12-60,1.47l1356.48,783.17c-18.25-10.54-14.72-24.67,2.56-34.65l14.62-8.44-1299-750Zm1242.63,718.55-3.46,2-22.27-12.85c-4.9-2.83-12-3.38-15.7-1.22l-1.14.65c-3.73,2.16-2.78,6.24,2.12,9.07l22.27,12.85-4.33,2.5-26-15c-5.71-3.3-5.71-8.7,0-12l1.74-1c5.71-3.3,15.07-3.3,20.78,0Zm-167.14-96.5-3.46,2-22.27-12.85c-4.9-2.83-12-3.38-15.71-1.22l-1.13.65c-3.74,2.16-2.78,6.24,2.11,9.07l22.27,12.85-4.33,2.5-26-15c-5.71-3.3-5.71-8.7,0-12l1.74-1c5.71-3.3,15.06-3.3,20.78,0Zm-166.28-96-3.46,2-22.27-12.85c-4.9-2.83-12-3.38-15.7-1.22l-1.13.65c-3.74,2.16-2.79,6.24,2.11,9.07l22.27,12.85-4.33,2.5-26-15c-5.72-3.3-5.72-8.7,0-12l1.73-1c5.71-3.3,15.07-3.3,20.78,0Zm-166.27-96-3.47,2-22.26-12.86c-4.9-2.83-12-3.38-15.71-1.22l-1.13.65c-3.74,2.16-2.79,6.24,2.11,9.07l22.27,12.86-4.33,2.5-26-15c-5.71-3.3-5.71-8.7,0-12l1.73-1c5.72-3.3,15.07-3.3,20.79,0Zm-168-97-3.46,2-22.27-12.86c-4.9-2.83-12-3.38-15.71-1.22l-1.13.65c-3.73,2.16-2.78,6.24,2.11,9.07l22.27,12.86-4.33,2.5-26-15c-5.71-3.3-5.71-8.7,0-12l1.74-1c5.71-3.3,15.06-3.3,20.78,0Zm-164.54-95-3.47,2-22.27-12.86c-4.9-2.83-12-3.38-15.7-1.22l-1.13.65c-3.74,2.16-2.79,6.24,2.11,9.07l22.27,12.86-4.33,2.5-26-15c-5.72-3.3-5.72-8.7,0-12l1.73-1c5.72-3.3,15.07-3.3,20.79,0Zm-168.88-97.5-3.46,2-22.27-12.86c-4.9-2.83-12-3.38-15.7-1.22l-1.14.65c-3.73,2.16-2.78,6.24,2.12,9.07l22.27,12.86-4.33,2.5-26-15c-5.72-3.3-5.72-8.7,0-12l1.73-1c5.71-3.3,15.07-3.3,20.78,0Zm-166.27-96-3.47,2-22.27-12.86c-4.9-2.83-12-3.38-15.7-1.22l-1.13.65c-3.74,2.16-2.79,6.24,2.11,9.07l22.27,12.86-4.33,2.5-26-15c-5.72-3.3-5.72-8.7,0-12l1.73-1c5.72-3.3,15.07-3.3,20.79,0Z"/></svg>