<svg id="圖層_8" data-name="圖層 8" xmlns="http://www.w3.org/2000/svg" viewBox="0 0 2844.02 1900"><defs><style>.cls-1{fill:#b3b3b3;}.cls-2{fill:#4f4f4f;}.cls-3{fill:#a0a0a0;opacity:0.82;}.cls-4{fill:#c9c9c9;}</style></defs><title>CASE_isometric</title><g id="HDD"><path class="cls-1" d="M1757.16,916.37l533.47,308L2747,960.87l-533.46-308Zm869.49,52-358.54,207-90.93-52.5,358.53-207Zm-122.11-70.5-358.54,207-90.93-52.5,358.54-207Zm-122.11-70.5-358.54,207L1933,981.87l358.54-207Zm-122.11-70.5-358.53,207-90.94-52.5,358.54-207Z"/><polygon class="cls-2" points="2747.02 508.87 2747.02 960.87 2290.63 1224.37 2290.63 772.37 2747.02 508.87"/><polygon class="cls-3" points="2213.56 200.1 2213.56 652.1 1757.16 915.6 1757.16 463.61 2213.56 200.1"/><polygon class="cls-1" points="2290.63 772.37 2290.63 1224.37 1757.16 915.6 1757.16 464.37 2290.63 772.37"/><path class="cls-4" d="M1757.16,464.37l533.47,308L2747,508.87l-533.46-308Zm869.49,52-358.54,207-90.93-52.5,358.53-207Zm-122.11-70.5L2146,652.87l-90.93-52.5,358.54-207Zm-122.11-70.5-358.54,207L1933,529.87l358.54-207Zm-122.11-70.5-358.53,207-90.94-52.5,358.54-207Z"/></g></svg>