<svg id="圖層_7" data-name="圖層 7" xmlns="http://www.w3.org/2000/svg" viewBox="0 0 2844.02 2383.96"><defs><style>.cls-1{fill:#828282;}.cls-2{fill:#b7b7b7;}.cls-3{fill:#ccc;}.cls-4{fill:#efefef;}.cls-5{fill:#5e5e5e;}</style></defs><title>CASE_HDD</title><g id="HDD"><polygon class="cls-1" points="1812.45 1509.2 1812.45 920.59 2164.72 717.21 2224.72 747.21 2224.72 1335.82 1872.45 1539.2 1812.45 1509.2"/><polygon class="cls-2" points="1872.45 1539.2 1872.45 950.59 2224.72 747.21 2224.72 1335.82 1872.45 1539.2"/><ellipse class="cls-3" cx="2048.59" cy="1053.7" rx="235.16" ry="135.77" transform="translate(111.75 2300.97) rotate(-60)"/><ellipse class="cls-1" cx="2048.59" cy="1053.7" rx="80.13" ry="46.26" transform="translate(111.75 2300.97) rotate(-60)"/><ellipse class="cls-4" cx="2048.59" cy="1053.7" rx="27.87" ry="16.09" transform="translate(111.75 2300.97) rotate(-60)"/><path class="cls-5" d="M2208.71,1284.11v-92.45l-55.43,7.82-27.09,42.67-105.93-48.36-19.71-18.49-12.32-4.26L1977.15,1159l-6.16,9.24,9.85,11.38,7.39,14.22,3.7,5,19.71,19.91,27.09,48.36,23.41,43.38,2.46,25.6-16,32,13.55,47.64,108.39-62.58Zm-142.88-10c0-10.21,7.17-22.63,16-27.73s16-1,16,9.24-7.17,22.63-16,27.73S2065.83,1284.36,2065.83,1274.15Z"/></g></svg>