<svg id="圖層_2" data-name="圖層 2" xmlns="http://www.w3.org/2000/svg" viewBox="0 0 3189.32 1833.57"><defs><style>.cls-1{fill:#c6c6c6;}.cls-2{fill:#e2e2e2;}.cls-3{fill:#494949;}</style></defs><title>drag_CPUFAN</title><path class="cls-1" d="M708.73,765.65s0,79.29,0,106.33-17.86,54.08-53.6,74.71c-71.47,41.26-187.34,41.26-258.81,0C360.61,926.06,342.74,899,342.74,872V762.9Z"/><ellipse class="cls-2" cx="525.75" cy="762.9" rx="183.01" ry="105.66"/><path d="M331.55,773.1V878.7c0,4.54-3,9.08-9,12.54-12,6.92-31.42,6.92-43.41,0-6-3.46-9-8-9-12.54V772.64Z"/><ellipse class="cls-2" cx="300.86" cy="772.64" rx="30.7" ry="17.72"/><path d="M781.44,773.1s0,101.07,0,105.6-3,9.08-9,12.54c-12,6.92-31.43,6.92-43.41,0-6-3.46-9-8-9-12.54V772.64Z"/><ellipse class="cls-3" cx="750.75" cy="772.64" rx="30.7" ry="17.72"/><path d="M568.43,898.34s0,101.07,0,105.6-3,9.08-9,12.54c-12,6.92-31.43,6.92-43.41,0-6-3.46-9-8-9-12.54V897.88Z"/><ellipse class="cls-3" cx="537.74" cy="897.88" rx="30.7" ry="17.72"/><g id="CPUFAN"><path d="M506.82,898.28c0,4.44,2.24,8.16,7.87,10.48,50.62,20.88,52-2.31,52-2.31V890.54L564.25,881c36.22-4.21,70.77-14.42,98.86-30.63C698.19,830.09,717,804,719.67,777.51l.85,4.72,4.7,1.27c0,.53,2.34,3.72,8,4.61,14.67,2.31,28,2.31,34.67-3.07,7-5.64,13.72-12.62,14.5-14.52s.6-21.46.6-21.46l-64.64,7.41c-5.34-23.67-23.75-46.54-55.24-64.72-33.3-19.23-75.69-30-119.19-32.36l1.67-2.06c.92,0,10.25-13,10.25-13l.28-17.45-59.87-7.79,4.64,40.23c-40.33,3.26-81.47,14.52-112.49,32.43-35.44,20.46-54.31,46.85-56.64,73.64h0l-4.7-1.26c0-.53-2.34-3.73-8-4.62-14.67-2.31-28-2.31-34.67,3.08-3.22,2.6-15.1,1.76-15.1,4.77,0,7.31-.2,12.33,0,15.54.61,9.35,19.08,9.71,19.08,9.71l46.25-1.48c6.8,21.7,24.71,42.46,53.76,59.23,36,20.78,82.62,31.7,129.78,32.75l-11.36-.44M643.1,838.8c-64.81,37.42-169.89,37.42-234.7,0s-64.81-98.09,0-135.51,169.89-37.41,234.71,0S707.92,801.38,643.1,838.8Z"/><path class="cls-3" d="M718.35,740.56C713,716.89,694.6,694,663.11,675.83c-33.3-19.22-75.69-30-119.19-32.35l1.67-2.06c.92,0,6.45-1.35,8-4.62,4-8.47,4-16.17-5.33-20-50.62-20.88-52,2.31-52,2.31l2.4,25c-40.33,3.26-79.23,13.85-110.25,31.75-35.44,20.46-54.31,46.86-56.64,73.65h0l-4.7-1.26c0-.53-2.34-3.73-8-4.62-14.67-2.31-28-2.31-34.67,3.08-36.16,29.22,4,30,4,30l46.25-1.48c6.8,21.69,24.71,42.46,53.76,59.23,36,20.78,82.62,31.7,129.78,32.75l-.82,1c-.92,0-6.46,1.35-8,4.62-4,8.47-4,16.17,5.33,20,50.62,20.88,52-2.31,52-2.31l-2.45-25.47c36.22-4.21,70.77-14.42,98.86-30.63,35.08-20.26,53.92-46.33,56.56-72.84l.85,4.72,4.7,1.26c0,.54,2.34,3.73,8,4.62,14.67,2.31,28,2.31,34.67-3.08,36.16-29.22-4-30-4-30ZM643.1,822.89c-64.81,37.42-169.89,37.42-234.7,0s-64.81-98.09,0-135.51,169.89-37.42,234.71,0S707.92,785.47,643.1,822.89Z"/><path class="cls-3" d="M581.76,701.24c-30.67,13.09-27.57,15.92-27.57,15.92h0A110,110,0,0,0,542.84,715c11.15-8.72,45-32.5,84.07-33.6,0,0-47.22-19.83-70.42-18.21s-51.48,9.24-57.14,31c-5.51,21.22-.28,22.46,0,22.51a99.19,99.19,0,0,0-10.73,3.08c-2.78-10.71-7.95-41.37,18.31-58.08,0,0-57.68,5.25-72.1,15.87s-25.08,27.55-2.41,45.26S460,738.72,460,738.72h0a31,31,0,0,0-3.83,6.55c-15.1-6.43-56.29-26-58.19-48.54,0,0-34.35,27.27-31.54,40.66s16,29.72,53.72,33c36.75,3.18,38.9.16,39,0a39.18,39.18,0,0,0,5.33,6.19c-18.54,1.61-71.65,4.59-100.6-10.57,0,0,9.11,33.3,27.49,41.62s47.72,14.49,78.4,1.4,27.57-15.92,27.57-15.92h0a110,110,0,0,0,11.35,2.21c-11.15,8.72-45,32.5-84.07,33.6,0,0,47.22,19.83,70.42,18.21s51.48-9.24,57.14-31c5.51-21.22.28-22.46,0-22.51a98.36,98.36,0,0,0,10.72-3.08c2.79,10.71,8,41.37-18.3,58.09,0,0,57.68-5.26,72.1-15.88s25.08-27.55,2.41-45.26-27.57-15.92-27.57-15.92a31,31,0,0,0,3.83-6.55c15.1,6.44,56.29,26,58.19,48.54,0,0,34.34-27.27,31.54-40.66s-16-29.72-53.73-33c-36.74-3.18-38.89-.16-39,0a39.19,39.19,0,0,0-5.34-6.19c18.55-1.61,71.66-4.59,100.61,10.57,0,0-9.11-33.3-27.49-41.62S612.43,688.15,581.76,701.24Z"/></g></svg>