<svg id="圖層_2" data-name="圖層 2" xmlns="http://www.w3.org/2000/svg" viewBox="0 0 3189.32 1833.57"><defs><style>.cls-1{fill:#3a3a3a;}.cls-2{fill:#5b5b5b;}.cls-3{fill:#8c8c8c;}.cls-4{fill:#e7d48f;}.cls-5{fill:#e5e5e5;}.cls-6{fill:#efefef;}.cls-7{fill:#010000;}.cls-8{fill:#000001;}.cls-9{fill:#21201f;}.cls-10{fill:#5c5854;}.cls-11{fill:#242021;}.cls-12{fill:#ffb243;}</style></defs><title>Drag_Graphic_Card</title><path class="cls-1" d="M2591.73,1131.88l311.8-180-259.83-150-684.84,395.39,281.48,162.52,38.15-22-18.25-10.54c-2.1-1.21-2.1-3.19,0-4.4l40.83-23.58a8.47,8.47,0,0,1,7.63,0l18.25,10.54,20.83-12-16.29-9.41c-2.95-1.7-2.95-4.49,0-6.19a11.9,11.9,0,0,1,10.72,0l13.35,7.71,28.87-16.67-5.1-3c-1.7-1-1.7-2.59,0-3.57a6.86,6.86,0,0,1,6.18,0l5.11,2.95,187.24-108.11-5.31-3.06c-2-1.18-2-3.11,0-4.29a8.22,8.22,0,0,1,7.42,0l12.58,7.27,29.84-17.23-3-5.65-6.27-3.26-7.73,4.47a15.1,15.1,0,0,1-13.61,0C2588,1137.57,2588,1134,2591.73,1131.88Z"/><ellipse class="cls-2" cx="2294.27" cy="1126.46" rx="62.41" ry="36.03"/><ellipse class="cls-2" cx="2581.94" cy="960.37" rx="62.41" ry="36.03"/><path class="cls-3" d="M2830.53,788.1l5.16-6.55c-45.58-34.64-123.11-51.31-123.11-51.31l12.68-30.66-39.18-.77-333.3,173.85-8.19,17.77-289.68,154.21L1994,1126.79l93.77,52.3,53,21.55,8.46-5.6,46.19,14.76-10.52,17.27,37.53,32.62,67.64-6.43,303.75-178,333.45-200.38-43.09-74.65L2862.08,813C2859.61,810.84,2830.53,788.1,2830.53,788.1Zm-389.75,341.46c-68.33,39.45-179.12,39.45-247.45,0s-68.34-103.42,0-142.87,179.12-39.45,247.45,0S2509.12,1090.11,2440.78,1129.56Zm287.67-166.09c-68.33,39.45-179.12,39.45-247.45,0s-68.34-103.41,0-142.87,179.12-39.45,247.45,0S2796.79,924,2728.45,963.47Z"/><path class="cls-3" d="M2390.32,976.48s26.34,38.74-23.32,56.46l-.82.42c2.91-9.17,12.57-47.22-19.34-68.52,0,0-41.74-9.44-53.63,2.37,0,0,60.74,22.4,38.62,53.59l-.25.62c-7-8.41-37.9-42.47-85.39-48.87,0,0-43.39,6.52-41,20.11,0,0,72-2.49,85.81,30.26l.43.58c-14.2-4.43-73.9-21.5-118.84-10.56,0,0-28.46,20-12.68,30.18,0,0,55.68-26.43,100.22-4.64l.94.32c-16,1.24-81.67,7.69-106.89,31.79,0,0-2.66,25.84,20.47,28.72,0,0,18.13-40.28,76.35-37.76l1.09-.06c-11.69,6.43-58.25,33.93-54.11,62,0,0,24.15,21.81,45.8,16.29,0,0-26.34-38.74,23.32-56.47l.82-.41c-2.91,9.17-12.57,47.22,19.33,68.51,0,0,41.75,9.45,53.64-2.36,0,0-60.74-22.4-38.62-53.59l.25-.62c7,8.4,37.9,42.47,85.39,48.87,0,0,43.39-6.53,41-20.12,0,0-72,2.49-85.81-30.25l-.43-.58c14.2,4.43,73.9,21.5,118.84,10.56,0,0,28.46-20,12.68-30.19,0,0-55.68,26.44-100.22,4.65l-.94-.33c16-1.23,81.67-7.68,106.89-31.78,0,0,2.66-25.84-20.47-28.73,0,0-18.13,40.28-76.35,37.77l-1.09.06c11.68-6.43,58.25-33.94,54.11-62C2436.12,992.77,2412,971,2390.32,976.48Z"/><path class="cls-3" d="M2678,810.39s26.34,38.74-23.32,56.47l-.82.41c2.91-9.16,12.57-47.22-19.34-68.51,0,0-41.74-9.45-53.63,2.36,0,0,60.74,22.4,38.62,53.6l-.25.61c-7-8.4-37.9-42.47-85.39-48.87,0,0-43.39,6.53-41,20.12,0,0,72-2.49,85.81,30.25l.43.58c-14.2-4.43-73.9-21.5-118.84-10.55,0,0-28.46,20-12.68,30.18,0,0,55.68-26.43,100.22-4.65l.94.33c-16,1.23-81.67,7.68-106.89,31.79,0,0-2.66,25.83,20.47,28.72,0,0,18.13-40.28,76.35-37.77l1.09-.06c-11.69,6.43-58.25,33.94-54.11,62,0,0,24.15,21.81,45.8,16.29,0,0-26.34-38.74,23.32-56.46l.82-.42c-2.91,9.17-12.57,47.22,19.33,68.52,0,0,41.75,9.44,53.64-2.37,0,0-60.74-22.4-38.62-53.59l.25-.62c7,8.41,37.9,42.47,85.39,48.87,0,0,43.39-6.52,41-20.11,0,0-72,2.49-85.81-30.26l-.43-.58c14.2,4.43,73.9,21.5,118.84,10.56,0,0,28.46-20,12.68-30.18,0,0-55.68,26.43-100.22,4.64l-.94-.32c16-1.24,81.67-7.69,106.89-31.79,0,0,2.66-25.84-20.47-28.72,0,0-18.13,40.28-76.35,37.77l-1.09,0c11.68-6.43,58.25-33.93,54.11-62C2723.79,826.68,2699.64,804.87,2678,810.39Z"/><polygon class="cls-4" points="2398.82 1281.56 2370.02 1298.19 2355.56 1289.84 2384.36 1273.21 2398.82 1281.56"/><polygon class="cls-4" points="2591.81 1170.14 2404.25 1278.42 2389.79 1270.08 2577.35 1161.79 2591.81 1170.14"/><polygon class="cls-3" points="2204.98 1283.11 2323.55 1201.58 2568.54 1060.14 2590.81 1028.71 2758.67 951.8 2765.27 962.99 2926.73 875.48 2924.67 918.82 2916.11 930.07 2222.3 1329.69 2220.34 1326.89 2204.98 1335.4 2204.98 1283.11"/><path class="cls-5" d="M1967.75,1202.38,2264,1373.44v-1.38l10.62-5.9,25.39,14.66v-30l-25.39-14.66L2264,1318v-8.45l10.62-5.9,25.39,14.66v-30.18l-25.39-14.66L2264,1255.34v-1.19l-296.28-171.07Zm157.8-19.17v35.6c0,2-1.42,2.81-3.15,1.81a7,7,0,0,1-3.14-5.44v-35.6c0-2,1.41-2.82,3.14-1.82A7,7,0,0,1,2125.55,1183.21Zm5.62-.38a7,7,0,0,1,3.15,5.44v35.6c0,2-1.42,2.82-3.15,1.82a7,7,0,0,1-3.14-5.45v-35.6C2128,1182.64,2129.44,1181.83,2131.17,1182.83Zm-52.62,12a7,7,0,0,1-3.15-5.45v-35.6c0-2,1.42-2.81,3.15-1.81a7,7,0,0,1,3.14,5.44V1193C2081.69,1195,2080.28,1195.86,2078.55,1194.86Zm5.62-1.1v-35.6c0-2,1.42-2.81,3.15-1.81a7,7,0,0,1,3.14,5.44v35.6c0,2-1.41,2.82-3.14,1.82A7,7,0,0,1,2084.17,1193.76Zm-11.25-41.38V1188c0,2-1.41,2.81-3.14,1.81a7,7,0,0,1-3.15-5.44v-35.6c0-2,1.42-2.82,3.15-1.82A7,7,0,0,1,2072.92,1152.38Zm-67.68-2.94v-35.6c0-2,1.41-2.82,3.14-1.82a7,7,0,0,1,3.15,5.45v35.6c0,2-1.42,2.81-3.15,1.81A7,7,0,0,1,2005.24,1149.44Zm11.91,10.51a7,7,0,0,1-3.14-5.45v-35.6c0-2,1.41-2.81,3.14-1.81h0a7,7,0,0,1,3.15,5.44v35.6c0,2-1.42,2.82-3.15,1.82Zm5.63-.39V1124c0-2,1.41-2.82,3.14-1.82a7,7,0,0,1,3.15,5.45v35.59c0,2-1.42,2.82-3.15,1.82A7,7,0,0,1,2022.78,1159.56Zm11.91,10.51a7,7,0,0,1-3.14-5.44V1129c0-2,1.41-2.82,3.14-1.82h0a7,7,0,0,1,3.15,5.45v35.6c0,2-1.42,2.81-3.15,1.81Zm5.63-.38v-35.6c0-2,1.41-2.81,3.14-1.81a7,7,0,0,1,3.15,5.44v35.6c0,2-1.42,2.82-3.15,1.82A7,7,0,0,1,2040.32,1169.69Zm8.77,5.07v-35.6c0-2,1.42-2.82,3.14-1.82a7,7,0,0,1,3.15,5.45v35.6c0,2-1.42,2.81-3.15,1.81A7,7,0,0,1,2049.09,1174.76Zm8.77,5.06v-35.6c0-2,1.42-2.81,3.15-1.82a7,7,0,0,1,3.14,5.45v35.6c0,2-1.41,2.81-3.14,1.82A7,7,0,0,1,2057.86,1179.82ZM2230.8,1244v35.59c0,2-1.42,2.82-3.15,1.82a7,7,0,0,1-3.14-5.45v-35.6c0-2,1.41-2.81,3.14-1.81A7,7,0,0,1,2230.8,1244Zm-8.77-5.07v35.6c0,2-1.42,2.81-3.15,1.82a7,7,0,0,1-3.14-5.45v-35.6c0-2,1.41-2.81,3.14-1.81A7,7,0,0,1,2222,1238.91Zm-11.92-10.51a7,7,0,0,1,3.15,5.45v35.6c0,2-1.42,2.81-3.15,1.81h0a7,7,0,0,1-3.14-5.44v-35.6c0-2,1.41-2.82,3.14-1.82Zm-5.63.38v35.6c0,2-1.41,2.82-3.14,1.82a7,7,0,0,1-3.15-5.45v-35.6c0-2,1.42-2.81,3.15-1.81A7,7,0,0,1,2204.48,1228.78Zm-11.91-10.51a7,7,0,0,1,3.14,5.45v35.6c0,2-1.41,2.81-3.14,1.81h0a7,7,0,0,1-3.15-5.44v-35.6c0-2,1.42-2.81,3.15-1.82Zm-5.63.39v35.59c0,2-1.41,2.82-3.14,1.82a7,7,0,0,1-3.15-5.45V1215c0-2,1.42-2.82,3.15-1.82A7,7,0,0,1,2186.94,1218.66Zm-8.77-5.07v35.6c0,2-1.41,2.82-3.14,1.82a7,7,0,0,1-3.15-5.45V1210c0-2,1.42-2.81,3.15-1.81A7,7,0,0,1,2178.17,1213.59Zm-8.77-5.06v35.6c0,2-1.41,2.81-3.14,1.81a7,7,0,0,1-3.15-5.44v-35.6c0-2,1.42-2.82,3.15-1.82A7,7,0,0,1,2169.4,1208.53Zm-8.77-5.06v35.59c0,2-1.42,2.82-3.14,1.82a7,7,0,0,1-3.15-5.45v-35.6c0-2,1.42-2.81,3.15-1.81A7,7,0,0,1,2160.63,1203.47Zm-8.77-5.07V1234c0,2-1.42,2.81-3.15,1.82a7,7,0,0,1-3.14-5.45v-35.6c0-2,1.41-2.81,3.14-1.82A7,7,0,0,1,2151.86,1198.4Zm-8.77-5.42v35.6c0,2-1.42,2.81-3.15,1.81a7,7,0,0,1-3.14-5.44v-35.6c0-2,1.41-2.82,3.14-1.82A7,7,0,0,1,2143.09,1193Zm-29.46-21.44a7,7,0,0,1,3.15,5.44v35.6c0,2-1.42,2.82-3.15,1.82h0a7,7,0,0,1-3.14-5.45v-35.6c0-2,1.41-2.81,3.14-1.81Zm-5.63-.24v35.59c0,2-1.41,2.82-3.14,1.82a7,7,0,0,1-3.14-5.45v-35.6c0-2,1.41-2.81,3.14-1.81A7,7,0,0,1,2108,1171.3Zm-8.77-5.07v35.6c0,2-1.41,2.81-3.14,1.82a7,7,0,0,1-3.15-5.45v-35.6c0-2,1.42-2.81,3.15-1.81A6.94,6.94,0,0,1,2099.23,1166.23Z"/><path class="cls-6" d="M2218.19,1335.94c2.76-1,5-2.63,5.74-5.8.14-.56.15-2.41.24-4.2.08-1.59.11-2.53.07-3.79a20.79,20.79,0,0,0-.22-2.89,16.56,16.56,0,0,0-.66-2.63,12.85,12.85,0,0,0-3.28-5.09,18.22,18.22,0,0,0-2-1.64c-.54-.38-.95-.62-1.06-.69-.3-.17-61.3-35.77-65.23-37.66-1.15-.55-2.29-1-2.32-1h0a15.44,15.44,0,0,0-1.54-.57,3.27,3.27,0,0,0-.67,0,2.52,2.52,0,0,0-.75.11,1.77,1.77,0,0,0-.9.54,1.18,1.18,0,0,0-.11.13c-.22.33-.4,1-.53,3.45-.1,1.81-.1,3.28-.09,4,0,1.54,0,3.84.09,4.51.23,4.06,4.09,10.87,6.42,14.67Z"/><path class="cls-7" d="M2218.5,1322.54l0,1.59-8.75-5.05,0-1.59Z"/><polygon class="cls-8" points="2200.28 1308.48 2206.16 1311.87 2206.16 1305.42 2200.28 1302.03 2200.28 1308.48"/><polygon class="cls-8" points="2200.28 1315.85 2206.16 1319.25 2206.16 1312.8 2200.28 1309.4 2200.28 1315.85"/><polygon class="cls-8" points="2200.28 1323.23 2206.16 1326.62 2206.16 1320.17 2200.28 1316.77 2200.28 1323.23"/><polygon class="cls-8" points="2193.26 1304.42 2199.14 1307.82 2199.14 1301.36 2193.26 1297.97 2193.26 1304.42"/><polygon class="cls-8" points="2193.26 1311.8 2199.14 1315.19 2199.14 1308.74 2193.26 1305.34 2193.26 1311.8"/><polygon class="cls-8" points="2193.26 1319.17 2199.14 1322.56 2199.14 1316.11 2193.26 1312.72 2193.26 1319.17"/><polygon class="cls-8" points="2186.23 1300.36 2192.11 1303.76 2192.11 1297.31 2186.23 1293.91 2186.23 1300.36"/><polygon class="cls-8" points="2186.23 1307.74 2192.11 1311.13 2192.11 1304.68 2186.23 1301.29 2186.23 1307.74"/><polygon class="cls-8" points="2186.23 1315.11 2192.11 1318.51 2192.11 1312.06 2186.23 1308.66 2186.23 1315.11"/><polygon class="cls-8" points="2179.2 1296.31 2185.08 1299.7 2185.08 1293.25 2179.2 1289.86 2179.2 1296.31"/><polygon class="cls-8" points="2179.2 1303.68 2185.08 1307.08 2185.08 1300.63 2179.2 1297.23 2179.2 1303.68"/><polygon class="cls-8" points="2179.2 1311.06 2185.08 1314.45 2185.08 1308 2179.2 1304.6 2179.2 1311.06"/><polygon class="cls-8" points="2172.18 1292.25 2178.06 1295.65 2178.06 1289.19 2172.18 1285.8 2172.18 1292.25"/><polygon class="cls-8" points="2172.18 1299.63 2178.06 1303.02 2178.06 1296.57 2172.18 1293.17 2172.18 1299.63"/><polygon class="cls-8" points="2172.18 1307 2178.06 1310.39 2178.06 1303.94 2172.18 1300.55 2172.18 1307"/><polygon class="cls-8" points="2165.15 1288.19 2171.03 1291.59 2171.03 1285.14 2165.15 1281.74 2165.15 1288.19"/><polygon class="cls-8" points="2165.15 1295.57 2171.03 1298.96 2171.03 1292.51 2165.15 1289.12 2165.15 1295.57"/><polygon class="cls-8" points="2165.15 1302.94 2171.03 1306.34 2171.03 1299.88 2165.15 1296.49 2165.15 1302.94"/><polygon class="cls-8" points="2158.12 1284.14 2164 1287.53 2164 1281.08 2158.12 1277.68 2158.12 1284.14"/><polygon class="cls-8" points="2158.12 1291.51 2164 1294.91 2164 1288.45 2158.12 1285.06 2158.12 1291.51"/><polygon class="cls-8" points="2158.12 1298.88 2164 1302.28 2164 1295.83 2158.12 1292.43 2158.12 1298.88"/><polygon class="cls-8" points="2151.27 1280.18 2157.15 1283.58 2157.15 1277.12 2151.27 1273.73 2151.27 1280.18"/><polygon class="cls-8" points="2151.27 1287.55 2157.15 1290.95 2157.15 1284.5 2151.27 1281.1 2151.27 1287.55"/><polygon class="cls-8" points="2151.27 1294.93 2157.15 1298.32 2157.15 1291.87 2151.27 1288.47 2151.27 1294.93"/><polygon class="cls-6" points="2227.29 1329.95 2227.29 1326.19 2230.34 1326.07 2233.39 1329.72 2233.39 1333.48 2230.34 1333.59 2227.29 1329.95"/><polygon class="cls-9" points="2229.04 1329.88 2229.04 1328.29 2230.34 1328.23 2231.64 1329.78 2231.64 1331.38 2230.34 1331.43 2229.04 1329.88"/><polygon class="cls-6" points="2136.44 1277.5 2136.44 1273.74 2139.49 1273.62 2142.54 1277.26 2142.54 1281.02 2139.49 1281.14 2136.44 1277.5"/><polygon class="cls-9" points="2138.19 1277.43 2138.19 1275.83 2139.49 1275.78 2140.78 1277.33 2140.78 1278.93 2139.49 1278.98 2138.19 1277.43"/><path class="cls-10" d="M2093,1247.44l20.25,11.69c1.64.95,1.84,1.31,1.84,3.32,0,1.68,0,3.38,0,5,0,.42-.32.89-.62.85-2.43-.29-4.17.82-5.94,2a1.68,1.68,0,0,1-1.61-.12c-9.26-5.3-18.51-10.66-27.76-16a4.37,4.37,0,0,1-1.72-1.91,37.4,37.4,0,0,0-5.83-8.7,3,3,0,0,1-.62-1.56c-.07-1.83,0-3.62,0-5.41,0-1.55.29-1.72,1.62-1Z"/><polygon class="cls-11" points="2073.18 1240.09 2112.74 1262.93 2112.74 1266.22 2109.88 1266.93 2076.24 1247.51 2073.18 1243.5 2073.18 1240.09"/><path class="cls-12" d="M2097.51,1259.11l.68-2-.42-.42-.68,2"/><path class="cls-12" d="M2091.17,1255.43l.66-2-.43-.42-.64,2"/><path class="cls-12" d="M2100.68,1260.93l.72-1.92-.44-.5-.67,2"/><path class="cls-12" d="M2104,1262.85l.72-1.92-.44-.5-.67,2"/><path class="cls-12" d="M2094.37,1257.28l.6-2-.43-.41-.62,2"/><path class="cls-12" d="M2088,1253.58l.64-2-.42-.41-.61,2"/><path class="cls-12" d="M2081.66,1250l.56-2.06-.42-.39-.61,2"/><path class="cls-12" d="M2084.56,1251.62l.56-2.06-.41-.38-.62,2"/><polygon class="cls-8" points="2080.44 1254.07 2078.97 1253.21 2078.97 1251.51 2080.44 1252.36 2080.44 1254.07"/><polygon class="cls-8" points="2083.76 1255.98 2082.28 1255.13 2082.28 1253.42 2083.76 1254.28 2083.76 1255.98"/><polygon class="cls-8" points="2087.07 1257.89 2085.59 1257.04 2085.59 1255.34 2087.07 1256.19 2087.07 1257.89"/><polygon class="cls-8" points="2090.38 1259.81 2088.91 1258.95 2088.91 1257.25 2090.38 1258.1 2090.38 1259.81"/><polygon class="cls-8" points="2093.7 1261.72 2092.22 1260.87 2092.22 1259.16 2093.7 1260.01 2093.7 1261.72"/><polygon class="cls-8" points="2097.01 1263.63 2095.53 1262.78 2095.53 1261.08 2097.01 1261.93 2097.01 1263.63"/><polygon class="cls-8" points="2100.32 1265.54 2098.85 1264.69 2098.85 1262.99 2100.32 1263.84 2100.32 1265.54"/><polygon class="cls-8" points="2103.64 1267.46 2102.16 1266.61 2102.16 1264.9 2103.64 1265.75 2103.64 1267.46"/><polygon class="cls-8" points="2106.95 1269.37 2105.47 1268.52 2105.47 1266.82 2106.95 1267.67 2106.95 1269.37"/><polygon class="cls-8" points="2078.78 1242.29 2077.31 1241.43 2077.31 1239.73 2078.78 1240.58 2078.78 1242.29"/><polygon class="cls-8" points="2082.1 1244.2 2080.62 1243.35 2080.62 1241.64 2082.1 1242.5 2082.1 1244.2"/><polygon class="cls-8" points="2085.41 1246.11 2083.94 1245.26 2083.94 1243.56 2085.41 1244.41 2085.41 1246.11"/><polygon class="cls-8" points="2088.73 1248.03 2087.25 1247.17 2087.25 1245.47 2088.73 1246.32 2088.73 1248.03"/><polygon class="cls-8" points="2092.04 1249.94 2090.56 1249.09 2090.56 1247.38 2092.04 1248.23 2092.04 1249.94"/><polygon class="cls-8" points="2095.35 1251.85 2093.88 1251 2093.88 1249.3 2095.35 1250.15 2095.35 1251.85"/><polygon class="cls-8" points="2098.67 1253.77 2097.19 1252.91 2097.19 1251.21 2098.67 1252.06 2098.67 1253.77"/><polygon class="cls-8" points="2101.98 1255.68 2100.51 1254.83 2100.51 1253.12 2101.98 1253.97 2101.98 1255.68"/><polygon class="cls-8" points="2105.29 1257.59 2103.82 1256.74 2103.82 1255.04 2105.29 1255.89 2105.29 1257.59"/><polygon class="cls-8" points="2108.61 1259.5 2107.13 1258.65 2107.13 1256.95 2108.61 1257.8 2108.61 1259.5"/><path class="cls-10" d="M2027.38,1209.58l20.25,11.69c1.64,1,1.84,1.31,1.84,3.32,0,1.68,0,3.38,0,5,0,.42-.32.89-.62.86-2.43-.3-4.18.82-5.94,2a1.73,1.73,0,0,1-1.62-.13c-9.25-5.29-18.5-10.66-27.75-16a4.25,4.25,0,0,1-1.72-1.91,37.71,37.71,0,0,0-5.83-8.7,3.12,3.12,0,0,1-.63-1.56c-.07-1.83,0-3.62,0-5.41,0-1.55.29-1.72,1.62-1Z"/><polygon class="cls-11" points="2007.61 1202.23 2047.16 1225.07 2047.16 1228.37 2044.31 1229.07 2010.66 1209.65 2007.61 1205.64 2007.61 1202.23"/><path class="cls-12" d="M2031.93,1221.25l.69-2-.43-.42-.67,2"/><path class="cls-12" d="M2025.6,1217.57l.66-2-.44-.43-.63,2"/><path class="cls-12" d="M2035.11,1223.07l.72-1.92-.44-.5-.67,2"/><path class="cls-12" d="M2038.44,1225l.72-1.92-.44-.5-.67,2"/><path class="cls-12" d="M2028.8,1219.42l.59-2-.43-.4-.61,2"/><path class="cls-12" d="M2022.42,1215.72l.64-2-.43-.41-.6,2"/><path class="cls-12" d="M2016.08,1212.09l.56-2.06-.41-.39-.62,2"/><path class="cls-12" d="M2019,1213.76l.56-2-.42-.39-.61,2"/><polygon class="cls-8" points="2014.87 1216.21 2013.39 1215.36 2013.39 1213.65 2014.87 1214.5 2014.87 1216.21"/><polygon class="cls-8" points="2018.18 1218.12 2016.71 1217.27 2016.71 1215.56 2018.18 1216.42 2018.18 1218.12"/><polygon class="cls-8" points="2021.5 1220.03 2020.02 1219.18 2020.02 1217.48 2021.5 1218.33 2021.5 1220.03"/><polygon class="cls-8" points="2024.81 1221.95 2023.33 1221.09 2023.33 1219.39 2024.81 1220.24 2024.81 1221.95"/><polygon class="cls-8" points="2028.12 1223.86 2026.65 1223.01 2026.65 1221.3 2028.12 1222.15 2028.12 1223.86"/><polygon class="cls-8" points="2031.44 1225.77 2029.96 1224.92 2029.96 1223.22 2031.44 1224.07 2031.44 1225.77"/><polygon class="cls-8" points="2034.75 1227.68 2033.28 1226.83 2033.28 1225.13 2034.75 1225.98 2034.75 1227.68"/><polygon class="cls-8" points="2038.06 1229.6 2036.59 1228.75 2036.59 1227.04 2038.06 1227.89 2038.06 1229.6"/><polygon class="cls-8" points="2041.38 1231.51 2039.9 1230.66 2039.9 1228.96 2041.38 1229.81 2041.38 1231.51"/><polygon class="cls-8" points="2013.21 1204.43 2011.74 1203.58 2011.74 1201.87 2013.21 1202.72 2013.21 1204.43"/><polygon class="cls-8" points="2016.53 1206.34 2015.05 1205.49 2015.05 1203.79 2016.53 1204.64 2016.53 1206.34"/><polygon class="cls-8" points="2019.84 1208.25 2018.36 1207.4 2018.36 1205.7 2019.84 1206.55 2019.84 1208.25"/><polygon class="cls-8" points="2023.15 1210.17 2021.68 1209.32 2021.68 1207.61 2023.15 1208.46 2023.15 1210.17"/><polygon class="cls-8" points="2026.47 1212.08 2024.99 1211.23 2024.99 1209.53 2026.47 1210.38 2026.47 1212.08"/><polygon class="cls-8" points="2029.78 1213.99 2028.3 1213.14 2028.3 1211.44 2029.78 1212.29 2029.78 1213.99"/><polygon class="cls-8" points="2033.09 1215.91 2031.62 1215.05 2031.62 1213.35 2033.09 1214.2 2033.09 1215.91"/><polygon class="cls-8" points="2036.41 1217.82 2034.93 1216.97 2034.93 1215.26 2036.41 1216.12 2036.41 1217.82"/><polygon class="cls-8" points="2039.72 1219.73 2038.24 1218.88 2038.24 1217.18 2039.72 1218.03 2039.72 1219.73"/><polygon class="cls-8" points="2043.03 1221.64 2041.56 1220.79 2041.56 1219.09 2043.03 1219.94 2043.03 1221.64"/><polygon class="cls-5" points="1967.74 1081.05 1966.68 1080.43 1937.55 1097.25 1943.65 1100.77 1967.74 1086.85 1967.74 1081.05"/><polygon class="cls-5" points="1967.74 1088 1967.74 1082.19 1966.68 1081.58 1937.55 1098.39 1943.65 1101.91 1967.74 1088"/><polygon class="cls-5" points="1967.74 1089.15 1967.74 1083.34 1966.68 1082.72 1937.55 1099.54 1943.65 1103.06 1967.74 1089.15"/><polygon class="cls-5" points="1967.74 1090.29 1967.74 1084.48 1966.68 1083.87 1937.55 1100.69 1943.65 1104.21 1967.74 1090.29"/><polygon class="cls-5" points="1967.74 1091.44 1967.74 1085.63 1966.68 1085.02 1937.55 1101.83 1943.65 1105.35 1967.74 1091.44"/><polygon class="cls-5" points="1967.74 1092.59 1967.74 1086.78 1966.68 1086.16 1937.55 1102.98 1943.65 1106.5 1967.74 1092.59"/><polygon class="cls-5" points="1967.74 1093.73 1967.74 1087.92 1966.68 1087.31 1937.55 1104.13 1943.65 1107.65 1967.74 1093.73"/><polygon class="cls-5" points="1967.74 1094.88 1967.74 1089.07 1966.68 1088.46 1937.55 1105.27 1943.65 1108.79 1967.74 1094.88"/><polygon class="cls-5" points="1967.74 1096.03 1967.74 1090.22 1966.68 1089.6 1937.55 1106.42 1943.65 1109.94 1967.74 1096.03"/><polygon class="cls-5" points="1967.74 1097.17 1967.74 1091.36 1966.68 1090.75 1937.55 1107.57 1943.65 1111.09 1967.74 1097.17"/><polygon class="cls-5" points="1967.74 1098.32 1967.74 1092.51 1966.68 1091.9 1937.55 1108.71 1943.65 1112.23 1967.74 1098.32"/><polygon class="cls-5" points="1967.74 1099.47 1967.74 1093.66 1966.68 1093.04 1937.55 1109.86 1943.65 1113.38 1967.74 1099.47"/><polygon class="cls-5" points="1967.74 1100.61 1967.74 1094.8 1966.68 1094.19 1937.55 1111.01 1943.65 1114.53 1967.74 1100.61"/><polygon class="cls-5" points="1967.74 1101.76 1967.74 1095.95 1966.68 1095.34 1937.55 1112.15 1943.65 1115.67 1967.74 1101.76"/><polygon class="cls-5" points="1967.74 1102.91 1967.74 1097.1 1966.68 1096.48 1937.55 1113.3 1943.65 1116.82 1967.74 1102.91"/><polygon class="cls-5" points="1967.74 1104.05 1967.74 1098.24 1966.68 1097.63 1937.55 1114.45 1943.65 1117.97 1967.74 1104.05"/><polygon class="cls-5" points="1967.74 1105.2 1967.74 1099.39 1966.68 1098.78 1937.55 1115.59 1943.65 1119.11 1967.74 1105.2"/><polygon class="cls-5" points="1967.74 1106.35 1967.74 1100.54 1966.68 1099.92 1937.55 1116.74 1943.65 1120.26 1967.74 1106.35"/><polygon class="cls-5" points="1967.74 1107.49 1967.74 1101.68 1966.68 1101.07 1937.55 1117.89 1943.65 1121.4 1967.74 1107.49"/><polygon class="cls-5" points="1967.74 1108.64 1967.74 1102.83 1966.68 1102.22 1937.55 1119.03 1943.65 1122.55 1967.74 1108.64"/><polygon class="cls-5" points="1967.74 1109.79 1967.74 1103.98 1966.68 1103.36 1937.55 1120.18 1943.65 1123.7 1967.74 1109.79"/><polygon class="cls-5" points="1967.74 1110.93 1967.74 1105.12 1966.68 1104.51 1937.55 1121.33 1943.65 1124.85 1967.74 1110.93"/><polygon class="cls-5" points="1967.74 1112.08 1967.74 1106.27 1966.68 1105.66 1937.55 1122.47 1943.65 1125.99 1967.74 1112.08"/><polygon class="cls-5" points="1967.74 1113.23 1967.74 1107.42 1966.68 1106.8 1937.55 1123.62 1943.65 1127.14 1967.74 1113.23"/><polygon class="cls-5" points="1967.74 1114.37 1967.74 1108.56 1966.68 1107.95 1937.55 1124.77 1943.65 1128.29 1967.74 1114.37"/><polygon class="cls-5" points="1967.74 1115.52 1967.74 1109.71 1966.68 1109.1 1937.55 1125.91 1943.65 1129.43 1967.74 1115.52"/><polygon class="cls-5" points="1967.74 1116.67 1967.74 1110.86 1966.68 1110.24 1937.55 1127.06 1943.65 1130.58 1967.74 1116.67"/><polygon class="cls-5" points="1967.74 1117.81 1967.74 1112 1966.68 1111.39 1937.55 1128.21 1943.65 1131.72 1967.74 1117.81"/><polygon class="cls-5" points="1967.74 1118.96 1967.74 1113.15 1966.68 1112.54 1937.55 1129.35 1943.65 1132.87 1967.74 1118.96"/><polygon class="cls-5" points="1967.74 1120.11 1967.74 1114.3 1966.68 1113.68 1937.55 1130.5 1943.65 1134.02 1967.74 1120.11"/><polygon class="cls-5" points="1967.74 1121.25 1967.74 1115.44 1966.68 1114.83 1937.55 1131.65 1943.65 1135.16 1967.74 1121.25"/><polygon class="cls-5" points="1967.74 1122.4 1967.74 1116.59 1966.68 1115.98 1937.55 1132.79 1943.65 1136.31 1967.74 1122.4"/><polygon class="cls-5" points="1967.74 1123.55 1967.74 1117.74 1966.68 1117.12 1937.55 1133.94 1943.65 1137.46 1967.74 1123.55"/><polygon class="cls-5" points="1967.74 1124.69 1967.74 1118.88 1966.68 1118.27 1937.55 1135.09 1943.65 1138.6 1967.74 1124.69"/><polygon class="cls-5" points="1967.74 1125.84 1967.74 1120.03 1966.68 1119.42 1937.55 1136.23 1943.65 1139.75 1967.74 1125.84"/><polygon class="cls-5" points="1967.74 1126.98 1967.74 1121.18 1966.68 1120.56 1937.55 1137.38 1943.65 1140.9 1967.74 1126.98"/><polygon class="cls-5" points="1967.74 1128.13 1967.74 1122.32 1966.68 1121.71 1937.55 1138.53 1943.65 1142.04 1967.74 1128.13"/><polygon class="cls-5" points="1967.74 1129.28 1967.74 1123.47 1966.68 1122.86 1937.55 1139.67 1943.65 1143.19 1967.74 1129.28"/><polygon class="cls-5" points="1967.74 1130.42 1967.74 1124.62 1966.68 1124 1937.55 1140.82 1943.65 1144.34 1967.74 1130.42"/><polygon class="cls-5" points="1967.74 1131.57 1967.74 1125.76 1966.68 1125.15 1937.55 1141.96 1943.65 1145.48 1967.74 1131.57"/><polygon class="cls-5" points="1967.74 1132.72 1967.74 1126.91 1966.68 1126.3 1937.55 1143.11 1943.65 1146.63 1967.74 1132.72"/><polygon class="cls-5" points="1967.74 1133.87 1967.74 1128.06 1966.68 1127.44 1937.55 1144.26 1943.65 1147.78 1967.74 1133.87"/><polygon class="cls-5" points="1967.74 1135.01 1967.74 1129.2 1966.68 1128.59 1937.55 1145.4 1943.65 1148.92 1967.74 1135.01"/><polygon class="cls-5" points="1967.74 1136.16 1967.74 1130.35 1966.68 1129.73 1937.55 1146.55 1943.65 1150.07 1967.74 1136.16"/><polygon class="cls-5" points="1967.74 1137.31 1967.74 1131.49 1966.68 1130.88 1937.55 1147.7 1943.65 1151.22 1967.74 1137.31"/><polygon class="cls-5" points="1967.74 1138.45 1967.74 1132.64 1966.68 1132.03 1937.55 1148.85 1943.65 1152.36 1967.74 1138.45"/><polygon class="cls-5" points="1967.74 1139.6 1967.74 1133.79 1966.68 1133.17 1937.55 1149.99 1943.65 1153.51 1967.74 1139.6"/><polygon class="cls-5" points="1967.74 1140.74 1967.74 1134.93 1966.68 1134.32 1937.55 1151.14 1943.65 1154.66 1967.74 1140.74"/><polygon class="cls-5" points="1967.74 1141.89 1967.74 1136.08 1966.68 1135.47 1937.55 1152.29 1943.65 1155.8 1967.74 1141.89"/><polygon class="cls-5" points="1967.74 1143.04 1967.74 1137.23 1966.68 1136.62 1937.55 1153.43 1943.65 1156.95 1967.74 1143.04"/><polygon class="cls-5" points="1967.74 1144.18 1967.74 1138.38 1966.68 1137.76 1937.55 1154.58 1943.65 1158.1 1967.74 1144.18"/><polygon class="cls-5" points="1967.74 1145.33 1967.74 1139.52 1966.68 1138.91 1937.55 1155.72 1943.65 1159.24 1967.74 1145.33"/><polygon class="cls-5" points="1967.74 1146.48 1967.74 1140.67 1966.68 1140.05 1937.55 1156.87 1943.65 1160.39 1967.74 1146.48"/><polygon class="cls-5" points="1967.74 1147.62 1967.74 1141.82 1966.68 1141.2 1937.55 1158.02 1943.65 1161.54 1967.74 1147.62"/><polygon class="cls-5" points="1967.74 1148.77 1967.74 1142.96 1966.68 1142.35 1937.55 1159.16 1943.65 1162.68 1967.74 1148.77"/><polygon class="cls-5" points="1967.74 1149.92 1967.74 1144.11 1966.68 1143.49 1937.55 1160.31 1943.65 1163.83 1967.74 1149.92"/><polygon class="cls-5" points="1967.74 1151.06 1967.74 1145.26 1966.68 1144.64 1937.55 1161.46 1943.65 1164.98 1967.74 1151.06"/><polygon class="cls-5" points="1967.74 1152.21 1967.74 1146.4 1966.68 1145.79 1937.55 1162.6 1943.65 1166.12 1967.74 1152.21"/><polygon class="cls-5" points="1967.74 1153.36 1967.74 1147.55 1966.68 1146.93 1937.55 1163.75 1943.65 1167.27 1967.74 1153.36"/><polygon class="cls-5" points="1967.74 1154.5 1967.74 1148.69 1966.68 1148.08 1937.55 1164.9 1943.65 1168.42 1967.74 1154.5"/><polygon class="cls-5" points="1967.74 1155.65 1967.74 1149.84 1966.68 1149.23 1937.55 1166.04 1943.65 1169.56 1967.74 1155.65"/><polygon class="cls-5" points="1967.74 1156.8 1967.74 1150.99 1966.68 1150.37 1937.55 1167.19 1943.65 1170.71 1967.74 1156.8"/><polygon class="cls-5" points="1967.74 1157.94 1967.74 1152.13 1966.68 1151.52 1937.55 1168.34 1943.65 1171.86 1967.74 1157.94"/><polygon class="cls-5" points="1967.74 1159.09 1967.74 1153.28 1966.68 1152.67 1937.55 1169.48 1943.65 1173 1967.74 1159.09"/><polygon class="cls-5" points="1967.74 1160.24 1967.74 1154.43 1966.68 1153.81 1937.55 1170.63 1943.65 1174.15 1967.74 1160.24"/><polygon class="cls-5" points="1967.74 1161.38 1967.74 1155.57 1966.68 1154.96 1937.55 1171.78 1943.65 1175.3 1967.74 1161.38"/><polygon class="cls-5" points="1967.74 1162.53 1967.74 1156.72 1966.68 1156.11 1937.55 1172.92 1943.65 1176.44 1967.74 1162.53"/><polygon class="cls-5" points="1967.74 1163.68 1967.74 1157.87 1966.68 1157.25 1937.55 1174.07 1943.65 1177.59 1967.74 1163.68"/><polygon class="cls-5" points="1967.74 1164.82 1967.74 1159.01 1966.68 1158.4 1937.55 1175.22 1943.65 1178.73 1967.74 1164.82"/><polygon class="cls-5" points="1967.74 1165.97 1967.74 1160.16 1966.68 1159.55 1937.55 1176.36 1943.65 1179.88 1967.74 1165.97"/><polygon class="cls-5" points="1967.74 1167.12 1967.74 1161.31 1966.68 1160.69 1937.55 1177.51 1943.65 1181.03 1967.74 1167.12"/><polygon class="cls-5" points="1967.74 1168.26 1967.74 1162.45 1966.68 1161.84 1937.55 1178.66 1943.65 1182.17 1967.74 1168.26"/><polygon class="cls-5" points="1967.74 1169.41 1967.74 1163.6 1966.68 1162.99 1937.55 1179.8 1943.65 1183.32 1967.74 1169.41"/><polygon class="cls-5" points="1967.74 1170.56 1967.74 1164.75 1966.68 1164.13 1937.55 1180.95 1943.65 1184.47 1967.74 1170.56"/><polygon class="cls-5" points="1967.74 1171.7 1967.74 1165.89 1966.68 1165.28 1937.55 1182.1 1943.65 1185.62 1967.74 1171.7"/><polygon class="cls-5" points="1967.74 1172.85 1967.74 1167.04 1966.68 1166.43 1937.55 1183.24 1943.65 1186.76 1967.74 1172.85"/><polygon class="cls-5" points="1967.74 1174 1967.74 1168.19 1966.68 1167.57 1937.55 1184.39 1943.65 1187.91 1967.74 1174"/><polygon class="cls-5" points="1967.74 1175.14 1967.74 1169.33 1966.68 1168.72 1937.55 1185.54 1943.65 1189.06 1967.74 1175.14"/><polygon class="cls-5" points="1967.74 1176.29 1967.74 1170.48 1966.68 1169.87 1937.55 1186.68 1943.65 1190.2 1967.74 1176.29"/><polygon class="cls-5" points="1967.74 1177.44 1967.74 1171.63 1966.68 1171.01 1937.55 1187.83 1943.65 1191.35 1967.74 1177.44"/><polygon class="cls-5" points="1967.74 1178.58 1967.74 1172.77 1966.68 1172.16 1937.55 1188.98 1943.65 1192.49 1967.74 1178.58"/><polygon class="cls-5" points="1967.74 1179.73 1967.74 1173.92 1966.68 1173.31 1937.55 1190.12 1943.65 1193.64 1967.74 1179.73"/><polygon class="cls-5" points="1967.74 1180.88 1967.74 1175.07 1966.68 1174.45 1937.55 1191.27 1943.65 1194.79 1967.74 1180.88"/><polygon class="cls-5" points="1967.74 1182.02 1967.74 1176.21 1966.68 1175.6 1937.55 1192.42 1943.65 1195.93 1967.74 1182.02"/><polygon class="cls-5" points="1967.74 1183.17 1967.74 1177.36 1966.68 1176.75 1937.55 1193.56 1943.65 1197.08 1967.74 1183.17"/><polygon class="cls-5" points="1967.74 1184.32 1967.74 1178.51 1966.68 1177.89 1937.55 1194.71 1943.65 1198.23 1967.74 1184.32"/><polygon class="cls-5" points="1967.74 1185.46 1967.74 1179.65 1966.68 1179.04 1937.55 1195.86 1943.65 1199.37 1967.74 1185.46"/><polygon class="cls-5" points="1967.74 1186.61 1967.74 1180.8 1966.68 1180.18 1937.55 1197 1943.65 1200.52 1967.74 1186.61"/><polygon class="cls-5" points="1967.74 1187.76 1967.74 1181.95 1966.68 1181.33 1937.55 1198.15 1943.65 1201.67 1967.74 1187.76"/><polygon class="cls-5" points="1967.74 1188.9 1967.74 1183.09 1966.68 1182.48 1937.55 1199.3 1943.65 1202.81 1967.74 1188.9"/><polygon class="cls-5" points="1967.74 1190.05 1967.74 1184.24 1966.68 1183.63 1937.55 1200.44 1943.65 1203.96 1967.74 1190.05"/><polygon class="cls-5" points="1967.74 1191.19 1967.74 1185.39 1966.68 1184.77 1937.55 1201.59 1943.65 1205.11 1967.74 1191.19"/><polygon class="cls-5" points="1967.74 1192.34 1967.74 1186.53 1966.68 1185.92 1937.55 1202.73 1943.65 1206.25 1967.74 1192.34"/><polygon class="cls-5" points="1967.74 1193.49 1967.74 1187.68 1966.68 1187.07 1937.55 1203.88 1943.65 1207.4 1967.74 1193.49"/><polygon class="cls-5" points="1967.74 1194.63 1967.74 1188.83 1966.68 1188.21 1937.55 1205.03 1943.65 1208.55 1967.74 1194.63"/><polygon class="cls-5" points="1967.74 1195.78 1967.74 1189.97 1966.68 1189.36 1937.55 1206.17 1943.65 1209.69 1967.74 1195.78"/><polygon class="cls-5" points="1967.74 1196.93 1967.74 1191.12 1966.68 1190.51 1937.55 1207.32 1943.65 1210.84 1967.74 1196.93"/><polygon class="cls-5" points="1967.74 1198.07 1967.74 1192.27 1966.68 1191.65 1937.55 1208.47 1943.65 1211.99 1967.74 1198.07"/><polygon class="cls-5" points="1967.74 1199.22 1967.74 1193.41 1966.68 1192.8 1937.55 1209.62 1943.65 1213.13 1967.74 1199.22"/><polygon class="cls-5" points="1967.74 1200.37 1967.74 1194.56 1966.68 1193.94 1937.55 1210.76 1943.65 1214.28 1967.74 1200.37"/><polygon class="cls-5" points="1967.74 1201.51 1967.74 1195.7 1966.68 1195.09 1937.55 1211.91 1943.65 1215.43 1967.74 1201.51"/><polygon class="cls-5" points="1967.74 1196.85 1966.68 1196.24 1937.55 1213.06 1943.65 1216.57 1967.74 1202.66 1967.74 1196.85"/></svg>