<svg id="圖層_2" data-name="圖層 2" xmlns="http://www.w3.org/2000/svg" viewBox="0 0 3189.32 1833.57"><defs><style>.cls-1{fill:#9b9b9b;}.cls-2{fill:#7c7c7c;}.cls-3{fill:#d3d3d3;}</style></defs><title>drag_case_fan</title><g id="CASEFAN"><polygon class="cls-1" points="1901.1 1471.22 1932.92 1416.1 1672.51 1262.45 1570.71 1280.47 1350.62 1406.68 1375.77 1476.12 1646.2 1320.98 1901.1 1471.22"/><path class="cls-2" d="M1973.75,1434.45l-59.53,38.21L1653.61,1322.2c-6.59-3.8-17.26-3.8-23.84,0l-265.25,153.14-64.16-41.21s4.43,77.44,4.65,80.08c.19,2.33,1.83,4.63,4.91,6.41l69.26,40,250.59,144.67c6.58,3.8,17.25,3.8,23.83,0l319.85-184.66c3.38-1.95,5-4.52,4.93-7.08m-14.54,4.91c-5.26,3-13.79,3-19,0s-5.26-8,0-11,13.79-3,19,0S1969.1,1515.41,1963.84,1518.45ZM1635.62,1329c5.26-3,13.79-3,19.05,0s5.26,8,0,11-13.79,3-19.05,0S1630.36,1332,1635.62,1329Zm-225.17,130,135.1-78c51.92-30,136.88-30,188.79,0l135.1,78c12.07,7,27.8,23.52,27.8,23.52S1685.88,1604.15,1646,1627.16l15.72-23.71c-23.3,1.36-24.41-10.06-35.17-8.76l-9.16,26.66L1381,1484.83S1397.28,1466.56,1410.45,1459Zm-89.2,51.5c5.26-3,13.79-3,19,0s5.26,8,0,11-13.79,3-19,0S1316,1513.49,1321.25,1510.45ZM1630.42,1689c5.26-3,13.79-3,19,0s5.26,8,0,11-13.79,3-19,0S1625.16,1692,1630.42,1689Z"/><path class="cls-3" d="M1522.42,1546.72s11.75,4.46,13.16-10.52c1.11-11.76,13.62-51.93,38.89-61.51a125.66,125.66,0,0,0,37.43,11.75h0s-45,12-41.54,67c-4.82,6.92,79.68,21,148.09,2.5,0,0,13.36-2.53-6.06-12.5-15.25-7.83-61.9-38.5-59.13-55.87a137.47,137.47,0,0,0,39.16-9.55h0s-11.78,27.8,64.85,60.54c6.36,6.5,78.12-22.86,95.73-65.28,0,0,4.9-7.61-20.7-5.06-20.11,2-90.71,3.93-112.52-8.15,7-7.36,10.82-15.46,11.47-23.63h0s30.3,22.66,122.41,8.48c12.76,1.18,17.76-49.51-28.69-83.91,0,0-7.25-7-19.76,6.19-9.83,10.32-51.24,43.38-81.19,45.7-4.6-6.35-11.35-12.29-20.3-17.46-1.48-.85-3-1.66-4.57-2.45l0,0s49.57.46,87.82-50c9.56-5-56-38.89-131.51-39.38,0,0-13.94-1.07-3.94,12.78,7.85,10.87,26.79,50.18,11.24,65.15a162.13,162.13,0,0,0-42.46-1.2v0s31.53-22.09-12.87-70.79c-.84-7.44-87.57,1-135.34,34.8,0,0-10.13,5.63,14.85,9.75,19.62,3.24,84.66,19.2,95.22,35.55a102,102,0,0,0-11.82,5.78,70.66,70.66,0,0,0-16.3,12.63h0s-10.24-28-103.87-38.33c-10.61-4.27-53.24,40.15-37.28,82.78,0,0,1.29,8.08,22.45-.62,16.62-6.84,78.81-26.24,107.53-20.81-.74,8.21,1.73,16.49,7.39,24.17h0s-44.31-12.84-116.68,23C1421.19,1480.4,1454.74,1527.34,1522.42,1546.72Z"/><path class="cls-3" d="M1649,1625.81l319.85-184.67c6.58-3.8,6.58-10,0-13.76L1649,1242.72c-6.58-3.8-17.25-3.8-23.83,0l-319.85,184.66c-6.58,3.8-6.58,10,0,13.76l69.26,40,250.58,144.68C1631.72,1629.61,1642.39,1629.61,1649,1625.81ZM1959.21,1439c-5.26,3-13.79,3-19.06,0s-5.26-8,0-11,13.8-3,19.06,0S1964.47,1435.93,1959.21,1439ZM1631,1249.47c5.26-3,13.79-3,19,0s5.26,8,0,11-13.79,3-19,0S1625.72,1252.51,1631,1249.47ZM1316.62,1431c5.26-3,13.79-3,19.05,0s5.26,8,0,11-13.79,3-19.05,0S1311.36,1434,1316.62,1431Zm309.17,178.5c5.26-3,13.79-3,19,0s5.26,8,0,11-13.79,3-19,0S1620.53,1612.51,1625.79,1609.47Zm-220-230,135.1-78c51.92-30,136.87-30,188.79,0l135.1,78c51.92,30,51.92,79,0,109l-135.1,78c-51.92,30-136.87,30-188.79,0l-135.1-78C1353.9,1458.5,1353.9,1409.45,1405.82,1379.47Z"/></g></svg>