<svg id="圖層_2" data-name="圖層 2" xmlns="http://www.w3.org/2000/svg" viewBox="0 0 3189.32 1833.57"><defs><style>.cls-1{fill:#0c6000;}.cls-2{fill:#0e8e00;}.cls-3{fill:#adadad;}</style></defs><title>drag_CPU</title><g id="CPU"><path id="CPU-2" data-name="CPU" class="cls-1" d="M883.09,1015.67l-96,55.44c-8.34,4.82-23,4.21-32.67-1.35L663.06,1017c-5-2.89-7.69-6.57-7.95-10.11a70.72,70.72,0,0,1,0-7.42l101.65-56.77c8.34-4.82,23-4.21,32.67,1.35l99.3,55.42s0,4.32,0,8.06C888.68,1010.6,886.83,1013.51,883.09,1015.67Z"/><path id="CPU-3" data-name="CPU" class="cls-2" d="M883.09,1008.25l-96,55.44c-8.34,4.82-23,4.21-32.67-1.35l-91.33-52.73c-9.63-5.56-10.68-14.05-2.34-18.86l96-55.44c8.34-4.82,23-4.21,32.67,1.35l91.33,52.73C890.37,995,891.42,1003.44,883.09,1008.25Z"/><path id="CPU-4" data-name="CPU" class="cls-3" d="M874.71,1007.59l-88.79,51.26c-7.71,4.46-21.3,3.89-30.21-1.25l-84.45-48.75c-8.9-5.14-9.87-13-2.16-17.44l88.78-51.26c7.71-4.46,21.31-3.89,30.21,1.25l84.45,48.75C881.44,995.29,882.42,1003.14,874.71,1007.59Z"/></g></svg>