<svg id="圖層_2" data-name="圖層 2" xmlns="http://www.w3.org/2000/svg" viewBox="0 0 3189.32 1833.57"><defs><style>.cls-1{fill:#63a566;}.cls-2{fill:#fff68a;}.cls-3{fill:#8e8e8e;}</style></defs><title>drag_RAM1</title><path class="cls-1" d="M850.64,1276.21l5.6-3.23,10.08,5.82-5.6,3.23,15.68,9,5.6-3.23,10.08,5.82-5.6,3.23,24.64,14.23,254.26-146.8-9.76-5.63c-1.41-.82-1.41-2.15,0-3l.48-.28a5.7,5.7,0,0,1,5.12,0l9.76,5.64,174.74-100.88L1321.08,1046l-6.72,3.88-10.09-5.82,6.73-3.88-15.69-9.06-6.72,3.88-10.08-5.82,6.72-3.88-35.84-20.69-434.6,250.92Zm65,24.57c2.48,1.43,2.48,3.75,0,5.18a10,10,0,0,1-9,0c-2.47-1.43-2.47-3.75,0-5.18A9.89,9.89,0,0,1,915.6,1300.78Zm421.16-243.15c2.47,1.43,2.47,3.74,0,5.17a9.89,9.89,0,0,1-9,0c-2.48-1.43-2.48-3.74,0-5.17A9.89,9.89,0,0,1,1336.76,1057.63Z"/><polygon class="cls-2" points="1162.02 1167.57 1153.06 1162.39 916.72 1298.84 925.68 1304.02 1162.02 1167.57"/><polygon class="cls-2" points="1331.16 1069.92 1322.2 1064.74 1166.5 1154.63 1175.46 1159.81 1331.16 1069.92"/><polygon class="cls-3" points="913.36 1230.94 944.73 1249.05 913.36 1267.15 882 1249.05 913.36 1230.94"/><polygon class="cls-3" points="964.89 1201.19 996.25 1219.3 964.89 1237.41 933.52 1219.3 964.89 1201.19"/><polygon class="cls-3" points="1018.65 1170.15 1050.01 1188.26 1018.65 1206.37 987.29 1188.26 1018.65 1170.15"/><polygon class="cls-3" points="1072.42 1139.11 1103.78 1157.22 1072.42 1175.33 1041.05 1157.22 1072.42 1139.11"/><polygon class="cls-3" points="1149.7 1094.49 1181.07 1112.6 1149.7 1130.7 1118.34 1112.6 1149.7 1094.49"/><polygon class="cls-3" points="1201.23 1064.74 1232.59 1082.85 1201.23 1100.96 1169.86 1082.85 1201.23 1064.74"/><polygon class="cls-3" points="1250.51 1036.29 1281.87 1054.39 1250.51 1072.5 1219.15 1054.4 1250.51 1036.29"/></svg>