<svg id="圖層_2" data-name="圖層 2" xmlns="http://www.w3.org/2000/svg" viewBox="0 0 3189.32 1833.57"><defs><style>.cls-1{fill:#63a566;}.cls-2{fill:#fff68a;}.cls-3{fill:#8e8e8e;}</style></defs><title>drag_RAM2</title><path class="cls-1" d="M1020.1,1373.43l5.6-3.24,10.08,5.82-5.6,3.24,15.68,9,5.6-3.23,10.08,5.82-5.6,3.23,24.65,14.23,254.26-146.8-9.76-5.63c-1.41-.82-1.41-2.15,0-3l.48-.28a5.7,5.7,0,0,1,5.12,0l9.76,5.64,174.73-100.89-24.64-14.22-6.72,3.88-10.08-5.82,6.72-3.88-15.68-9.06-6.72,3.88-10.08-5.82,6.72-3.88-35.84-20.69-434.6,250.91Zm65,24.57c2.47,1.43,2.47,3.75,0,5.17a9.89,9.89,0,0,1-9,0c-2.48-1.42-2.48-3.74,0-5.17A9.89,9.89,0,0,1,1085.07,1398Zm421.15-243.15c2.48,1.43,2.48,3.74,0,5.17a9.89,9.89,0,0,1-9,0c-2.47-1.43-2.47-3.74,0-5.17A9.89,9.89,0,0,1,1506.22,1154.85Z"/><polygon class="cls-2" points="1331.49 1264.78 1322.53 1259.61 1086.19 1396.06 1095.15 1401.23 1331.49 1264.78"/><polygon class="cls-2" points="1500.62 1167.13 1491.66 1161.96 1335.97 1251.85 1344.93 1257.02 1500.62 1167.13"/><polygon class="cls-3" points="1082.83 1328.16 1114.19 1346.27 1082.83 1364.37 1051.46 1346.27 1082.83 1328.16"/><polygon class="cls-3" points="1134.35 1298.41 1165.71 1316.52 1134.35 1334.63 1102.99 1316.52 1134.35 1298.41"/><polygon class="cls-3" points="1188.12 1267.37 1219.48 1285.48 1188.12 1303.59 1156.75 1285.48 1188.12 1267.37"/><polygon class="cls-3" points="1241.88 1236.33 1273.24 1254.44 1241.88 1272.54 1210.52 1254.44 1241.88 1236.33"/><polygon class="cls-3" points="1319.17 1191.71 1350.53 1209.82 1319.17 1227.92 1287.8 1209.82 1319.17 1191.71"/><polygon class="cls-3" points="1370.69 1161.96 1402.05 1180.07 1370.69 1198.17 1339.33 1180.07 1370.69 1161.96"/><polygon class="cls-3" points="1419.97 1133.51 1451.34 1151.61 1419.97 1169.72 1388.61 1151.61 1419.97 1133.51"/></svg>