<?xml version="1.0" encoding="utf-8"?>
<!-- Generator: Adobe Illustrator 22.1.0, SVG Export Plug-In . SVG Version: 6.00 Build 0)  -->
<svg version="1.1" id="圖層_1" xmlns="http://www.w3.org/2000/svg" xmlns:xlink="http://www.w3.org/1999/xlink" x="0px" y="0px"
	 viewBox="0 0 196 35" style="enable-background:new 0 0 196 35;" xml:space="preserve">
<style type="text/css">
	.st0{fill:#84A9CD;}
	.st1{fill:none;}
	.st2{fill:#97C5D8;enable-background:new    ;}
	.st3{fill:#84A9CD;enable-background:new    ;}
</style>
<title>Artboard</title>
<desc>Created with Sketch.</desc>
<g id="Artboard">
	<path id="pc-cooker" class="st0" d="M47.2,23.5c-0.1,0.9-0.6,1.5-1.5,1.5c-0.4,0-0.8-0.1-1.1-0.4s-0.5-0.7-0.5-1.1V12.2
		c0-0.4,0.2-0.8,0.5-1.1s0.7-0.4,1.1-0.4h9.8c1.4,0,2.4,0.4,3.1,1c0.7,0.6,1.2,1.3,1.5,2.1s0.5,1.5,0.5,2.3s-0.2,1.6-0.5,2.4
		s-0.8,1.5-1.5,2.1s-1.6,0.9-2.7,0.9H50c-0.4,0-0.8-0.2-1.1-0.5s-0.5-0.7-0.5-1.1s0.2-0.8,0.5-1.1c0.3-0.3,0.7-0.5,1.1-0.5h6
		c0.3,0,0.6-0.1,0.8-0.4c0.2-0.2,0.4-0.5,0.5-0.9c0.1-0.3,0.2-0.6,0.2-1c0-0.3-0.1-0.7-0.2-1c-0.1-0.3-0.3-0.6-0.5-0.9
		s-0.5-0.4-0.8-0.4h-8.2c-0.4,0-0.6,0.2-0.6,0.6V23.5z M68.4,21.4c-1.4,0-2.4-0.4-3.1-1s-1.2-1.3-1.5-2.1s-0.5-1.5-0.5-2.3
		s0.2-1.6,0.5-2.4c0.3-0.8,0.8-1.5,1.5-2.1s1.6-0.9,2.7-0.9h8.9c0.4,0,0.8,0.2,1.1,0.5c0.3,0.3,0.5,0.7,0.5,1.1
		c0,0.4-0.2,0.8-0.5,1.1s-0.7,0.5-1.1,0.5h-9c-0.3,0-0.6,0.1-0.8,0.4c-0.2,0.2-0.4,0.5-0.5,0.9s-0.2,0.6-0.2,1c0,0.3,0.1,0.7,0.2,1
		s0.3,0.6,0.5,0.9c0.2,0.2,0.5,0.4,0.8,0.4h9c0.4,0,0.8,0.2,1.1,0.5c0.3,0.3,0.5,0.7,0.5,1.1s-0.2,0.8-0.5,1.1
		c-0.3,0.3-0.7,0.5-1.1,0.5h-8.5V21.4z M92.4,21.4c-1.4,0-2.4-0.4-3.1-1s-1.2-1.3-1.5-2.1s-0.5-1.5-0.5-2.3s0.2-1.6,0.5-2.4
		s0.8-1.5,1.5-2.1s1.6-0.9,2.7-0.9h8.9c0.4,0,0.8,0.2,1.1,0.5c0.3,0.3,0.5,0.7,0.5,1.1c0,0.4-0.2,0.8-0.5,1.1s-0.7,0.5-1.1,0.5h-9
		c-0.3,0-0.6,0.1-0.8,0.4c-0.2,0.2-0.4,0.5-0.5,0.9s-0.2,0.6-0.2,1c0,0.3,0.1,0.7,0.2,1s0.3,0.6,0.5,0.9c0.2,0.2,0.5,0.4,0.8,0.4h9
		c0.4,0,0.8,0.2,1.1,0.5c0.3,0.3,0.5,0.7,0.5,1.1s-0.2,0.8-0.5,1.1c-0.3,0.3-0.7,0.5-1.1,0.5h-8.5V21.4z M110,21.4
		c-1.4,0-2.4-0.4-3.1-1s-1.2-1.3-1.5-2.1s-0.5-1.5-0.5-2.3s0.2-1.6,0.5-2.4s0.8-1.5,1.5-2.1s1.6-0.9,2.7-0.9h7.6
		c1.1,0,2,0.3,2.7,0.9c0.7,0.6,1.2,1.3,1.5,2.1s0.5,1.6,0.5,2.4s-0.2,1.6-0.5,2.3s-0.8,1.5-1.5,2.1s-1.7,0.9-3.1,1
		C116.8,21.4,110,21.4,110,21.4z M109.4,13.8c-0.3,0-0.6,0.1-0.8,0.4c-0.2,0.2-0.4,0.5-0.5,0.9s-0.2,0.6-0.2,1c0,0.3,0.1,0.7,0.2,1
		s0.3,0.6,0.5,0.9c0.2,0.2,0.5,0.4,0.8,0.4h7.8c0.3,0,0.6-0.1,0.8-0.4c0.2-0.2,0.4-0.5,0.5-0.9c0.1-0.3,0.2-0.7,0.2-1
		c0-0.3-0.1-0.6-0.2-1s-0.3-0.6-0.5-0.9c-0.2-0.2-0.5-0.4-0.8-0.4C117.2,13.8,109.4,13.8,109.4,13.8z M129.5,21.4
		c-1.4,0-2.4-0.4-3.1-1s-1.2-1.3-1.5-2.1s-0.5-1.5-0.5-2.3s0.2-1.6,0.5-2.4s0.8-1.5,1.5-2.1s1.6-0.9,2.7-0.9h7.6
		c1.1,0,2,0.3,2.7,0.9c0.7,0.6,1.2,1.3,1.5,2.1s0.5,1.6,0.5,2.4s-0.2,1.6-0.5,2.3c-0.3,0.8-0.8,1.5-1.5,2.1s-1.7,0.9-3.1,1
		C136.3,21.4,129.5,21.4,129.5,21.4z M129,13.8c-0.3,0-0.6,0.1-0.8,0.4c-0.2,0.2-0.4,0.5-0.5,0.9s-0.2,0.6-0.2,1
		c0,0.3,0.1,0.7,0.2,1s0.3,0.6,0.5,0.9c0.2,0.2,0.5,0.4,0.8,0.4h7.8c0.3,0,0.6-0.1,0.8-0.4c0.2-0.2,0.4-0.5,0.5-0.9
		c0.1-0.3,0.2-0.7,0.2-1c0-0.3-0.1-0.6-0.2-1s-0.3-0.6-0.5-0.9c-0.2-0.2-0.5-0.4-0.8-0.4C136.8,13.8,129,13.8,129,13.8z M145.9,7
		c0.4,0,0.8,0.2,1.1,0.5s0.5,0.7,0.5,1.1v11.6c-0.1,0.9-0.6,1.5-1.5,1.5c-0.4,0-0.8-0.1-1.1-0.4s-0.5-0.7-0.5-1.1V8.5
		c0-0.4,0.2-0.8,0.5-1.1C145.1,7.1,145.5,7,145.9,7z M148.9,13.6c0.5-0.7,1.3-1.3,2.6-1.6l6-1.6c0.4-0.1,0.8-0.1,1.2,0.1
		c0.4,0.2,0.6,0.5,0.8,0.9c0.1,0.4,0.1,0.8-0.1,1.2c-0.2,0.4-0.5,0.7-0.9,0.8l-6.4,1.7c-0.5,0.2-0.7,0.5-0.7,0.9
		c0,0.4,0.2,0.7,0.7,0.9l6.4,1.7c0.4,0.1,0.7,0.4,0.9,0.8s0.2,0.8,0.1,1.2c-0.1,0.4-0.4,0.7-0.8,0.9c-0.4,0.2-0.8,0.2-1.2,0.1
		l-6-1.6c-1.3-0.4-2.2-0.9-2.6-1.7c-0.4-0.7-0.7-1.5-0.7-2.3S148.4,14.4,148.9,13.6z M167,21.4c-1.4,0-2.4-0.4-3.1-1
		c-0.7-0.6-1.2-1.3-1.5-2.1s-0.5-1.5-0.5-2.3s0.2-1.6,0.5-2.4s0.8-1.5,1.5-2.1s1.6-0.9,2.7-0.9h8.9c0.4,0,0.8,0.2,1.1,0.5
		s0.5,0.6,0.5,1s-0.2,0.8-0.5,1.1s-0.7,0.4-1.1,0.4h-8.8c-0.3,0-0.6,0.1-0.9,0.4c-0.3,0.2-0.4,0.5-0.6,0.9c-0.1,0.4-0.2,0.8-0.2,1.1
		c0,0.4,0.1,0.8,0.2,1.2c0.1,0.4,0.3,0.7,0.6,0.9c0.3,0.2,0.6,0.4,0.9,0.4h8.8c0.4,0,0.8,0.1,1.1,0.4s0.5,0.6,0.5,1s-0.2,0.8-0.5,1
		c-0.3,0.3-0.7,0.4-1.1,0.4H167V21.4z M176.7,16c0,0.3-0.1,0.6-0.4,0.8c-0.2,0.2-0.5,0.3-0.9,0.3h-7.7c-0.4,0-0.7-0.1-0.9-0.3
		c-0.2-0.2-0.4-0.5-0.4-0.8s0.1-0.5,0.4-0.8c0.2-0.2,0.6-0.3,0.9-0.3h7.7c0.4,0,0.7,0.1,0.9,0.3C176.6,15.4,176.7,15.7,176.7,16z
		 M180.4,13.6c0.3-0.8,0.8-1.4,1.5-2.1c0.7-0.6,1.6-0.9,2.7-0.9h8.8c0.4,0,0.8,0.2,1.1,0.5s0.5,0.7,0.5,1.1c0,0.4-0.2,0.8-0.5,1.1
		s-0.7,0.5-1.1,0.5h-8.9c-0.3,0-0.6,0.1-0.8,0.4c-0.2,0.2-0.4,0.5-0.5,0.9S183,15.7,183,16v4.2c-0.1,0.9-0.6,1.5-1.5,1.5
		c-0.4,0-0.8-0.1-1.1-0.4s-0.5-0.7-0.5-1.1V16l0,0C179.9,15.2,180.1,14.4,180.4,13.6z"/>
	
		<image style="display:none;overflow:visible;enable-background:new    ;" width="357" height="412" id="Bitmap" xlink:href="../../../../Users/student/Desktop/1D2F604F.png"  transform="matrix(8.495145e-02 0 0 8.495145e-02 1.3362 0)">
	</image>
</g>
<g>
	<polygon class="st1" points="15.2,17.5 10.1,14.6 5.1,11.6 5.1,29.2 15.2,35 	"/>
	<polyline class="st1" points="30.3,14.6 25.3,17.5 20.2,20.4 20.2,22.4 20.2,24.3 20.2,26.3 25.3,23.3 30.3,20.4 	"/>
	<path class="st2" d="M30.3,8.7L15.2,0L0,8.7l0,0l0,17.5l5.1,2.9l0,0V11.6l10.1,5.9l0,0L30.3,8.7z M15.2,5.8l5,2.9l-5,2.9l-5-2.9
		L15.2,5.8z"/>
	<polyline class="st3" points="15.2,35 15.2,17.5 30.3,8.7 30.3,14.6 20.2,20.4 20.2,26.3 30.3,20.4 30.3,26.2 15.2,35 	"/>
	<line class="st1" x1="30.3" y1="14.6" x2="30.3" y2="20.4"/>
</g>
</svg>
