<svg xmlns="http://www.w3.org/2000/svg" viewBox="0 0 3189.32 1833.57"><defs><style>.cls-1{fill:#457545;}.cls-2{fill:#63a566;}.cls-3{fill:#fff68a;}.cls-4{fill:#8e8e8e;}.cls-5{fill:#727272;}</style></defs><title>modelkit_RAM2</title><g id="圖層_4" data-name="圖層 4"><path class="cls-1" d="M1527.79,99l5.38,3.11v11.2l-5.38-3.11-2.74,2.49,2.74,14.93,5.38,3.11v11.2l-5.38-3.11-2.74,2.49,1.6,26.47,243,142.12,2.73-2.49V296.58c0-1.57,1.11-2.21,2.47-1.43l.46.27a5.47,5.47,0,0,1,2.46,4.27v10.84l165.36,99.54,2.73-2.49V380.2l-6.46-3.73v-11.2l3.73,6.23,2.73-2.49V351.59l-6.46-3.73v-11.2l3.73,6.22,2.73-2.49V300.58L1527.79,59.2l-2.74,2.49Zm10.77,66c0,2.75-1.93,3.86-4.31,2.48a9.51,9.51,0,0,1-4.31-7.46c0-2.75,1.93-3.86,4.31-2.49A9.54,9.54,0,0,1,1538.56,165Zm405.15,233.91c0,2.75-1.93,3.86-4.31,2.49a9.54,9.54,0,0,1-4.31-7.47c0-2.75,1.93-3.86,4.31-2.49A9.54,9.54,0,0,1,1943.71,398.87Z"/><path class="cls-2" d="M1525.05,101.5l5.39,3.11v11.2l-5.39-3.11v17.42l5.39,3.11v11.2l-5.39-3.11v27.37l244.6,141.22V299.07c0-1.57,1.11-2.21,2.46-1.43l.46.27a5.45,5.45,0,0,1,2.47,4.27V313l168.09,97.05V382.69l-6.46-3.73v-11.2l6.46,3.74V354.08l-6.46-3.74V339.15l6.46,3.73V303.06L1525.05,61.69Zm10.78,65.94c0,2.75-1.93,3.87-4.31,2.49a9.51,9.51,0,0,1-4.31-7.46c0-2.75,1.93-3.86,4.31-2.49A9.52,9.52,0,0,1,1535.83,167.44ZM1941,401.36c0,2.75-1.93,3.86-4.31,2.48a9.48,9.48,0,0,1-4.31-7.46c0-2.75,1.92-3.86,4.31-2.49A9.54,9.54,0,0,1,1941,401.36Z"/><polygon class="cls-3" points="1765.34 308.66 1765.34 298.71 1537.98 167.44 1537.98 177.4 1765.34 308.66"/><polygon class="cls-3" points="1928.05 402.6 1928.05 392.65 1778.27 306.17 1778.27 316.13 1928.05 402.6"/><polygon class="cls-4" points="1592.94 131.99 1592.94 166.82 1562.77 149.4 1562.77 114.57 1592.94 131.99"/><polygon class="cls-4" points="1642.5 160.6 1642.5 195.44 1612.33 178.02 1612.33 143.18 1642.5 160.6"/><polygon class="cls-4" points="1694.22 190.46 1694.22 225.3 1664.05 207.88 1664.05 173.04 1694.22 190.46"/><polygon class="cls-4" points="1745.94 220.32 1745.94 255.16 1715.77 237.74 1715.77 202.91 1745.94 220.32"/><polygon class="cls-4" points="1820.29 263.25 1820.29 298.09 1790.12 280.67 1790.12 245.83 1820.29 263.25"/><polygon class="cls-4" points="1869.86 291.87 1869.86 326.7 1839.69 309.29 1839.69 274.45 1869.86 291.87"/><polygon class="cls-4" points="1917.27 319.24 1917.27 354.08 1916.33 354.65 1887.1 336.66 1886.16 302.39 1887.1 301.82 1917.27 319.24"/><polygon class="cls-5" points="1916.33 319.81 1916.33 354.65 1886.16 337.23 1886.16 302.39 1916.33 319.81"/><polygon class="cls-4" points="1870.33 291.58 1870.33 326.42 1869.39 326.99 1840.16 309 1839.22 274.73 1840.16 274.16 1870.33 291.58"/><polygon class="cls-5" points="1869.39 292.15 1869.39 326.99 1839.22 309.57 1839.22 274.73 1869.39 292.15"/><polygon class="cls-4" points="1820.76 262.96 1820.76 297.8 1819.83 298.37 1790.59 280.38 1789.65 246.12 1790.59 245.54 1820.76 262.96"/><polygon class="cls-5" points="1819.83 263.54 1819.83 298.37 1789.65 280.95 1789.65 246.12 1819.83 263.54"/><polygon class="cls-4" points="1746.41 220.04 1746.41 254.88 1745.48 255.45 1716.24 237.46 1715.31 203.19 1716.24 202.62 1746.41 220.04"/><polygon class="cls-5" points="1745.48 220.61 1745.48 255.45 1715.31 238.03 1715.31 203.19 1745.48 220.61"/><polygon class="cls-4" points="1694.22 190.46 1694.22 225.3 1693.29 225.87 1664.05 207.88 1663.12 173.62 1664.05 173.04 1694.22 190.46"/><polygon class="cls-5" points="1693.29 191.03 1693.29 225.87 1663.12 208.45 1663.12 173.62 1693.29 191.03"/><polygon class="cls-4" points="1642.97 160.32 1642.97 195.15 1642.03 195.72 1612.8 177.74 1611.86 143.47 1612.8 142.9 1642.97 160.32"/><polygon class="cls-5" points="1642.03 160.89 1642.03 195.72 1611.86 178.31 1611.86 143.47 1642.03 160.89"/><polygon class="cls-4" points="1592.94 132.03 1592.94 166.87 1592 167.44 1562.77 149.45 1561.83 115.19 1562.77 114.62 1592.94 132.03"/><polygon class="cls-5" points="1592 132.61 1592 167.44 1561.83 150.03 1561.83 115.19 1592 132.61"/></g></svg>