<svg xmlns="http://www.w3.org/2000/svg" viewBox="0 0 3189.32 1833.57"><defs><style>.cls-1{fill:#0c6000;}.cls-2{fill:#0e8e00;}.cls-3{fill:#adadad;}</style></defs><title>modelkit_CPU</title><g id="圖層_4" data-name="圖層 4"><g id="CPU"><path id="CPU-2" data-name="CPU" class="cls-1" d="M1593.72,461.22l-96,55.44c-8.33,4.81-23,4.2-32.66-1.36l-91.34-52.73c-5-2.89-7.69-6.56-8-10.11a70.76,70.76,0,0,1,0-7.42l101.65-56.77c8.34-4.81,23-4.2,32.67,1.36l99.3,55.41s0,4.33,0,8.06C1599.31,456.15,1597.46,459.05,1593.72,461.22Z"/><path id="CPU-3" data-name="CPU" class="cls-2" d="M1593.72,453.8l-96,55.44c-8.33,4.81-23,4.2-32.66-1.36l-91.34-52.73c-9.62-5.56-10.68-14-2.34-18.86l96-55.44c8.34-4.81,23-4.2,32.67,1.36l91.33,52.73C1601,440.5,1602.06,449,1593.72,453.8Z"/><path id="CPU-4" data-name="CPU" class="cls-3" d="M1585.34,453.14l-88.79,51.26c-7.71,4.45-21.3,3.89-30.2-1.25l-84.45-48.76c-8.91-5.14-9.88-13-2.17-17.44l88.78-51.26c7.72-4.45,21.31-3.89,30.21,1.25l84.45,48.76C1592.07,440.84,1593.05,448.69,1585.34,453.14Z"/></g></g></svg>