<svg xmlns="http://www.w3.org/2000/svg" viewBox="0 0 3189.32 1833.57"><defs><style>.cls-1{fill:#c6c6c6;}.cls-2{fill:#e2e2e2;}.cls-3{fill:#494949;}</style></defs><title>modelkit_CPUFAN</title><g id="圖層_4" data-name="圖層 4"><path class="cls-1" d="M1643.42,354.24s0,79.29,0,106.33-17.87,54.08-53.6,74.71c-71.47,41.27-187.35,41.27-258.82,0-35.73-20.63-53.6-47.67-53.6-74.71V351.49Z"/><ellipse class="cls-2" cx="1460.45" cy="351.49" rx="183.01" ry="105.66"/><path d="M1266.24,361.69s0,101.07,0,105.61-3,9.07-9,12.53c-12,6.92-31.42,6.92-43.41,0-6-3.46-9-8-9-12.53V361.23Z"/><ellipse class="cls-2" cx="1235.55" cy="361.23" rx="30.7" ry="17.72"/><path d="M1716.14,361.69V467.3c0,4.53-3,9.07-9,12.53-12,6.92-31.42,6.92-43.41,0-6-3.46-9-8-9-12.53V361.23Z"/><ellipse class="cls-3" cx="1685.45" cy="361.23" rx="30.7" ry="17.72"/><path d="M1503.12,486.93s0,101.07,0,105.61-3,9.07-9,12.53c-12,6.92-31.42,6.92-43.41,0-6-3.46-9-8-9-12.53V486.47Z"/><ellipse class="cls-3" cx="1472.44" cy="486.47" rx="30.7" ry="17.72"/><g id="CPUFAN"><path d="M1441.51,486.87c0,4.45,2.25,8.16,7.88,10.48,50.61,20.88,52-2.3,52-2.3V479.13l-2.45-9.56c36.23-4.21,70.78-14.41,98.86-30.63,35.08-20.26,53.93-46.33,56.56-72.84l.86,4.72,4.69,1.27c0,.53,2.34,3.72,8,4.62,14.66,2.31,28,2.31,34.67-3.08,7-5.64,13.72-12.61,14.5-14.51s.59-21.47.59-21.47l-64.63,7.41c-5.35-23.67-23.75-46.54-55.25-64.72-33.3-19.23-75.69-30-119.18-32.36l1.66-2.06c.92,0,10.26-13,10.26-13l.28-17.46-59.88-7.79,4.65,40.23c-40.33,3.26-81.48,14.52-112.49,32.43-35.44,20.46-54.32,46.85-56.65,73.64h0l-4.7-1.26c0-.53-2.33-3.73-8-4.62-14.67-2.31-28-2.31-34.67,3.08-3.21,2.6-15.09,1.76-15.09,4.77,0,7.31-.2,12.33,0,15.54.62,9.35,19.08,9.72,19.08,9.72l46.26-1.49c6.8,21.7,24.71,42.46,53.76,59.23,36,20.79,82.62,31.7,129.78,32.75l-11.36-.44m136.28-43.86c-64.81,37.42-169.89,37.42-234.7,0s-64.81-98.09,0-135.5,169.89-37.42,234.7,0S1642.61,390,1577.8,427.39Z"/><path class="cls-3" d="M1653.05,329.15c-5.35-23.67-23.75-46.54-55.25-64.72-33.3-19.23-75.69-30-119.18-32.36l1.66-2.06c.92,0,6.46-1.35,8-4.62,4-8.47,4-16.17-5.33-20-50.62-20.87-52,2.31-52,2.31l2.41,25c-40.34,3.27-79.24,13.85-110.25,31.76-35.44,20.45-54.32,46.85-56.65,73.64h0l-4.7-1.26c0-.53-2.33-3.73-8-4.62-14.67-2.31-28-2.31-34.67,3.08-36.16,29.22,4,30,4,30l46.26-1.48c6.8,21.7,24.71,42.46,53.76,59.23,36,20.78,82.62,31.7,129.78,32.75l-.83,1c-.92,0-6.45,1.35-8,4.62-4,8.46-4,16.16,5.34,20,50.61,20.88,52-2.31,52-2.31l-2.45-25.47c36.23-4.21,70.78-14.42,98.86-30.63,35.08-20.26,53.93-46.33,56.56-72.84l.86,4.72,4.69,1.27c0,.53,2.34,3.72,8,4.61,14.66,2.31,28,2.31,34.67-3.08,36.15-29.22-4-30-4-30Zm-75.25,82.33c-64.81,37.42-169.89,37.42-234.7,0s-64.81-98.09,0-135.51,169.89-37.41,234.7,0S1642.61,374.06,1577.8,411.48Z"/><path class="cls-3" d="M1516.46,289.83c-30.67,13.09-27.57,15.92-27.57,15.92h0a110.18,110.18,0,0,0-11.36-2.21c11.15-8.72,45-32.5,84.08-33.6,0,0-47.23-19.83-70.42-18.21s-51.48,9.25-57.14,31c-5.51,21.22-.29,22.46,0,22.51a99,99,0,0,0-10.72,3.08c-2.79-10.71-8-41.37,18.3-58.08,0,0-57.67,5.26-72.09,15.87s-25.09,27.55-2.42,45.26,27.57,15.92,27.57,15.92h0a31.92,31.92,0,0,0-3.83,6.55c-15.09-6.43-56.28-26-58.19-48.54,0,0-34.34,27.27-31.54,40.66s16,29.72,53.73,33c36.75,3.18,38.9.17,39,0a39.26,39.26,0,0,0,5.34,6.19c-18.55,1.61-71.66,4.59-100.61-10.57,0,0,9.11,33.3,27.5,41.63s47.72,14.48,78.39,1.39S1432,381.7,1432,381.7h0a110.19,110.19,0,0,0,11.36,2.22c-11.15,8.71-45,32.49-84.08,33.59,0,0,47.23,19.83,70.42,18.21s51.48-9.24,57.14-31c5.51-21.22.29-22.46,0-22.51a99,99,0,0,0,10.72-3.08c2.79,10.71,8,41.37-18.3,58.09,0,0,57.67-5.26,72.09-15.88s25.09-27.55,2.42-45.26-27.57-15.92-27.57-15.91a32.25,32.25,0,0,0,3.83-6.56c15.09,6.44,56.28,26,58.19,48.54,0,0,34.34-27.27,31.53-40.66s-16-29.72-53.72-33c-36.75-3.18-38.9-.16-39,0a39.16,39.16,0,0,0-5.33-6.2c18.55-1.61,71.66-4.59,100.61,10.57,0,0-9.11-33.3-27.5-41.62S1547.13,276.74,1516.46,289.83Z"/></g></g></svg>