<svg xmlns="http://www.w3.org/2000/svg" viewBox="0 0 3189.32 1833.57"><defs><style>.cls-1{fill:#3a3a3a;}.cls-2{fill:#e7d48f;}.cls-3{fill:#cecece;}.cls-3,.cls-4{opacity:0.95;}.cls-4{fill:#bababa;}.cls-5{fill:#494949;}.cls-6{fill:#c1c1c1;}.cls-7{fill:#292e32;}.cls-8{fill:#8c8c8c;}.cls-9{fill:#e5e5e5;}.cls-10{fill:#5b5b5b;}.cls-11{fill:#afafaf;}.cls-12{fill:#efefef;}.cls-13{fill:#010000;}.cls-14{fill:#000001;}.cls-15{fill:#21201f;}.cls-16{fill:#5c5854;}.cls-17{fill:#242021;}.cls-18{fill:#ffb243;}</style></defs><title>modelkit_Graphic_Card</title><g id="圖層_4" data-name="圖層 4"><path class="cls-1" d="M1781.16,602.24,2100.22,418V111L1399.43,515.62v332.6l39-22.54V804.11a8.66,8.66,0,0,1,3.91-6.76l41.78-24.12c2.15-1.24,3.9-.23,3.9,2.25v21.57l21.32-12.31V765.49a12.16,12.16,0,0,1,5.48-9.5c3-1.74,5.49-.32,5.49,3.17v15.77l29.54-17v-6a7.05,7.05,0,0,1,3.17-5.49c1.74-1,3.16-.18,3.16,1.83v6L1747.82,643.6v-6.28a8.4,8.4,0,0,1,3.8-6.57c2.08-1.21,3.79-.22,3.79,2.19V647.8L1786,630.17l3.44-9.57-.32-6.85-7.91,4.57c-3.83,2.21-7,.4-7-4A15.46,15.46,0,0,1,1781.16,602.24Z"/><polygon class="cls-2" points="1549.81 775.01 1520.34 792.02 1520.34 774.93 1549.81 757.92 1549.81 775.01"/><polygon class="cls-2" points="1747.29 660.99 1555.37 771.8 1555.37 754.71 1747.29 643.9 1747.29 660.99"/><path class="cls-3" d="M1818.65,441.88s-20.86,67.25-62,79.79l-.8.39c9.62-13.21,48.29-68.76,50.83-110.88,0,0-13-26.82-29.54-12.21,0,0,11.23,52.33-27.73,93.67l-.67.87c3.87-15,18.24-76.38-.39-100.23,0,0-28-2.8-38.79,18.76,0,0,39,17.44,17.09,71.79l-.3,1c-3.34-11-18.76-54.83-51.44-51.31,0,0-32.29,22.29-33.24,42.58,0,0,51.91-24.12,55.39,22.48l.2.77c-9.29-2.83-48.6-12.32-82.86,17.22,0,0-24.26,38.88-15,50.13,0,0,45-56.46,72.54-35.41l.61.23c-11.68,6.42-59.88,34.88-82.63,79.17,0,0-7,40.61,9,38.53,0,0,20.86-67.24,62-79.78l.79-.39c-9.61,13.21-48.28,68.76-50.82,110.87,0,0,13,26.83,29.53,12.22,0,0-11.22-52.33,27.74-93.67l.67-.88c-3.87,15-18.24,76.39.39,100.24,0,0,28,2.8,38.79-18.77,0,0-39-17.43-17.09-71.78l.29-1c3.34,11,18.76,54.83,51.45,51.31,0,0,32.29-22.3,33.24-42.58,0,0-51.91,24.12-55.39-22.48l-.2-.78c9.28,2.83,48.6,12.33,82.86-17.21,0,0,24.26-38.88,15-50.14,0,0-45,56.47-72.53,35.42l-.61-.24c11.68-6.41,59.88-34.88,82.62-79.16C1827.64,480.42,1834.61,439.81,1818.65,441.88Z"/><path class="cls-3" d="M2113,271.93s-20.86,67.24-62,79.78l-.79.4c9.61-13.22,48.28-68.77,50.82-110.88,0,0-13-26.83-29.53-12.22,0,0,11.22,52.33-27.74,93.67l-.67.88c3.87-15,18.24-76.39-.39-100.24,0,0-28-2.8-38.79,18.77,0,0,39,17.43,17.09,71.78l-.3,1c-3.34-11-18.75-54.82-51.44-51.31,0,0-32.29,22.3-33.24,42.58,0,0,51.91-24.12,55.39,22.48l.2.78c-9.28-2.83-48.6-12.33-82.86,17.22,0,0-24.26,38.87-15,50.13,0,0,45-56.47,72.53-35.42l.61.24c-11.68,6.41-59.88,34.88-82.62,79.16,0,0-7,40.61,9,38.54,0,0,20.86-67.25,62-79.78l.8-.4c-9.62,13.21-48.29,68.77-50.83,110.88,0,0,13,26.83,29.53,12.22,0,0-11.22-52.34,27.74-93.68l.67-.87c-3.87,15-18.24,76.38.39,100.23,0,0,28,2.81,38.79-18.76,0,0-39-17.44-17.09-71.79l.3-1c3.34,11,18.76,54.83,51.44,51.31,0,0,32.29-22.29,33.24-42.58,0,0-51.91,24.12-55.39-22.48l-.2-.77c9.28,2.83,48.6,12.33,82.86-17.22,0,0,24.26-38.88,15-50.13,0,0-45,56.47-72.53,35.42l-.61-.24c11.68-6.42,59.88-34.88,82.62-79.17C2122,310.46,2129,269.85,2113,271.93Z"/><ellipse class="cls-4" cx="1711.39" cy="550.35" rx="63.86" ry="36.87" transform="translate(379.07 1757.27) rotate(-60)"/><ellipse class="cls-4" cx="2005.76" cy="380.4" rx="63.86" ry="36.87" transform="translate(673.44 1927.23) rotate(-60)"/><polygon class="cls-5" points="1492.3 712.23 1501.58 706.14 1512.13 742.44 1491.45 765.84 1481.75 826.99 1444.06 806.44 1444.06 577.01 1463.51 544.46 1482.69 555.55 1492.3 712.23"/><polygon class="cls-1" points="2100.22 111.01 2093.92 107.37 1393.12 511.98 1399.42 515.62 2100.22 111.01"/><polygon class="cls-6" points="1809.48 304.06 1765.23 304.42 1606.54 396.04 1601.04 431.85 1807 312.94 1809.48 304.06"/><polygon class="cls-7" points="2096.46 144.9 2057.69 167.29 2030.22 151.43 2068.99 129.04 2096.46 144.9"/><polygon class="cls-8" points="1463.51 544.46 1482.64 555.52 1586.62 447.43 1871.5 296.3 1891.44 271.44 2216.04 103.04 2217.58 99.01 2219.2 94.75 2183.97 71.97 2134.2 97.79 2030.22 151.43 1859.37 240.38 1839.43 265.23 1554.55 416.36 1464.85 509.61 1463.51 544.46"/><polygon class="cls-9" points="1438.53 888.29 1427.84 894.7 1427.85 919.07 1422.99 921.87 1422.99 891.87 1433.66 885.47 1438.53 888.29"/><path class="cls-10" d="M2210.82,282.77l8.44-8.53c7.38-66.64-17.52-115.13-17.52-115.13l33.66-43.31-16.19-21L2216,103l-324.6,168.4L1871.5,296.3,1586.62,447.43l-104,108.09,1.64,108,8,48.73,9.28-6.09,10.55,36.3-20.68,23.39-9.7,61.16,40.3,10.12L1835.2,653.63l348.19-209.07,44.1-127.31-22.58,13C2205.54,326.27,2210.82,282.77,2210.82,282.77Zm-502,409c-69.92,40.37-126.61,7.65-126.61-73.1s56.69-178.92,126.61-219.29,126.62-7.65,126.62,73.09S1778.73,651.39,1708.8,691.76Zm294.38-170c-69.93,40.37-126.62,7.64-126.62-73.1s56.69-178.93,126.62-219.3,126.61-7.64,126.61,73.1S2073.1,481.43,2003.18,521.81Z"/><path class="cls-11" d="M1384.54,507V857.11l1,.59.21.12,10.66,18.7v30L1423,921.87v-30l10.66-6.4.21.12,7.07,4.08.21.13,10.66,18.7v30l26.74,15.44v-30l10.66-6.4.21.13.85.48V568.06Zm97.72,242.88-31.54-18.21a7.14,7.14,0,0,1-3.22-5.58c0-2,1.45-2.88,3.22-1.85l31.54,18.21a7.14,7.14,0,0,1,3.22,5.57C1485.48,750.09,1484,750.92,1482.26,749.9Zm3.22,8.51c0,2-1.45,2.88-3.22,1.86l-31.54-18.22a7.14,7.14,0,0,1-3.22-5.57c0-2.05,1.45-2.88,3.22-1.86l31.54,18.21A7.16,7.16,0,0,1,1485.48,758.41Zm-37.59-83.89c0-2,1.45-2.88,3.22-1.85l31.55,18.21a7.14,7.14,0,0,1,3.22,5.57c0,2-1.45,2.88-3.22,1.86l-31.55-18.21A7.14,7.14,0,0,1,1447.89,674.52Zm3.85,8.88,31.55,18.21a7.14,7.14,0,0,1,3.22,5.57c0,2.05-1.45,2.88-3.22,1.86l-31.55-18.21a7.13,7.13,0,0,1-3.21-5.58C1448.53,683.21,1450,682.37,1451.74,683.4Zm30.92,4.55-31.55-18.22a7.14,7.14,0,0,1-3.22-5.57c0-2,1.45-2.88,3.22-1.86l31.55,18.22a7.14,7.14,0,0,1,3.22,5.57C1485.88,688.13,1484.43,689,1482.66,688Zm-32-98.47,31.54,18.22a7.14,7.14,0,0,1,3.22,5.57c0,2-1.45,2.88-3.22,1.86l-31.54-18.22a7.14,7.14,0,0,1-3.22-5.57C1447.42,589.3,1448.87,588.46,1450.64,589.48Zm-3.22,12.22c0-2,1.45-2.88,3.22-1.85l31.54,18.21a7.14,7.14,0,0,1,3.22,5.57h0c0,2-1.45,2.88-3.22,1.86l-31.54-18.21a7.14,7.14,0,0,1-3.22-5.58Zm3.22,8.51,31.54,18.21a7.16,7.16,0,0,1,3.22,5.58c0,2-1.45,2.88-3.22,1.86l-31.54-18.22a7.14,7.14,0,0,1-3.22-5.57C1447.42,610,1448.87,609.19,1450.64,610.21Zm-3.22,12.22c0-2,1.45-2.88,3.22-1.86l31.54,18.22a7.14,7.14,0,0,1,3.22,5.57h0c0,2-1.45,2.88-3.22,1.86L1450.64,628a7.16,7.16,0,0,1-3.22-5.58Zm3.22,8.51,31.54,18.21a7.14,7.14,0,0,1,3.22,5.57c0,2-1.45,2.88-3.22,1.86l-31.54-18.21a7.14,7.14,0,0,1-3.22-5.57C1447.42,630.75,1448.87,629.92,1450.64,630.94Zm0,10.36,31.54,18.21a7.16,7.16,0,0,1,3.22,5.58c0,2-1.45,2.88-3.22,1.86l-31.54-18.22a7.14,7.14,0,0,1-3.22-5.57C1447.42,641.12,1448.87,640.28,1450.64,641.3Zm0,10.36,31.54,18.22a7.14,7.14,0,0,1,3.22,5.57c0,2-1.45,2.88-3.22,1.86l-31.54-18.21a7.16,7.16,0,0,1-3.22-5.58C1447.42,651.48,1448.87,650.64,1450.64,651.66Zm31.62,222.61-31.54-18.22a7.14,7.14,0,0,1-3.22-5.57c0-2.05,1.45-2.88,3.22-1.86l31.54,18.21a7.16,7.16,0,0,1,3.22,5.58C1485.48,874.45,1484,875.29,1482.26,874.27Zm0-10.37-31.54-18.21a7.14,7.14,0,0,1-3.22-5.58c0-2,1.45-2.88,3.22-1.85l31.54,18.21a7.14,7.14,0,0,1,3.22,5.57C1485.48,864.09,1484,864.92,1482.26,863.9Zm3.22-12.22c0,2-1.45,2.88-3.22,1.86l-31.54-18.22a7.14,7.14,0,0,1-3.22-5.57h0c0-2,1.45-2.88,3.22-1.86l31.54,18.22a7.14,7.14,0,0,1,3.22,5.57Zm-3.22-8.51L1450.72,825a7.14,7.14,0,0,1-3.22-5.57c0-2,1.45-2.88,3.22-1.86l31.54,18.21a7.14,7.14,0,0,1,3.22,5.58C1485.48,843.36,1484,844.2,1482.26,843.17Zm3.22-12.22c0,2-1.45,2.88-3.22,1.86l-31.54-18.21a7.14,7.14,0,0,1-3.22-5.58h0c0-2,1.45-2.88,3.22-1.85l31.54,18.21a7.14,7.14,0,0,1,3.22,5.57Zm-3.22-8.5-31.54-18.22a7.14,7.14,0,0,1-3.22-5.57c0-2,1.45-2.88,3.22-1.86L1482.26,815a7.14,7.14,0,0,1,3.22,5.57C1485.48,822.63,1484,823.47,1482.26,822.45Zm0-10.37-31.54-18.21a7.14,7.14,0,0,1-3.22-5.57c0-2,1.45-2.88,3.22-1.86l31.54,18.21a7.14,7.14,0,0,1,3.22,5.58C1485.48,812.27,1484,813.11,1482.26,812.08Zm0-10.36-31.54-18.21a7.16,7.16,0,0,1-3.22-5.58c0-2,1.45-2.88,3.22-1.86l31.54,18.22a7.14,7.14,0,0,1,3.22,5.57C1485.48,801.91,1484,802.74,1482.26,801.72Zm0-10.36-31.54-18.22a7.14,7.14,0,0,1-3.22-5.57c0-2.05,1.45-2.88,3.22-1.86l31.54,18.21a7.16,7.16,0,0,1,3.22,5.58C1485.48,791.54,1484,792.38,1482.26,791.36Zm0-10.37-31.54-18.21a7.14,7.14,0,0,1-3.22-5.58c0-2,1.45-2.87,3.22-1.85l31.54,18.21a7.14,7.14,0,0,1,3.22,5.57C1485.48,781.18,1484,782,1482.26,781Zm.32-10.18L1451,752.6a7.14,7.14,0,0,1-3.22-5.58c0-2,1.45-2.88,3.22-1.85l31.55,18.21a7.14,7.14,0,0,1,3.22,5.57C1485.8,771,1484.35,771.83,1482.58,770.81Zm3.93-32.54c0,2.05-1.45,2.88-3.22,1.86l-31.55-18.21a7.13,7.13,0,0,1-3.21-5.58h0c0-2,1.44-2.88,3.21-1.85l31.55,18.21a7.14,7.14,0,0,1,3.22,5.57Zm-2.66-8.18-31.55-18.22a7.14,7.14,0,0,1-3.22-5.57c0-2,1.45-2.88,3.22-1.86l31.55,18.22a7.13,7.13,0,0,1,3.21,5.57C1487.06,730.27,1485.62,731.11,1483.85,730.09Zm0-10.37-31.55-18.21a7.14,7.14,0,0,1-3.22-5.57c0-2.05,1.45-2.88,3.22-1.86l31.55,18.21a7.13,7.13,0,0,1,3.21,5.58C1487.06,719.91,1485.62,720.75,1483.85,719.72Z"/><polygon class="cls-9" points="1460.45 585.25 1460.45 592.46 1485.62 577.93 1485.62 919.69 1478.54 923.94 1478.54 953.94 1483.4 951.14 1483.39 926.77 1490.26 922.65 1490.26 568.05 1460.45 585.25"/><path class="cls-9" d="M1377.93,510.94l6.66,3.85s6.17,3.56,1,6.58-12.66,0-12.66,0l-6.5-3.76-11.56,6.67,19.64,11.34,9.65-5.57,7,4-9.66,5.57L1403,552.07l23.1-13.34,14.41,8.31s6.16,3.57.94,6.58-12.65,0-12.65,0l-7.74-4.46-11.55,6.67L1428.74,567l9.66-5.57,7,4-9.65,5.57,24.74,14.29,29.81-17.21-105.63-61Z"/><path class="cls-12" d="M1394.32,808.6c2.32,4.6,4.86,8.67,8.07,11.44.57.49,2.21,1.46,3.85,2.5,1.44.93,2.3,1.46,3.39,2a16.81,16.81,0,0,0,2.45,1.16,6.5,6.5,0,0,0,2,.36,2.88,2.88,0,0,0,2.84-2.23,10.31,10.31,0,0,0,.43-2.11c.06-.61.06-1.09.06-1.22,0-.35.34-72.24,0-77.08-.1-1.42-.28-2.86-.28-2.9h0c-.14-1.2-.29-2-.29-2-.07-.25-.16-.58-.3-1a10.29,10.29,0,0,0-.48-1.16,9.23,9.23,0,0,0-.94-1.62l-.18-.23a15,15,0,0,0-3.32-2.55c-1.66-1.07-3-1.81-3.59-2.17-1.36-.77-3.38-1.89-4-2.18-3.47-1.73-7.53.49-9.71,2Z"/><path class="cls-13" d="M1406.35,815.91l-1.42-.85V804.72l1.42.85Z"/><polygon class="cls-14" points="1409.49 796.19 1409.49 803.14 1415.21 806.44 1415.21 799.5 1409.49 796.19"/><polygon class="cls-14" points="1402.95 792.42 1402.95 799.37 1408.67 802.67 1408.67 795.72 1402.95 792.42"/><polygon class="cls-14" points="1396.42 788.65 1396.42 795.6 1402.14 798.9 1402.14 791.95 1396.42 788.65"/><polygon class="cls-14" points="1409.49 787.89 1409.49 794.84 1415.21 798.14 1415.21 791.19 1409.49 787.89"/><polygon class="cls-14" points="1402.95 784.12 1402.95 791.07 1408.67 794.37 1408.67 787.42 1402.95 784.12"/><polygon class="cls-14" points="1396.42 780.35 1396.42 787.29 1402.14 790.6 1402.14 783.65 1396.42 780.35"/><polygon class="cls-14" points="1409.49 779.59 1409.49 786.54 1415.21 789.84 1415.21 782.89 1409.49 779.59"/><polygon class="cls-14" points="1402.95 775.82 1402.95 782.76 1408.67 786.07 1408.67 779.12 1402.95 775.82"/><polygon class="cls-14" points="1396.42 772.04 1396.42 778.99 1402.14 782.29 1402.14 775.34 1396.42 772.04"/><polygon class="cls-14" points="1409.49 771.28 1409.49 778.23 1415.21 781.54 1415.21 774.59 1409.49 771.28"/><polygon class="cls-14" points="1402.95 767.51 1402.95 774.46 1408.67 777.76 1408.67 770.81 1402.95 767.51"/><polygon class="cls-14" points="1396.42 763.74 1396.42 770.69 1402.14 773.99 1402.14 767.04 1396.42 763.74"/><polygon class="cls-14" points="1409.49 762.98 1409.49 769.93 1415.21 773.23 1415.21 766.28 1409.49 762.98"/><polygon class="cls-14" points="1402.95 759.21 1402.95 766.16 1408.67 769.46 1408.67 762.51 1402.95 759.21"/><polygon class="cls-14" points="1396.42 755.44 1396.42 762.39 1402.14 765.69 1402.14 758.74 1396.42 755.44"/><polygon class="cls-14" points="1409.49 754.68 1409.49 761.63 1415.21 764.93 1415.21 757.98 1409.49 754.68"/><polygon class="cls-14" points="1402.95 750.91 1402.95 757.86 1408.67 761.16 1408.67 754.21 1402.95 750.91"/><polygon class="cls-14" points="1396.42 747.13 1396.42 754.08 1402.14 757.38 1402.14 750.44 1396.42 747.13"/><polygon class="cls-14" points="1409.49 746.38 1409.49 753.33 1415.21 756.63 1415.21 749.68 1409.49 746.38"/><polygon class="cls-14" points="1402.95 742.6 1402.95 749.55 1408.67 752.86 1408.67 745.91 1402.95 742.6"/><polygon class="cls-14" points="1396.42 738.83 1396.42 745.78 1402.14 749.08 1402.14 742.13 1396.42 738.83"/><polygon class="cls-14" points="1409.49 738.28 1409.49 745.23 1415.21 748.53 1415.21 741.58 1409.49 738.28"/><polygon class="cls-14" points="1402.95 734.5 1402.95 741.45 1408.67 744.75 1408.67 737.81 1402.95 734.5"/><polygon class="cls-14" points="1396.42 730.73 1396.42 737.68 1402.14 740.98 1402.14 734.03 1396.42 730.73"/><polygon class="cls-12" points="1404.28 825.09 1407.61 827.02 1409.27 831.59 1407.61 834.23 1404.28 832.3 1402.61 827.74 1404.28 825.09"/><polygon class="cls-15" points="1405.23 827.72 1406.65 828.54 1407.36 830.48 1406.65 831.6 1405.23 830.78 1404.52 828.84 1405.23 827.72"/><polygon class="cls-12" points="1404.28 717.74 1407.61 719.67 1409.27 724.23 1407.61 726.88 1404.28 724.95 1402.61 720.39 1404.28 717.74"/><polygon class="cls-15" points="1405.23 720.37 1406.65 721.19 1407.36 723.13 1406.65 724.25 1405.23 723.43 1404.52 721.49 1405.23 720.37"/><path class="cls-16" d="M1408.67,668.9v23.92c0,1.94-.23,2-2,1-1.48-.86-3-1.66-4.45-2.6a3.16,3.16,0,0,1-1.07-1.36,42.44,42.44,0,0,0-4.77-9.77,5.37,5.37,0,0,1-.72-2.32c0-11,0-21.88,0-32.83,0-.86.25-1.32.81-1.55a8.1,8.1,0,0,0,4.72-4.17c.13-.28.69-.32,1.06-.12,1.6.83,3.19,1.79,4.79,2.73a2.65,2.65,0,0,1,1.67,2.88Q1408.68,656.82,1408.67,668.9Z"/><polygon class="cls-17" points="1405.06 643.45 1405.06 690.2 1402.14 688.51 1400.06 683.93 1400.06 644.17 1402.04 641.71 1405.06 643.45"/><path class="cls-18" d="M1400.66,669.65l2.15,2.06.16-.41-2.15-2"/><path class="cls-18" d="M1400.67,662.18l2.11,2,.16-.42-2.12-2"/><path class="cls-18" d="M1400.66,673.41l2.07,2,.22-.39-2.13-2"/><path class="cls-18" d="M1400.67,677.35l2.07,2,.22-.39-2.14-2"/><path class="cls-18" d="M1400.67,666l2.09,1.91.15-.43-2.09-1.93"/><path class="cls-18" d="M1400.68,658.42l2.12,2,.14-.43-2.13-1.94"/><path class="cls-18" d="M1400.67,650.93l2.11,1.88.13-.41-2.1-1.94"/><path class="cls-18" d="M1400.67,654.36l2.11,1.89.13-.42-2.1-1.93"/><polygon class="cls-14" points="1396.39 647.03 1396.39 645.29 1397.9 646.16 1397.9 647.9 1396.39 647.03"/><polygon class="cls-14" points="1396.39 650.94 1396.39 649.2 1397.9 650.07 1397.9 651.82 1396.39 650.94"/><polygon class="cls-14" points="1396.39 654.86 1396.39 653.12 1397.9 653.99 1397.9 655.73 1396.39 654.86"/><polygon class="cls-14" points="1396.39 658.77 1396.39 657.03 1397.9 657.9 1397.9 659.65 1396.39 658.77"/><polygon class="cls-14" points="1396.39 662.69 1396.39 660.95 1397.9 661.82 1397.9 663.56 1396.39 662.69"/><polygon class="cls-14" points="1396.39 666.61 1396.39 664.86 1397.9 665.73 1397.9 667.48 1396.39 666.61"/><polygon class="cls-14" points="1396.39 670.52 1396.39 668.78 1397.9 669.65 1397.9 671.39 1396.39 670.52"/><polygon class="cls-14" points="1396.39 674.44 1396.39 672.69 1397.9 673.56 1397.9 675.31 1396.39 674.44"/><polygon class="cls-14" points="1396.39 678.35 1396.39 676.61 1397.9 677.48 1397.9 679.22 1396.39 678.35"/><polygon class="cls-14" points="1405.98 650.61 1405.98 648.87 1407.49 649.74 1407.49 651.48 1405.98 650.61"/><polygon class="cls-14" points="1405.98 654.52 1405.98 652.78 1407.49 653.65 1407.49 655.39 1405.98 654.52"/><polygon class="cls-14" points="1405.98 658.44 1405.98 656.7 1407.49 657.57 1407.49 659.31 1405.98 658.44"/><polygon class="cls-14" points="1405.98 662.35 1405.98 660.61 1407.49 661.48 1407.49 663.23 1405.98 662.35"/><polygon class="cls-14" points="1405.98 666.27 1405.98 664.53 1407.49 665.4 1407.49 667.14 1405.98 666.27"/><polygon class="cls-14" points="1405.98 670.18 1405.98 668.44 1407.49 669.31 1407.49 671.06 1405.98 670.18"/><polygon class="cls-14" points="1405.98 674.1 1405.98 672.36 1407.49 673.23 1407.49 674.97 1405.98 674.1"/><polygon class="cls-14" points="1405.98 678.02 1405.98 676.27 1407.49 677.14 1407.49 678.89 1405.98 678.02"/><polygon class="cls-14" points="1405.98 681.93 1405.98 680.19 1407.49 681.06 1407.49 682.8 1405.98 681.93"/><polygon class="cls-14" points="1405.98 685.85 1405.98 684.1 1407.49 684.98 1407.49 686.72 1405.98 685.85"/><path class="cls-16" d="M1408.67,591.42v23.92c0,1.94-.23,2-2,1-1.48-.86-3-1.67-4.45-2.6a3.22,3.22,0,0,1-1.07-1.36,42.25,42.25,0,0,0-4.77-9.77,5.37,5.37,0,0,1-.72-2.32c0-11,0-21.88,0-32.83,0-.86.25-1.32.81-1.56a8.05,8.05,0,0,0,4.72-4.16c.13-.29.69-.32,1.06-.12,1.6.83,3.19,1.79,4.79,2.72a2.66,2.66,0,0,1,1.67,2.89Q1408.68,579.34,1408.67,591.42Z"/><polygon class="cls-17" points="1405.06 565.97 1405.06 612.71 1402.14 611.03 1400.06 606.45 1400.06 566.69 1402.04 564.22 1405.06 565.97"/><path class="cls-18" d="M1400.66,592.17l2.15,2.05.16-.41-2.15-2"/><path class="cls-18" d="M1400.67,584.7l2.11,2,.16-.42-2.12-2"/><path class="cls-18" d="M1400.66,595.93l2.07,2,.22-.39-2.13-2"/><path class="cls-18" d="M1400.67,599.86l2.07,2,.22-.39-2.14-2"/><path class="cls-18" d="M1400.67,588.48l2.09,1.91.15-.43-2.09-1.93"/><path class="cls-18" d="M1400.68,580.94l2.12,2,.14-.42-2.13-1.94"/><path class="cls-18" d="M1400.67,573.45l2.11,1.88.13-.41-2.1-1.94"/><path class="cls-18" d="M1400.67,576.88l2.11,1.88.13-.41-2.1-1.94"/><polygon class="cls-14" points="1396.39 569.55 1396.39 567.8 1397.9 568.68 1397.9 570.42 1396.39 569.55"/><polygon class="cls-14" points="1396.39 573.46 1396.39 571.72 1397.9 572.59 1397.9 574.33 1396.39 573.46"/><polygon class="cls-14" points="1396.39 577.38 1396.39 575.63 1397.9 576.51 1397.9 578.25 1396.39 577.38"/><polygon class="cls-14" points="1396.39 581.29 1396.39 579.55 1397.9 580.42 1397.9 582.16 1396.39 581.29"/><polygon class="cls-14" points="1396.39 585.21 1396.39 583.47 1397.9 584.34 1397.9 586.08 1396.39 585.21"/><polygon class="cls-14" points="1396.39 589.12 1396.39 587.38 1397.9 588.25 1397.9 590 1396.39 589.12"/><polygon class="cls-14" points="1396.39 593.04 1396.39 591.3 1397.9 592.17 1397.9 593.91 1396.39 593.04"/><polygon class="cls-14" points="1396.39 596.95 1396.39 595.21 1397.9 596.08 1397.9 597.83 1396.39 596.95"/><polygon class="cls-14" points="1396.39 600.87 1396.39 599.13 1397.9 600 1397.9 601.74 1396.39 600.87"/><polygon class="cls-14" points="1405.98 573.13 1405.98 571.38 1407.49 572.25 1407.49 574 1405.98 573.13"/><polygon class="cls-14" points="1405.98 577.04 1405.98 575.3 1407.49 576.17 1407.49 577.91 1405.98 577.04"/><polygon class="cls-14" points="1405.98 580.96 1405.98 579.21 1407.49 580.09 1407.49 581.83 1405.98 580.96"/><polygon class="cls-14" points="1405.98 584.87 1405.98 583.13 1407.49 584 1407.49 585.74 1405.98 584.87"/><polygon class="cls-14" points="1405.98 588.79 1405.98 587.04 1407.49 587.92 1407.49 589.66 1405.98 588.79"/><polygon class="cls-14" points="1405.98 592.7 1405.98 590.96 1407.49 591.83 1407.49 593.58 1405.98 592.7"/><polygon class="cls-14" points="1405.98 596.62 1405.98 594.88 1407.49 595.75 1407.49 597.49 1405.98 596.62"/><polygon class="cls-14" points="1405.98 600.53 1405.98 598.79 1407.49 599.66 1407.49 601.41 1405.98 600.53"/><polygon class="cls-14" points="1405.98 604.45 1405.98 602.71 1407.49 603.58 1407.49 605.32 1405.98 604.45"/><polygon class="cls-14" points="1405.98 608.37 1405.98 606.62 1407.49 607.49 1407.49 609.24 1405.98 608.37"/></g></svg>