<svg xmlns="http://www.w3.org/2000/svg" viewBox="0 0 3189.32 1833.57"><defs><style>.cls-1{fill:#457545;}.cls-2{fill:#63a566;}.cls-3{fill:#fff68a;}.cls-4{fill:#8e8e8e;}.cls-5{fill:#727272;}</style></defs><title>modelkit_RAM1</title><g id="圖層_4" data-name="圖層 4"><path class="cls-1" d="M1465.64,134.34l5.39,3.11v11.2l-5.39-3.12-2.73,2.49,2.73,14.93,5.39,3.11v11.2l-5.39-3.11-2.73,2.49,1.59,26.47,243,142.12,2.73-2.49V331.9c0-1.56,1.11-2.2,2.47-1.42l.46.26a5.5,5.5,0,0,1,2.46,4.27v10.84L1881,445.39l2.74-2.49V415.53l-6.47-3.73V400.6l3.73,6.22,2.74-2.49V386.91l-6.47-3.73V372l3.73,6.22,2.74-2.49V335.9L1465.64,94.52,1462.91,97Zm10.77,65.94c0,2.75-1.93,3.86-4.31,2.49a9.54,9.54,0,0,1-4.31-7.47c0-2.75,1.93-3.86,4.31-2.49A9.54,9.54,0,0,1,1476.41,200.28Zm405.15,233.91c0,2.75-1.93,3.86-4.31,2.49a9.53,9.53,0,0,1-4.31-7.47c0-2.74,1.93-3.86,4.31-2.48A9.51,9.51,0,0,1,1881.56,434.19Z"/><path class="cls-2" d="M1462.91,136.83l5.38,3.11v11.19l-5.38-3.11v17.42l5.38,3.11v11.2l-5.38-3.11V204L1707.5,345.23V334.39c0-1.57,1.11-2.21,2.47-1.42l.46.26a5.47,5.47,0,0,1,2.46,4.27v10.84L1881,445.39V418l-6.46-3.74V403.09l6.46,3.73V389.4l-6.46-3.73v-11.2l6.46,3.73V338.39L1462.91,97Zm10.77,65.94c0,2.75-1.93,3.86-4.31,2.49a9.54,9.54,0,0,1-4.31-7.47c0-2.75,1.93-3.86,4.31-2.49A9.54,9.54,0,0,1,1473.68,202.77Zm405.15,233.91c0,2.75-1.93,3.86-4.31,2.49a9.54,9.54,0,0,1-4.31-7.47c0-2.75,1.93-3.86,4.31-2.49A9.54,9.54,0,0,1,1878.83,436.68Z"/><polygon class="cls-3" points="1703.19 343.99 1703.19 334.03 1475.84 202.77 1475.84 212.72 1703.19 343.99"/><polygon class="cls-3" points="1865.9 437.92 1865.9 427.97 1716.12 341.5 1716.12 351.45 1865.9 437.92"/><polygon class="cls-4" points="1530.79 167.31 1530.79 202.15 1500.62 184.73 1500.62 149.89 1530.79 167.31"/><polygon class="cls-4" points="1580.36 195.93 1580.36 230.76 1550.18 213.34 1550.18 178.51 1580.36 195.93"/><polygon class="cls-4" points="1632.08 225.79 1632.08 260.62 1601.91 243.21 1601.91 208.37 1632.08 225.79"/><polygon class="cls-4" points="1683.8 255.65 1683.8 290.49 1653.63 273.07 1653.63 238.23 1683.8 255.65"/><polygon class="cls-4" points="1758.15 298.57 1758.15 333.41 1727.97 315.99 1727.97 281.15 1758.15 298.57"/><polygon class="cls-4" points="1807.71 327.19 1807.71 362.03 1777.54 344.61 1777.54 309.77 1807.71 327.19"/><polygon class="cls-4" points="1855.12 354.56 1855.12 389.4 1854.18 389.97 1824.95 371.98 1824.02 337.71 1824.95 337.14 1855.12 354.56"/><polygon class="cls-5" points="1854.18 355.13 1854.18 389.97 1824.02 372.55 1824.02 337.71 1854.18 355.13"/><polygon class="cls-4" points="1808.18 326.9 1808.18 361.74 1807.24 362.31 1778.01 344.32 1777.07 310.06 1778.01 309.49 1808.18 326.9"/><polygon class="cls-5" points="1807.24 327.48 1807.24 362.31 1777.07 344.89 1777.07 310.06 1807.24 327.48"/><polygon class="cls-4" points="1758.61 298.29 1758.61 333.13 1757.68 333.7 1728.44 315.71 1727.51 281.44 1728.44 280.87 1758.61 298.29"/><polygon class="cls-5" points="1757.68 298.86 1757.68 333.7 1727.51 316.28 1727.51 281.44 1757.68 298.86"/><polygon class="cls-4" points="1684.27 255.36 1684.27 290.2 1683.33 290.77 1654.1 272.78 1653.16 238.51 1654.1 237.94 1684.27 255.36"/><polygon class="cls-5" points="1683.33 255.93 1683.33 290.77 1653.16 273.35 1653.16 238.51 1683.33 255.93"/><polygon class="cls-4" points="1632.08 225.79 1632.08 260.62 1631.14 261.2 1601.91 243.21 1600.97 208.94 1601.91 208.37 1632.08 225.79"/><polygon class="cls-5" points="1631.14 226.36 1631.14 261.2 1600.97 243.78 1600.97 208.94 1631.14 226.36"/><polygon class="cls-4" points="1580.82 195.64 1580.82 230.48 1579.89 231.05 1550.65 213.06 1549.72 178.79 1550.65 178.22 1580.82 195.64"/><polygon class="cls-5" points="1579.89 196.21 1579.89 231.05 1549.72 213.63 1549.72 178.79 1579.89 196.21"/><polygon class="cls-4" points="1530.79 167.36 1530.79 202.2 1529.85 202.77 1500.62 184.78 1499.68 150.51 1500.62 149.94 1530.79 167.36"/><polygon class="cls-5" points="1529.85 167.93 1529.85 202.77 1499.68 185.35 1499.68 150.51 1529.85 167.93"/></g></svg>