<svg id="圖層_1" data-name="圖層 1" xmlns="http://www.w3.org/2000/svg" viewBox="0 0 2310 2310"><defs><style>.cls-1{fill:#84a9cd;}</style></defs><title>未命名-1</title><polygon class="cls-1" points="1155 1155 938.44 0 1370.12 0 1155 1155"/><polygon class="cls-1" points="1155 1155 46.46 765.05 262.3 391.2 1155 1155"/><polygon class="cls-1" points="1155 1155 263.02 1920.05 47.18 1546.2 1155 1155"/><polygon class="cls-1" points="1155 1155 1371.56 2310 939.88 2310 1155 1155"/><polygon class="cls-1" points="1155 1155 2263.54 1544.95 2047.7 1918.8 1155 1155"/><polygon class="cls-1" points="1155 1155 2046.98 389.95 2262.82 763.8 1155 1155"/><polygon class="cls-1" points="1155 1155 1544.95 46.46 1918.8 262.3 1155 1155"/><polygon class="cls-1" points="1155 1155 389.95 263.02 763.8 47.18 1155 1155"/><polygon class="cls-1" points="1155 1155 0 1371.56 0 939.88 1155 1155"/><polygon class="cls-1" points="1155 1155 765.05 2263.54 391.2 2047.7 1155 1155"/><polygon class="cls-1" points="1155 1155 1920.05 2046.98 1546.2 2262.82 1155 1155"/><polygon class="cls-1" points="1155 1155 2310 938.44 2310 1370.12 1155 1155"/></svg>