<svg version="1.1" id="圖層_1" xmlns="http://www.w3.org/2000/svg" xmlns:xlink="http://www.w3.org/1999/xlink" x="500" y="500"
	width="500px" height="500px" viewBox="0 0 500 500" style="enable-background:new 0 0 500 500;transform-origin: center center;" xml:space="preserve">
<style type="text/css">
	.st0{fill:#84A9CD;}
</style>
<animateTransform  accumulate="none" additive="replace" attributeName="transform" attributeType="XML" begin="0s" calcMode="linear" dur="5s" fill="freeze" from="0" to="360" repeatCount="indefinite" restart="always" type="rotate">
	</animateTransform>
<polygon class="st0" points="250,250 203,0 296.5,0 "/>
<polygon class="st0" points="250,250 10,165.5 57,84.5 "/>
<polygon class="st0" points="250,250 57,415.5 10,334.5 "/>
<polygon class="st0" points="250,250 297,500 203.5,500 "/>
<polygon class="st0" points="250,250 490,334.5 443,415.5 "/>
<polygon class="st0" points="250,250 443,84.5 490,165.5 "/>
<polygon class="st0" points="250,250 334.5,10 415.5,57 "/>
<polygon class="st0" points="250,250 84.5,57 165.5,10 "/>
<polygon class="st0" points="250,250 0,297 0,203.5 "/>
<polygon class="st0" points="250,250 165.5,490 84.5,443 "/>
<polygon class="st0" points="250,250 415.5,443 334.5,490 "/>
<polygon class="st0" points="250,250 500,203 500,296.5 "/>
</svg>
