<?xml version="1.0" encoding="UTF-8"?>
<svg width="25px" height="24px" viewBox="0 0 25 24" version="1.1" xmlns="http://www.w3.org/2000/svg" xmlns:xlink="http://www.w3.org/1999/xlink">
    <!-- Generator: Sketch 51.2 (57519) - http://www.bohemiancoding.com/sketch -->
    <title>shopping bag-alt</title>
    <desc>Created with Sketch.</desc>
    <defs></defs>
    <g id="Page-1" stroke="none" stroke-width="1" fill="none" fill-rule="evenodd">
        <g id="首頁" transform="translate(-1501.000000, -38.000000)" fill="#FBFBFB" fill-rule="nonzero">
            <g id="shopping-bag-alt" transform="translate(1500.000000, 38.000000)">
                <rect id="Rectangle-path" opacity="0" x="0" y="0" width="26" height="23.6785714"></rect>
                <path d="M26,23.6785714 L1.2037037,23.6785714 L3.86044974,4.73571429 L7.49045039,4.73571429 C7.92349999,2.06161429 10.4819464,0 13.6018518,0 C16.7217573,0 19.2775469,2.06161429 19.7105965,4.73571429 L23.3432539,4.73571429 L26,23.6785714 Z M13.6018519,1.57857144 C11.4614001,1.57857144 9.69466402,2.93693216 9.28198282,4.73571429 L17.9226065,4.73571429 C17.5090397,2.93693214 15.741418,1.57857144 13.6018519,1.57857144 Z M5.26232607,6.31428572 L2.97486773,22.1 L24.228836,22.1 L22.014881,6.3142857 L5.26232607,6.31428572 Z M17.5869709,10.2607143 C16.853709,10.2607143 16.2585979,9.73031428 16.2585979,9.07599643 C16.2585979,8.42246786 16.853709,7.89285714 17.5869709,7.89285714 C18.3202328,7.89285714 18.9153439,8.42246786 18.9153439,9.07599643 C18.9153439,9.73110358 18.3202328,10.2607143 17.5869709,10.2607143 Z M9.61673282,10.2607143 C8.88258534,10.2607143 8.2883598,9.73031428 8.2883598,9.07599643 C8.2883598,8.42246786 8.88258534,7.89285714 9.61673282,7.89285714 C10.3508803,7.89285714 10.9451058,8.42246786 10.9451058,9.07599643 C10.9451058,9.73110358 10.3499947,10.2607143 9.61673282,10.2607143 Z" id="Shape"></path>
            </g>
        </g>
    </g>
</svg>