<?xml version="1.0" encoding="UTF-8"?>
<svg width="14px" height="14px" viewBox="0 0 14 14" version="1.1" xmlns="http://www.w3.org/2000/svg" xmlns:xlink="http://www.w3.org/1999/xlink">
    <!-- Generator: Sketch 51.2 (57519) - http://www.bohemiancoding.com/sketch -->
    <title>cube</title>
    <desc>Created with Sketch.</desc>
    <defs></defs>
    <g id="Page-1" stroke="none" stroke-width="1" fill="none" fill-rule="evenodd">
        <g id="我要組電腦" transform="translate(-380.000000, -348.000000)" fill="#FBFBFB" fill-rule="nonzero">
            <g id="cube" transform="translate(379.000000, 347.000000)">
                <rect id="Rectangle-path" opacity="0" x="0" y="0" width="16" height="16"></rect>
                <path d="M14.6031857,5.25261551 C14.5467792,5.25261551 14.4933102,5.26289673 14.4447475,5.28267794 L14.373466,5.31861536 L9.01484828,8.09792166 L8.89334774,8.16029652 C8.89334774,8.16029652 8.89172273,8.16101527 8.89172273,8.16176526 C8.65547168,8.30763994 8.50000223,8.55257689 8.50000223,8.83129502 L8.50000223,14.6392196 C8.50000223,14.8386566 8.67653427,14.9999688 8.8965665,14.9999688 C8.96462931,14.9999688 9.02941085,14.9839375 9.0860986,14.9560938 C9.09094237,14.9531251 9.0974424,14.9502189 9.10231742,14.9472814 L14.5626855,12.0506003 L14.5707793,12.0461941 C14.8283117,11.9054444 15,11.6480075 15,11.3554144 L15,5.61192721 C15.0000313,5.4132089 14.8218742,5.25261551 14.6031857,5.25261551 Z M14.1960589,3.70377521 L8.51790856,1.14968717 C8.51790856,1.14968717 8.18481333,1 7.999875,1 C7.81493667,1 7.48343519,1.14968717 7.48343519,1.14968717 L1.80040982,3.70377521 C1.80040982,3.70377521 1.55075246,3.80664999 1.55075246,3.9999933 C1.55075246,4.20505535 1.81012862,4.3593675 1.81012862,4.3593675 L7.51584159,7.37095453 L7.60652949,7.41717318 C7.72478002,7.46989181 7.85893687,7.49995424 7.999875,7.49995424 C8.14240689,7.49995424 8.27846999,7.46986056 8.39806428,7.41570443 L8.47740838,7.37461077 L14.1928401,4.3578675 C14.1928401,4.3578675 14.4274662,4.23174279 14.4274662,3.99996205 C14.4274662,3.79686876 14.1960589,3.70377521 14.1960589,3.70377521 Z M7.10830852,8.16179651 L6.98355796,8.09795291 L1.62628405,5.31864661 L1.55503373,5.28270919 C1.50831477,5.26289673 1.45322077,5.25264676 1.39656427,5.25264676 C1.17790704,5.25264676 1,5.4132089 1,5.61192721 L1,11.3554144 C1,11.6487887 1.17140702,11.9054757 1.42897067,12.0461941 L1.43547069,12.0506003 L6.89608882,14.9472814 C6.95602659,14.9810313 7.02730816,15 7.10346475,15 C7.32187197,15 7.50002902,14.8386879 7.50002902,14.6392508 L7.50002902,8.83132627 C7.49999777,8.55260814 7.34449707,8.30767119 7.10830852,8.16179651 Z" id="Shape"></path>
            </g>
        </g>
    </g>
</svg>