<?xml version="1.0" encoding="UTF-8"?>
<svg width="35px" height="35px" viewBox="0 0 35 35" version="1.1" xmlns="http://www.w3.org/2000/svg" xmlns:xlink="http://www.w3.org/1999/xlink">
    <!-- Generator: Sketch 51.2 (57519) - http://www.bohemiancoding.com/sketch -->
    <title>li01</title>
    <desc>Created with Sketch.</desc>
    <defs></defs>
    <g id="Page-1" stroke="none" stroke-width="1" fill="none" fill-rule="evenodd">
        <g id="我要組電腦" transform="translate(-419.000000, -1010.000000)" fill-rule="nonzero">
            <g id="li01" transform="translate(416.000000, 1007.000000)">
                <rect id="Rectangle-path" fill="#FBFBFB" opacity="0" x="0" y="0" width="39" height="39"></rect>
                <path d="M37.0079642,13.6315388 C36.866948,13.6315388 36.7332755,13.6572418 36.6118687,13.7066949 L36.433665,13.7965384 L23.0371207,20.7448042 L22.7333693,20.9007413 C22.7333693,20.9007413 22.7293068,20.9025382 22.7293068,20.9044132 C22.1386792,21.2690999 21.7500056,21.8814422 21.7500056,22.5782376 L21.7500056,37.098049 C21.7500056,37.5966415 22.1913357,37.999922 22.7414162,37.999922 C22.9115733,37.999922 23.0735271,37.9598438 23.2152465,37.8902345 C23.2273559,37.8828128 23.243606,37.8755473 23.2557935,37.8682035 L36.9067137,30.6265008 L36.9269482,30.6154853 C37.5707793,30.263611 38,29.6200188 38,28.888536 L38,14.529818 C38.0000783,14.0330223 37.5546855,13.6315388 37.0079642,13.6315388 Z M35.9901473,9.75943803 L21.7947714,3.37421792 C21.7947714,3.37421792 20.9620333,3 20.4996875,3 C20.0373417,3 19.208588,3.37421792 19.208588,3.37421792 L5.00102455,9.75943803 C5.00102455,9.75943803 4.37688115,10.016625 4.37688115,10.4999833 C4.37688115,11.0126384 5.02532155,11.3984188 5.02532155,11.3984188 L19.289604,18.9273863 L19.5163237,19.042933 C19.8119501,19.1747295 20.1473422,19.2498856 20.4996875,19.2498856 C20.8560172,19.2498856 21.196175,19.1746514 21.4951607,19.0392611 L21.693521,18.9365269 L35.9821003,11.3946688 C35.9821003,11.3946688 36.5686655,11.079357 36.5686655,10.4999051 C36.5686655,9.9921719 35.9901473,9.75943803 35.9901473,9.75943803 Z M18.2707713,20.9044913 L17.9588949,20.7448823 L4.56571013,13.7966165 L4.38758433,13.706773 C4.27078693,13.6572418 4.13305193,13.6316169 3.99141068,13.6316169 C3.4447676,13.6316169 3,14.0330223 3,14.529818 L3,28.888536 C3,29.6219718 3.42851755,30.2636892 4.07242668,30.6154852 L4.08867673,30.6265007 L17.7402221,37.8682035 C17.8900665,37.9525783 18.0682704,38 18.2586619,38 C18.8046799,38 19.2500726,37.5967197 19.2500726,37.098127 L19.2500726,22.5783157 C19.2499944,21.8815204 18.8612427,21.269178 18.2707713,20.9044913 Z" id="Shape" fill="#6C757D"></path>
            </g>
        </g>
    </g>
</svg>