<?xml version="1.0" encoding="UTF-8"?>
<svg width="37px" height="37px" viewBox="0 0 37 37" version="1.1" xmlns="http://www.w3.org/2000/svg" xmlns:xlink="http://www.w3.org/1999/xlink">
    <!-- Generator: Sketch 51.2 (57519) - http://www.bohemiancoding.com/sketch -->
    <title>li02</title>
    <desc>Created with Sketch.</desc>
    <defs></defs>
    <g id="Page-1" stroke="none" stroke-width="1" fill="none" fill-rule="evenodd">
        <g id="我要組電腦" transform="translate(-508.000000, -1008.000000)" fill="#6C757D" fill-rule="nonzero">
            <g id="li02" transform="translate(508.000000, 1008.000000)">
                <path d="M35.8879782,12.7356171 C36.5012099,12.7333996 36.9977821,12.2369087 37,11.6237775 L37,11.2194722 C36.9977821,10.606341 36.5012099,10.1098501 35.8879782,10.1076326 L29.8021858,10.1076326 C29.4474749,8.64063951 28.3380609,7.47363483 26.8907104,7.04501994 L26.8907104,1.11183959 C26.8884925,0.498708406 26.3919203,0.00221749436 25.7786886,0 L25.374317,0 C24.7606257,0.00111258771 24.2634079,0.498248979 24.2622951,1.11183959 L24.2622951,6.87319018 L22.171694,6.87319018 L22.171694,1.11183959 C22.1705812,0.498248979 21.6733633,0.00111258771 21.0596721,0 L20.6553006,0 C20.0420688,0.00221749436 19.5454965,0.498708406 19.5432787,1.11183959 L19.5432787,6.87319018 L17.4546994,6.87319018 L17.4546994,1.11183959 C17.4535867,0.498248979 16.9563688,0.00111258771 16.3426776,0 L15.938306,0 C15.3250743,0.00221749436 14.828502,0.498708406 14.8262842,1.11183959 L14.8262842,6.87319018 L12.7377049,6.87319018 L12.7377049,1.11183959 C12.7354871,0.498708406 12.2389148,0.00221749436 11.6256831,0 L11.2213115,0 C10.6076203,0.00111258771 10.1104024,0.498248979 10.1092896,1.11183959 L10.1092896,7.04501994 C8.66115846,7.47302096 7.55086819,8.64013686 7.19579235,10.1076326 L1.11202186,10.1076326 C0.498330659,10.1087452 0.0011127701,10.6058816 0,11.2194722 L0,11.6237775 C0.00221785789,12.2369087 0.49879016,12.7333996 1.11202186,12.7356171 L7.07650273,12.7356171 L7.07650273,14.823854 L1.11202186,14.823854 C0.498330659,14.8249666 0.0011127701,15.322103 0,15.9356936 L0,16.3399989 C0.00221785789,16.9531301 0.49879016,17.449621 1.11202186,17.4518385 L7.07650273,17.4518385 L7.07650273,19.54614 L1.11202186,19.54614 C0.49879016,19.5483575 0.00221785789,20.0448484 2.87323292e-15,20.6579796 L2.87323292e-15,21.0622849 C0.0011127701,21.6758755 0.498330659,22.1730119 1.11202186,22.1741245 L7.07650273,22.1741245 L7.07650273,24.2643829 L1.11202186,24.2643829 C0.498330659,24.2654954 0.0011127701,24.7626318 0,25.3762225 L0,25.7805277 C0.00221785789,26.3936589 0.49879016,26.8901498 1.11202186,26.8923673 L7.19579235,26.8923673 C7.551503,28.3590882 8.66168201,29.5253169 10.1092896,29.9529585 L10.1092896,35.8881604 C10.1115075,36.5012916 10.6080798,36.9977825 11.2213115,37 L11.6256831,37 C12.2389148,36.9977825 12.7354871,36.5012916 12.7377049,35.8881604 L12.7377049,30.1268097 L14.8262842,30.1268097 L14.8262842,35.8881604 C14.828502,36.5012916 15.3250743,36.9977825 15.938306,37 L16.3426776,37 C16.9559093,36.9977825 17.4524816,36.5012916 17.4546994,35.8881604 L17.4546994,30.1268097 L19.5432787,30.1268097 L19.5432787,35.8881604 C19.5454965,36.5012916 20.0420688,36.9977825 20.6553006,37 L21.0596721,37 C21.6729038,36.9977825 22.1694761,36.5012916 22.171694,35.8881604 L22.171694,30.1268097 L24.2622951,30.1268097 L24.2622951,35.8881604 C24.2645131,36.5012916 24.7610852,36.9977825 25.374317,37 L25.7786886,37 C26.3919203,36.9977825 26.8884925,36.5012916 26.8907104,35.8881604 L26.8907104,29.946894 C28.337313,29.5182721 29.446463,28.3523154 29.8021858,26.8863028 L35.8879782,26.8863028 C36.5012099,26.8840853 36.9977821,26.3875943 37,25.7744632 L37,25.3701579 C36.9977821,24.7570268 36.5012099,24.2605358 35.8879782,24.2583183 L29.9234972,24.2583183 L29.9234972,22.1741245 L35.8879782,22.1741245 C36.5012099,22.171907 36.9977821,21.6754161 37,21.0622849 L37,20.6579796 C36.9977821,20.0448484 36.5012099,19.5483575 35.8879782,19.54614 L29.9234972,19.54614 L29.9234972,17.4518385 L35.8879782,17.4518385 C36.5012099,17.449621 36.9977821,16.9531301 37,16.3399989 L37,15.9356936 C36.9977821,15.3225624 36.5012099,14.8260715 35.8879782,14.823854 L29.9234972,14.823854 L29.9234972,12.7356171 L35.8879782,12.7356171 Z" id="Shape"></path>
            </g>
        </g>
    </g>
</svg>