<?xml version="1.0" encoding="UTF-8"?>
<svg width="1920px" height="312px" viewBox="0 0 1920 312" version="1.1" xmlns="http://www.w3.org/2000/svg" xmlns:xlink="http://www.w3.org/1999/xlink">
    <!-- Generator: Sketch 51.2 (57519) - http://www.bohemiancoding.com/sketch -->
    <title>Group 22</title>
    <desc>Created with Sketch.</desc>
    <defs></defs>
    <g id="Page-1" stroke="none" stroke-width="1" fill="none" fill-rule="evenodd">
        <g id="1920x1080網頁-copy-4" transform="translate(0.000000, -79.000000)" fill-rule="nonzero">
            <g id="Group-22" transform="translate(-418.000000, 79.000000)">
                <path d="M1633.19565,26.5653595 C1633.19565,23.4916963 1630.64562,21 1627.5,21 C1624.35438,21 1621.80435,23.4916963 1621.80435,26.5653595 C1620.44519,26.5653594 1619.18927,27.2738767 1618.50969,28.4240196 C1617.8301,29.5741625 1617.8301,30.991197 1618.50969,32.1413399 C1619.18927,33.2914828 1620.44519,34 1621.80435,34 L1633.19565,34 C1635.29674,34 1637,32.335699 1637,30.2826797 C1637,28.2296604 1635.29674,26.5653595 1633.19565,26.5653595 Z" id="Shape" fill="#FFFFFF" opacity="0.5"></path>
                <path d="M1823.19565,28.5653595 C1823.19565,25.4916963 1820.64562,23 1817.5,23 C1814.35438,23 1811.80435,25.4916963 1811.80435,28.5653595 C1809.70326,28.5653595 1808,30.2296604 1808,32.2826797 C1808,34.335699 1809.70326,36 1811.80435,36 L1823.19565,36 C1825.29674,36 1827,34.335699 1827,32.2826797 C1827,30.2296604 1825.29674,28.5653595 1823.19565,28.5653595 Z" id="Shape" fill="#FFFFFF" opacity="0.7"></path>
                <path d="M1633.19565,26.5653595 C1633.19565,23.4916963 1630.64562,21 1627.5,21 C1624.35438,21 1621.80435,23.4916963 1621.80435,26.5653595 C1620.44519,26.5653594 1619.18927,27.2738767 1618.50969,28.4240196 C1617.8301,29.5741625 1617.8301,30.991197 1618.50969,32.1413399 C1619.18927,33.2914828 1620.44519,34 1621.80435,34 L1633.19565,34 C1635.29674,34 1637,32.335699 1637,30.2826797 C1637,28.2296604 1635.29674,26.5653595 1633.19565,26.5653595 Z" id="Shape" fill="#FFFFFF" opacity="0.5"></path>
                <rect id="Rectangle-path" fill="#84A9CC" x="0" y="0" width="2756" height="312"></rect>
                <path d="M1296.74043,220 L1185.23808,220 C1176.82232,220 1170,226.939586 1170,235.5 C1170,244.060414 1176.82232,251 1185.23808,251 L1296.76192,251 C1305.17768,251 1312,244.060413 1312,235.5 C1312,226.939587 1305.17768,220 1296.76192,220 L1296.74043,220 Z" id="Shape" fill="#FAE39C"></path>
                <path d="M1371.72761,97.8171679 L1296.69932,97.8171679 L1297.14029,97.8171679 C1288.72934,97.8171679 1281.91092,91.0147784 1281.91092,82.6236058 C1281.91092,74.2324332 1288.72934,67.4300438 1297.14029,67.4300438 L1296.69932,67.4300438 C1305.12215,67.4300438 1311.9502,60.6180464 1311.9502,52.2150219 C1311.9502,43.8119973 1305.12215,37 1296.69932,37 L1080.25088,37 C1071.82805,37 1065,43.8119973 1065,52.2150219 C1065,60.6180464 1071.82805,67.4300438 1080.25088,67.4300438 L1185.1141,67.4300438 C1184.87748,67.4300438 1184.65162,67.4300438 1184.41501,67.4300438 C1192.54485,67.8036669 1198.94357,74.488188 1198.94357,82.6075109 C1198.94357,90.7268339 1192.54485,97.411355 1184.41501,97.7849781 C1184.65162,97.7849781 1184.87748,97.7849781 1185.1141,97.7849781 L1174.3589,97.7849781 C1165.93607,97.7849781 1159.10802,104.596975 1159.10802,113 C1159.10802,121.403025 1165.93607,128.215022 1174.3589,128.215022 L1185.1141,128.215022 C1184.87748,128.215022 1184.65162,128.215022 1184.41501,128.215022 C1192.54485,128.588645 1198.94357,135.273166 1198.94357,143.392489 C1198.94357,151.511812 1192.54485,158.196333 1184.41501,158.569956 C1184.65162,158.569956 1184.87748,158.569956 1185.1141,158.569956 L1137.4578,158.569956 C1129.03497,158.569956 1122.20692,165.381954 1122.20692,173.784978 C1122.20692,182.188003 1129.03497,189 1137.4578,189 L1296.73159,189 C1305.15441,189 1311.98246,182.188003 1311.98246,173.784978 C1311.98246,165.381954 1305.15441,158.569956 1296.73159,158.569956 L1268.1335,158.569956 L1268.57447,158.569956 C1260.16352,158.569956 1253.3451,151.767567 1253.3451,143.376394 C1253.3451,134.985222 1260.16352,128.182832 1268.57447,128.182832 L1268.1335,128.182832 L1371.74912,128.182832 C1380.17195,128.182832 1387,121.370835 1387,112.96781 C1387,104.564786 1380.17195,97.7527884 1371.74912,97.7527884 L1371.72761,97.8171679 Z" id="Shape" fill="#FAE39C"></path>
                <path d="M1347.37136,158.658936 L1153.82802,158.658936 C1154.06472,158.658936 1154.29066,158.658936 1154.5166,158.658936 C1146.40144,158.28459 1140.01446,151.594125 1140.01446,143.467713 C1140.01446,135.3413 1146.40144,128.650835 1154.5166,128.276489 C1154.2799,128.276489 1154.05396,128.276489 1153.81726,128.276489 L1189.98896,128.276489 C1198.23638,128.05711 1204.80824,121.305988 1204.80824,113.052979 C1204.80824,104.799969 1198.23638,98.0488473 1189.98896,97.8294679 L1244.85977,97.8294679 C1245.09647,97.8294679 1245.32241,97.8294679 1245.54835,97.8294679 C1237.43319,97.455122 1231.04621,90.7646575 1231.04621,82.6382447 C1231.04621,74.5118318 1237.43319,67.8213673 1245.54835,67.4470214 C1245.31165,67.4470214 1245.08571,67.4470214 1244.84901,67.4470214 L1176.54023,67.4470214 C1184.78766,67.227642 1191.35951,60.4765203 1191.35951,52.2235107 C1191.35951,43.9705011 1184.78766,37.2193794 1176.54023,37 L969.967767,37 C961.720345,37.2193794 955.148486,43.9705011 955.148486,52.2235107 C955.148486,60.4765203 961.720345,67.227642 969.967767,67.4470214 L1057.30919,67.4470214 L1056.86807,67.4470214 C1065.10372,67.6662427 1071.66612,74.4077737 1071.66612,82.6490071 C1071.66612,90.8902406 1065.10372,97.6317716 1056.86807,97.8509929 L1057.30919,97.8509929 L844.819281,97.8509929 C836.571859,98.0703722 830,104.821494 830,113.074504 C830,121.327513 836.571859,128.078635 844.819281,128.298014 L1055.50168,128.298014 L1055.06056,128.298014 C1063.29621,128.517236 1069.85861,135.258767 1069.85861,143.5 C1069.85861,151.741233 1063.29621,158.482764 1055.06056,158.701986 L1055.50168,158.701986 L964.12564,158.701986 C955.878218,158.921365 949.306358,165.672487 949.306358,173.925496 C949.306358,182.178506 955.878218,188.929628 964.12564,189.149007 L1026.97962,189.149007 L1026.5385,189.149007 C1034.77415,189.368228 1041.33655,196.109759 1041.33655,204.350993 C1041.33655,212.592226 1034.77415,219.333757 1026.5385,219.552979 L1026.97962,219.552979 L941.510258,219.552979 C933.262836,219.772358 926.690977,226.52348 926.690977,234.776489 C926.690977,243.029499 933.262836,249.780621 941.510258,250 L1195.62667,250 C1203.87409,249.780621 1210.44595,243.029499 1210.44595,234.776489 C1210.44595,226.52348 1203.87409,219.772358 1195.62667,219.552979 L1176.60479,219.552979 C1176.84149,219.552979 1177.06742,219.552979 1177.29336,219.552979 C1169.17821,219.178633 1162.79123,212.488168 1162.79123,204.361755 C1162.79123,196.235343 1169.17821,189.544878 1177.29336,189.170532 C1177.05667,189.170532 1176.83073,189.170532 1176.59403,189.170532 L1347.37136,189.170532 C1352.90491,189.317723 1358.08228,186.448761 1360.8924,181.678039 C1363.70253,176.907318 1363.70253,170.986725 1360.8924,166.216003 C1358.08228,161.445282 1352.90491,158.57632 1347.37136,158.723511 L1347.37136,158.658936 Z" id="Shape" fill="#FAE39C" opacity="0.5"></path>
                <circle id="Oval" fill="#FAE39C" cx="1111.5" cy="113.5" r="15.5"></circle>
                <circle id="Oval" fill="#FAC375" opacity="0.47" cx="914.5" cy="174.5" r="15.5"></circle>
                <path d="M1567.74337,68.0643522 L1350.89659,68.0643522 C1342.45869,68.0643522 1335.61841,74.8734656 1335.61841,83.2729325 C1335.61841,91.6723995 1342.45869,98.4815128 1350.89659,98.4815128 L1372.75797,98.4815128 C1372.52093,98.4815128 1372.29467,98.4815128 1372.05763,98.4815128 C1380.20202,98.8549778 1386.61221,105.536669 1386.61221,113.652554 C1386.61221,121.76844 1380.20202,128.450131 1372.05763,128.823596 C1372.29467,128.823596 1372.52093,128.823596 1372.75797,128.823596 L1300.27818,128.823596 C1291.84028,128.823596 1285,135.632709 1285,144.032176 C1285,152.431643 1291.84028,159.240756 1300.27818,159.240756 L1404.70424,159.240756 C1404.46721,159.240756 1404.24094,159.240756 1404.0039,159.240756 C1412.1483,159.614221 1418.55848,166.295912 1418.55848,174.411798 C1418.55848,182.527683 1412.1483,189.209374 1404.0039,189.582839 C1404.24094,189.582839 1404.46721,189.582839 1404.70424,189.582839 L1381.00043,189.582839 C1375.54206,189.582839 1370.49832,192.481578 1367.76914,197.187129 C1365.03995,201.892681 1365.03995,207.690159 1367.76914,212.39571 C1370.49832,217.101261 1375.54206,220 1381.00043,220 L1540.5594,220 C1548.99731,220 1555.83759,213.190887 1555.83759,204.79142 C1555.83759,196.391953 1548.99731,189.582839 1540.5594,189.582839 L1487.85075,189.582839 L1488.2925,189.582839 C1479.86649,189.582839 1473.03587,182.78333 1473.03587,174.39571 C1473.03587,166.00809 1479.86649,159.20858 1488.2925,159.20858 L1487.85075,159.20858 L1498.01106,159.20858 C1506.44897,159.20858 1513.28925,152.399467 1513.28925,144 C1513.28925,135.600533 1506.44897,128.79142 1498.01106,128.79142 L1436.81213,128.79142 L1437.25389,128.79142 C1428.82788,128.791419 1421.99725,121.99191 1421.99725,113.60429 C1421.99725,105.21667 1428.82788,98.4171608 1437.25389,98.4171606 L1436.81213,98.4171606 L1567.72182,98.4171606 C1576.15972,98.4171606 1583,91.6080473 1583,83.2085803 C1583,74.8091133 1576.15972,68 1567.72182,68 L1567.74337,68.0643522 Z" id="Shape" fill="#B8E0E3"></path>
                <path d="M1917.84497,97.9140589 L1765.44347,97.9140589 L1765.88525,97.9140589 C1757.63734,97.6947268 1751.06518,90.9497877 1751.06518,82.704388 C1751.06518,74.4589884 1757.63734,67.7140493 1765.88525,67.4947172 L1765.44347,67.4947172 L1803.54385,67.4947172 C1807.58465,67.4947172 1811.45994,65.8905726 1814.31722,63.0351769 C1817.17449,60.1797813 1818.77969,56.3070337 1818.77969,52.2688944 C1818.79114,48.2232976 1817.191,44.3394756 1814.33248,41.4747576 C1811.47397,38.6100395 1807.59212,36.9999838 1803.54385,37 L1415.76263,37 C1407.36074,37.0178141 1400.5591,43.8294323 1400.55912,52.2258228 C1400.55912,60.6348125 1407.38044,67.4516455 1415.79496,67.4516455 L1434.84515,67.4516455 C1434.6081,67.4516455 1434.38182,67.4516455 1434.15555,67.4516455 C1442.32961,67.7592416 1448.79734,74.470687 1448.79734,82.6451646 C1448.79734,90.8196421 1442.32961,97.5310875 1434.15555,97.8386836 C1434.3926,97.8386836 1434.61887,97.8386836 1434.85592,97.8386836 C1426.43842,97.8386836 1419.61469,104.657927 1419.61469,113.06989 C1419.61469,121.481853 1426.43842,128.301097 1434.85592,128.301097 C1434.61887,128.301097 1434.3926,128.301097 1434.16632,128.301097 C1442.34038,128.608693 1448.80811,135.320138 1448.80811,143.494616 C1448.80811,151.669094 1442.34038,158.380539 1434.16632,158.688135 C1434.40337,158.688135 1434.62965,158.688135 1434.8667,158.688135 L1387.24123,158.688135 C1378.82373,158.688135 1372,165.507379 1372,173.919342 C1372,182.331305 1378.82373,189.150549 1387.24123,189.150549 L1434.8667,189.150549 C1434.62965,189.150549 1434.40337,189.150549 1434.1771,189.150549 C1442.35116,189.458145 1448.81889,196.16959 1448.81889,204.344068 C1448.81889,212.518545 1442.35116,219.229991 1434.1771,219.537587 C1434.41415,219.537587 1434.64042,219.537587 1434.87747,219.537587 C1426.45997,219.537587 1419.63624,226.35683 1419.63624,234.768793 C1419.63624,243.180756 1426.45997,250 1434.87747,250 L1765.50812,250 C1773.92562,250 1780.74935,243.180756 1780.74935,234.768793 C1780.74935,226.35683 1773.92562,219.537587 1765.50812,219.537587 L1717.88266,219.537587 L1718.32443,219.537587 C1710.07653,219.318254 1703.50436,212.573315 1703.50436,204.327916 C1703.50436,196.082516 1710.07653,189.337577 1718.32443,189.118245 L1717.88266,189.118245 L1889.33434,189.118245 C1897.75184,189.118245 1904.57557,182.299001 1904.57557,173.887038 C1904.57557,165.475075 1897.75184,158.655831 1889.33434,158.655831 L1860.65131,158.655831 L1861.09309,158.655831 C1852.84518,158.436499 1846.27302,151.69156 1846.27302,143.44616 C1846.27302,135.200761 1852.84518,128.455822 1861.09309,128.23649 L1860.65131,128.23649 L1917.75877,128.23649 C1926.17627,128.236489 1933,121.417246 1933,113.005283 C1933,104.59332 1926.17627,97.7740764 1917.75877,97.7740761 L1917.84497,97.9140589 Z" id="Shape" fill="#B8E0E3" opacity="0.5"></path>
                <circle id="Oval" fill="#B8E0E3" cx="1629.5" cy="204.5" r="15.5"></circle>
                <circle id="Oval" fill="#B8E0E3" opacity="0.5" cx="1947.5" cy="174.5" r="15.5"></circle>
                <circle id="Oval" fill="#B8E0E3" cx="1556.5" cy="144.5" r="15.5"></circle>
                <rect id="Rectangle-path" fill="#B8E0E3" transform="translate(1680.000000, 112.500000) rotate(-90.000000) translate(-1680.000000, -112.500000) " x="1664.5" y="68.5" width="31" height="88" rx="14.18"></rect>
                <rect id="Rectangle-path" fill="#FAE39C" transform="translate(1054.000000, 173.500000) rotate(-90.000000) translate(-1054.000000, -173.500000) " x="1038.5" y="145.5" width="31" height="56" rx="14.18"></rect>
                <rect id="Rectangle-path" fill="#FAC375" opacity="0.5" transform="translate(888.500000, 52.500000) rotate(-90.000000) translate(-888.500000, -52.500000) " x="873" y="19" width="31" height="67" rx="14.18"></rect>
                <rect id="Rectangle-path" fill="#B8E0E3" opacity="0.5" transform="translate(1867.500000, 52.500000) rotate(-90.000000) translate(-1867.500000, -52.500000) " x="1852" y="30" width="31" height="45" rx="14.18"></rect>
            </g>
        </g>
    </g>
</svg>