<?xml version="1.0" encoding="UTF-8"?>
<svg width="1277px" height="286px" viewBox="0 0 1277 286" version="1.1" xmlns="http://www.w3.org/2000/svg" xmlns:xlink="http://www.w3.org/1999/xlink">
    <!-- Generator: Sketch 51.2 (57519) - http://www.bohemiancoding.com/sketch -->
    <title>bg-top</title>
    <desc>Created with Sketch.</desc>
    <defs>
        <rect id="path-1" x="0" y="0" width="1277" height="286"></rect>
        <linearGradient x1="20.2883416%" y1="55.2255105%" x2="88.429952%" y2="77.9674378%" id="linearGradient-3">
            <stop stop-color="#B3CEE6" offset="0%"></stop>
            <stop stop-color="#E3E2F8" offset="100%"></stop>
        </linearGradient>
        <linearGradient x1="64.0171611%" y1="95.3415462%" x2="98.2351085%" y2="18.8078022%" id="linearGradient-4">
            <stop stop-color="#BAD4E8" offset="0%"></stop>
            <stop stop-color="#9EBDD9" offset="100%"></stop>
        </linearGradient>
        <linearGradient x1="38.5893096%" y1="60.707463%" x2="5.14346524%" y2="63.3424697%" id="linearGradient-5">
            <stop stop-color="#FFFFFF" stop-opacity="0.5" offset="0%"></stop>
            <stop stop-color="#000000" stop-opacity="0.5" offset="100%"></stop>
        </linearGradient>
        <linearGradient x1="71.3202012%" y1="0%" x2="71.3202012%" y2="91.1708024%" id="linearGradient-6">
            <stop stop-color="#84A9CC" offset="0%"></stop>
            <stop stop-color="#BFD7EE" offset="100%"></stop>
        </linearGradient>
        <linearGradient x1="4.04317679%" y1="82.2510747%" x2="12.1519479%" y2="73.7139819%" id="linearGradient-7">
            <stop stop-color="#E2EDF8" offset="0%"></stop>
            <stop stop-color="#84A9CC" offset="100%"></stop>
        </linearGradient>
    </defs>
    <g id="Page-1" stroke="none" stroke-width="1" fill="none" fill-rule="evenodd">
        <g id="bg-top">
            <mask id="mask-2" fill="white">
                <use xlink:href="#path-1"></use>
            </mask>
            <g id="path-1"></g>
            <g id="Group" mask="url(#mask-2)">
                <g transform="translate(0.000000, -412.000000)">
                    <path d="M0,610.251429 C47.3032972,631.257905 96.0875044,649.024331 145.183062,665.138825 C191.447859,680.323981 240.069739,688.200745 288.751493,688.776429 C336.100694,689.336823 383.554345,682.991006 429.017482,669.726347 C474.881781,656.34469 518.531369,636.041531 565.734209,627.117768 C617.148262,617.396954 669.949421,615.015777 722.028753,620.101206 C811.880602,628.876063 889.515276,682.638017 979.064424,693.024257 C1032.50358,699.225821 1086.61202,699.621354 1140.14099,694.261379 C1150.62046,693.21172 1277.33472,673.944926 1277.33472,675.398095 L1277.33472,541.11619 L0,541.11619 L0,610.251429 Z" id="Fill-1" fill="url(#linearGradient-3)" fill-rule="nonzero"></path>
                    <g id="Fill-3" stroke-width="1" fill="none" fill-rule="evenodd" transform="translate(0.000000, 358.306667)">
                        <g id="path-6-link" fill="url(#linearGradient-4)" fill-rule="nonzero">
                            <path d="M0,194.775238 C46.3765643,195.715876 92.5628589,198.344345 138.829652,201.153629 C184.160399,203.905078 227.104126,212.947834 271.667141,221.22412 C319.9311,230.18777 362.925389,227.908966 410.552677,218.854909 C460.873012,209.288985 508.450404,190.135865 560.163832,187.462857 C665.696961,182.008486 752.985492,246.901878 854.930774,262.574305 C924.374539,273.250381 991.050081,251.801173 1058.11481,238.054562 C1130.10194,223.299507 1204.28847,219.2418 1277.44848,226.201192 C1276.47651,150.82251 1277.33472,75.3853295 1277.33472,0 L0,0 C0,0 0,194.775238 0,194.775238" id="path-6"></path>
                        </g>
                        <g id="path-6-link" fill="url(#linearGradient-5)" fill-opacity="0.1" fill-rule="nonzero">
                            <path d="M0,194.775238 C46.3765643,195.715876 92.5628589,198.344345 138.829652,201.153629 C184.160399,203.905078 227.104126,212.947834 271.667141,221.22412 C319.9311,230.18777 362.925389,227.908966 410.552677,218.854909 C460.873012,209.288985 508.450404,190.135865 560.163832,187.462857 C665.696961,182.008486 752.985492,246.901878 854.930774,262.574305 C924.374539,273.250381 991.050081,251.801173 1058.11481,238.054562 C1130.10194,223.299507 1204.28847,219.2418 1277.44848,226.201192 C1276.47651,150.82251 1277.33472,75.3853295 1277.33472,0 L0,0 C0,0 0,194.775238 0,194.775238" id="path-6"></path>
                        </g>
                    </g>
                    <g id="Fill-5" stroke-width="1" fill="none" fill-rule="evenodd">
                        <g id="path-9-link" fill="url(#linearGradient-6)" fill-rule="nonzero">
                            <path d="M0,483.281905 C0,483.281905 133.720979,479.293333 206.901614,505.88381 C260.625514,525.404543 317.162211,548.534269 375.497157,538.958373 C431.80766,529.715524 469.985997,491.385352 516.757737,463.62423 C563.566732,435.841171 613.123327,420.227909 667.972879,427.132126 C731.461737,435.123893 793.166318,459.678204 852.22176,483.281905 C978.624675,533.80381 1277.33472,376.92 1277.33472,376.92 L1277.33472,0 L0,0 L0,483.281905 Z" id="path-9"></path>
                        </g>
                        <g id="path-9-link" fill="url(#linearGradient-7)" fill-opacity="0.1" fill-rule="nonzero">
                            <path d="M0,483.281905 C0,483.281905 133.720979,479.293333 206.901614,505.88381 C260.625514,525.404543 317.162211,548.534269 375.497157,538.958373 C431.80766,529.715524 469.985997,491.385352 516.757737,463.62423 C563.566732,435.841171 613.123327,420.227909 667.972879,427.132126 C731.461737,435.123893 793.166318,459.678204 852.22176,483.281905 C978.624675,533.80381 1277.33472,376.92 1277.33472,376.92 L1277.33472,0 L0,0 L0,483.281905 Z" id="path-9"></path>
                        </g>
                    </g>
                </g>
            </g>
        </g>
    </g>
</svg>