<?xml version="1.0" encoding="UTF-8"?>
<svg width="161px" height="166px" viewBox="0 0 161 166" version="1.1" xmlns="http://www.w3.org/2000/svg" xmlns:xlink="http://www.w3.org/1999/xlink">
    <!-- Generator: Sketch 51.2 (57519) - http://www.bohemiancoding.com/sketch -->
    <title>主機板</title>
    <desc>Created with Sketch.</desc>
    <defs></defs>
    <g id="Page-1" stroke="none" stroke-width="1" fill="none" fill-rule="evenodd">
        <g id="Artboard" transform="translate(-346.000000, -670.000000)" fill="#84A9CD" fill-rule="nonzero">
            <g id="電腦零件ICON">
                <g id="主機板" transform="translate(346.000000, 670.000000)">
                    <path d="M149,0.31 L12,0.31 C5.372583,0.31 0,5.682583 0,12.31 L0,153.31 C0,159.937417 5.372583,165.31 12,165.31 L149,165.31 C155.627417,165.31 161,159.937417 161,153.31 L161,12.31 C161,5.682583 155.627417,0.31 149,0.31 Z M61,27.31 C65.9705627,27.31 70,31.3394373 70,36.31 C70,41.2805627 65.9705627,45.31 61,45.31 C56.0294373,45.31 52,41.2805627 52,36.31 C52,31.3394373 56.0294373,27.31 61,27.31 Z M69,59.31 L69,107.31 L21,107.31 L21,59.31 L69,59.31 Z M15,25.31 C15,20.3394373 19.0294373,16.31 24,16.31 C28.9705627,16.31 33,20.3394373 33,25.31 C33,30.2805627 28.9705627,34.31 24,34.31 C19.0294373,34.31 15,30.2805627 15,25.31 Z M93,152.31 L21,152.31 L21,139.31 L93,139.31 L93,152.31 Z M93,134.31 L21,134.31 L21,121.31 L93,121.31 L93,134.31 Z M84,45.31 C79.0294373,45.31 75,41.2805627 75,36.31 C75,31.3394373 79.0294373,27.31 84,27.31 C88.9705627,27.31 93,31.3394373 93,36.31 C93,41.2805627 88.9705627,45.31 84,45.31 Z M108,16.31 L121,16.31 L121,90.31 L108,90.31 L108,16.31 Z M142,139.31 L118,139.31 L118,118.31 L142,118.31 L142,139.31 Z M144,90.31 L131,90.31 L131,16.31 L144,16.31 L144,90.31 Z" id="Shape"></path>
                </g>
            </g>
        </g>
    </g>
</svg>