<?xml version="1.0" encoding="UTF-8"?>
<svg width="38px" height="38px" viewBox="0 0 38 38" version="1.1" xmlns="http://www.w3.org/2000/svg" xmlns:xlink="http://www.w3.org/1999/xlink">
    <!-- Generator: Sketch 50.2 (55047) - http://www.bohemiancoding.com/sketch -->
    <title>edit</title>
    <desc>Created with Sketch.</desc>
    <defs></defs>
    <g id="Page-3" stroke="none" stroke-width="1" fill="none" fill-rule="evenodd">
        <g id="Artboard-4" transform="translate(-563.000000, -76.000000)" fill-rule="nonzero">
            <g id="Group" transform="translate(157.000000, 29.000000)">
                <g id="edit" transform="translate(406.000000, 47.000000)">
                    <rect id="Rectangle-path" fill="#000000" opacity="0" x="0" y="0" width="37.9259259" height="38"></rect>
                    <path d="M15.5419498,24.9808062 C14.607419,24.9836481 13.7463364,24.4736292 13.2983003,23.6518935 C12.8502642,22.8301579 12.8871892,21.8286026 13.3945126,21.0422265 L16.4154836,16.2284069 L16.7430588,15.790787 L31.7751196,0.765834945 C32.2543959,0.275920334 32.9103014,-9.79970106e-05 33.5949817,1.51282611e-08 C34.2796621,-9.79870376e-05 34.9355676,0.275920343 35.4148438,0.765834945 L37.2347059,2.58925144 C37.723802,3.06940174 37.9994194,3.72659605 37.9994194,4.41266795 C37.9994194,5.09873984 37.723802,5.75593416 37.2347059,6.23608446 L22.2026451,21.2610365 L21.8386726,21.6257198 L16.8886477,24.5067179 C16.4940021,24.7900859 16.0267635,24.9545715 15.5419498,24.9808062 Z" id="Shape" fill="#84AACE"></path>
                    <path d="M28.0989982,38 L8.044118,38 C3.6158305,38.0000454 0.0203651019,34.4138584 0.000327592593,29.9769674 L0.000327592593,9.91938581 C-0.0190933898,7.769264 0.819793595,5.70051103 2.33040702,4.17324977 C3.84102044,2.64598851 5.89809958,1.78686014 8.044118,1.78694818 L19.327263,1.78694818 C20.7343779,1.78694818 21.8750699,2.92986811 21.8750699,4.33973129 C21.8750699,5.74959447 20.7343779,6.8925144 19.327263,6.8925144 L8.044118,6.8925144 C6.4441896,6.91218599 5.15197191,8.20692754 5.13233867,9.80998081 L5.13233867,29.9769674 C5.15197191,31.5800206 6.4441896,32.8747622 8.044118,32.8944338 L28.0989982,32.8944338 C29.6989266,32.8747622 30.9911443,31.5800206 31.0107776,29.9769674 L31.0107776,18.6353167 C31.0107776,17.2254535 32.1514696,16.0825336 33.5585845,16.0825336 C34.9656994,16.0825336 36.1063914,17.2254535 36.1063914,18.6353167 L36.1063914,29.9769674 C36.086463,34.3996688 32.5130784,37.9800326 28.0989982,38 Z" id="Shape" fill="#84AACE"></path>
                </g>
            </g>
        </g>
    </g>
</svg>