<?xml version="1.0" encoding="UTF-8"?>
<svg width="16px" height="16px" viewBox="0 0 16 16" version="1.1" xmlns="http://www.w3.org/2000/svg" xmlns:xlink="http://www.w3.org/1999/xlink">
    <!-- Generator: Sketch 51.2 (57519) - http://www.bohemiancoding.com/sketch -->
    <title>CPU</title>
    <desc>Created with Sketch.</desc>
    <defs></defs>
    <g id="Page-1" stroke="none" stroke-width="1" fill="none" fill-rule="evenodd">
        <g id="我要組電腦" transform="translate(-518.000000, -348.000000)" fill="#FBFBFB" fill-rule="nonzero">
            <g id="CPU" transform="translate(518.000000, 348.000000)">
                <path d="M15.5191257,5.50729389 C15.784307,5.50633497 15.9990409,5.2916362 16,5.02649839 L16,4.85166366 C15.9990409,4.58652585 15.784307,4.37182708 15.5191257,4.37086816 L12.8874317,4.37086816 C12.7340432,3.73649276 12.2542966,3.23184209 11.6284153,3.04649511 L11.6284153,0.480795498 C11.6274562,0.215657689 11.4127223,0.000958916482 11.147541,0 L10.9726776,0 C10.7072976,0.000481119009 10.4922845,0.215459018 10.4918033,0.480795498 L10.4918033,2.97219035 L9.58775956,2.97219035 L9.58775956,0.480795498 C9.58727836,0.215459018 9.37226522,0.000481119009 9.10688525,0 L8.93202186,0 C8.66684058,0.000958916482 8.45210661,0.215657689 8.45114754,0.480795498 L8.45114754,2.97219035 L7.54797814,2.97219035 L7.54797814,0.480795498 C7.54749694,0.215459018 7.3324838,0.000481119009 7.06710383,0 L6.89224044,0 C6.62705916,0.000958916482 6.41232519,0.215657689 6.41136612,0.480795498 L6.41136612,2.97219035 L5.50819672,2.97219035 L5.50819672,0.480795498 C5.50723765,0.215657689 5.29250368,0.000958916482 5.0273224,0 L4.85245902,0 C4.58707904,0.000481119009 4.3720659,0.215459018 4.3715847,0.480795498 L4.3715847,3.04649511 C3.74536582,3.23157663 3.2652403,3.7362754 3.11169399,4.37086816 L0.480874317,4.37086816 C0.215494339,4.37134928 0.000481197881,4.58632718 0,4.85166366 L0,5.02649839 C0.000959073681,5.2916362 0.215693042,5.50633497 0.480874317,5.50729389 L3.06010929,5.50729389 L3.06010929,6.41031525 L0.480874317,6.41031525 C0.215494339,6.41079637 0.000481197881,6.62577427 0,6.89111075 L0,7.06594547 C0.000959073681,7.33108328 0.215693042,7.54578205 0.480874317,7.54674097 L3.06010929,7.54674097 L3.06010929,8.45238485 L0.480874317,8.45238485 C0.215693042,8.45334377 0.000959073681,8.66804254 1.2424791e-15,8.93318035 L1.2424791e-15,9.10801508 C0.000481197881,9.37335156 0.215494339,9.58832946 0.480874317,9.58881058 L3.06010929,9.58881058 L3.06010929,10.4927061 L0.480874317,10.4927061 C0.215494339,10.4931872 0.000481197881,10.7081651 0,10.9735016 L0,11.1483363 C0.000959073681,11.4134741 0.215693042,11.6281729 0.480874317,11.6291318 L3.11169399,11.6291318 C3.26551481,12.2633895 3.74559222,12.7677046 4.3715847,12.9526307 L4.3715847,15.5192045 C4.37254377,15.7843423 4.58727774,15.9990411 4.85245902,16 L5.0273224,16 C5.29250368,15.9990411 5.50723765,15.7843423 5.50819672,15.5192045 L5.50819672,13.0278096 L6.41136612,13.0278096 L6.41136612,15.5192045 C6.41232519,15.7843423 6.62705916,15.9990411 6.89224044,16 L7.06710383,16 C7.3322851,15.9990411 7.54701907,15.7843423 7.54797814,15.5192045 L7.54797814,13.0278096 L8.45114754,13.0278096 L8.45114754,15.5192045 C8.45210661,15.7843423 8.66684058,15.9990411 8.93202186,16 L9.10688525,16 C9.37206652,15.9990411 9.58680049,15.7843423 9.58775956,15.5192045 L9.58775956,13.0278096 L10.4918033,13.0278096 L10.4918033,15.5192045 C10.4927624,15.7843423 10.7074963,15.9990411 10.9726776,16 L11.147541,16 C11.4127223,15.9990411 11.6274562,15.7843423 11.6284153,15.5192045 L11.6284153,12.9500082 C12.2539732,12.7646582 12.7336056,12.2604607 12.8874317,11.6265093 L15.5191257,11.6265093 C15.784307,11.6255504 15.9990409,11.4108516 16,11.1457138 L16,10.9708791 C15.9990409,10.7057413 15.784307,10.4910425 15.5191257,10.4900836 L12.9398907,10.4900836 L12.9398907,9.58881058 L15.5191257,9.58881058 C15.784307,9.58785166 15.9990409,9.37315289 16,9.10801508 L16,8.93318035 C15.9990409,8.66804254 15.784307,8.45334377 15.5191257,8.45238485 L12.9398907,8.45238485 L12.9398907,7.54674097 L15.5191257,7.54674097 C15.784307,7.54578205 15.9990409,7.33108328 16,7.06594547 L16,6.89111075 C15.9990409,6.62597294 15.784307,6.41127417 15.5191257,6.41031525 L12.9398907,6.41031525 L12.9398907,5.50729389 L15.5191257,5.50729389 Z" id="Shape"></path>
            </g>
        </g>
    </g>
</svg>