<?xml version="1.0" encoding="UTF-8"?>
<svg width="35px" height="35px" viewBox="0 0 35 35" version="1.1" xmlns="http://www.w3.org/2000/svg" xmlns:xlink="http://www.w3.org/1999/xlink">
    <!-- Generator: Sketch 51.2 (57519) - http://www.bohemiancoding.com/sketch -->
    <title>Shape</title>
    <desc>Created with Sketch.</desc>
    <defs></defs>
    <g id="Page-1" stroke="none" stroke-width="1" fill="none" fill-rule="evenodd">
        <g id="我要組電腦" transform="translate(-596.000000, -1007.000000)" fill="#6C757D" fill-rule="nonzero">
            <path d="M598.608695,1007 C597.167952,1007 596,1008.13964 596,1009.54545 L596,1039.45455 C596,1040.86036 597.167952,1042 598.608695,1042 L628.391305,1042 C629.832048,1042 631,1040.86036 631,1039.45455 L631,1009.54545 C631,1008.13964 629.832048,1007 628.391305,1007 L598.608695,1007 Z M610.5,1014 C611.880712,1014 613,1015.11929 613,1016.5 C613,1017.88071 611.880712,1019 610.5,1019 C609.119288,1019 608,1017.88071 608,1016.5 C608,1015.11929 609.119288,1014 610.5,1014 Z M610,1019 L610,1028 L601,1028 L601,1019 L610,1019 Z M601,1014.5 C601,1013.11929 602.119288,1012 603.5,1012 C604.880712,1012 606,1013.11929 606,1014.5 C606,1015.88071 604.880712,1017 603.5,1017 C602.119288,1017 601,1015.88071 601,1014.5 Z M617,1037 L601,1037 L601,1035 L617,1035 L617,1037 Z M617,1035 L601,1035 L601,1033 L617,1033 L617,1035 Z M614.5,1019 C613.119288,1019 612,1017.88071 612,1016.5 C612,1015.11929 613.119288,1014 614.5,1014 C615.880712,1014 617,1015.11929 617,1016.5 C617,1017.88071 615.880712,1019 614.5,1019 Z M619,1012 L621,1012 L621,1028 L619,1028 L619,1012 Z M629,1038 L622,1038 L622,1033 L629,1033 L629,1038 Z M626,1028 L624,1028 L624,1012 L626,1012 L626,1028 Z" id="Shape"></path>
        </g>
    </g>
</svg>