<?xml version="1.0" encoding="UTF-8"?>
<svg width="15px" height="15px" viewBox="0 0 15 15" version="1.1" xmlns="http://www.w3.org/2000/svg" xmlns:xlink="http://www.w3.org/1999/xlink">
    <!-- Generator: Sketch 51.2 (57519) - http://www.bohemiancoding.com/sketch -->
    <title>Shape</title>
    <desc>Created with Sketch.</desc>
    <defs></defs>
    <g id="Page-1" stroke="none" stroke-width="1" fill="none" fill-rule="evenodd">
        <g id="我要組電腦" transform="translate(-702.000000, -348.000000)" fill="#FBFBFB" fill-rule="nonzero">
            <path d="M703.118012,348 C702.500551,348 702,348.488417 702,349.090909 L702,361.909091 C702,362.511583 702.500551,363 703.118012,363 L715.881988,363 C716.499449,363 717,362.511583 717,361.909091 L717,349.090909 C717,348.488417 716.499449,348 715.881988,348 L703.118012,348 Z M708,351 C708.552285,351 709,351.447715 709,352 C709,352.552285 708.552285,353 708,353 C707.447715,353 707,352.552285 707,352 C707,351.447715 707.447715,351 708,351 Z M708,353 L708,357 L704,357 L704,353 L708,353 Z M704,351 C704,350.447715 704.447715,350 705,350 C705.552285,350 706,350.447715 706,351 C706,351.552285 705.552285,352 705,352 C704.447715,352 704,351.552285 704,351 Z M711,361 L704,361 L704,360 L711,360 L711,361 Z M711,360 L704,360 L704,359 L711,359 L711,360 Z M710,353 C709.447715,353 709,352.552285 709,352 C709,351.447715 709.447715,351 710,351 C710.552285,351 711,351.447715 711,352 C711,352.552285 710.552285,353 710,353 Z M712,350 L713,350 L713,357 L712,357 L712,350 Z M716,361 L713,361 L713,359 L716,359 L716,361 Z M715,357 L714,357 L714,350 L715,350 L715,357 Z" id="Shape"></path>
        </g>
    </g>
</svg>