<?xml version="1.0" encoding="UTF-8"?>
<svg width="44px" height="44px" viewBox="0 0 44 44" version="1.1" xmlns="http://www.w3.org/2000/svg" xmlns:xlink="http://www.w3.org/1999/xlink">
    <!-- Generator: Sketch 51.2 (57519) - http://www.bohemiancoding.com/sketch -->
    <title>li04</title>
    <desc>Created with Sketch.</desc>
    <defs></defs>
    <g id="Page-1" stroke="none" stroke-width="1" fill="none" fill-rule="evenodd">
        <g id="我要組電腦" transform="translate(-665.000000, -1004.000000)" fill="#6C757D" fill-rule="nonzero">
            <g id="li04" transform="translate(665.000000, 1004.000000)">
                <path d="M2,12 L2,32 L5.76963351,32 L5.76963351,28.2105262 L6.60732984,28.2105262 L6.60732984,32 L7.86387436,32 L7.86387436,28.2105262 L8.70157069,28.2105262 L8.70157069,32 L11.0052356,32 L11.0052356,28.2105262 L11.8429319,28.2105262 L11.8429319,32 L13.0994764,32 L13.0994764,28.2105262 L13.9371728,28.2105262 L13.9371728,32 L14.9842932,32 L14.9842932,28.2105262 L15.8219895,28.2105262 L15.8219895,32 L17.9162304,32 L17.9162304,28.2105262 L18.7539267,28.2105262 L18.7539267,32 L20.2198953,32 L20.2198953,28.2105262 L21.0575916,28.2105262 L21.0575916,32 L31.3193718,32 L31.3193718,28.2105262 L32.157068,28.2105262 L32.157068,32 L33.2041884,32 L33.2041884,28.2105262 L34.0418849,28.2105262 L34.0418849,32 L35.5078533,32 L35.5078533,28.2105262 L36.3455498,28.2105262 L36.3455498,32 L37.6020942,32 L37.6020942,28.2105262 L38.4397907,28.2105262 L38.4397907,32 L42,32 L42,12 L2,12 Z M11.0909091,22.9090909 L5.63636364,22.9090909 L5.63636364,17.4545454 L11.0909091,17.4545454 L11.0909091,22.9090909 Z M20.1818182,22.9090909 L14.7272727,22.9090909 L14.7272727,17.4545454 L20.1818182,17.4545454 L20.1818182,22.9090909 Z M29.2727273,22.9090909 L23.8181818,22.9090909 L23.8181818,17.4545454 L29.2727273,17.4545454 L29.2727273,22.9090909 Z M38.3636364,22.9090909 L32.9090909,22.9090909 L32.9090909,17.4545454 L38.3636364,17.4545454 L38.3636364,22.9090909 Z" id="Shape" transform="translate(22.000000, 22.000000) rotate(-45.000000) translate(-22.000000, -22.000000) "></path>
            </g>
        </g>
    </g>
</svg>