<?xml version="1.0" encoding="UTF-8"?>
<svg width="20px" height="19px" viewBox="0 0 20 19" version="1.1" xmlns="http://www.w3.org/2000/svg" xmlns:xlink="http://www.w3.org/1999/xlink">
    <!-- Generator: Sketch 51.2 (57519) - http://www.bohemiancoding.com/sketch -->
    <title>Group 5</title>
    <desc>Created with Sketch.</desc>
    <defs></defs>
    <g id="Page-1" stroke="none" stroke-width="1" fill="none" fill-rule="evenodd">
        <g id="我要組電腦" transform="translate(-861.000000, -347.000000)" fill="#FBFBFB" fill-rule="nonzero">
            <g id="Group-5" transform="translate(861.000000, 346.000000)">
                <path d="M1,6 L1,15 L2.69633508,15 L2.69633508,13.2947368 L3.07329843,13.2947368 L3.07329843,15 L3.63874346,15 L3.63874346,13.2947368 L4.01570681,13.2947368 L4.01570681,15 L5.05235602,15 L5.05235602,13.2947368 L5.42931937,13.2947368 L5.42931937,15 L5.9947644,15 L5.9947644,13.2947368 L6.37172775,13.2947368 L6.37172775,15 L6.84293194,15 L6.84293194,13.2947368 L7.21989529,13.2947368 L7.21989529,15 L8.16230366,15 L8.16230366,13.2947368 L8.53926702,13.2947368 L8.53926702,15 L9.19895288,15 L9.19895288,13.2947368 L9.57591623,13.2947368 L9.57591623,15 L14.1937173,15 L14.1937173,13.2947368 L14.5706806,13.2947368 L14.5706806,15 L15.0418848,15 L15.0418848,13.2947368 L15.4188482,13.2947368 L15.4188482,15 L16.078534,15 L16.078534,13.2947368 L16.4554974,13.2947368 L16.4554974,15 L17.0209424,15 L17.0209424,13.2947368 L17.3979058,13.2947368 L17.3979058,15 L19,15 L19,6 L1,6 Z M5.09090909,10.9090909 L2.63636364,10.9090909 L2.63636364,8.45454545 L5.09090909,8.45454545 L5.09090909,10.9090909 Z M9.18181818,10.9090909 L6.72727273,10.9090909 L6.72727273,8.45454545 L9.18181818,8.45454545 L9.18181818,10.9090909 Z M13.2727273,10.9090909 L10.8181818,10.9090909 L10.8181818,8.45454545 L13.2727273,8.45454545 L13.2727273,10.9090909 Z M17.3636364,10.9090909 L14.9090909,10.9090909 L14.9090909,8.45454545 L17.3636364,8.45454545 L17.3636364,10.9090909 Z" id="Shape" transform="translate(10.000000, 10.500000) rotate(-45.000000) translate(-10.000000, -10.500000) "></path>
            </g>
        </g>
    </g>
</svg>