<?xml version="1.0" encoding="UTF-8"?>
<svg width="21px" height="15px" viewBox="0 0 21 15" version="1.1" xmlns="http://www.w3.org/2000/svg" xmlns:xlink="http://www.w3.org/1999/xlink">
    <!-- Generator: Sketch 51.2 (57519) - http://www.bohemiancoding.com/sketch -->
    <title>Group 6</title>
    <desc>Created with Sketch.</desc>
    <defs></defs>
    <g id="Page-1" stroke="none" stroke-width="1" fill="none" fill-rule="evenodd">
        <g id="我要組電腦" transform="translate(-1028.000000, -349.000000)" fill="#FBFBFB" fill-rule="nonzero">
            <g id="Group-6" transform="translate(1028.000000, 349.000000)">
                <g id="Group">
                    <polygon id="Shape" points="1.41511019 2.15614362 1.41511019 14.9373649 3.22229535 14.9373649 3.22229535 0.315647765 0.368845103 0.315647765 0.368845103 2.15614362"></polygon>
                    <path d="M3.7929854,0.315647765 L3.7929854,14.9373649 L13.1222299,14.9373649 L13.1222299,12.6878699 L20.9136869,12.6878699 L20.9136869,0.315647765 L3.7929854,0.315647765 Z M15.1726133,6.75738326 C15.0194631,6.75772815 14.8672216,6.73391665 14.721529,6.68683092 C14.5143654,6.62170069 14.3247256,6.51052324 14.1669003,6.36167666 C13.4922699,6.12704015 12.7429628,6.35492244 12.3143788,6.92507289 C12.3820415,6.92507289 12.4497041,6.9189379 12.5194172,6.9189379 C14.2099583,6.9189379 15.5796144,7.983358 15.5796144,9.29624505 C15.5796144,10.2420554 14.8701818,11.0580086 13.8367885,11.4434902 C13.6601981,11.5244902 13.4683247,11.5670167 13.2739583,11.5682349 C12.4961873,11.5531305 11.8777085,10.9124814 11.8919999,10.1367382 C11.8916541,9.98399041 11.9155283,9.83214894 11.9627381,9.68683917 C12.0280399,9.48022004 12.1395103,9.29107854 12.288749,9.13366792 C12.5240038,8.46081034 12.2955211,7.71347225 11.7238684,7.28601457 C11.7238684,7.35349942 11.7300196,7.42098427 11.7300196,7.49051411 C11.7300196,9.17661282 10.662795,10.5436922 9.34644886,10.5436922 C8.39814653,10.5436922 7.58004355,9.83510134 7.19354628,8.80544615 C7.11209183,8.62940082 7.06944157,8.43797898 7.06847289,8.24409492 C7.08361709,7.46836781 7.7259542,6.85151418 8.50374128,6.86576802 C8.65685227,6.86592691 8.80901572,6.8897262 8.95482563,6.93632036 C9.16198914,7.0014506 9.35162898,7.11262804 9.50945434,7.26147463 C10.1840847,7.49611113 10.9333918,7.26822885 11.3619757,6.6980784 C11.2943131,6.6980784 11.2266504,6.70421338 11.1569374,6.70421338 C9.46639629,6.70421338 8.09571498,5.63979328 8.09571498,4.32690624 C8.09571498,3.38109586 8.80617283,2.5651427 9.83854088,2.17966107 C9.94179931,2.13215792 10.0506414,2.09780474 10.1625015,2.0774113 C10.2416443,2.0629853 10.3219427,2.05579797 10.4023963,2.05593885 C11.180009,2.07104049 11.7981944,2.71186108 11.7833295,3.48743563 C11.7835017,3.64009088 11.7599857,3.79185321 11.7136165,3.93733461 C11.6483147,4.14395374 11.5368443,4.33309524 11.3876055,4.49050587 C11.1523508,5.16336344 11.3808335,5.91070153 11.9524862,6.33815921 C11.9524862,6.27067436 11.946335,6.20318951 11.946335,6.13365967 C11.946335,4.44756096 13.0135596,3.08150404 14.3299057,3.08150404 C15.2771829,3.08150404 16.096311,3.78907245 16.4828083,4.81975013 C16.5644628,4.99568813 16.6067896,5.18722864 16.6068565,5.38110136 C16.5889291,6.15441025 15.9480451,6.76802382 15.1726133,6.75431577 L15.1726133,6.75738326 Z" id="Shape"></path>
                </g>
            </g>
        </g>
    </g>
</svg>