<?xml version="1.0" encoding="UTF-8"?>
<svg width="44px" height="31px" viewBox="0 0 44 31" version="1.1" xmlns="http://www.w3.org/2000/svg" xmlns:xlink="http://www.w3.org/1999/xlink">
    <!-- Generator: Sketch 51.2 (57519) - http://www.bohemiancoding.com/sketch -->
    <title>li05</title>
    <desc>Created with Sketch.</desc>
    <defs></defs>
    <g id="Page-1" stroke="none" stroke-width="1" fill="none" fill-rule="evenodd">
        <g id="我要組電腦" transform="translate(-737.000000, -1011.000000)" fill="#6C757D" fill-rule="nonzero">
            <g id="li05" transform="translate(737.000000, 1011.000000)">
                <polygon id="Shape" points="2.19999999 3.90209788 2.19999999 31 6 31 6 0 0 0 0 3.90209788"></polygon>
                <path d="M7,0 L7,31 L27.1616766,31 L27.1616766,26.2307691 L44,26.2307691 L44,0 L7,0 Z M31.5928143,13.6573426 C31.2618373,13.6580738 30.9328242,13.6075902 30.6179641,13.5077622 C30.1702574,13.3696774 29.7604218,13.1339663 29.4193414,12.8183916 C27.9613798,12.3209307 26.3420324,12.8040717 25.4158082,14.0128671 C25.5620359,14.0128671 25.7082633,13.9998601 25.8589221,13.9998601 C29.5123951,13.9998601 32.4723951,16.2565734 32.4723951,19.0400699 C32.4723951,21.0453146 30.9392216,22.7752447 28.705928,23.5925174 C28.3242939,23.7642482 27.9096312,23.8544101 27.4895808,23.8569929 C25.8087194,23.8249695 24.4721085,22.4667075 24.5029941,20.822028 C24.5022467,20.4981822 24.5538419,20.1762579 24.6558682,19.8681818 C24.7969937,19.4301215 25.0378953,19.0291162 25.360419,18.6953846 C25.8688344,17.2688363 25.3750544,15.6843794 24.1396406,14.7781118 C24.1396406,14.9211888 24.1529341,15.0642657 24.1529341,15.2116783 C24.1529341,18.7864335 21.8465269,21.684825 19.0017365,21.684825 C16.9523353,21.684825 15.1843113,20.1825174 14.3490419,17.9995104 C14.1730085,17.6262707 14.0808359,17.2204308 14.0787425,16.8093706 C14.111471,15.1647251 15.4996427,13.8569128 17.1805389,13.8871328 C17.5114311,13.8874697 17.8402755,13.9379274 18.1553892,14.0367132 C18.6030957,14.1747981 19.0129314,14.4105091 19.3540119,14.7260839 C20.8119734,15.2235447 22.4313208,14.7404037 23.3575448,13.5316084 C23.2113173,13.5316084 23.0650897,13.5446153 22.9144311,13.5446153 C19.2609581,13.5446153 16.2987425,11.2879021 16.2987425,8.50440558 C16.2987425,6.49916081 17.8341317,4.76923075 20.0652096,3.95195803 C20.2883641,3.85124499 20.5235856,3.77841164 20.7653294,3.73517481 C20.936367,3.70458976 21.109902,3.68935166 21.2837724,3.68965034 C22.9642917,3.72166784 24.3002685,5.08029338 24.2681436,6.72461537 C24.2685157,7.04826496 24.2176947,7.37002144 24.117485,7.67846151 C23.9763595,8.11652176 23.7354579,8.51752708 23.412934,8.85125872 C22.9045189,10.2778069 23.3982988,11.8622639 24.6337126,12.7685314 C24.6337126,12.6254545 24.6204191,12.4823776 24.6204191,12.334965 C24.6204191,8.76020975 26.9268263,5.863986 29.7716166,5.863986 C31.8188024,5.863986 33.5890418,7.36412586 34.4243113,9.54930068 C34.600777,9.92231282 34.6922505,10.3284044 34.6923951,10.7394405 C34.6536517,12.378959 33.2686204,13.679902 31.5928143,13.6508391 L31.5928143,13.6573426 Z" id="Shape"></path>
            </g>
        </g>
    </g>
</svg>