<?xml version="1.0" encoding="UTF-8"?>
<svg width="29px" height="35px" viewBox="0 0 29 35" version="1.1" xmlns="http://www.w3.org/2000/svg" xmlns:xlink="http://www.w3.org/1999/xlink">
    <!-- Generator: Sketch 51.2 (57519) - http://www.bohemiancoding.com/sketch -->
    <title>li06</title>
    <desc>Created with Sketch.</desc>
    <defs></defs>
    <g id="Page-1" stroke="none" stroke-width="1" fill="none" fill-rule="evenodd">
        <g id="我要組電腦" transform="translate(-831.000000, -1009.000000)" fill="#6C757D" fill-rule="nonzero">
            <g id="li06" transform="translate(831.000000, 1009.000000)">
                <circle id="Oval" cx="14.5" cy="13.5" r="2.5"></circle>
                <path d="M24.4035947,0 L4.59640522,0 C2.06090541,0.00743462522 0.00728745976,2.10252401 0,4.68922653 L0,30.3107735 C0.00728745976,32.8974761 2.06090541,34.9925655 4.59640522,35 L24.4035947,35 C26.9390945,34.9925655 28.9927126,32.8974761 29,30.3107735 L29,4.68922653 C28.9927126,2.10252401 26.9390945,0.00743462522 24.4035947,2.19836427e-14 Z M12.193268,23.1734807 C7.92313754,22.221847 4.84477256,18.4143368 4.74135033,13.956493 C4.63792809,9.49864925 7.53627603,5.54682216 11.7574937,4.3901518 C15.9787113,3.23348143 20.4278284,5.17200437 22.5276441,9.08280951 C24.6274599,12.9936147 23.8332888,17.8622518 20.6051634,20.8685083 C20.5937908,20.8356354 20.5843137,20.8027625 20.5710457,20.7718232 C19.5967973,18.1207183 16.9697385,16.6723757 14.7255555,17.5348067 C12.6747059,18.3198895 11.6322222,20.7466851 12.193268,23.1734807 Z M22.6503268,31.325967 C21.9889799,31.3262476 21.3534476,31.064127 20.8781045,30.5950277 C20.6750455,30.3961905 20.5059264,30.1641842 20.3777124,29.9085635 L14.9397385,22.4309393 C14.9113072,22.4019338 14.8847712,22.3709945 14.8582353,22.3381216 C14.8220937,22.2898962 14.7897696,22.2388143 14.7615686,22.1853592 C14.6581179,21.9983211 14.6039178,21.7871355 14.6042483,21.5723757 C14.605508,21.0644619 14.9058378,20.6070784 15.3657692,20.4126271 C15.8257006,20.2181758 16.3551187,20.3247558 16.7081699,20.682873 C16.7403921,20.7176796 16.7707189,20.7524862 16.8010457,20.7911603 L23.7781046,26.3814917 C24.1091946,26.5449474 24.4020079,26.7790485 24.6367319,27.0679558 C25.2649527,27.8480355 25.3959447,28.9277434 24.973107,29.8405414 C24.5502691,30.7533394 23.6494164,31.335563 22.6598039,31.3356354 L22.6503268,31.325967 Z" id="Shape"></path>
            </g>
        </g>
    </g>
</svg>