<?xml version="1.0" encoding="UTF-8"?>
<svg width="29px" height="31px" viewBox="0 0 29 31" version="1.1" xmlns="http://www.w3.org/2000/svg" xmlns:xlink="http://www.w3.org/1999/xlink">
    <!-- Generator: Sketch 51.2 (57519) - http://www.bohemiancoding.com/sketch -->
    <title>li07</title>
    <desc>Created with Sketch.</desc>
    <defs></defs>
    <g id="Page-1" stroke="none" stroke-width="1" fill="none" fill-rule="evenodd">
        <g id="我要組電腦" transform="translate(-894.000000, -1013.000000)" fill="#6C757D" fill-rule="nonzero">
            <g id="li07" transform="translate(894.000000, 1013.000000)">
                <rect id="Rectangle-path" x="11" y="0" width="5" height="17" rx="1.20722895"></rect>
                <path d="M20.0691554,5.38083267 L20.0691554,6.59722405 C20.0678275,6.91202263 20.2266722,7.20598668 20.4909783,7.37786545 C24.5591304,10.0299147 26.3924258,15.0376716 24.9953723,19.6818892 C23.5983189,24.3261069 19.304281,27.498584 14.4449512,27.4766434 C9.58562131,27.4547027 5.32053068,24.2435797 3.96565334,19.5869368 C2.61077597,14.9302938 4.48941212,9.93929674 8.5814492,7.32409206 C8.7932887,7.18669122 8.92067627,6.95132143 8.91965084,6.69920807 L8.91965084,5.31222523 C8.92487767,4.83705265 8.6694626,4.39701508 8.253808,4.16508918 C7.83815342,3.93316325 7.32871394,3.94642918 6.92574778,4.19967216 C2.612011,6.83521197 -0.0128358546,11.524056 4.72058985e-05,16.5712624 C0.0186297134,24.3591338 6.33482404,30.8119418 14.145052,30.9955132 C20.6868897,31.157376 26.5260865,26.9252423 28.3950004,20.667434 C30.2639143,14.4096257 27.6989733,7.67835223 22.1355302,4.24046577 C21.7199306,3.9786809 21.1944443,3.96349748 20.7643604,4.20084713 C20.3342766,4.43819679 20.0678466,4.89041381 20.0691554,5.38083267 Z" id="Shape"></path>
            </g>
        </g>
    </g>
</svg>