<?xml version="1.0" encoding="UTF-8"?>
<svg width="14px" height="15px" viewBox="0 0 14 15" version="1.1" xmlns="http://www.w3.org/2000/svg" xmlns:xlink="http://www.w3.org/1999/xlink">
    <!-- Generator: Sketch 51.2 (57519) - http://www.bohemiancoding.com/sketch -->
    <title>Group 10</title>
    <desc>Created with Sketch.</desc>
    <defs></defs>
    <g id="Page-1" stroke="none" stroke-width="1" fill="none" fill-rule="evenodd">
        <g id="我要組電腦" transform="translate(-1340.000000, -349.000000)" fill="#FBFBFB" fill-rule="nonzero">
            <g id="Group-10" transform="translate(1340.000000, 349.000000)">
                <g id="Group-2">
                    <rect id="Rectangle-path" x="5.55699588" y="0.425141408" width="2.4144579" height="8.1672734" rx="1.20722895"></rect>
                    <path d="M9.60223441,2.98567325 L9.60223441,3.54841753 C9.6016153,3.69405413 9.67567509,3.83005196 9.79890519,3.90956896 C11.695641,5.1364977 12.5503969,7.45325746 11.8990345,9.60183147 C11.2476721,11.7504055 9.24561926,13.218102 6.98000462,13.2079515 C4.71438997,13.197801 2.7258335,11.7122256 2.09413529,9.5579032 C1.46243707,7.40358078 2.33833266,5.09457474 4.24620462,3.88469155 C4.3449727,3.82112522 4.4043659,3.7122351 4.4038878,3.59559883 L4.4038878,2.9539331 C4.40632476,2.734102 4.28724,2.53052556 4.09344514,2.4232287 C3.89965029,2.31593183 3.66212915,2.3220691 3.47425015,2.43922797 C1.46301289,3.65851889 0.239203914,5.82773862 0.245210514,8.16274903 C0.253874425,11.7656849 3.19873778,14.7509747 6.84017958,14.8359011 C9.89024696,14.9107844 12.6127149,12.9528545 13.4840776,10.0577782 C14.3554403,7.16270192 13.1595618,4.04858443 10.5656613,2.45810049 C10.3718921,2.33698985 10.1268893,2.32996548 9.9263669,2.43977155 C9.72584455,2.54957763 9.60162419,2.7587887 9.60223441,2.98567325 Z" id="Shape"></path>
                </g>
            </g>
        </g>
    </g>
</svg>