<?xml version="1.0" encoding="UTF-8"?>
<svg width="42px" height="75px" viewBox="0 0 42 75" version="1.1" xmlns="http://www.w3.org/2000/svg" xmlns:xlink="http://www.w3.org/1999/xlink">
    <!-- Generator: Sketch 51.2 (57519) - http://www.bohemiancoding.com/sketch -->
    <title>next-互动</title>
    <desc>Created with Sketch.</desc>
    <defs></defs>
    <g id="Page-1" stroke="none" stroke-width="1" fill="none" fill-rule="evenodd">
        <g id="我要組電腦" transform="translate(-1787.000000, -946.000000)" fill="#E9E9E9" fill-rule="nonzero">
            <g id="next-互动" transform="translate(1756.000000, 935.000000)">
                <rect id="Rectangle-path" opacity="0" x="0" y="0" width="96" height="96"></rect>
                <path d="M71.6714424,45.0618082 L38.6443488,12.3010742 C36.8824651,10.5553921 34.0437085,10.5673693 32.2997727,12.3310173 C30.5558368,14.0916709 30.5678021,16.9362644 32.3296858,18.6819465 L62.1919695,48.3046448 L32.4493383,78.3465464 C30.7054025,80.1072 30.7173678,82.9517935 32.4792515,84.6974756 C33.3527151,85.5658252 34.4953968,86 35.6380786,86 C36.7927257,86 37.9473728,85.5568423 38.8238276,84.6705268 L71.5517898,51.6103619 C71.5996508,51.5624529 71.6146074,51.4935838 71.6624684,51.4426806 C71.6744337,51.4307033 71.6893903,51.427709 71.7013555,51.4157318 C73.4423,49.6520838 73.4333261,46.8074903 71.6714424,45.0618082 Z" id="Shape"></path>
            </g>
        </g>
    </g>
</svg>