<?xml version="1.0" encoding="UTF-8"?>
<svg width="103px" height="103px" viewBox="0 0 103 103" version="1.1" xmlns="http://www.w3.org/2000/svg" xmlns:xlink="http://www.w3.org/1999/xlink">
    <!-- Generator: Sketch 50.2 (55047) - http://www.bohemiancoding.com/sketch -->
    <title>Artboard 2</title>
    <desc>Created with Sketch.</desc>
    <defs></defs>
    <g id="Artboard-2" stroke="none" stroke-width="1" fill="none" fill-rule="evenodd">
        <g id="planet" fill-rule="nonzero">
            <path d="M82.823467,82.823467 C69.5470355,96.1603743 49.1212479,99.7646895 32,91.8347556 L91.8347556,32 C99.7646895,49.1214482 96.1603743,69.5470355 82.823467,82.823467 Z" id="Shape" fill="#FF7816"></path>
            <path d="M82,82.8553706 C68.9386798,96.159986 48.843841,99.7555742 32,91.8448406 L61.4325431,62 L82,82.8553706 Z" id="Shape" fill="#FF7816"></path>
            <path d="M95.4725201,28.6455012 C89.0776033,39.9476691 78.3725924,53.1833647 65.7620556,65.741329 C53.2112844,78.3590931 40.0628574,88.8240633 28.7671633,95.2226451 C26.4203683,96.5581746 23.4055934,98.2849943 20.3814552,99.5128842 C13.928765,102.132117 6.80072386,103.507513 2.69084434,99.3952778 C-1.51466011,95.1873632 -0.297434521,87.989457 2.96576599,80.4985316 C4.9440066,75.9597246 7.80936759,71.0894271 10.5386623,66.9373256 L38.7480147,38.7118059 L66.9573671,10.4862863 C70.1986536,8.35342567 73.9867951,6.14083197 77.5428469,4.36677036 C86.0554573,0.120982443 94.6537317,-2.07367131 99.4170482,2.69237512 C103.899466,7.17756169 102.524858,16.1475362 95.4725201,28.6455012 Z" id="Shape" fill="#FFD400"></path>
            <path d="M66,65.9064393 C53.4038168,78.4667461 40.2078154,88.8840622 28.8712505,95.253507 C26.5159642,96.5829549 23.490281,98.3019113 20.4552006,99.5242097 C13.979163,102.131515 6.82533067,103.500648 2.70058052,99.4071389 C-1.52014055,95.2183857 -0.298510717,88.0532565 2.97649691,80.5964424 C4.96189531,76.0783036 7.83762393,71.2301839 10.5767939,67.0969897 L38.8882152,39 L66,65.9064393 Z" id="Shape" fill="#FDBF00"></path>
            <path d="M82.7801349,19.1841989 C65.2613993,1.60526702 36.7029345,1.60526702 19.1841989,19.1841989 C1.60526702,36.7029345 1.60526702,65.2613993 19.1841989,82.7801349 L21.4040641,85 L23.3239474,83.9200656 C33.8833058,78.1606156 46.0023695,68.7411879 57.3416805,57.3416805 C68.7411879,46.0023695 78.1606156,33.8833058 83.9200656,23.3239474 L85,21.4040641 L82.7801349,19.1841989 Z" id="Shape" fill="#FF9F00"></path>
            <path d="M57,57.2642731 C45.7361524,68.6956843 33.6977415,78.1414741 23.208656,83.9170432 L21.3015495,85 L19.0964577,82.7739221 C1.63451411,65.2061568 1.63451411,36.5677653 19.0964577,19 L57,57.2642731 Z" id="Shape" fill="#FF9F00"></path>
            <path d="M49.3863195,25.5804079 C45.961103,22.139864 40.0120427,22.139864 36.6469178,25.5804079 C34.2430568,27.9344643 33.4618671,31.3146478 34.3634401,34.3326687 C34.6638977,35.8416792 35.4450874,37.2297676 36.5868263,38.3766156 C37.7884563,39.5234636 39.1707615,40.308149 40.6730494,40.6703115 C43.6776253,41.5153574 47.0427503,40.730672 49.3863195,38.3766156 C52.8712268,34.8153509 52.8712268,29.0813122 49.3863195,25.5804079 Z" id="Shape" fill="#FDBF00"></path>
            <rect id="Rectangle-path" fill="#FF9F00" x="24" y="48" width="6" height="6"></rect>
            <rect id="Rectangle-path" fill="#FDBF00" x="60" y="24" width="6" height="6"></rect>
            <path d="M36.1142857,37.828381 C35.0285714,36.7426667 34.2857143,35.4285714 34,34 L40,40 C38.5712381,39.6569524 37.2567619,38.9140952 36.1142857,37.828381 Z" id="Shape" fill="#FF9F00"></path>
        </g>
    </g>
</svg>