<?xml version="1.0" encoding="UTF-8"?>
<svg width="163px" height="163px" viewBox="0 0 163 163" version="1.1" xmlns="http://www.w3.org/2000/svg" xmlns:xlink="http://www.w3.org/1999/xlink">
    <!-- Generator: Sketch 51.2 (57519) - http://www.bohemiancoding.com/sketch -->
    <title>Group 13</title>
    <desc>Created with Sketch.</desc>
    <defs>
        <polygon id="path-1" points="0.417514286 0.0635441176 29.4960857 0.0635441176 29.4960857 29 0.417514286 29"></polygon>
    </defs>
    <g id="Page-1" stroke="none" stroke-width="1" fill="none" fill-rule="evenodd">
        <g id="首頁" transform="translate(-1138.000000, -840.000000)">
            <g id="Group-13" transform="translate(1148.000000, 850.000000)">
                <circle id="Oval-7" stroke-opacity="0.3" stroke="#FFFFFF" stroke-width="10" cx="71.5" cy="71.5" r="76.5"></circle>
                <g id="Group-7" transform="translate(26.000000, 41.000000)">
                    <path d="M87.8176719,54 L4.18146519,54 C1.8819182,54 0,52.1306604 0,49.8456264 L0,4.1535165 C0,1.86933956 1.8819182,0 4.18146519,0 L87.8176719,0 C90.1180818,0 92,1.86933956 92,4.1535165 L92,49.8456264 C92,52.1306604 90.1180818,54 87.8176719,54" id="Fill-1" fill="#CCE1F4"></path>
                    <path d="M77.3277829,38 C72.5062443,38 68.1050981,40.3378727 65.5896632,44.1621273 C63.4937557,43.1001754 61.1876521,42.2504385 58.4628859,42.2504385 C51.1267773,42.2504385 45.0483862,47.7750438 44,55 L87.8081851,55 C89.9040926,55 91.5813375,53.5118642 92,51.3870835 C91.16181,43.9499123 84.8740877,38 77.3277829,38" id="Fill-3" fill="#A6C9E1"></path>
                    <path d="M78.7005994,50 L12.3002569,50 C12.3002569,45.4 8.56501284,41.6369912 4,41.6369912 L4,12.3638717 C8.56501284,12.3638717 12.3002569,8.6 12.3002569,4 L78.7005994,4 C78.7005994,8.6 82.4349872,12.3638717 87,12.3638717 L87,41.6369912 C82.4349872,41.6369912 78.7005994,45.4 78.7005994,50" id="Fill-5" fill="#EBF1F7"></path>
                    <path d="M76.8116815,38 C72.0289894,38 67.6633026,40.3837953 65.1681342,44.2831694 C63.0891132,43.2003577 60.8015894,42.3339294 58.0987763,42.3339294 C52.2770026,42.3339294 47.2866657,45.8005365 45,51 L78.8907026,51 C78.8907026,46.2333035 82.4249525,42.550313 87,42.3339294 C84.2971869,39.7328565 80.7620789,38 76.8116815,38" id="Fill-7" fill="#CCE1F4"></path>
                    <path d="M45.5,8 C54.6130455,8 62,16.5063964 62,27 C62,37.4936036 54.6130455,46 45.5,46 C36.3869545,46 29,37.4936036 29,27 C29,16.5063964 36.3869545,8 45.5,8" id="Fill-9" fill="#CCE1F4"></path>
                    <path d="M21.0004127,23 C23.2090168,23 25,24.7909832 25,26.9995873 C25,29.2090168 23.2090168,31 21.0004127,31 C18.7909832,31 17,29.2090168 17,26.9995873 C17,24.7909832 18.7909832,23 21.0004127,23" id="Fill-11" fill="#CCE1F4"></path>
                    <path d="M71.0004127,23 C73.2090168,23 75,24.7909832 75,26.9995873 C75,29.2090168 73.2090168,31 71.0004127,31 C68.7909832,31 67,29.2090168 67,26.9995873 C67,24.7909832 68.7909832,23 71.0004127,23" id="Fill-13" fill="#CCE1F4"></path>
                    <path d="M48.6247808,25.41681 L44.3743423,25.41681 C43.0992985,25.41681 42.2495615,24.5837059 42.2495615,23.3336199 C42.2495615,22.0835339 43.1001754,21.2504299 44.3743423,21.2504299 L50.7495615,21.2504299 C52.0246054,21.2504299 52.8743423,20.4164661 52.8743423,19.1663801 C52.8743423,17.9162941 52.0246054,17.0840498 50.7495615,17.0840498 L48.6247808,17.0840498 C48.6247808,15.8339638 47.7741669,15 46.5,15 C45.2249562,15 44.3752192,15.8339638 44.3752192,17.0840498 C40.7623027,17.0840498 38,19.7922828 38,23.3336199 C38,26.874957 40.7623027,29.5840498 44.3752192,29.5840498 L48.6247808,29.5840498 C49.8998246,29.5840498 50.7495615,30.4171539 50.7495615,31.6672398 C50.7495615,32.9173258 49.8998246,33.7504299 48.6247808,33.7504299 L42.2495615,33.7504299 C40.9745177,33.7504299 40.1247808,34.5835339 40.1247808,35.8336199 C40.1247808,37.0837059 40.9753946,37.91681 42.2495615,37.91681 L44.3752192,37.91681 C44.3752192,39.1668959 45.2249562,40 46.5,40 C47.7750438,40 48.6247808,39.1668959 48.6247808,37.91681 C52.2368204,37.91681 55,35.2085769 55,31.6672398 C55,28.125043 52.2368204,25.41681 48.6247808,25.41681" id="Fill-15" fill="#7198C1"></path>
                    <path d="M61.4304159,0 L87.8454851,0 C90.1305969,0 92,1.86933956 92,4.1535165 L92,49.8464835 C92,52.1306604 90.1305969,54 87.8454851,54 L29,54 L61.4304159,0 Z" id="Fill-17" fill-opacity="0.35" fill="#FEFEFE"></path>
                    <path d="M77.5004274,38 C85.5084451,38 92,44.4915549 92,52.4995726 C92,60.5084451 85.5084451,67 77.5004274,67 C69.4924097,67 63,60.5084451 63,52.4995726 C63,44.4915549 69.4924097,38 77.5004274,38" id="Fill-19" fill="#E08D9E"></path>
                    <path d="M77.5004274,62.8567765 C71.7004274,62.8567765 67.1433456,58.299829 67.1433456,52.5 C67.1433456,46.700171 71.7004274,42.1432235 77.5004274,42.1432235 C83.3004274,42.1432235 87.8575092,46.700171 87.8575092,52.5 C87.8575092,58.299829 83.3004274,62.8567765 77.5004274,62.8567765 M77.5004274,38 C69.4214591,38 63,44.4221246 63,52.5 C63,60.5778754 69.4214591,67 77.5004274,67 C85.5785409,67 92,60.5778754 92,52.5 C92,44.4221246 85.5785409,38 77.5004274,38" id="Fill-21" fill="#CF7C8A"></path>
                    <path d="M68.4942038,53.6589758 C68.4942038,47.9316263 73.1909023,43.4316263 79.1685987,43.4316263 C81.7305945,43.4316263 84.0785032,44.2504221 86,45.8863253 C83.8652972,43.4316263 81.0900955,42 77.6743949,42 C71.6966985,42 67,46.5 67,52.2273495 C67,55.5 68.4942038,58.1589758 70.8429936,60 C69.3479087,58.3632527 68.4942038,56.1136747 68.4942038,53.6589758" id="Fill-23" fill="#C0697B"></path>
                    <path d="M83.8777934,59 C83.6821019,59 83.4872156,59 83.2923294,58.778058 C82.9025569,58.3332569 82.9025569,57.6665138 83.2923294,57.2226298 C84.4632575,55.8891436 85.0487216,53.8889144 85.0487216,52.1106271 C85.0487216,51.443884 85.4384941,51 86.0247634,51 C86.6102275,51 87,51.443884 87,52.1106271 C87,54.5556575 86.2196497,56.9997707 84.85303,58.778058 C84.4632575,59 84.0726797,59 83.8777934,59" id="Fill-25" fill="#F0B4C2"></path>
                    <path d="M77,59 C75.7998349,59 75,58.1335718 75,56.8334824 L75,48.1665176 C75,46.8664282 75.7998349,46 77,46 C78.2001651,46 79,46.8664282 79,48.1665176 L79,56.8334824 C79,58.1335718 78.2001651,59 77,59" id="Fill-27" fill="#C0697B"></path>
                    <path d="M58.5,41 C66.5082537,41 73,47.4915549 73,55.4995726 C73,63.5084451 66.5082537,70 58.5,70 C50.4917463,70 44,63.5084451 44,55.4995726 C44,47.4915549 50.4917463,41 58.5,41" id="Fill-29" fill="#ECB047"></path>
                    <path d="M58.5,65.8575092 C52.699829,65.8575092 48.1426129,61.3004274 48.1426129,55.5004274 C48.1426129,49.7004274 52.699829,45.1433456 58.5,45.1433456 C64.300171,45.1433456 68.8573871,49.7004274 68.8573871,55.5004274 C68.8573871,61.3004274 64.300171,65.8575092 58.5,65.8575092 M58.5,41 C50.4207935,41 44,47.4214591 44,55.5004274 C44,63.5785409 50.4207935,70 58.5,70 C66.5792065,70 73,63.5785409 73,55.5004274 C73,47.4214591 66.5792065,41 58.5,41" id="Fill-31" fill="#F5C55E"></path>
                    <path d="M49.4941346,56.6592732 C49.4941346,50.9321923 54.1906153,46.4324033 60.1680345,46.4324033 C62.7299114,46.4324033 65.0777113,47.2503165 67,48.886143 C64.8645152,46.4324033 62.0894422,45 58.6738999,45 C52.6964807,45 48,49.5006331 48,55.227714 C48,58.500211 49.4941346,61.1590621 51.8428154,63 C50.3477999,61.3633294 49.4941346,59.113857 49.4941346,56.6592732" id="Fill-33" fill="#E79527"></path>
                    <path d="M64.8777934,63 C64.6829072,63 64.4880209,63 64.2923294,62.7780834 C63.9025569,62.3333333 63.9025569,61.6666667 64.2923294,61.2228336 C65.4632575,59.8885832 66.0487216,57.8895002 66.0487216,56.1114168 C66.0487216,55.4447501 66.4384941,55 67.0247634,55 C67.6102275,55 68,55.4447501 68,56.1114168 C68,58.5561669 67.2196497,61 65.85303,62.7780834 C65.4632575,63 65.0726797,63 64.8777934,63" id="Fill-35" fill="#F5C55E"></path>
                    <path d="M58,63 C56.7998349,63 56,62.1335718 56,60.8334824 L56,52.1665176 C56,50.8664282 56.7998349,50 58,50 C59.2001651,50 60,50.8664282 60,52.1665176 L60,60.8334824 C60,62.1335718 59.2001651,63 58,63" id="Fill-37" fill="#E79527"></path>
                    <path d="M72.4995726,51 C80.5075903,51 87,57.4915549 87,65.4995726 C87,73.5084451 80.5075903,80 72.4995726,80 C64.4915549,80 58,73.5084451 58,65.4995726 C58,57.4915549 64.4915549,51 72.4995726,51" id="Fill-39" fill="#98C55F"></path>
                    <g id="Group-43" transform="translate(58.000000, 51.000000)">
                        <mask id="mask-2" fill="white">
                            <use xlink:href="#path-1"></use>
                        </mask>
                        <g id="Clip-42"></g>
                        <path d="M14.9563714,24.8662206 C9.14065714,24.8662206 4.57122857,20.3191912 4.57122857,14.5319853 C4.57122857,8.74477941 9.14065714,4.19775 14.9563714,4.19775 C20.7720857,4.19775 25.3415143,8.74477941 25.3415143,14.5319853 C25.3415143,20.3191912 20.7720857,24.8662206 14.9563714,24.8662206 M14.9563714,0.0635441176 C6.85637143,0.0635441176 0.417514286,6.47169118 0.417514286,14.5319853 C0.417514286,22.5922794 6.85637143,29.0004265 14.9563714,29.0004265 C23.0572286,29.0004265 29.4960857,22.5922794 29.4960857,14.5319853 C29.4960857,6.47169118 23.0572286,0.0635441176 14.9563714,0.0635441176" id="Fill-41" fill="#7FBE37" mask="url(#mask-2)"></path>
                    </g>
                    <path d="M63.4942038,66.6589758 C63.4942038,60.9316263 68.1909023,56.4316263 74.1685987,56.4316263 C76.7305945,56.4316263 79.0785032,57.2504221 81,58.8863253 C78.8652972,56.4316263 76.0900955,55 72.6735139,55 C66.6966985,55 62,59.5 62,65.2273495 C62,68.5 63.4942038,71.1589758 65.8421126,73 C64.3479087,71.3632527 63.4942038,69.1136747 63.4942038,66.6589758" id="Fill-44" fill="#73A338"></path>
                    <path d="M78.8782648,73 C78.6826028,73 78.487746,73 78.2928891,72.778058 C77.9023703,72.3332569 77.9023703,71.6665138 78.2928891,71.2226298 C79.4636405,69.8891436 80.0490162,67.8889144 80.0490162,66.1106271 C80.0490162,65.443884 80.4387298,65 81.0249107,65 C81.6094812,65 82,65.443884 82,66.1106271 C82,68.5556575 81.2197675,70.9997707 79.8533541,72.778058 C79.4636405,73 79.0731216,73 78.8782648,73" id="Fill-46" fill="#B1D36A"></path>
                    <path d="M73,72 C71.7998349,72 71,71.1335718 71,69.8334824 L71,61.1665176 C71,59.8664282 71.7998349,59 73,59 C74.2001651,59 75,59.8673224 75,61.1665176 L75,69.8334824 C75,71.1335718 74.2001651,72 73,72" id="Fill-48" fill="#73A338"></path>
                </g>
            </g>
        </g>
    </g>
</svg>