<?xml version="1.0" encoding="UTF-8"?>
<svg width="164px" height="229px" viewBox="0 0 164 229" version="1.1" xmlns="http://www.w3.org/2000/svg" xmlns:xlink="http://www.w3.org/1999/xlink">
    <!-- Generator: Sketch 50.2 (55047) - http://www.bohemiancoding.com/sketch -->
    <title>Artboard</title>
    <desc>Created with Sketch.</desc>
    <defs></defs>
    <g id="Artboard" stroke="none" stroke-width="1" fill="none" fill-rule="evenodd">
        <g id="robot" transform="translate(1.000000, -5.000000)">
            <circle id="Oval-3" fill="#FFFFFF" cx="134" cy="28" r="21"></circle>
            <g id="robot-(1)" transform="translate(0.000000, 16.000000)" fill-rule="nonzero">
                <rect id="Rectangle-path" fill="#324A5E" x="79" y="8" width="5" height="34"></rect>
                <circle id="Oval" fill="#FF7058" cx="81.5" cy="8.5" r="8.5"></circle>
                <g id="Group" transform="translate(61.000000, 152.000000)" fill="#324A5E">
                    <polygon id="Shape" points="41.37 24.3130435 37.8 0.104347826 23.52 0.104347826 32.55 27.2347826 25.62 60 41.79 51.4434783"></polygon>
                    <polygon id="Shape" points="4.2 0.104347826 0.84 27.2347826 0.21 51.4434783 16.38 60 9.66 27.2347826 18.48 0.104347826"></polygon>
                </g>
                <g id="Group" transform="translate(38.000000, 172.000000)" fill="#FFFFFF">
                    <path d="M86.6855422,43 C86.2662651,32.7219512 77.6710843,24.3317073 67.1891566,24.3317073 C56.7072289,24.3317073 48.1120482,32.5121951 47.6927711,43 L86.6855422,43 Z" id="Shape"></path>
                    <ellipse id="Oval" cx="59.4325301" cy="6.92195122" rx="6.49879518" ry="6.50243902"></ellipse>
                    <path d="M0.314457831,43 C0.73373494,32.7219512 9.32891566,24.3317073 19.8108434,24.3317073 C30.2927711,24.3317073 38.8879518,32.5121951 39.3072289,43 L0.314457831,43 Z" id="Shape"></path>
                    <ellipse id="Oval" cx="27.5674699" cy="6.92195122" rx="6.49879518" ry="6.50243902"></ellipse>
                </g>
                <polygon id="Shape" fill="#324A5E" points="134.762295 100 128 115.975976 140.909836 133.003003 140.704918 133.003003 142.754098 170 150.95082 170 153 133.003003"></polygon>
                <g id="Group" transform="translate(127.000000, 88.000000)" fill="#E6E9EE">
                    <path d="M0.211764706,0.208602151 L0.211764706,29.2043011 C7.2,27.9526882 12.7058824,21.9032258 12.7058824,14.6021505 C12.7058824,7.50967742 7.41176471,1.46021505 0.211764706,0.208602151 Z" id="Shape"></path>
                    <ellipse id="Oval" cx="19.6941176" cy="45.2666667" rx="10.8" ry="10.6387097"></ellipse>
                    <path d="M30.7058824,96.5827957 C27.9529412,96.5827957 25.8352941,94.4967742 25.8352941,91.7849462 C25.8352941,88.4473118 23.0823529,85.944086 19.9058824,85.944086 C16.7294118,85.944086 13.9764706,88.655914 13.9764706,91.7849462 C13.9764706,94.4967742 11.8588235,96.5827957 9.10588235,96.5827957 C6.35294118,96.5827957 4.23529412,94.4967742 4.23529412,91.7849462 C4.23529412,83.2322581 11.4352941,76.1397849 20.1176471,76.1397849 C28.8,76.1397849 36,83.2322581 36,91.7849462 C35.5764706,94.288172 33.4588235,96.5827957 30.7058824,96.5827957 Z" id="Shape"></path>
                </g>
                <polygon id="Shape" fill="#324A5E" points="28.2377049 100 35 115.975976 22.0901639 133.003003 22.295082 133.003003 20.2459016 170 12.0491803 170 10 133.003003"></polygon>
                <g id="Group" transform="translate(0.000000, 88.000000)" fill="#E6E9EE">
                    <path d="M35.7882353,0.208602151 L35.7882353,29.2043011 C28.8,27.9526882 23.2941176,21.9032258 23.2941176,14.6021505 C23.2941176,7.50967742 28.5882353,1.46021505 35.7882353,0.208602151 Z" id="Shape"></path>
                    <ellipse id="Oval" cx="16.3058824" cy="45.2666667" rx="10.8" ry="10.6387097"></ellipse>
                    <path d="M5.29411765,96.5827957 C8.04705882,96.5827957 10.1647059,94.4967742 10.1647059,91.7849462 C10.1647059,88.4473118 12.9176471,85.944086 16.0941176,85.944086 C19.4823529,85.944086 22.0235294,88.655914 22.0235294,91.7849462 C22.0235294,94.4967742 24.1411765,96.5827957 26.8941176,96.5827957 C29.6470588,96.5827957 31.7647059,94.4967742 31.7647059,91.7849462 C31.7647059,83.2322581 24.5647059,76.1397849 15.8823529,76.1397849 C7.2,76.1397849 -2.84217094e-14,83.2322581 -2.84217094e-14,91.7849462 C0.423529412,94.288172 2.54117647,96.5827957 5.29411765,96.5827957 Z" id="Shape"></path>
                </g>
                <path d="M81,38 C55.6063348,38 35,58.7047452 35,84.2196837 L35,146.752197 C35,152.398946 39.5791855,157 45.199095,157 L116.800905,157 C122.420814,157 127,152.398946 127,146.752197 L127,84.2196837 C127,58.7047452 106.393665,38 81,38 Z" id="Shape" fill="#FFFFFF"></path>
                <path d="M101.908795,86 L61.8827362,86 C55.2117264,86 50,80.5263158 50,74 C50,67.2631579 55.4201954,62 61.8827362,62 L102.117264,62 C108.788274,62 114,67.4736842 114,74 C114,80.5263158 108.579805,86 101.908795,86 Z" id="Shape" fill="#324A5E"></path>
                <g id="Group" transform="translate(56.000000, 67.000000)" fill="#84DBFF">
                    <path d="M2.70833333,13.5692308 L2.5,13.5692308 C1.25,13.5692308 -2.84217094e-14,12.4923077 -2.84217094e-14,10.9846154 L-2.84217094e-14,2.8 C-2.84217094e-14,1.50769231 1.04166667,0.215384615 2.5,0.215384615 L2.70833333,0.215384615 C3.95833333,0.215384615 5.20833333,1.29230769 5.20833333,2.8 L5.20833333,10.9846154 C5.20833333,12.4923077 4.16666667,13.5692308 2.70833333,13.5692308 Z" id="Shape"></path>
                    <path d="M11.6666667,13.5692308 L11.4583333,13.5692308 C10.2083333,13.5692308 8.95833333,12.4923077 8.95833333,10.9846154 L8.95833333,2.8 C8.95833333,1.50769231 10,0.215384615 11.4583333,0.215384615 L11.6666667,0.215384615 C12.9166667,0.215384615 14.1666667,1.29230769 14.1666667,2.8 L14.1666667,10.9846154 C14.1666667,12.4923077 13.125,13.5692308 11.6666667,13.5692308 Z" id="Shape"></path>
                    <path d="M20.625,13.5692308 L20.4166667,13.5692308 C19.1666667,13.5692308 17.9166667,12.4923077 17.9166667,10.9846154 L17.9166667,2.8 C17.9166667,1.50769231 18.9583333,0.215384615 20.4166667,0.215384615 L20.625,0.215384615 C21.875,0.215384615 23.125,1.29230769 23.125,2.8 L23.125,10.9846154 C23.125,12.4923077 22.0833333,13.5692308 20.625,13.5692308 Z" id="Shape"></path>
                    <path d="M29.5833333,13.5692308 L29.375,13.5692308 C28.125,13.5692308 26.875,12.4923077 26.875,10.9846154 L26.875,2.8 C26.875,1.50769231 27.9166667,0.215384615 29.375,0.215384615 L29.5833333,0.215384615 C30.8333333,0.215384615 32.0833333,1.29230769 32.0833333,2.8 L32.0833333,10.9846154 C32.0833333,12.4923077 31.0416667,13.5692308 29.5833333,13.5692308 Z" id="Shape"></path>
                    <path d="M38.5416667,13.5692308 L38.3333333,13.5692308 C37.0833333,13.5692308 35.8333333,12.4923077 35.8333333,10.9846154 L35.8333333,2.8 C35.8333333,1.50769231 36.875,0.215384615 38.3333333,0.215384615 L38.5416667,0.215384615 C39.7916667,0.215384615 41.0416667,1.29230769 41.0416667,2.8 L41.0416667,10.9846154 C41.0416667,12.4923077 40,13.5692308 38.5416667,13.5692308 Z" id="Shape"></path>
                    <path d="M47.5,13.5692308 L47.2916667,13.5692308 C46.0416667,13.5692308 44.7916667,12.4923077 44.7916667,10.9846154 L44.7916667,2.8 C44.7916667,1.50769231 45.8333333,0.215384615 47.2916667,0.215384615 L47.5,0.215384615 C48.75,0.215384615 50,1.29230769 50,2.8 L50,10.9846154 C50,12.4923077 48.75,13.5692308 47.5,13.5692308 Z" id="Shape"></path>
                </g>
            </g>
            <path d="M134.132812,34.734375 C133.429684,34.7083332 132.830732,34.4544295 132.335938,33.9726562 C131.841143,33.490883 131.580729,32.898441 131.554688,32.1953125 L131.554688,18.6796875 C131.710938,17.1171797 132.570305,16.270834 134.132812,16.140625 C134.861983,16.140625 135.493487,16.381508 136.027344,16.8632812 C136.561201,17.3450545 136.828125,17.9505172 136.828125,18.6796875 L136.828125,32.1953125 C136.802083,32.9244828 136.528648,33.5299455 136.007812,34.0117188 C135.486977,34.493492 134.861983,34.734375 134.132812,34.734375 Z M137.414062,39.8125 C137.414062,40.5416703 137.101566,41.1666641 136.476562,41.6875 C135.851559,42.2083359 135.096359,42.46875 134.210938,42.46875 C133.325516,42.46875 132.570316,42.2083359 131.945312,41.6875 C131.320309,41.1666641 131.007812,40.5416703 131.007812,39.8125 C131.007812,39.0572879 131.320309,38.4192734 131.945312,37.8984375 C132.570316,37.3776016 133.325516,37.1171875 134.210938,37.1171875 C135.096359,37.1171875 135.851559,37.3776016 136.476562,37.8984375 C137.101566,38.4192734 137.414062,39.0572879 137.414062,39.8125 Z" id="!" fill="#84AACE"></path>
            <polygon id="Triangle" fill="#FFFFFF" transform="translate(118.000000, 43.500000) scale(1, -1) rotate(-51.000000) translate(-118.000000, -43.500000) " points="118 39 123 48 113 48"></polygon>
        </g>
    </g>
</svg>