<?xml version="1.0" encoding="UTF-8"?>
<svg width="28px" height="25px" viewBox="0 0 28 25" version="1.1" xmlns="http://www.w3.org/2000/svg" xmlns:xlink="http://www.w3.org/1999/xlink">
    <!-- Generator: Sketch 51.2 (57519) - http://www.bohemiancoding.com/sketch -->
    <title>Group 6</title>
    <desc>Created with Sketch.</desc>
    <defs></defs>
    <g id="Page-1" stroke="none" stroke-width="1" fill="none" fill-rule="evenodd">
        <g id="首頁01" transform="translate(-1633.000000, -71.000000)" fill="#FFFFFF" fill-rule="nonzero">
            <g id="Group-6" transform="translate(1633.000000, 71.000000)">
                <path d="M27.8823589,3.60961494 C27.7720797,3.46765317 27.6004309,3.38229478 27.4165963,3.37799808 L5.24605374,3.37799808 L4.66265,0.451519103 C4.66265,0.225692668 4.31212759,0.00102431755 4.07924626,0.00102431755 L0.574022147,0.00102431755 C0.422487728,-0.00814990551 0.273947355,0.044623095 0.164773932,0.146420857 C0.0556005103,0.248218619 -0.00412520133,0.389641431 0.000221761566,0.536059256 C-0.00139462119,0.688366558 0.0605245458,0.83490662 0.172051975,0.942718637 C0.283579405,1.05053065 0.43535086,1.11056235 0.593228855,1.10931097 L3.61228319,1.10931097 L6.41286122,14.8488229 C6.76218321,16.6496439 8.51359485,17.9999702 10.3742446,17.9999702 L23.7829273,17.9999702 C23.9408023,18.0015296 24.0926993,17.9417941 24.2044525,17.8341999 C24.3162057,17.7266057 24.3784319,17.5801867 24.3771348,17.4278766 C24.3814818,17.2814588 24.3217561,17.1400359 24.2125826,17.0382382 C24.1034092,16.9364404 23.9548688,16.8836674 23.8033344,16.8928416 L10.4966874,16.8928416 C9.56276124,16.8928416 8.63003551,16.4423469 8.16307244,15.6536915 L25.199422,13.4023756 C25.4497681,13.386051 25.6489077,13.1934393 25.6651846,12.9518808 L28,3.9443013 C28.0000114,3.82329291 27.9586629,3.70565738 27.8823589,3.60961494 Z M24.6160182,12.431901 L7.5796687,14.5708827 L5.47653423,4.43880328 L26.6039124,4.43880328 L24.6160182,12.431901 Z" id="Shape"></path>
                <path d="M10,20.1612903 C11.0154913,20.1612903 11.8387097,20.9845087 11.8387097,22 C11.8387097,23.0154913 11.0154913,23.8387097 10,23.8387097 C8.98450869,23.8387097 8.16129032,23.0154913 8.16129032,22 C8.16129032,20.9845087 8.98450869,20.1612903 10,20.1612903 Z M10,19 C8.34314575,19 7,20.3431458 7,22 C7,23.6568542 8.34314575,25 10,25 C11.6568542,25 13,23.6568542 13,22 C12.9978674,20.3440299 11.6559701,19.0021326 10,19 Z" id="Shape"></path>
                <path d="M21,20.1612903 C22.0154913,20.1612903 22.8387097,20.9845087 22.8387097,22 C22.8387097,23.0154913 22.0154913,23.8387097 21,23.8387097 C19.9845087,23.8387097 19.1612903,23.0154913 19.1612903,22 C19.1612903,20.9845087 19.9845087,20.1612903 21,20.1612903 Z M21,19 C19.3431458,19 18,20.3431458 18,22 C18,23.6568542 19.3431458,25 21,25 C22.6568542,25 24,23.6568542 24,22 C23.9978674,20.3440299 22.6559701,19.0021326 21,19 Z" id="Shape"></path>
            </g>
        </g>
    </g>
</svg>