<?xml version="1.0" encoding="UTF-8"?>
<svg width="85px" height="92px" viewBox="0 0 85 92" version="1.1" xmlns="http://www.w3.org/2000/svg" xmlns:xlink="http://www.w3.org/1999/xlink">
    <!-- Generator: Sketch 51.2 (57519) - http://www.bohemiancoding.com/sketch -->
    <title>149646</title>
    <desc>Created with Sketch.</desc>
    <defs></defs>
    <g id="Page-1" stroke="none" stroke-width="1" fill="none" fill-rule="evenodd">
        <g id="我要組電腦" transform="translate(-514.000000, -586.000000)" fill="#FC9F66" fill-rule="nonzero">
            <g id="149646" transform="translate(514.000000, 586.000000)">
                <path d="M84.4333333,0.4153003 C84.0733333,0.0991506728 83.5983333,-0.0447057714 83.1183333,0.0121677066 L31.4516667,6.72156535 C30.6216667,6.83029406 30,7.53786704 30,8.37925996 L30,18.4441928 L30,25.4898131 L30,67.9508826 C26.9566667,64.2791978 22.1216667,61.8905117 16.6666667,61.8905117 C7.47666667,61.8905117 0,68.6434008 0,76.9452558 C0,85.2471109 7.47666667,92 16.6666667,92 C25.8566667,92 33.3333333,85.2471109 33.3333333,76.9452558 C33.3333333,76.557178 33.3016667,76.1757911 33.2683333,75.796077 C33.29,75.6873483 33.3333333,75.5886561 33.3333333,75.4749092 L33.3333333,26.9601597 L81.6666667,20.6823314 L81.6666667,51.2217163 C78.6233333,47.5517043 73.7883333,45.1630182 68.3333333,45.1630182 C59.1433333,45.1630182 51.6666667,51.9159073 51.6666667,60.2177623 C51.6666667,68.5196174 59.1433333,75.2725065 68.3333333,75.2725065 C77.44,75.2725065 84.855,68.6383826 84.9883333,60.440238 C84.9883333,60.4184923 85,60.400092 85,60.3783463 L85,18.7787427 L85,11.7347952 L85,1.67153506 C85,1.18978325 84.7933333,0.731449927 84.4333333,0.4153003 Z" id="Shape"></path>
            </g>
        </g>
    </g>
</svg>