<?xml version="1.0" encoding="UTF-8"?>
<svg width="76px" height="76px" viewBox="0 0 76 76" version="1.1" xmlns="http://www.w3.org/2000/svg" xmlns:xlink="http://www.w3.org/1999/xlink">
    <!-- Generator: Sketch 51.2 (57519) - http://www.bohemiancoding.com/sketch -->
    <title>ios-book</title>
    <desc>Created with Sketch.</desc>
    <defs></defs>
    <g id="Page-1" stroke="none" stroke-width="1" fill="none" fill-rule="evenodd">
        <g id="我要組電腦" transform="translate(-919.000000, -595.000000)" fill="#FC9F66" fill-rule="nonzero">
            <g id="ios-book" transform="translate(906.000000, 582.000000)">
                <rect id="Rectangle-path" opacity="0" x="0" y="0" width="101" height="101"></rect>
                <path d="M32.8838958,13 C21.9588958,13 13,18.141875 13,28.6354167 L13,28.8333333 L13,30.6133958 L13,82.8645833 L13,84.6458333 L14.2300521,84.6458333 L16.3990208,84.6458333 L17.3820729,84.6458333 C19.9272813,79.4338958 26.1375104,76.3333333 32.8838958,76.3333333 C40.8448958,76.3333333 47.5053854,81.7815833 49.0370625,89 L49.4166667,89 L49.4166667,19.2038958 C46.0045833,14.9694687 39.7149896,13 32.8838958,13 Z M69.1333229,13 C62.3384479,13 55.9297083,14.9496771 52.5833333,19.1375938 L52.5833333,89 L52.9389896,89 C54.4706667,81.7815833 61.1515417,76.3333333 69.1131354,76.3333333 C75.859125,76.3333333 81.2155417,78.6422292 84.6355417,84.6458333 L85.6185938,84.6458333 L87.7875625,84.6458333 L89,84.6458333 L89,81.28125 L89,29.625 L89,28.8333333 L89,28.6354167 C89,18.141875 80.0587187,13 69.1333229,13 Z" id="Shape"></path>
            </g>
        </g>
    </g>
</svg>